<?xml version="1.0" encoding="utf-8"?>
<!-- Generator: Adobe Illustrator 13.0.0, SVG Export Plug-In . SVG Version: 6.00 Build 14948)  -->
<!DOCTYPE svg PUBLIC "-//W3C//DTD SVG 1.1//EN" "http://www.w3.org/Graphics/SVG/1.1/DTD/svg11.dtd">
<svg version="1.1" id="Layer_1" xmlns="http://www.w3.org/2000/svg" xmlns:xlink="http://www.w3.org/1999/xlink" x="0px" y="0px"
	 width="800px" height="200px" viewBox="0 0 800 200" enable-background="new 0 0 800 200" xml:space="preserve">
<pattern  x="-1" y="399" width="69" height="69" patternUnits="userSpaceOnUse" id="Polka_Dot_Pattern" viewBox="2.1 -70.9 69 69" overflow="visible">
	<g>
		<polygon fill="none" points="71.1,-1.9 2.1,-1.9 2.1,-70.9 71.1,-70.9 		"/>
		<polygon fill="#F7BC60" points="71.1,-1.9 2.1,-1.9 2.1,-70.9 71.1,-70.9 		"/>
		<g>
			<path fill="#FFFFFF" d="M61.8-71.7c0,0.1,0,0.1,0,0.2c-0.1,0.1-0.1,0.1-0.2,0.1c-0.1,0.1-0.1,0.3-0.1,0.4c-0.2,0.1,0,0.2,0,0.3
				c0,0,0,0.1,0,0.2c0,0.1,0,0.3,0.1,0.4c0.1,0.2,0.3,0.4,0.4,0.5c0.2,0.1,0.4,0.6,0.6,0.6c0.2,0,0.4-0.1,0.5-0.1
				c0.2,0,0.4,0,0.6-0.1c0.2-0.1,0.1-0.3,0.3-0.5c0.1-0.1,0.3,0,0.4-0.1c0.2-0.1,0.3-0.3,0.4-0.5c0-0.1,0-0.1,0-0.2
				c0-0.1,0.1-0.2,0.1-0.3c0-0.1-0.1-0.1-0.1-0.2c0-0.1,0-0.2,0-0.3c0-0.2,0-0.4-0.1-0.5c-0.4-0.7-1.2-0.9-2-0.8
				c-0.2,0-0.3,0.1-0.4,0.2c-0.2,0.1-0.1,0.2-0.3,0.2c-0.1,0-0.2,0.1-0.2,0.2C61.8-71.7,61.8-71.7,61.8-71.7
				C61.8-71.6,61.8-71.6,61.8-71.7"/>
			<path fill="#FFFFFF" d="M54.1-71.7c0,0.1,0,0.1,0,0.2c-0.1,0.1-0.1,0.1-0.2,0.1c-0.1,0.1-0.1,0.3-0.1,0.4c-0.2,0.1,0,0.2,0,0.3
				c0,0,0,0.1,0,0.2c0,0.1,0,0.3,0.1,0.4c0.1,0.2,0.3,0.4,0.4,0.5c0.2,0.1,0.4,0.6,0.6,0.6c0.2,0,0.4-0.1,0.5-0.1
				c0.2,0,0.4,0,0.6-0.1c0.2-0.1,0.1-0.3,0.3-0.5c0.1-0.1,0.3,0,0.4-0.1c0.2-0.1,0.3-0.3,0.4-0.5c0-0.1,0-0.1,0-0.2
				c0-0.1,0.1-0.2,0.1-0.3c0-0.1-0.1-0.1-0.1-0.2c0-0.1,0-0.2,0-0.3c0-0.2,0-0.4-0.1-0.5c-0.4-0.7-1.2-0.9-2-0.8
				c-0.2,0-0.3,0.1-0.4,0.2c-0.2,0.1-0.1,0.2-0.3,0.2c-0.1,0-0.2,0.1-0.2,0.2C54.1-71.7,54.1-71.7,54.1-71.7
				C54.1-71.6,54.1-71.6,54.1-71.7"/>
			<path fill="#FFFFFF" d="M46.4-71.7c0,0.1,0,0.1,0,0.2c-0.1,0.1-0.1,0.1-0.2,0.1c-0.1,0.1-0.1,0.3-0.1,0.4c-0.2,0.1,0,0.2,0,0.3
				c0,0,0,0.1,0,0.2c0,0.1,0,0.3,0.1,0.4c0.1,0.2,0.3,0.4,0.4,0.5c0.2,0.1,0.4,0.6,0.6,0.6c0.2,0,0.4-0.1,0.5-0.1
				c0.2,0,0.4,0,0.6-0.1c0.2-0.1,0.1-0.3,0.3-0.5c0.1-0.1,0.3,0,0.4-0.1c0.2-0.1,0.3-0.3,0.4-0.5c0-0.1,0-0.1,0-0.2
				c0-0.1,0.1-0.2,0.1-0.3c0-0.1-0.1-0.1-0.1-0.2c0-0.1,0-0.2,0-0.3c0-0.2,0-0.4-0.1-0.5c-0.4-0.7-1.2-0.9-2-0.8
				c-0.2,0-0.3,0.1-0.4,0.2c-0.2,0.1-0.1,0.2-0.3,0.2c-0.1,0-0.2,0.1-0.2,0.2C46.4-71.7,46.4-71.7,46.4-71.7
				C46.4-71.6,46.4-71.6,46.4-71.7"/>
			<path fill="#FFFFFF" d="M38.8-71.7c0,0.1,0,0.1,0,0.2c-0.1,0.1-0.1,0.1-0.2,0.1c-0.1,0.1-0.1,0.3-0.1,0.4c-0.2,0.1,0,0.2,0,0.3
				c0,0,0,0.1,0,0.2c0,0.1,0,0.3,0.1,0.4c0.1,0.2,0.3,0.4,0.4,0.5c0.2,0.1,0.4,0.6,0.6,0.6c0.2,0,0.4-0.1,0.5-0.1
				c0.2,0,0.4,0,0.6-0.1c0.2-0.1,0.1-0.3,0.3-0.5c0.1-0.1,0.3,0,0.4-0.1c0.2-0.1,0.3-0.3,0.4-0.5c0-0.1,0-0.1,0-0.2
				c0-0.1,0.1-0.2,0.1-0.3c0-0.1-0.1-0.1-0.1-0.2c0-0.1,0-0.2,0-0.3c0-0.2,0-0.4-0.1-0.5c-0.4-0.7-1.2-0.9-2-0.8
				c-0.2,0-0.3,0.1-0.4,0.2c-0.2,0.1-0.1,0.2-0.3,0.2c-0.1,0-0.2,0.1-0.2,0.2C38.8-71.7,38.8-71.7,38.8-71.7
				C38.8-71.6,38.8-71.6,38.8-71.7"/>
			<path fill="#FFFFFF" d="M31.1-71.7c0,0.1,0,0.1,0,0.2c-0.1,0.1-0.1,0.1-0.2,0.1c-0.1,0.1-0.1,0.3-0.1,0.4c-0.2,0.1,0,0.2,0,0.3
				c0,0,0,0.1,0,0.2c0,0.1,0,0.3,0.1,0.4c0.1,0.2,0.3,0.4,0.4,0.5c0.2,0.1,0.4,0.6,0.6,0.6c0.2,0,0.4-0.1,0.5-0.1
				c0.2,0,0.4,0,0.6-0.1c0.2-0.1,0.1-0.3,0.3-0.5c0.1-0.1,0.3,0,0.4-0.1c0.2-0.1,0.3-0.3,0.4-0.5c0-0.1,0-0.1,0-0.2
				c0-0.1,0.1-0.2,0.1-0.3c0-0.1-0.1-0.1-0.1-0.2c0-0.1,0-0.2,0-0.3c0-0.2,0-0.4-0.1-0.5c-0.4-0.7-1.2-0.9-2-0.8
				c-0.2,0-0.3,0.1-0.4,0.2c-0.2,0.1-0.1,0.2-0.3,0.2c-0.1,0-0.2,0.1-0.2,0.2C31.1-71.7,31.1-71.7,31.1-71.7
				C31.1-71.6,31.1-71.6,31.1-71.7"/>
			<path fill="#FFFFFF" d="M23.4-71.7c0,0.1,0,0.1,0,0.2c-0.1,0.1-0.1,0.1-0.2,0.1c-0.1,0.1-0.1,0.3-0.1,0.4c-0.2,0.1,0,0.2,0,0.3
				c0,0,0,0.1,0,0.2c0,0.1,0,0.3,0.1,0.4c0.1,0.2,0.3,0.4,0.4,0.5c0.2,0.1,0.4,0.6,0.6,0.6c0.2,0,0.4-0.1,0.5-0.1
				c0.2,0,0.4,0,0.6-0.1c0.2-0.1,0.1-0.3,0.3-0.5c0.1-0.1,0.3,0,0.4-0.1c0.2-0.1,0.3-0.3,0.4-0.5c0-0.1,0-0.1,0-0.2
				c0-0.1,0.1-0.2,0.1-0.3c0-0.1-0.1-0.1-0.1-0.2c0-0.1,0-0.2,0-0.3c0-0.2,0-0.4-0.1-0.5c-0.4-0.7-1.2-0.9-2-0.8
				c-0.2,0-0.3,0.1-0.4,0.2c-0.2,0.1-0.1,0.2-0.3,0.2c-0.1,0-0.2,0.1-0.2,0.2C23.4-71.7,23.4-71.7,23.4-71.7
				C23.4-71.6,23.4-71.6,23.4-71.7"/>
			<path fill="#FFFFFF" d="M15.8-71.7c0,0.1,0,0.1,0,0.2c-0.1,0.1-0.1,0.1-0.2,0.1c-0.1,0.1-0.1,0.3-0.1,0.4c-0.2,0.1,0,0.2,0,0.3
				c0,0,0,0.1,0,0.2c0,0.1,0,0.3,0.1,0.4c0.1,0.2,0.3,0.4,0.4,0.5c0.2,0.1,0.4,0.6,0.6,0.6c0.2,0,0.4-0.1,0.5-0.1
				c0.2,0,0.4,0,0.6-0.1c0.2-0.1,0.1-0.3,0.3-0.5c0.1-0.1,0.3,0,0.4-0.1c0.2-0.1,0.3-0.3,0.4-0.5c0-0.1,0-0.1,0-0.2
				c0-0.1,0.1-0.2,0.1-0.3c0-0.1-0.1-0.1-0.1-0.2c0-0.1,0-0.2,0-0.3c0-0.2,0-0.4-0.1-0.5c-0.4-0.7-1.2-0.9-2-0.8
				c-0.2,0-0.3,0.1-0.4,0.2c-0.2,0.1-0.1,0.2-0.3,0.2c-0.1,0-0.2,0.1-0.2,0.2C15.8-71.7,15.8-71.7,15.8-71.7
				C15.8-71.6,15.8-71.6,15.8-71.7"/>
			<path fill="#FFFFFF" d="M8.1-71.7c0,0.1,0,0.1,0,0.2C8-71.4,8-71.4,7.9-71.3c-0.1,0.1-0.1,0.3-0.1,0.4c-0.2,0.1,0,0.2,0,0.3
				c0,0,0,0.1,0,0.2c0,0.1,0,0.3,0.1,0.4c0.1,0.2,0.3,0.4,0.4,0.5c0.2,0.1,0.4,0.6,0.6,0.6c0.2,0,0.4-0.1,0.5-0.1
				c0.2,0,0.4,0,0.6-0.1c0.2-0.1,0.1-0.3,0.3-0.5c0.1-0.1,0.3,0,0.4-0.1c0.2-0.1,0.3-0.3,0.4-0.5c0-0.1,0-0.1,0-0.2
				c0-0.1,0.1-0.2,0.1-0.3c0-0.1-0.1-0.1-0.1-0.2c0-0.1,0-0.2,0-0.3c0-0.2,0-0.4-0.1-0.5c-0.4-0.7-1.2-0.9-2-0.8
				c-0.2,0-0.3,0.1-0.4,0.2c-0.2,0.1-0.1,0.2-0.3,0.2c-0.1,0-0.2,0.1-0.2,0.2C8.1-71.7,8.1-71.7,8.1-71.7
				C8.1-71.6,8.1-71.6,8.1-71.7"/>
			<path fill="#FFFFFF" d="M0.4-71.7c0,0.1,0,0.1,0,0.2c-0.1,0.1-0.1,0.1-0.2,0.1c-0.1,0.1-0.1,0.3-0.1,0.4c-0.2,0.1,0,0.2,0,0.3
				c0,0,0,0.1,0,0.2c0,0.1,0,0.3,0.1,0.4c0.1,0.2,0.3,0.4,0.4,0.5C0.8-69.4,1-69,1.2-68.9c0.2,0,0.4-0.1,0.5-0.1
				c0.2,0,0.4,0,0.6-0.1c0.2-0.1,0.1-0.3,0.3-0.5c0.1-0.1,0.3,0,0.4-0.1c0.2-0.1,0.3-0.3,0.4-0.5c0-0.1,0-0.1,0-0.2
				c0-0.1,0.1-0.2,0.1-0.3c0-0.1-0.1-0.1-0.1-0.2c0-0.1,0-0.2,0-0.3c0-0.2,0-0.4-0.1-0.5c-0.4-0.7-1.2-0.9-2-0.8
				c-0.2,0-0.3,0.1-0.4,0.2c-0.2,0.1-0.1,0.2-0.3,0.2c-0.1,0-0.2,0.1-0.2,0.2C0.4-71.7,0.4-71.7,0.4-71.7
				C0.4-71.6,0.4-71.6,0.4-71.7"/>
		</g>
		<g>
			<path fill="#FFFFFF" d="M69.4-71.7c0,0.1,0,0.1,0,0.2c-0.1,0.1-0.1,0.1-0.2,0.1c-0.1,0.1-0.1,0.3-0.1,0.4c-0.2,0.1,0,0.2,0,0.3
				c0,0,0,0.1,0,0.2c0,0.1,0,0.3,0.1,0.4c0.1,0.2,0.3,0.4,0.4,0.5c0.2,0.1,0.4,0.6,0.6,0.6c0.2,0,0.4-0.1,0.5-0.1
				c0.2,0,0.4,0,0.6-0.1c0.2-0.1,0.1-0.3,0.3-0.5c0.1-0.1,0.3,0,0.4-0.1c0.2-0.1,0.3-0.3,0.4-0.5c0-0.1,0-0.1,0-0.2
				c0-0.1,0.1-0.2,0.1-0.3c0-0.1-0.1-0.1-0.1-0.2c0-0.1,0-0.2,0-0.3c0-0.2,0-0.4-0.1-0.5c-0.4-0.7-1.2-0.9-2-0.8
				c-0.2,0-0.3,0.1-0.4,0.2c-0.2,0.1-0.1,0.2-0.3,0.2c-0.1,0-0.2,0.1-0.2,0.2C69.4-71.7,69.4-71.7,69.4-71.7
				C69.4-71.6,69.4-71.6,69.4-71.7"/>
		</g>
		<path fill="#FFFFFF" d="M0.5-71.7c0,0.1,0,0.1,0,0.2c-0.1,0.1-0.1,0.1-0.2,0.1c-0.1,0.1-0.1,0.3-0.1,0.4c-0.2,0.1,0,0.2,0,0.3
			c0,0,0,0.1,0,0.2c0,0.1,0,0.3,0.1,0.4c0.1,0.2,0.3,0.4,0.4,0.5C0.9-69.4,1-69,1.3-68.9c0.2,0,0.4-0.1,0.5-0.1c0.2,0,0.4,0,0.6-0.1
			c0.2-0.1,0.1-0.3,0.3-0.5c0.1-0.1,0.3,0,0.4-0.1c0.2-0.1,0.3-0.3,0.4-0.5c0-0.1,0-0.1,0-0.2c0-0.1,0.1-0.2,0.1-0.3
			c0-0.1-0.1-0.1-0.1-0.2c0-0.1,0-0.2,0-0.3c0-0.2,0-0.4-0.1-0.5c-0.4-0.7-1.2-0.9-2-0.8c-0.2,0-0.3,0.1-0.4,0.2
			c-0.2,0.1-0.1,0.2-0.3,0.2c-0.1,0-0.2,0.1-0.2,0.2C0.5-71.7,0.5-71.7,0.5-71.7C0.5-71.6,0.5-71.6,0.5-71.7"/>
		<g>
			<g>
				<path fill="#FFFFFF" d="M69.4-64c0,0.1,0,0.1,0,0.2c-0.1,0.1-0.1,0.1-0.2,0.1c-0.1,0.1-0.1,0.3-0.1,0.4c-0.2,0.1,0,0.2,0,0.3
					c0,0,0,0.1,0,0.2c0,0.1,0,0.3,0.1,0.4c0.1,0.2,0.3,0.4,0.4,0.5c0.2,0.1,0.4,0.6,0.6,0.6c0.2,0,0.4-0.1,0.5-0.1
					c0.2,0,0.4,0,0.6-0.1c0.2-0.1,0.1-0.3,0.3-0.5c0.1-0.1,0.3,0,0.4-0.1c0.2-0.1,0.3-0.3,0.4-0.5c0-0.1,0-0.1,0-0.2
					c0-0.1,0.1-0.2,0.1-0.3c0-0.1-0.1-0.1-0.1-0.2c0-0.1,0-0.2,0-0.3c0-0.2,0-0.4-0.1-0.5c-0.4-0.7-1.2-0.9-2-0.8
					c-0.2,0-0.3,0.1-0.4,0.2c-0.2,0.1-0.1,0.2-0.3,0.2c-0.1,0-0.2,0.1-0.2,0.2C69.4-64,69.4-64.1,69.4-64C69.4-64,69.4-64,69.4-64"
					/>
				<path fill="#FFFFFF" d="M61.8-64c0,0.1,0,0.1,0,0.2c-0.1,0.1-0.1,0.1-0.2,0.1c-0.1,0.1-0.1,0.3-0.1,0.4c-0.2,0.1,0,0.2,0,0.3
					c0,0,0,0.1,0,0.2c0,0.1,0,0.3,0.1,0.4c0.1,0.2,0.3,0.4,0.4,0.5c0.2,0.1,0.4,0.6,0.6,0.6c0.2,0,0.4-0.1,0.5-0.1
					c0.2,0,0.4,0,0.6-0.1c0.2-0.1,0.1-0.3,0.3-0.5c0.1-0.1,0.3,0,0.4-0.1c0.2-0.1,0.3-0.3,0.4-0.5c0-0.1,0-0.1,0-0.2
					c0-0.1,0.1-0.2,0.1-0.3c0-0.1-0.1-0.1-0.1-0.2c0-0.1,0-0.2,0-0.3c0-0.2,0-0.4-0.1-0.5c-0.4-0.7-1.2-0.9-2-0.8
					c-0.2,0-0.3,0.1-0.4,0.2c-0.2,0.1-0.1,0.2-0.3,0.2c-0.1,0-0.2,0.1-0.2,0.2C61.8-64,61.8-64.1,61.8-64C61.8-64,61.8-64,61.8-64"
					/>
				<path fill="#FFFFFF" d="M54.1-64c0,0.1,0,0.1,0,0.2c-0.1,0.1-0.1,0.1-0.2,0.1c-0.1,0.1-0.1,0.3-0.1,0.4c-0.2,0.1,0,0.2,0,0.3
					c0,0,0,0.1,0,0.2c0,0.1,0,0.3,0.1,0.4c0.1,0.2,0.3,0.4,0.4,0.5c0.2,0.1,0.4,0.6,0.6,0.6c0.2,0,0.4-0.1,0.5-0.1
					c0.2,0,0.4,0,0.6-0.1c0.2-0.1,0.1-0.3,0.3-0.5c0.1-0.1,0.3,0,0.4-0.1c0.2-0.1,0.3-0.3,0.4-0.5c0-0.1,0-0.1,0-0.2
					c0-0.1,0.1-0.2,0.1-0.3c0-0.1-0.1-0.1-0.1-0.2c0-0.1,0-0.2,0-0.3c0-0.2,0-0.4-0.1-0.5c-0.4-0.7-1.2-0.9-2-0.8
					c-0.2,0-0.3,0.1-0.4,0.2c-0.2,0.1-0.1,0.2-0.3,0.2c-0.1,0-0.2,0.1-0.2,0.2C54.1-64,54.1-64.1,54.1-64C54.1-64,54.1-64,54.1-64"
					/>
				<path fill="#FFFFFF" d="M46.5-64c0,0.1,0,0.1,0,0.2c-0.1,0.1-0.1,0.1-0.2,0.1c-0.1,0.1-0.1,0.3-0.1,0.4c-0.2,0.1,0,0.2,0,0.3
					c0,0,0,0.1,0,0.2c0,0.1,0,0.3,0.1,0.4c0.1,0.2,0.3,0.4,0.4,0.5c0.2,0.1,0.4,0.6,0.6,0.6c0.2,0,0.4-0.1,0.5-0.1
					c0.2,0,0.4,0,0.6-0.1c0.2-0.1,0.1-0.3,0.3-0.5c0.1-0.1,0.3,0,0.4-0.1c0.2-0.1,0.3-0.3,0.4-0.5c0-0.1,0-0.1,0-0.2
					c0-0.1,0.1-0.2,0.1-0.3c0-0.1-0.1-0.1-0.1-0.2c0-0.1,0-0.2,0-0.3c0-0.2,0-0.4-0.1-0.5c-0.4-0.7-1.2-0.9-2-0.8
					c-0.2,0-0.3,0.1-0.4,0.2c-0.2,0.1-0.1,0.2-0.3,0.2c-0.1,0-0.2,0.1-0.2,0.2C46.5-64,46.5-64.1,46.5-64C46.5-64,46.5-64,46.5-64"
					/>
				<path fill="#FFFFFF" d="M38.8-64c0,0.1,0,0.1,0,0.2c-0.1,0.1-0.1,0.1-0.2,0.1c-0.1,0.1-0.1,0.3-0.1,0.4c-0.2,0.1,0,0.2,0,0.3
					c0,0,0,0.1,0,0.2c0,0.1,0,0.3,0.1,0.4c0.1,0.2,0.3,0.4,0.4,0.5c0.2,0.1,0.4,0.6,0.6,0.6c0.2,0,0.4-0.1,0.5-0.1
					c0.2,0,0.4,0,0.6-0.1c0.2-0.1,0.1-0.3,0.3-0.5c0.1-0.1,0.3,0,0.4-0.1c0.2-0.1,0.3-0.3,0.4-0.5c0-0.1,0-0.1,0-0.2
					c0-0.1,0.1-0.2,0.1-0.3c0-0.1-0.1-0.1-0.1-0.2c0-0.1,0-0.2,0-0.3c0-0.2,0-0.4-0.1-0.5c-0.4-0.7-1.2-0.9-2-0.8
					c-0.2,0-0.3,0.1-0.4,0.2c-0.2,0.1-0.1,0.2-0.3,0.2c-0.1,0-0.2,0.1-0.2,0.2C38.8-64,38.8-64.1,38.8-64C38.8-64,38.8-64,38.8-64"
					/>
				<path fill="#FFFFFF" d="M31.1-64c0,0.1,0,0.1,0,0.2c-0.1,0.1-0.1,0.1-0.2,0.1c-0.1,0.1-0.1,0.3-0.1,0.4c-0.2,0.1,0,0.2,0,0.3
					c0,0,0,0.1,0,0.2c0,0.1,0,0.3,0.1,0.4c0.1,0.2,0.3,0.4,0.4,0.5c0.2,0.1,0.4,0.6,0.6,0.6c0.2,0,0.4-0.1,0.5-0.1
					c0.2,0,0.4,0,0.6-0.1c0.2-0.1,0.1-0.3,0.3-0.5c0.1-0.1,0.3,0,0.4-0.1c0.2-0.1,0.3-0.3,0.4-0.5c0-0.1,0-0.1,0-0.2
					c0-0.1,0.1-0.2,0.1-0.3c0-0.1-0.1-0.1-0.1-0.2c0-0.1,0-0.2,0-0.3c0-0.2,0-0.4-0.1-0.5c-0.4-0.7-1.2-0.9-2-0.8
					c-0.2,0-0.3,0.1-0.4,0.2c-0.2,0.1-0.1,0.2-0.3,0.2c-0.1,0-0.2,0.1-0.2,0.2C31.1-64,31.1-64.1,31.1-64C31.1-64,31.1-64,31.1-64"
					/>
				<path fill="#FFFFFF" d="M23.5-64c0,0.1,0,0.1,0,0.2c-0.1,0.1-0.1,0.1-0.2,0.1c-0.1,0.1-0.1,0.3-0.1,0.4c-0.2,0.1,0,0.2,0,0.3
					c0,0,0,0.1,0,0.2c0,0.1,0,0.3,0.1,0.4c0.1,0.2,0.3,0.4,0.4,0.5c0.2,0.1,0.4,0.6,0.6,0.6c0.2,0,0.4-0.1,0.5-0.1
					c0.2,0,0.4,0,0.6-0.1c0.2-0.1,0.1-0.3,0.3-0.5c0.1-0.1,0.3,0,0.4-0.1c0.2-0.1,0.3-0.3,0.4-0.5c0-0.1,0-0.1,0-0.2
					c0-0.1,0.1-0.2,0.1-0.3c0-0.1-0.1-0.1-0.1-0.2c0-0.1,0-0.2,0-0.3c0-0.2,0-0.4-0.1-0.5c-0.4-0.7-1.2-0.9-2-0.8
					c-0.2,0-0.3,0.1-0.4,0.2c-0.2,0.1-0.1,0.2-0.3,0.2c-0.1,0-0.2,0.1-0.2,0.2C23.5-64,23.5-64.1,23.5-64C23.5-64,23.5-64,23.5-64"
					/>
				<path fill="#FFFFFF" d="M15.8-64c0,0.1,0,0.1,0,0.2c-0.1,0.1-0.1,0.1-0.2,0.1c-0.1,0.1-0.1,0.3-0.1,0.4c-0.2,0.1,0,0.2,0,0.3
					c0,0,0,0.1,0,0.2c0,0.1,0,0.3,0.1,0.4c0.1,0.2,0.3,0.4,0.4,0.5c0.2,0.1,0.4,0.6,0.6,0.6c0.2,0,0.4-0.1,0.5-0.1
					c0.2,0,0.4,0,0.6-0.1c0.2-0.1,0.1-0.3,0.3-0.5c0.1-0.1,0.3,0,0.4-0.1c0.2-0.1,0.3-0.3,0.4-0.5c0-0.1,0-0.1,0-0.2
					c0-0.1,0.1-0.2,0.1-0.3c0-0.1-0.1-0.1-0.1-0.2c0-0.1,0-0.2,0-0.3c0-0.2,0-0.4-0.1-0.5c-0.4-0.7-1.2-0.9-2-0.8
					c-0.2,0-0.3,0.1-0.4,0.2c-0.2,0.1-0.1,0.2-0.3,0.2c-0.1,0-0.2,0.1-0.2,0.2C15.8-64,15.8-64.1,15.8-64C15.8-64,15.8-64,15.8-64"
					/>
				<path fill="#FFFFFF" d="M8.2-64c0,0.1,0,0.1,0,0.2C8.1-63.7,8-63.7,8-63.7c-0.1,0.1-0.1,0.3-0.1,0.4c-0.2,0.1,0,0.2,0,0.3
					c0,0,0,0.1,0,0.2c0,0.1,0,0.3,0.1,0.4C8-62.2,8.2-62,8.3-61.9c0.2,0.1,0.4,0.6,0.6,0.6c0.2,0,0.4-0.1,0.5-0.1
					c0.2,0,0.4,0,0.6-0.1c0.2-0.1,0.1-0.3,0.3-0.5c0.1-0.1,0.3,0,0.4-0.1c0.2-0.1,0.3-0.3,0.4-0.5c0-0.1,0-0.1,0-0.2
					c0-0.1,0.1-0.2,0.1-0.3c0-0.1-0.1-0.1-0.1-0.2c0-0.1,0-0.2,0-0.3c0-0.2,0-0.4-0.1-0.5c-0.4-0.7-1.2-0.9-2-0.8
					c-0.2,0-0.3,0.1-0.4,0.2c-0.2,0.1-0.1,0.2-0.3,0.2c-0.1,0-0.2,0.1-0.2,0.2C8.2-64,8.2-64.1,8.2-64C8.1-64,8.1-64,8.2-64"/>
				<path fill="#FFFFFF" d="M0.5-64c0,0.1,0,0.1,0,0.2c-0.1,0.1-0.1,0.1-0.2,0.1c-0.1,0.1-0.1,0.3-0.1,0.4c-0.2,0.1,0,0.2,0,0.3
					c0,0,0,0.1,0,0.2c0,0.1,0,0.3,0.1,0.4c0.1,0.2,0.3,0.4,0.4,0.5c0.2,0.1,0.4,0.6,0.6,0.6c0.2,0,0.4-0.1,0.5-0.1
					c0.2,0,0.4,0,0.6-0.1c0.2-0.1,0.1-0.3,0.3-0.5C2.8-62,3-61.9,3.1-62c0.2-0.1,0.3-0.3,0.4-0.5c0-0.1,0-0.1,0-0.2
					c0-0.1,0.1-0.2,0.1-0.3c0-0.1-0.1-0.1-0.1-0.2c0-0.1,0-0.2,0-0.3c0-0.2,0-0.4-0.1-0.5c-0.4-0.7-1.2-0.9-2-0.8
					c-0.2,0-0.3,0.1-0.4,0.2c-0.2,0.1-0.1,0.2-0.3,0.2c-0.1,0-0.2,0.1-0.2,0.2C0.5-64,0.5-64.1,0.5-64C0.5-64,0.5-64,0.5-64"/>
			</g>
			<g>
				<path fill="#FFFFFF" d="M69.4-56.3c0,0.1,0,0.1,0,0.2c-0.1,0.1-0.1,0.1-0.2,0.1c-0.1,0.1-0.1,0.3-0.1,0.4c-0.2,0.1,0,0.2,0,0.3
					c0,0,0,0.1,0,0.2c0,0.1,0,0.3,0.1,0.4c0.1,0.2,0.3,0.4,0.4,0.5c0.2,0.1,0.4,0.6,0.6,0.6c0.2,0,0.4-0.1,0.5-0.1
					c0.2,0,0.4,0,0.6-0.1c0.2-0.1,0.1-0.3,0.3-0.5c0.1-0.1,0.3,0,0.4-0.1c0.2-0.1,0.3-0.3,0.4-0.5c0-0.1,0-0.1,0-0.2
					c0-0.1,0.1-0.2,0.1-0.3c0-0.1-0.1-0.1-0.1-0.2c0-0.1,0-0.2,0-0.3c0-0.2,0-0.4-0.1-0.5c-0.4-0.7-1.2-0.9-2-0.8
					c-0.2,0-0.3,0.1-0.4,0.2c-0.2,0.1-0.1,0.2-0.3,0.2c-0.1,0-0.2,0.1-0.2,0.2C69.4-56.4,69.4-56.4,69.4-56.3
					C69.4-56.3,69.4-56.3,69.4-56.3"/>
				<path fill="#FFFFFF" d="M61.8-56.3c0,0.1,0,0.1,0,0.2c-0.1,0.1-0.1,0.1-0.2,0.1c-0.1,0.1-0.1,0.3-0.1,0.4c-0.2,0.1,0,0.2,0,0.3
					c0,0,0,0.1,0,0.2c0,0.1,0,0.3,0.1,0.4c0.1,0.2,0.3,0.4,0.4,0.5c0.2,0.1,0.4,0.6,0.6,0.6c0.2,0,0.4-0.1,0.5-0.1
					c0.2,0,0.4,0,0.6-0.1c0.2-0.1,0.1-0.3,0.3-0.5c0.1-0.1,0.3,0,0.4-0.1c0.2-0.1,0.3-0.3,0.4-0.5c0-0.1,0-0.1,0-0.2
					c0-0.1,0.1-0.2,0.1-0.3c0-0.1-0.1-0.1-0.1-0.2c0-0.1,0-0.2,0-0.3c0-0.2,0-0.4-0.1-0.5c-0.4-0.7-1.2-0.9-2-0.8
					c-0.2,0-0.3,0.1-0.4,0.2c-0.2,0.1-0.1,0.2-0.3,0.2c-0.1,0-0.2,0.1-0.2,0.2C61.8-56.4,61.8-56.4,61.8-56.3
					C61.8-56.3,61.8-56.3,61.8-56.3"/>
				<path fill="#FFFFFF" d="M54.1-56.3c0,0.1,0,0.1,0,0.2C54-56.1,54-56.1,53.9-56c-0.1,0.1-0.1,0.3-0.1,0.4c-0.2,0.1,0,0.2,0,0.3
					c0,0,0,0.1,0,0.2c0,0.1,0,0.3,0.1,0.4c0.1,0.2,0.3,0.4,0.4,0.5c0.2,0.1,0.4,0.6,0.6,0.6c0.2,0,0.4-0.1,0.5-0.1
					c0.2,0,0.4,0,0.6-0.1c0.2-0.1,0.1-0.3,0.3-0.5c0.1-0.1,0.3,0,0.4-0.1c0.2-0.1,0.3-0.3,0.4-0.5c0-0.1,0-0.1,0-0.2
					c0-0.1,0.1-0.2,0.1-0.3c0-0.1-0.1-0.1-0.1-0.2c0-0.1,0-0.2,0-0.3c0-0.2,0-0.4-0.1-0.5c-0.4-0.7-1.2-0.9-2-0.8
					c-0.2,0-0.3,0.1-0.4,0.2c-0.2,0.1-0.1,0.2-0.3,0.2c-0.1,0-0.2,0.1-0.2,0.2C54.1-56.4,54.1-56.4,54.1-56.3
					C54.1-56.3,54.1-56.3,54.1-56.3"/>
				<path fill="#FFFFFF" d="M46.5-56.3c0,0.1,0,0.1,0,0.2c-0.1,0.1-0.1,0.1-0.2,0.1c-0.1,0.1-0.1,0.3-0.1,0.4c-0.2,0.1,0,0.2,0,0.3
					c0,0,0,0.1,0,0.2c0,0.1,0,0.3,0.1,0.4c0.1,0.2,0.3,0.4,0.4,0.5c0.2,0.1,0.4,0.6,0.6,0.6c0.2,0,0.4-0.1,0.5-0.1
					c0.2,0,0.4,0,0.6-0.1c0.2-0.1,0.1-0.3,0.3-0.5c0.1-0.1,0.3,0,0.4-0.1c0.2-0.1,0.3-0.3,0.4-0.5c0-0.1,0-0.1,0-0.2
					c0-0.1,0.1-0.2,0.1-0.3c0-0.1-0.1-0.1-0.1-0.2c0-0.1,0-0.2,0-0.3c0-0.2,0-0.4-0.1-0.5c-0.4-0.7-1.2-0.9-2-0.8
					c-0.2,0-0.3,0.1-0.4,0.2c-0.2,0.1-0.1,0.2-0.3,0.2c-0.1,0-0.2,0.1-0.2,0.2C46.5-56.4,46.5-56.4,46.5-56.3
					C46.5-56.3,46.5-56.3,46.5-56.3"/>
				<path fill="#FFFFFF" d="M38.8-56.3c0,0.1,0,0.1,0,0.2c-0.1,0.1-0.1,0.1-0.2,0.1c-0.1,0.1-0.1,0.3-0.1,0.4c-0.2,0.1,0,0.2,0,0.3
					c0,0,0,0.1,0,0.2c0,0.1,0,0.3,0.1,0.4c0.1,0.2,0.3,0.4,0.4,0.5c0.2,0.1,0.4,0.6,0.6,0.6c0.2,0,0.4-0.1,0.5-0.1
					c0.2,0,0.4,0,0.6-0.1c0.2-0.1,0.1-0.3,0.3-0.5c0.1-0.1,0.3,0,0.4-0.1c0.2-0.1,0.3-0.3,0.4-0.5c0-0.1,0-0.1,0-0.2
					c0-0.1,0.1-0.2,0.1-0.3c0-0.1-0.1-0.1-0.1-0.2c0-0.1,0-0.2,0-0.3c0-0.2,0-0.4-0.1-0.5c-0.4-0.7-1.2-0.9-2-0.8
					c-0.2,0-0.3,0.1-0.4,0.2c-0.2,0.1-0.1,0.2-0.3,0.2c-0.1,0-0.2,0.1-0.2,0.2C38.8-56.4,38.8-56.4,38.8-56.3
					C38.8-56.3,38.8-56.3,38.8-56.3"/>
				<path fill="#FFFFFF" d="M31.1-56.3c0,0.1,0,0.1,0,0.2c-0.1,0.1-0.1,0.1-0.2,0.1c-0.1,0.1-0.1,0.3-0.1,0.4c-0.2,0.1,0,0.2,0,0.3
					c0,0,0,0.1,0,0.2c0,0.1,0,0.3,0.1,0.4c0.1,0.2,0.3,0.4,0.4,0.5c0.2,0.1,0.4,0.6,0.6,0.6c0.2,0,0.4-0.1,0.5-0.1
					c0.2,0,0.4,0,0.6-0.1c0.2-0.1,0.1-0.3,0.3-0.5c0.1-0.1,0.3,0,0.4-0.1c0.2-0.1,0.3-0.3,0.4-0.5c0-0.1,0-0.1,0-0.2
					c0-0.1,0.1-0.2,0.1-0.3c0-0.1-0.1-0.1-0.1-0.2c0-0.1,0-0.2,0-0.3c0-0.2,0-0.4-0.1-0.5c-0.4-0.7-1.2-0.9-2-0.8
					c-0.2,0-0.3,0.1-0.4,0.2c-0.2,0.1-0.1,0.2-0.3,0.2c-0.1,0-0.2,0.1-0.2,0.2C31.1-56.4,31.1-56.4,31.1-56.3
					C31.1-56.3,31.1-56.3,31.1-56.3"/>
				<path fill="#FFFFFF" d="M23.5-56.3c0,0.1,0,0.1,0,0.2c-0.1,0.1-0.1,0.1-0.2,0.1c-0.1,0.1-0.1,0.3-0.1,0.4c-0.2,0.1,0,0.2,0,0.3
					c0,0,0,0.1,0,0.2c0,0.1,0,0.3,0.1,0.4c0.1,0.2,0.3,0.4,0.4,0.5c0.2,0.1,0.4,0.6,0.6,0.6c0.2,0,0.4-0.1,0.5-0.1
					c0.2,0,0.4,0,0.6-0.1c0.2-0.1,0.1-0.3,0.3-0.5c0.1-0.1,0.3,0,0.4-0.1c0.2-0.1,0.3-0.3,0.4-0.5c0-0.1,0-0.1,0-0.2
					c0-0.1,0.1-0.2,0.1-0.3c0-0.1-0.1-0.1-0.1-0.2c0-0.1,0-0.2,0-0.3c0-0.2,0-0.4-0.1-0.5c-0.4-0.7-1.2-0.9-2-0.8
					c-0.2,0-0.3,0.1-0.4,0.2c-0.2,0.1-0.1,0.2-0.3,0.2c-0.1,0-0.2,0.1-0.2,0.2C23.5-56.4,23.5-56.4,23.5-56.3
					C23.5-56.3,23.5-56.3,23.5-56.3"/>
				<path fill="#FFFFFF" d="M15.8-56.3c0,0.1,0,0.1,0,0.2c-0.1,0.1-0.1,0.1-0.2,0.1c-0.1,0.1-0.1,0.3-0.1,0.4c-0.2,0.1,0,0.2,0,0.3
					c0,0,0,0.1,0,0.2c0,0.1,0,0.3,0.1,0.4c0.1,0.2,0.3,0.4,0.4,0.5c0.2,0.1,0.4,0.6,0.6,0.6c0.2,0,0.4-0.1,0.5-0.1
					c0.2,0,0.4,0,0.6-0.1c0.2-0.1,0.1-0.3,0.3-0.5c0.1-0.1,0.3,0,0.4-0.1c0.2-0.1,0.3-0.3,0.4-0.5c0-0.1,0-0.1,0-0.2
					c0-0.1,0.1-0.2,0.1-0.3c0-0.1-0.1-0.1-0.1-0.2c0-0.1,0-0.2,0-0.3c0-0.2,0-0.4-0.1-0.5c-0.4-0.7-1.2-0.9-2-0.8
					c-0.2,0-0.3,0.1-0.4,0.2c-0.2,0.1-0.1,0.2-0.3,0.2c-0.1,0-0.2,0.1-0.2,0.2C15.8-56.4,15.8-56.4,15.8-56.3
					C15.8-56.3,15.8-56.3,15.8-56.3"/>
				<path fill="#FFFFFF" d="M8.2-56.3c0,0.1,0,0.1,0,0.2C8.1-56.1,8-56.1,8-56c-0.1,0.1-0.1,0.3-0.1,0.4c-0.2,0.1,0,0.2,0,0.3
					c0,0,0,0.1,0,0.2c0,0.1,0,0.3,0.1,0.4c0.1,0.2,0.3,0.4,0.4,0.5c0.2,0.1,0.4,0.6,0.6,0.6c0.2,0,0.4-0.1,0.5-0.1
					c0.2,0,0.4,0,0.6-0.1c0.2-0.1,0.1-0.3,0.3-0.5c0.1-0.1,0.3,0,0.4-0.1c0.2-0.1,0.3-0.3,0.4-0.5c0-0.1,0-0.1,0-0.2
					c0-0.1,0.1-0.2,0.1-0.3c0-0.1-0.1-0.1-0.1-0.2c0-0.1,0-0.2,0-0.3c0-0.2,0-0.4-0.1-0.5c-0.4-0.7-1.2-0.9-2-0.8
					c-0.2,0-0.3,0.1-0.4,0.2c-0.2,0.1-0.1,0.2-0.3,0.2c-0.1,0-0.2,0.1-0.2,0.2C8.2-56.4,8.2-56.4,8.2-56.3
					C8.1-56.3,8.1-56.3,8.2-56.3"/>
				<path fill="#FFFFFF" d="M0.5-56.3c0,0.1,0,0.1,0,0.2c-0.1,0.1-0.1,0.1-0.2,0.1c-0.1,0.1-0.1,0.3-0.1,0.4c-0.2,0.1,0,0.2,0,0.3
					c0,0,0,0.1,0,0.2c0,0.1,0,0.3,0.1,0.4c0.1,0.2,0.3,0.4,0.4,0.5c0.2,0.1,0.4,0.6,0.6,0.6c0.2,0,0.4-0.1,0.5-0.1
					c0.2,0,0.4,0,0.6-0.1c0.2-0.1,0.1-0.3,0.3-0.5c0.1-0.1,0.3,0,0.4-0.1c0.2-0.1,0.3-0.3,0.4-0.5c0-0.1,0-0.1,0-0.2
					c0-0.1,0.1-0.2,0.1-0.3c0-0.1-0.1-0.1-0.1-0.2c0-0.1,0-0.2,0-0.3c0-0.2,0-0.4-0.1-0.5c-0.4-0.7-1.2-0.9-2-0.8
					c-0.2,0-0.3,0.1-0.4,0.2c-0.2,0.1-0.1,0.2-0.3,0.2c-0.1,0-0.2,0.1-0.2,0.2C0.5-56.4,0.5-56.4,0.5-56.3
					C0.5-56.3,0.5-56.3,0.5-56.3"/>
			</g>
			<g>
				<path fill="#FFFFFF" d="M69.4-48.7c0,0.1,0,0.1,0,0.2c-0.1,0.1-0.1,0.1-0.2,0.1c-0.1,0.1-0.1,0.3-0.1,0.4c-0.2,0.1,0,0.2,0,0.3
					c0,0,0,0.1,0,0.2c0,0.1,0,0.3,0.1,0.4c0.1,0.2,0.3,0.4,0.4,0.5c0.2,0.1,0.4,0.6,0.6,0.6c0.2,0,0.4-0.1,0.5-0.1
					c0.2,0,0.4,0,0.6-0.1c0.2-0.1,0.1-0.3,0.3-0.5c0.1-0.1,0.3,0,0.4-0.1c0.2-0.1,0.3-0.3,0.4-0.5c0-0.1,0-0.1,0-0.2
					c0-0.1,0.1-0.2,0.1-0.3c0-0.1-0.1-0.1-0.1-0.2c0-0.1,0-0.2,0-0.3c0-0.2,0-0.4-0.1-0.5c-0.4-0.7-1.2-0.9-2-0.8
					c-0.2,0-0.3,0.1-0.4,0.2c-0.2,0.1-0.1,0.2-0.3,0.2c-0.1,0-0.2,0.1-0.2,0.2C69.4-48.7,69.4-48.8,69.4-48.7
					C69.4-48.7,69.4-48.7,69.4-48.7"/>
				<path fill="#FFFFFF" d="M61.8-48.7c0,0.1,0,0.1,0,0.2c-0.1,0.1-0.1,0.1-0.2,0.1c-0.1,0.1-0.1,0.3-0.1,0.4c-0.2,0.1,0,0.2,0,0.3
					c0,0,0,0.1,0,0.2c0,0.1,0,0.3,0.1,0.4c0.1,0.2,0.3,0.4,0.4,0.5c0.2,0.1,0.4,0.6,0.6,0.6c0.2,0,0.4-0.1,0.5-0.1
					c0.2,0,0.4,0,0.6-0.1c0.2-0.1,0.1-0.3,0.3-0.5c0.1-0.1,0.3,0,0.4-0.1c0.2-0.1,0.3-0.3,0.4-0.5c0-0.1,0-0.1,0-0.2
					c0-0.1,0.1-0.2,0.1-0.3c0-0.1-0.1-0.1-0.1-0.2c0-0.1,0-0.2,0-0.3c0-0.2,0-0.4-0.1-0.5c-0.4-0.7-1.2-0.9-2-0.8
					c-0.2,0-0.3,0.1-0.4,0.2c-0.2,0.1-0.1,0.2-0.3,0.2c-0.1,0-0.2,0.1-0.2,0.2C61.8-48.7,61.8-48.8,61.8-48.7
					C61.8-48.7,61.8-48.7,61.8-48.7"/>
				<path fill="#FFFFFF" d="M54.1-48.7c0,0.1,0,0.1,0,0.2c-0.1,0.1-0.1,0.1-0.2,0.1c-0.1,0.1-0.1,0.3-0.1,0.4c-0.2,0.1,0,0.2,0,0.3
					c0,0,0,0.1,0,0.2c0,0.1,0,0.3,0.1,0.4c0.1,0.2,0.3,0.4,0.4,0.5c0.2,0.1,0.4,0.6,0.6,0.6c0.2,0,0.4-0.1,0.5-0.1
					c0.2,0,0.4,0,0.6-0.1c0.2-0.1,0.1-0.3,0.3-0.5c0.1-0.1,0.3,0,0.4-0.1c0.2-0.1,0.3-0.3,0.4-0.5c0-0.1,0-0.1,0-0.2
					c0-0.1,0.1-0.2,0.1-0.3c0-0.1-0.1-0.1-0.1-0.2c0-0.1,0-0.2,0-0.3c0-0.2,0-0.4-0.1-0.5c-0.4-0.7-1.2-0.9-2-0.8
					c-0.2,0-0.3,0.1-0.4,0.2c-0.2,0.1-0.1,0.2-0.3,0.2c-0.1,0-0.2,0.1-0.2,0.2C54.1-48.7,54.1-48.8,54.1-48.7
					C54.1-48.7,54.1-48.7,54.1-48.7"/>
				<path fill="#FFFFFF" d="M46.5-48.7c0,0.1,0,0.1,0,0.2c-0.1,0.1-0.1,0.1-0.2,0.1c-0.1,0.1-0.1,0.3-0.1,0.4c-0.2,0.1,0,0.2,0,0.3
					c0,0,0,0.1,0,0.2c0,0.1,0,0.3,0.1,0.4c0.1,0.2,0.3,0.4,0.4,0.5c0.2,0.1,0.4,0.6,0.6,0.6c0.2,0,0.4-0.1,0.5-0.1
					c0.2,0,0.4,0,0.6-0.1c0.2-0.1,0.1-0.3,0.3-0.5c0.1-0.1,0.3,0,0.4-0.1c0.2-0.1,0.3-0.3,0.4-0.5c0-0.1,0-0.1,0-0.2
					c0-0.1,0.1-0.2,0.1-0.3c0-0.1-0.1-0.1-0.1-0.2c0-0.1,0-0.2,0-0.3c0-0.2,0-0.4-0.1-0.5c-0.4-0.7-1.2-0.9-2-0.8
					c-0.2,0-0.3,0.1-0.4,0.2c-0.2,0.1-0.1,0.2-0.3,0.2c-0.1,0-0.2,0.1-0.2,0.2C46.5-48.7,46.5-48.8,46.5-48.7
					C46.5-48.7,46.5-48.7,46.5-48.7"/>
				<path fill="#FFFFFF" d="M38.8-48.7c0,0.1,0,0.1,0,0.2c-0.1,0.1-0.1,0.1-0.2,0.1c-0.1,0.1-0.1,0.3-0.1,0.4c-0.2,0.1,0,0.2,0,0.3
					c0,0,0,0.1,0,0.2c0,0.1,0,0.3,0.1,0.4c0.1,0.2,0.3,0.4,0.4,0.5c0.2,0.1,0.4,0.6,0.6,0.6c0.2,0,0.4-0.1,0.5-0.1
					c0.2,0,0.4,0,0.6-0.1c0.2-0.1,0.1-0.3,0.3-0.5c0.1-0.1,0.3,0,0.4-0.1c0.2-0.1,0.3-0.3,0.4-0.5c0-0.1,0-0.1,0-0.2
					c0-0.1,0.1-0.2,0.1-0.3c0-0.1-0.1-0.1-0.1-0.2c0-0.1,0-0.2,0-0.3c0-0.2,0-0.4-0.1-0.5c-0.4-0.7-1.2-0.9-2-0.8
					c-0.2,0-0.3,0.1-0.4,0.2c-0.2,0.1-0.1,0.2-0.3,0.2c-0.1,0-0.2,0.1-0.2,0.2C38.8-48.7,38.8-48.8,38.8-48.7
					C38.8-48.7,38.8-48.7,38.8-48.7"/>
				<path fill="#FFFFFF" d="M31.1-48.7c0,0.1,0,0.1,0,0.2c-0.1,0.1-0.1,0.1-0.2,0.1c-0.1,0.1-0.1,0.3-0.1,0.4c-0.2,0.1,0,0.2,0,0.3
					c0,0,0,0.1,0,0.2c0,0.1,0,0.3,0.1,0.4c0.1,0.2,0.3,0.4,0.4,0.5c0.2,0.1,0.4,0.6,0.6,0.6c0.2,0,0.4-0.1,0.5-0.1
					c0.2,0,0.4,0,0.6-0.1c0.2-0.1,0.1-0.3,0.3-0.5c0.1-0.1,0.3,0,0.4-0.1c0.2-0.1,0.3-0.3,0.4-0.5c0-0.1,0-0.1,0-0.2
					c0-0.1,0.1-0.2,0.1-0.3c0-0.1-0.1-0.1-0.1-0.2c0-0.1,0-0.2,0-0.3c0-0.2,0-0.4-0.1-0.5c-0.4-0.7-1.2-0.9-2-0.8
					c-0.2,0-0.3,0.1-0.4,0.2c-0.2,0.1-0.1,0.2-0.3,0.2c-0.1,0-0.2,0.1-0.2,0.2C31.1-48.7,31.1-48.8,31.1-48.7
					C31.1-48.7,31.1-48.7,31.1-48.7"/>
				<path fill="#FFFFFF" d="M23.5-48.7c0,0.1,0,0.1,0,0.2c-0.1,0.1-0.1,0.1-0.2,0.1c-0.1,0.1-0.1,0.3-0.1,0.4c-0.2,0.1,0,0.2,0,0.3
					c0,0,0,0.1,0,0.2c0,0.1,0,0.3,0.1,0.4c0.1,0.2,0.3,0.4,0.4,0.5c0.2,0.1,0.4,0.6,0.6,0.6c0.2,0,0.4-0.1,0.5-0.1
					c0.2,0,0.4,0,0.6-0.1c0.2-0.1,0.1-0.3,0.3-0.5c0.1-0.1,0.3,0,0.4-0.1c0.2-0.1,0.3-0.3,0.4-0.5c0-0.1,0-0.1,0-0.2
					c0-0.1,0.1-0.2,0.1-0.3c0-0.1-0.1-0.1-0.1-0.2c0-0.1,0-0.2,0-0.3c0-0.2,0-0.4-0.1-0.5c-0.4-0.7-1.2-0.9-2-0.8
					c-0.2,0-0.3,0.1-0.4,0.2c-0.2,0.1-0.1,0.2-0.3,0.2c-0.1,0-0.2,0.1-0.2,0.2C23.5-48.7,23.5-48.8,23.5-48.7
					C23.5-48.7,23.5-48.7,23.5-48.7"/>
				<path fill="#FFFFFF" d="M15.8-48.7c0,0.1,0,0.1,0,0.2c-0.1,0.1-0.1,0.1-0.2,0.1c-0.1,0.1-0.1,0.3-0.1,0.4c-0.2,0.1,0,0.2,0,0.3
					c0,0,0,0.1,0,0.2c0,0.1,0,0.3,0.1,0.4c0.1,0.2,0.3,0.4,0.4,0.5c0.2,0.1,0.4,0.6,0.6,0.6c0.2,0,0.4-0.1,0.5-0.1
					c0.2,0,0.4,0,0.6-0.1c0.2-0.1,0.1-0.3,0.3-0.5c0.1-0.1,0.3,0,0.4-0.1c0.2-0.1,0.3-0.3,0.4-0.5c0-0.1,0-0.1,0-0.2
					c0-0.1,0.1-0.2,0.1-0.3c0-0.1-0.1-0.1-0.1-0.2c0-0.1,0-0.2,0-0.3c0-0.2,0-0.4-0.1-0.5c-0.4-0.7-1.2-0.9-2-0.8
					c-0.2,0-0.3,0.1-0.4,0.2c-0.2,0.1-0.1,0.2-0.3,0.2c-0.1,0-0.2,0.1-0.2,0.2C15.8-48.7,15.8-48.8,15.8-48.7
					C15.8-48.7,15.8-48.7,15.8-48.7"/>
				<path fill="#FFFFFF" d="M8.2-48.7c0,0.1,0,0.1,0,0.2C8.1-48.4,8-48.4,8-48.4c-0.1,0.1-0.1,0.3-0.1,0.4c-0.2,0.1,0,0.2,0,0.3
					c0,0,0,0.1,0,0.2c0,0.1,0,0.3,0.1,0.4c0.1,0.2,0.3,0.4,0.4,0.5C8.5-46.4,8.7-46,8.9-46c0.2,0,0.4-0.1,0.5-0.1
					c0.2,0,0.4,0,0.6-0.1c0.2-0.1,0.1-0.3,0.3-0.5c0.1-0.1,0.3,0,0.4-0.1c0.2-0.1,0.3-0.3,0.4-0.5c0-0.1,0-0.1,0-0.2
					c0-0.1,0.1-0.2,0.1-0.3c0-0.1-0.1-0.1-0.1-0.2c0-0.1,0-0.2,0-0.3c0-0.2,0-0.4-0.1-0.5c-0.4-0.7-1.2-0.9-2-0.8
					c-0.2,0-0.3,0.1-0.4,0.2c-0.2,0.1-0.1,0.2-0.3,0.2c-0.1,0-0.2,0.1-0.2,0.2C8.2-48.7,8.2-48.8,8.2-48.7
					C8.1-48.7,8.1-48.7,8.2-48.7"/>
				<path fill="#FFFFFF" d="M0.5-48.7c0,0.1,0,0.1,0,0.2c-0.1,0.1-0.1,0.1-0.2,0.1c-0.1,0.1-0.1,0.3-0.1,0.4c-0.2,0.1,0,0.2,0,0.3
					c0,0,0,0.1,0,0.2c0,0.1,0,0.3,0.1,0.4c0.1,0.2,0.3,0.4,0.4,0.5C0.9-46.4,1-46,1.3-46c0.2,0,0.4-0.1,0.5-0.1c0.2,0,0.4,0,0.6-0.1
					c0.2-0.1,0.1-0.3,0.3-0.5c0.1-0.1,0.3,0,0.4-0.1c0.2-0.1,0.3-0.3,0.4-0.5c0-0.1,0-0.1,0-0.2c0-0.1,0.1-0.2,0.1-0.3
					c0-0.1-0.1-0.1-0.1-0.2c0-0.1,0-0.2,0-0.3c0-0.2,0-0.4-0.1-0.5c-0.4-0.7-1.2-0.9-2-0.8c-0.2,0-0.3,0.1-0.4,0.2
					c-0.2,0.1-0.1,0.2-0.3,0.2c-0.1,0-0.2,0.1-0.2,0.2C0.5-48.7,0.5-48.8,0.5-48.7C0.5-48.7,0.5-48.7,0.5-48.7"/>
			</g>
			<g>
				<path fill="#FFFFFF" d="M69.4-41c0,0.1,0,0.1,0,0.2c-0.1,0.1-0.1,0.1-0.2,0.1c-0.1,0.1-0.1,0.3-0.1,0.4c-0.2,0.1,0,0.2,0,0.3
					c0,0,0,0.1,0,0.2c0,0.1,0,0.3,0.1,0.4c0.1,0.2,0.3,0.4,0.4,0.5c0.2,0.1,0.4,0.6,0.6,0.6c0.2,0,0.4-0.1,0.5-0.1
					c0.2,0,0.4,0,0.6-0.1c0.2-0.1,0.1-0.3,0.3-0.5c0.1-0.1,0.3,0,0.4-0.1c0.2-0.1,0.3-0.3,0.4-0.5c0-0.1,0-0.1,0-0.2
					c0-0.1,0.1-0.2,0.1-0.3c0-0.1-0.1-0.1-0.1-0.2c0-0.1,0-0.2,0-0.3c0-0.2,0-0.4-0.1-0.5c-0.4-0.7-1.2-0.9-2-0.8
					c-0.2,0-0.3,0.1-0.4,0.2c-0.2,0.1-0.1,0.2-0.3,0.2c-0.1,0-0.2,0.1-0.2,0.2C69.4-41.1,69.4-41.1,69.4-41C69.4-41,69.4-41,69.4-41
					"/>
				<path fill="#FFFFFF" d="M61.8-41c0,0.1,0,0.1,0,0.2c-0.1,0.1-0.1,0.1-0.2,0.1c-0.1,0.1-0.1,0.3-0.1,0.4c-0.2,0.1,0,0.2,0,0.3
					c0,0,0,0.1,0,0.2c0,0.1,0,0.3,0.1,0.4c0.1,0.2,0.3,0.4,0.4,0.5c0.2,0.1,0.4,0.6,0.6,0.6c0.2,0,0.4-0.1,0.5-0.1
					c0.2,0,0.4,0,0.6-0.1c0.2-0.1,0.1-0.3,0.3-0.5c0.1-0.1,0.3,0,0.4-0.1c0.2-0.1,0.3-0.3,0.4-0.5c0-0.1,0-0.1,0-0.2
					c0-0.1,0.1-0.2,0.1-0.3c0-0.1-0.1-0.1-0.1-0.2c0-0.1,0-0.2,0-0.3c0-0.2,0-0.4-0.1-0.5c-0.4-0.7-1.2-0.9-2-0.8
					c-0.2,0-0.3,0.1-0.4,0.2c-0.2,0.1-0.1,0.2-0.3,0.2c-0.1,0-0.2,0.1-0.2,0.2C61.8-41.1,61.8-41.1,61.8-41C61.8-41,61.8-41,61.8-41
					"/>
				<path fill="#FFFFFF" d="M54.1-41c0,0.1,0,0.1,0,0.2c-0.1,0.1-0.1,0.1-0.2,0.1c-0.1,0.1-0.1,0.3-0.1,0.4c-0.2,0.1,0,0.2,0,0.3
					c0,0,0,0.1,0,0.2c0,0.1,0,0.3,0.1,0.4c0.1,0.2,0.3,0.4,0.4,0.5c0.2,0.1,0.4,0.6,0.6,0.6c0.2,0,0.4-0.1,0.5-0.1
					c0.2,0,0.4,0,0.6-0.1c0.2-0.1,0.1-0.3,0.3-0.5c0.1-0.1,0.3,0,0.4-0.1c0.2-0.1,0.3-0.3,0.4-0.5c0-0.1,0-0.1,0-0.2
					c0-0.1,0.1-0.2,0.1-0.3c0-0.1-0.1-0.1-0.1-0.2c0-0.1,0-0.2,0-0.3c0-0.2,0-0.4-0.1-0.5c-0.4-0.7-1.2-0.9-2-0.8
					c-0.2,0-0.3,0.1-0.4,0.2c-0.2,0.1-0.1,0.2-0.3,0.2c-0.1,0-0.2,0.1-0.2,0.2C54.1-41.1,54.1-41.1,54.1-41C54.1-41,54.1-41,54.1-41
					"/>
				<path fill="#FFFFFF" d="M46.5-41c0,0.1,0,0.1,0,0.2c-0.1,0.1-0.1,0.1-0.2,0.1c-0.1,0.1-0.1,0.3-0.1,0.4c-0.2,0.1,0,0.2,0,0.3
					c0,0,0,0.1,0,0.2c0,0.1,0,0.3,0.1,0.4c0.1,0.2,0.3,0.4,0.4,0.5c0.2,0.1,0.4,0.6,0.6,0.6c0.2,0,0.4-0.1,0.5-0.1
					c0.2,0,0.4,0,0.6-0.1c0.2-0.1,0.1-0.3,0.3-0.5c0.1-0.1,0.3,0,0.4-0.1c0.2-0.1,0.3-0.3,0.4-0.5c0-0.1,0-0.1,0-0.2
					c0-0.1,0.1-0.2,0.1-0.3c0-0.1-0.1-0.1-0.1-0.2c0-0.1,0-0.2,0-0.3c0-0.2,0-0.4-0.1-0.5c-0.4-0.7-1.2-0.9-2-0.8
					c-0.2,0-0.3,0.1-0.4,0.2c-0.2,0.1-0.1,0.2-0.3,0.2c-0.1,0-0.2,0.1-0.2,0.2C46.5-41.1,46.5-41.1,46.5-41C46.5-41,46.5-41,46.5-41
					"/>
				<path fill="#FFFFFF" d="M38.8-41c0,0.1,0,0.1,0,0.2c-0.1,0.1-0.1,0.1-0.2,0.1c-0.1,0.1-0.1,0.3-0.1,0.4c-0.2,0.1,0,0.2,0,0.3
					c0,0,0,0.1,0,0.2c0,0.1,0,0.3,0.1,0.4c0.1,0.2,0.3,0.4,0.4,0.5c0.2,0.1,0.4,0.6,0.6,0.6c0.2,0,0.4-0.1,0.5-0.1
					c0.2,0,0.4,0,0.6-0.1c0.2-0.1,0.1-0.3,0.3-0.5c0.1-0.1,0.3,0,0.4-0.1c0.2-0.1,0.3-0.3,0.4-0.5c0-0.1,0-0.1,0-0.2
					c0-0.1,0.1-0.2,0.1-0.3c0-0.1-0.1-0.1-0.1-0.2c0-0.1,0-0.2,0-0.3c0-0.2,0-0.4-0.1-0.5c-0.4-0.7-1.2-0.9-2-0.8
					c-0.2,0-0.3,0.1-0.4,0.2c-0.2,0.1-0.1,0.2-0.3,0.2c-0.1,0-0.2,0.1-0.2,0.2C38.8-41.1,38.8-41.1,38.8-41C38.8-41,38.8-41,38.8-41
					"/>
				<path fill="#FFFFFF" d="M31.1-41c0,0.1,0,0.1,0,0.2c-0.1,0.1-0.1,0.1-0.2,0.1c-0.1,0.1-0.1,0.3-0.1,0.4c-0.2,0.1,0,0.2,0,0.3
					c0,0,0,0.1,0,0.2c0,0.1,0,0.3,0.1,0.4c0.1,0.2,0.3,0.4,0.4,0.5c0.2,0.1,0.4,0.6,0.6,0.6c0.2,0,0.4-0.1,0.5-0.1
					c0.2,0,0.4,0,0.6-0.1c0.2-0.1,0.1-0.3,0.3-0.5c0.1-0.1,0.3,0,0.4-0.1c0.2-0.1,0.3-0.3,0.4-0.5c0-0.1,0-0.1,0-0.2
					c0-0.1,0.1-0.2,0.1-0.3c0-0.1-0.1-0.1-0.1-0.2c0-0.1,0-0.2,0-0.3c0-0.2,0-0.4-0.1-0.5c-0.4-0.7-1.2-0.9-2-0.8
					c-0.2,0-0.3,0.1-0.4,0.2c-0.2,0.1-0.1,0.2-0.3,0.2c-0.1,0-0.2,0.1-0.2,0.2C31.1-41.1,31.1-41.1,31.1-41C31.1-41,31.1-41,31.1-41
					"/>
				<path fill="#FFFFFF" d="M23.5-41c0,0.1,0,0.1,0,0.2c-0.1,0.1-0.1,0.1-0.2,0.1c-0.1,0.1-0.1,0.3-0.1,0.4c-0.2,0.1,0,0.2,0,0.3
					c0,0,0,0.1,0,0.2c0,0.1,0,0.3,0.1,0.4c0.1,0.2,0.3,0.4,0.4,0.5c0.2,0.1,0.4,0.6,0.6,0.6c0.2,0,0.4-0.1,0.5-0.1
					c0.2,0,0.4,0,0.6-0.1c0.2-0.1,0.1-0.3,0.3-0.5c0.1-0.1,0.3,0,0.4-0.1c0.2-0.1,0.3-0.3,0.4-0.5c0-0.1,0-0.1,0-0.2
					c0-0.1,0.1-0.2,0.1-0.3c0-0.1-0.1-0.1-0.1-0.2c0-0.1,0-0.2,0-0.3c0-0.2,0-0.4-0.1-0.5c-0.4-0.7-1.2-0.9-2-0.8
					c-0.2,0-0.3,0.1-0.4,0.2c-0.2,0.1-0.1,0.2-0.3,0.2c-0.1,0-0.2,0.1-0.2,0.2C23.5-41.1,23.5-41.1,23.5-41C23.5-41,23.5-41,23.5-41
					"/>
				<path fill="#FFFFFF" d="M15.8-41c0,0.1,0,0.1,0,0.2c-0.1,0.1-0.1,0.1-0.2,0.1c-0.1,0.1-0.1,0.3-0.1,0.4c-0.2,0.1,0,0.2,0,0.3
					c0,0,0,0.1,0,0.2c0,0.1,0,0.3,0.1,0.4c0.1,0.2,0.3,0.4,0.4,0.5c0.2,0.1,0.4,0.6,0.6,0.6c0.2,0,0.4-0.1,0.5-0.1
					c0.2,0,0.4,0,0.6-0.1c0.2-0.1,0.1-0.3,0.3-0.5c0.1-0.1,0.3,0,0.4-0.1c0.2-0.1,0.3-0.3,0.4-0.5c0-0.1,0-0.1,0-0.2
					c0-0.1,0.1-0.2,0.1-0.3c0-0.1-0.1-0.1-0.1-0.2c0-0.1,0-0.2,0-0.3c0-0.2,0-0.4-0.1-0.5c-0.4-0.7-1.2-0.9-2-0.8
					c-0.2,0-0.3,0.1-0.4,0.2c-0.2,0.1-0.1,0.2-0.3,0.2c-0.1,0-0.2,0.1-0.2,0.2C15.8-41.1,15.8-41.1,15.8-41C15.8-41,15.8-41,15.8-41
					"/>
				<path fill="#FFFFFF" d="M8.2-41c0,0.1,0,0.1,0,0.2C8.1-40.8,8-40.8,8-40.7c-0.1,0.1-0.1,0.3-0.1,0.4c-0.2,0.1,0,0.2,0,0.3
					c0,0,0,0.1,0,0.2c0,0.1,0,0.3,0.1,0.4c0.1,0.2,0.3,0.4,0.4,0.5c0.2,0.1,0.4,0.6,0.6,0.6c0.2,0,0.4-0.1,0.5-0.1
					c0.2,0,0.4,0,0.6-0.1c0.2-0.1,0.1-0.3,0.3-0.5c0.1-0.1,0.3,0,0.4-0.1c0.2-0.1,0.3-0.3,0.4-0.5c0-0.1,0-0.1,0-0.2
					c0-0.1,0.1-0.2,0.1-0.3c0-0.1-0.1-0.1-0.1-0.2c0-0.1,0-0.2,0-0.3c0-0.2,0-0.4-0.1-0.5c-0.4-0.7-1.2-0.9-2-0.8
					c-0.2,0-0.3,0.1-0.4,0.2c-0.2,0.1-0.1,0.2-0.3,0.2c-0.1,0-0.2,0.1-0.2,0.2C8.2-41.1,8.2-41.1,8.2-41C8.1-41,8.1-41,8.2-41"/>
				<path fill="#FFFFFF" d="M0.5-41c0,0.1,0,0.1,0,0.2c-0.1,0.1-0.1,0.1-0.2,0.1c-0.1,0.1-0.1,0.3-0.1,0.4c-0.2,0.1,0,0.2,0,0.3
					c0,0,0,0.1,0,0.2c0,0.1,0,0.3,0.1,0.4c0.1,0.2,0.3,0.4,0.4,0.5c0.2,0.1,0.4,0.6,0.6,0.6c0.2,0,0.4-0.1,0.5-0.1
					c0.2,0,0.4,0,0.6-0.1c0.2-0.1,0.1-0.3,0.3-0.5C2.8-39,3-39,3.1-39c0.2-0.1,0.3-0.3,0.4-0.5c0-0.1,0-0.1,0-0.2
					c0-0.1,0.1-0.2,0.1-0.3c0-0.1-0.1-0.1-0.1-0.2c0-0.1,0-0.2,0-0.3c0-0.2,0-0.4-0.1-0.5c-0.4-0.7-1.2-0.9-2-0.8
					c-0.2,0-0.3,0.1-0.4,0.2c-0.2,0.1-0.1,0.2-0.3,0.2c-0.1,0-0.2,0.1-0.2,0.2C0.5-41.1,0.5-41.1,0.5-41C0.5-41,0.5-41,0.5-41"/>
			</g>
			<g>
				<path fill="#FFFFFF" d="M69.4-33.4c0,0.1,0,0.1,0,0.2c-0.1,0.1-0.1,0.1-0.2,0.1c-0.1,0.1-0.1,0.3-0.1,0.4c-0.2,0.1,0,0.2,0,0.3
					c0,0,0,0.1,0,0.2c0,0.1,0,0.3,0.1,0.4c0.1,0.2,0.3,0.4,0.4,0.5c0.2,0.1,0.4,0.6,0.6,0.6c0.2,0,0.4-0.1,0.5-0.1
					c0.2,0,0.4,0,0.6-0.1c0.2-0.1,0.1-0.3,0.3-0.5c0.1-0.1,0.3,0,0.4-0.1c0.2-0.1,0.3-0.3,0.4-0.5c0-0.1,0-0.1,0-0.2
					c0-0.1,0.1-0.2,0.1-0.3c0-0.1-0.1-0.1-0.1-0.2c0-0.1,0-0.2,0-0.3c0-0.2,0-0.4-0.1-0.5c-0.4-0.7-1.2-0.9-2-0.8
					c-0.2,0-0.3,0.1-0.4,0.2c-0.2,0.1-0.1,0.2-0.3,0.2c-0.1,0-0.2,0.1-0.2,0.2C69.4-33.4,69.4-33.5,69.4-33.4
					C69.4-33.4,69.4-33.4,69.4-33.4"/>
				<path fill="#FFFFFF" d="M61.8-33.4c0,0.1,0,0.1,0,0.2c-0.1,0.1-0.1,0.1-0.2,0.1c-0.1,0.1-0.1,0.3-0.1,0.4c-0.2,0.1,0,0.2,0,0.3
					c0,0,0,0.1,0,0.2c0,0.1,0,0.3,0.1,0.4c0.1,0.2,0.3,0.4,0.4,0.5c0.2,0.1,0.4,0.6,0.6,0.6c0.2,0,0.4-0.1,0.5-0.1
					c0.2,0,0.4,0,0.6-0.1c0.2-0.1,0.1-0.3,0.3-0.5c0.1-0.1,0.3,0,0.4-0.1c0.2-0.1,0.3-0.3,0.4-0.5c0-0.1,0-0.1,0-0.2
					c0-0.1,0.1-0.2,0.1-0.3c0-0.1-0.1-0.1-0.1-0.2c0-0.1,0-0.2,0-0.3c0-0.2,0-0.4-0.1-0.5c-0.4-0.7-1.2-0.9-2-0.8
					c-0.2,0-0.3,0.1-0.4,0.2c-0.2,0.1-0.1,0.2-0.3,0.2c-0.1,0-0.2,0.1-0.2,0.2C61.8-33.4,61.8-33.5,61.8-33.4
					C61.8-33.4,61.8-33.4,61.8-33.4"/>
				<path fill="#FFFFFF" d="M54.1-33.4c0,0.1,0,0.1,0,0.2c-0.1,0.1-0.1,0.1-0.2,0.1c-0.1,0.1-0.1,0.3-0.1,0.4c-0.2,0.1,0,0.2,0,0.3
					c0,0,0,0.1,0,0.2c0,0.1,0,0.3,0.1,0.4c0.1,0.2,0.3,0.4,0.4,0.5c0.2,0.1,0.4,0.6,0.6,0.6c0.2,0,0.4-0.1,0.5-0.1
					c0.2,0,0.4,0,0.6-0.1c0.2-0.1,0.1-0.3,0.3-0.5c0.1-0.1,0.3,0,0.4-0.1c0.2-0.1,0.3-0.3,0.4-0.5c0-0.1,0-0.1,0-0.2
					c0-0.1,0.1-0.2,0.1-0.3c0-0.1-0.1-0.1-0.1-0.2c0-0.1,0-0.2,0-0.3c0-0.2,0-0.4-0.1-0.5c-0.4-0.7-1.2-0.9-2-0.8
					c-0.2,0-0.3,0.1-0.4,0.2c-0.2,0.1-0.1,0.2-0.3,0.2c-0.1,0-0.2,0.1-0.2,0.2C54.1-33.4,54.1-33.5,54.1-33.4
					C54.1-33.4,54.1-33.4,54.1-33.4"/>
				<path fill="#FFFFFF" d="M46.5-33.4c0,0.1,0,0.1,0,0.2c-0.1,0.1-0.1,0.1-0.2,0.1c-0.1,0.1-0.1,0.3-0.1,0.4c-0.2,0.1,0,0.2,0,0.3
					c0,0,0,0.1,0,0.2c0,0.1,0,0.3,0.1,0.4c0.1,0.2,0.3,0.4,0.4,0.5c0.2,0.1,0.4,0.6,0.6,0.6c0.2,0,0.4-0.1,0.5-0.1
					c0.2,0,0.4,0,0.6-0.1c0.2-0.1,0.1-0.3,0.3-0.5c0.1-0.1,0.3,0,0.4-0.1c0.2-0.1,0.3-0.3,0.4-0.5c0-0.1,0-0.1,0-0.2
					c0-0.1,0.1-0.2,0.1-0.3c0-0.1-0.1-0.1-0.1-0.2c0-0.1,0-0.2,0-0.3c0-0.2,0-0.4-0.1-0.5c-0.4-0.7-1.2-0.9-2-0.8
					c-0.2,0-0.3,0.1-0.4,0.2c-0.2,0.1-0.1,0.2-0.3,0.2c-0.1,0-0.2,0.1-0.2,0.2C46.5-33.4,46.5-33.5,46.5-33.4
					C46.5-33.4,46.5-33.4,46.5-33.4"/>
				<path fill="#FFFFFF" d="M38.8-33.4c0,0.1,0,0.1,0,0.2c-0.1,0.1-0.1,0.1-0.2,0.1c-0.1,0.1-0.1,0.3-0.1,0.4c-0.2,0.1,0,0.2,0,0.3
					c0,0,0,0.1,0,0.2c0,0.1,0,0.3,0.1,0.4c0.1,0.2,0.3,0.4,0.4,0.5c0.2,0.1,0.4,0.6,0.6,0.6c0.2,0,0.4-0.1,0.5-0.1
					c0.2,0,0.4,0,0.6-0.1c0.2-0.1,0.1-0.3,0.3-0.5c0.1-0.1,0.3,0,0.4-0.1c0.2-0.1,0.3-0.3,0.4-0.5c0-0.1,0-0.1,0-0.2
					c0-0.1,0.1-0.2,0.1-0.3c0-0.1-0.1-0.1-0.1-0.2c0-0.1,0-0.2,0-0.3c0-0.2,0-0.4-0.1-0.5c-0.4-0.7-1.2-0.9-2-0.8
					c-0.2,0-0.3,0.1-0.4,0.2c-0.2,0.1-0.1,0.2-0.3,0.2c-0.1,0-0.2,0.1-0.2,0.2C38.8-33.4,38.8-33.5,38.8-33.4
					C38.8-33.4,38.8-33.4,38.8-33.4"/>
				<path fill="#FFFFFF" d="M31.1-33.4c0,0.1,0,0.1,0,0.2c-0.1,0.1-0.1,0.1-0.2,0.1c-0.1,0.1-0.1,0.3-0.1,0.4c-0.2,0.1,0,0.2,0,0.3
					c0,0,0,0.1,0,0.2c0,0.1,0,0.3,0.1,0.4c0.1,0.2,0.3,0.4,0.4,0.5c0.2,0.1,0.4,0.6,0.6,0.6c0.2,0,0.4-0.1,0.5-0.1
					c0.2,0,0.4,0,0.6-0.1c0.2-0.1,0.1-0.3,0.3-0.5c0.1-0.1,0.3,0,0.4-0.1c0.2-0.1,0.3-0.3,0.4-0.5c0-0.1,0-0.1,0-0.2
					c0-0.1,0.1-0.2,0.1-0.3c0-0.1-0.1-0.1-0.1-0.2c0-0.1,0-0.2,0-0.3c0-0.2,0-0.4-0.1-0.5c-0.4-0.7-1.2-0.9-2-0.8
					c-0.2,0-0.3,0.1-0.4,0.2c-0.2,0.1-0.1,0.2-0.3,0.2c-0.1,0-0.2,0.1-0.2,0.2C31.1-33.4,31.1-33.5,31.1-33.4
					C31.1-33.4,31.1-33.4,31.1-33.4"/>
				<path fill="#FFFFFF" d="M23.5-33.4c0,0.1,0,0.1,0,0.2c-0.1,0.1-0.1,0.1-0.2,0.1c-0.1,0.1-0.1,0.3-0.1,0.4c-0.2,0.1,0,0.2,0,0.3
					c0,0,0,0.1,0,0.2c0,0.1,0,0.3,0.1,0.4c0.1,0.2,0.3,0.4,0.4,0.5c0.2,0.1,0.4,0.6,0.6,0.6c0.2,0,0.4-0.1,0.5-0.1
					c0.2,0,0.4,0,0.6-0.1c0.2-0.1,0.1-0.3,0.3-0.5c0.1-0.1,0.3,0,0.4-0.1c0.2-0.1,0.3-0.3,0.4-0.5c0-0.1,0-0.1,0-0.2
					c0-0.1,0.1-0.2,0.1-0.3c0-0.1-0.1-0.1-0.1-0.2c0-0.1,0-0.2,0-0.3c0-0.2,0-0.4-0.1-0.5c-0.4-0.7-1.2-0.9-2-0.8
					c-0.2,0-0.3,0.1-0.4,0.2c-0.2,0.1-0.1,0.2-0.3,0.2c-0.1,0-0.2,0.1-0.2,0.2C23.5-33.4,23.5-33.5,23.5-33.4
					C23.5-33.4,23.5-33.4,23.5-33.4"/>
				<path fill="#FFFFFF" d="M15.8-33.4c0,0.1,0,0.1,0,0.2c-0.1,0.1-0.1,0.1-0.2,0.1c-0.1,0.1-0.1,0.3-0.1,0.4c-0.2,0.1,0,0.2,0,0.3
					c0,0,0,0.1,0,0.2c0,0.1,0,0.3,0.1,0.4c0.1,0.2,0.3,0.4,0.4,0.5c0.2,0.1,0.4,0.6,0.6,0.6c0.2,0,0.4-0.1,0.5-0.1
					c0.2,0,0.4,0,0.6-0.1c0.2-0.1,0.1-0.3,0.3-0.5c0.1-0.1,0.3,0,0.4-0.1c0.2-0.1,0.3-0.3,0.4-0.5c0-0.1,0-0.1,0-0.2
					c0-0.1,0.1-0.2,0.1-0.3c0-0.1-0.1-0.1-0.1-0.2c0-0.1,0-0.2,0-0.3c0-0.2,0-0.4-0.1-0.5c-0.4-0.7-1.2-0.9-2-0.8
					c-0.2,0-0.3,0.1-0.4,0.2c-0.2,0.1-0.1,0.2-0.3,0.2c-0.1,0-0.2,0.1-0.2,0.2C15.8-33.4,15.8-33.5,15.8-33.4
					C15.8-33.4,15.8-33.4,15.8-33.4"/>
				<path fill="#FFFFFF" d="M8.2-33.4c0,0.1,0,0.1,0,0.2C8.1-33.1,8-33.1,8-33.1c-0.1,0.1-0.1,0.3-0.1,0.4c-0.2,0.1,0,0.2,0,0.3
					c0,0,0,0.1,0,0.2c0,0.1,0,0.3,0.1,0.4c0.1,0.2,0.3,0.4,0.4,0.5c0.2,0.1,0.4,0.6,0.6,0.6c0.2,0,0.4-0.1,0.5-0.1
					c0.2,0,0.4,0,0.6-0.1c0.2-0.1,0.1-0.3,0.3-0.5c0.1-0.1,0.3,0,0.4-0.1c0.2-0.1,0.3-0.3,0.4-0.5c0-0.1,0-0.1,0-0.2
					c0-0.1,0.1-0.2,0.1-0.3c0-0.1-0.1-0.1-0.1-0.2c0-0.1,0-0.2,0-0.3c0-0.2,0-0.4-0.1-0.5c-0.4-0.7-1.2-0.9-2-0.8
					c-0.2,0-0.3,0.1-0.4,0.2c-0.2,0.1-0.1,0.2-0.3,0.2c-0.1,0-0.2,0.1-0.2,0.2C8.2-33.4,8.2-33.5,8.2-33.4
					C8.1-33.4,8.1-33.4,8.2-33.4"/>
				<path fill="#FFFFFF" d="M0.5-33.4c0,0.1,0,0.1,0,0.2c-0.1,0.1-0.1,0.1-0.2,0.1c-0.1,0.1-0.1,0.3-0.1,0.4c-0.2,0.1,0,0.2,0,0.3
					c0,0,0,0.1,0,0.2c0,0.1,0,0.3,0.1,0.4c0.1,0.2,0.3,0.4,0.4,0.5c0.2,0.1,0.4,0.6,0.6,0.6c0.2,0,0.4-0.1,0.5-0.1
					c0.2,0,0.4,0,0.6-0.1c0.2-0.1,0.1-0.3,0.3-0.5c0.1-0.1,0.3,0,0.4-0.1c0.2-0.1,0.3-0.3,0.4-0.5c0-0.1,0-0.1,0-0.2
					c0-0.1,0.1-0.2,0.1-0.3c0-0.1-0.1-0.1-0.1-0.2c0-0.1,0-0.2,0-0.3c0-0.2,0-0.4-0.1-0.5c-0.4-0.7-1.2-0.9-2-0.8
					c-0.2,0-0.3,0.1-0.4,0.2c-0.2,0.1-0.1,0.2-0.3,0.2c-0.1,0-0.2,0.1-0.2,0.2C0.5-33.4,0.5-33.5,0.5-33.4
					C0.5-33.4,0.5-33.4,0.5-33.4"/>
			</g>
			<g>
				<path fill="#FFFFFF" d="M69.4-25.7c0,0.1,0,0.1,0,0.2c-0.1,0.1-0.1,0.1-0.2,0.1c-0.1,0.1-0.1,0.3-0.1,0.4c-0.2,0.1,0,0.2,0,0.3
					c0,0,0,0.1,0,0.2c0,0.1,0,0.3,0.1,0.4c0.1,0.2,0.3,0.4,0.4,0.5c0.2,0.1,0.4,0.6,0.6,0.6c0.2,0,0.4-0.1,0.5-0.1
					c0.2,0,0.4,0,0.6-0.1c0.2-0.1,0.1-0.3,0.3-0.5c0.1-0.1,0.3,0,0.4-0.1c0.2-0.1,0.3-0.3,0.4-0.5c0-0.1,0-0.1,0-0.2
					c0-0.1,0.1-0.2,0.1-0.3c0-0.1-0.1-0.1-0.1-0.2c0-0.1,0-0.2,0-0.3c0-0.2,0-0.4-0.1-0.5c-0.4-0.7-1.2-0.9-2-0.8
					c-0.2,0-0.3,0.1-0.4,0.2c-0.2,0.1-0.1,0.2-0.3,0.2c-0.1,0-0.2,0.1-0.2,0.2C69.4-25.8,69.4-25.8,69.4-25.7
					C69.4-25.7,69.4-25.7,69.4-25.7"/>
				<path fill="#FFFFFF" d="M61.8-25.7c0,0.1,0,0.1,0,0.2c-0.1,0.1-0.1,0.1-0.2,0.1c-0.1,0.1-0.1,0.3-0.1,0.4c-0.2,0.1,0,0.2,0,0.3
					c0,0,0,0.1,0,0.2c0,0.1,0,0.3,0.1,0.4c0.1,0.2,0.3,0.4,0.4,0.5c0.2,0.1,0.4,0.6,0.6,0.6c0.2,0,0.4-0.1,0.5-0.1
					c0.2,0,0.4,0,0.6-0.1c0.2-0.1,0.1-0.3,0.3-0.5c0.1-0.1,0.3,0,0.4-0.1c0.2-0.1,0.3-0.3,0.4-0.5c0-0.1,0-0.1,0-0.2
					c0-0.1,0.1-0.2,0.1-0.3c0-0.1-0.1-0.1-0.1-0.2c0-0.1,0-0.2,0-0.3c0-0.2,0-0.4-0.1-0.5c-0.4-0.7-1.2-0.9-2-0.8
					c-0.2,0-0.3,0.1-0.4,0.2c-0.2,0.1-0.1,0.2-0.3,0.2c-0.1,0-0.2,0.1-0.2,0.2C61.8-25.8,61.8-25.8,61.8-25.7
					C61.8-25.7,61.8-25.7,61.8-25.7"/>
				<path fill="#FFFFFF" d="M54.1-25.7c0,0.1,0,0.1,0,0.2c-0.1,0.1-0.1,0.1-0.2,0.1c-0.1,0.1-0.1,0.3-0.1,0.4c-0.2,0.1,0,0.2,0,0.3
					c0,0,0,0.1,0,0.2c0,0.1,0,0.3,0.1,0.4c0.1,0.2,0.3,0.4,0.4,0.5c0.2,0.1,0.4,0.6,0.6,0.6c0.2,0,0.4-0.1,0.5-0.1
					c0.2,0,0.4,0,0.6-0.1c0.2-0.1,0.1-0.3,0.3-0.5c0.1-0.1,0.3,0,0.4-0.1c0.2-0.1,0.3-0.3,0.4-0.5c0-0.1,0-0.1,0-0.2
					c0-0.1,0.1-0.2,0.1-0.3c0-0.1-0.1-0.1-0.1-0.2c0-0.1,0-0.2,0-0.3c0-0.2,0-0.4-0.1-0.5c-0.4-0.7-1.2-0.9-2-0.8
					c-0.2,0-0.3,0.1-0.4,0.2c-0.2,0.1-0.1,0.2-0.3,0.2c-0.1,0-0.2,0.1-0.2,0.2C54.1-25.8,54.1-25.8,54.1-25.7
					C54.1-25.7,54.1-25.7,54.1-25.7"/>
				<path fill="#FFFFFF" d="M46.5-25.7c0,0.1,0,0.1,0,0.2c-0.1,0.1-0.1,0.1-0.2,0.1c-0.1,0.1-0.1,0.3-0.1,0.4c-0.2,0.1,0,0.2,0,0.3
					c0,0,0,0.1,0,0.2c0,0.1,0,0.3,0.1,0.4c0.1,0.2,0.3,0.4,0.4,0.5c0.2,0.1,0.4,0.6,0.6,0.6c0.2,0,0.4-0.1,0.5-0.1
					c0.2,0,0.4,0,0.6-0.1c0.2-0.1,0.1-0.3,0.3-0.5c0.1-0.1,0.3,0,0.4-0.1c0.2-0.1,0.3-0.3,0.4-0.5c0-0.1,0-0.1,0-0.2
					c0-0.1,0.1-0.2,0.1-0.3c0-0.1-0.1-0.1-0.1-0.2c0-0.1,0-0.2,0-0.3c0-0.2,0-0.4-0.1-0.5c-0.4-0.7-1.2-0.9-2-0.8
					c-0.2,0-0.3,0.1-0.4,0.2c-0.2,0.1-0.1,0.2-0.3,0.2c-0.1,0-0.2,0.1-0.2,0.2C46.5-25.8,46.5-25.8,46.5-25.7
					C46.5-25.7,46.5-25.7,46.5-25.7"/>
				<path fill="#FFFFFF" d="M38.8-25.7c0,0.1,0,0.1,0,0.2c-0.1,0.1-0.1,0.1-0.2,0.1c-0.1,0.1-0.1,0.3-0.1,0.4c-0.2,0.1,0,0.2,0,0.3
					c0,0,0,0.1,0,0.2c0,0.1,0,0.3,0.1,0.4c0.1,0.2,0.3,0.4,0.4,0.5c0.2,0.1,0.4,0.6,0.6,0.6c0.2,0,0.4-0.1,0.5-0.1
					c0.2,0,0.4,0,0.6-0.1c0.2-0.1,0.1-0.3,0.3-0.5c0.1-0.1,0.3,0,0.4-0.1c0.2-0.1,0.3-0.3,0.4-0.5c0-0.1,0-0.1,0-0.2
					c0-0.1,0.1-0.2,0.1-0.3c0-0.1-0.1-0.1-0.1-0.2c0-0.1,0-0.2,0-0.3c0-0.2,0-0.4-0.1-0.5c-0.4-0.7-1.2-0.9-2-0.8
					c-0.2,0-0.3,0.1-0.4,0.2c-0.2,0.1-0.1,0.2-0.3,0.2c-0.1,0-0.2,0.1-0.2,0.2C38.8-25.8,38.8-25.8,38.8-25.7
					C38.8-25.7,38.8-25.7,38.8-25.7"/>
				<path fill="#FFFFFF" d="M31.1-25.7c0,0.1,0,0.1,0,0.2c-0.1,0.1-0.1,0.1-0.2,0.1c-0.1,0.1-0.1,0.3-0.1,0.4c-0.2,0.1,0,0.2,0,0.3
					c0,0,0,0.1,0,0.2c0,0.1,0,0.3,0.1,0.4c0.1,0.2,0.3,0.4,0.4,0.5c0.2,0.1,0.4,0.6,0.6,0.6c0.2,0,0.4-0.1,0.5-0.1
					c0.2,0,0.4,0,0.6-0.1c0.2-0.1,0.1-0.3,0.3-0.5c0.1-0.1,0.3,0,0.4-0.1c0.2-0.1,0.3-0.3,0.4-0.5c0-0.1,0-0.1,0-0.2
					c0-0.1,0.1-0.2,0.1-0.3c0-0.1-0.1-0.1-0.1-0.2c0-0.1,0-0.2,0-0.3c0-0.2,0-0.4-0.1-0.5c-0.4-0.7-1.2-0.9-2-0.8
					c-0.2,0-0.3,0.1-0.4,0.2c-0.2,0.1-0.1,0.2-0.3,0.2c-0.1,0-0.2,0.1-0.2,0.2C31.1-25.8,31.1-25.8,31.1-25.7
					C31.1-25.7,31.1-25.7,31.1-25.7"/>
				<path fill="#FFFFFF" d="M23.5-25.7c0,0.1,0,0.1,0,0.2c-0.1,0.1-0.1,0.1-0.2,0.1c-0.1,0.1-0.1,0.3-0.1,0.4c-0.2,0.1,0,0.2,0,0.3
					c0,0,0,0.1,0,0.2c0,0.1,0,0.3,0.1,0.4c0.1,0.2,0.3,0.4,0.4,0.5c0.2,0.1,0.4,0.6,0.6,0.6c0.2,0,0.4-0.1,0.5-0.1
					c0.2,0,0.4,0,0.6-0.1c0.2-0.1,0.1-0.3,0.3-0.5c0.1-0.1,0.3,0,0.4-0.1c0.2-0.1,0.3-0.3,0.4-0.5c0-0.1,0-0.1,0-0.2
					c0-0.1,0.1-0.2,0.1-0.3c0-0.1-0.1-0.1-0.1-0.2c0-0.1,0-0.2,0-0.3c0-0.2,0-0.4-0.1-0.5c-0.4-0.7-1.2-0.9-2-0.8
					c-0.2,0-0.3,0.1-0.4,0.2c-0.2,0.1-0.1,0.2-0.3,0.2c-0.1,0-0.2,0.1-0.2,0.2C23.5-25.8,23.5-25.8,23.5-25.7
					C23.5-25.7,23.5-25.7,23.5-25.7"/>
				<path fill="#FFFFFF" d="M15.8-25.7c0,0.1,0,0.1,0,0.2c-0.1,0.1-0.1,0.1-0.2,0.1c-0.1,0.1-0.1,0.3-0.1,0.4c-0.2,0.1,0,0.2,0,0.3
					c0,0,0,0.1,0,0.2c0,0.1,0,0.3,0.1,0.4c0.1,0.2,0.3,0.4,0.4,0.5c0.2,0.1,0.4,0.6,0.6,0.6c0.2,0,0.4-0.1,0.5-0.1
					c0.2,0,0.4,0,0.6-0.1c0.2-0.1,0.1-0.3,0.3-0.5c0.1-0.1,0.3,0,0.4-0.1c0.2-0.1,0.3-0.3,0.4-0.5c0-0.1,0-0.1,0-0.2
					c0-0.1,0.1-0.2,0.1-0.3c0-0.1-0.1-0.1-0.1-0.2c0-0.1,0-0.2,0-0.3c0-0.2,0-0.4-0.1-0.5c-0.4-0.7-1.2-0.9-2-0.8
					c-0.2,0-0.3,0.1-0.4,0.2c-0.2,0.1-0.1,0.2-0.3,0.2c-0.1,0-0.2,0.1-0.2,0.2C15.8-25.8,15.8-25.8,15.8-25.7
					C15.8-25.7,15.8-25.7,15.8-25.7"/>
				<path fill="#FFFFFF" d="M8.2-25.7c0,0.1,0,0.1,0,0.2C8.1-25.4,8-25.5,8-25.4c-0.1,0.1-0.1,0.3-0.1,0.4c-0.2,0.1,0,0.2,0,0.3
					c0,0,0,0.1,0,0.2c0,0.1,0,0.3,0.1,0.4C8-24,8.2-23.8,8.3-23.6c0.2,0.1,0.4,0.6,0.6,0.6c0.2,0,0.4-0.1,0.5-0.1
					c0.2,0,0.4,0,0.6-0.1c0.2-0.1,0.1-0.3,0.3-0.5c0.1-0.1,0.3,0,0.4-0.1c0.2-0.1,0.3-0.3,0.4-0.5c0-0.1,0-0.1,0-0.2
					c0-0.1,0.1-0.2,0.1-0.3c0-0.1-0.1-0.1-0.1-0.2c0-0.1,0-0.2,0-0.3c0-0.2,0-0.4-0.1-0.5c-0.4-0.7-1.2-0.9-2-0.8
					c-0.2,0-0.3,0.1-0.4,0.2c-0.2,0.1-0.1,0.2-0.3,0.2c-0.1,0-0.2,0.1-0.2,0.2C8.2-25.8,8.2-25.8,8.2-25.7
					C8.1-25.7,8.1-25.7,8.2-25.7"/>
				<path fill="#FFFFFF" d="M0.5-25.7c0,0.1,0,0.1,0,0.2c-0.1,0.1-0.1,0.1-0.2,0.1c-0.1,0.1-0.1,0.3-0.1,0.4c-0.2,0.1,0,0.2,0,0.3
					c0,0,0,0.1,0,0.2c0,0.1,0,0.3,0.1,0.4c0.1,0.2,0.3,0.4,0.4,0.5C0.9-23.5,1-23.1,1.3-23c0.2,0,0.4-0.1,0.5-0.1
					c0.2,0,0.4,0,0.6-0.1c0.2-0.1,0.1-0.3,0.3-0.5c0.1-0.1,0.3,0,0.4-0.1c0.2-0.1,0.3-0.3,0.4-0.5c0-0.1,0-0.1,0-0.2
					c0-0.1,0.1-0.2,0.1-0.3c0-0.1-0.1-0.1-0.1-0.2c0-0.1,0-0.2,0-0.3c0-0.2,0-0.4-0.1-0.5c-0.4-0.7-1.2-0.9-2-0.8
					c-0.2,0-0.3,0.1-0.4,0.2c-0.2,0.1-0.1,0.2-0.3,0.2c-0.1,0-0.2,0.1-0.2,0.2C0.5-25.8,0.5-25.8,0.5-25.7
					C0.5-25.7,0.5-25.7,0.5-25.7"/>
			</g>
			<g>
				<path fill="#FFFFFF" d="M69.4-18.1c0,0.1,0,0.1,0,0.2c-0.1,0.1-0.1,0.1-0.2,0.1c-0.1,0.1-0.1,0.3-0.1,0.4c-0.2,0.1,0,0.2,0,0.3
					c0,0,0,0.1,0,0.2c0,0.1,0,0.3,0.1,0.4c0.1,0.2,0.3,0.4,0.4,0.5c0.2,0.1,0.4,0.6,0.6,0.6c0.2,0,0.4-0.1,0.5-0.1
					c0.2,0,0.4,0,0.6-0.1c0.2-0.1,0.1-0.3,0.3-0.5c0.1-0.1,0.3,0,0.4-0.1c0.2-0.1,0.3-0.3,0.4-0.5c0-0.1,0-0.1,0-0.2
					c0-0.1,0.1-0.2,0.1-0.3c0-0.1-0.1-0.1-0.1-0.2c0-0.1,0-0.2,0-0.3c0-0.2,0-0.4-0.1-0.5c-0.4-0.7-1.2-0.9-2-0.8
					c-0.2,0-0.3,0.1-0.4,0.2c-0.2,0.1-0.1,0.2-0.3,0.2c-0.1,0-0.2,0.1-0.2,0.2C69.4-18.1,69.4-18.2,69.4-18.1
					C69.4-18,69.4-18.1,69.4-18.1"/>
				<path fill="#FFFFFF" d="M61.8-18.1c0,0.1,0,0.1,0,0.2c-0.1,0.1-0.1,0.1-0.2,0.1c-0.1,0.1-0.1,0.3-0.1,0.4c-0.2,0.1,0,0.2,0,0.3
					c0,0,0,0.1,0,0.2c0,0.1,0,0.3,0.1,0.4c0.1,0.2,0.3,0.4,0.4,0.5c0.2,0.1,0.4,0.6,0.6,0.6c0.2,0,0.4-0.1,0.5-0.1
					c0.2,0,0.4,0,0.6-0.1c0.2-0.1,0.1-0.3,0.3-0.5c0.1-0.1,0.3,0,0.4-0.1c0.2-0.1,0.3-0.3,0.4-0.5c0-0.1,0-0.1,0-0.2
					c0-0.1,0.1-0.2,0.1-0.3c0-0.1-0.1-0.1-0.1-0.2c0-0.1,0-0.2,0-0.3c0-0.2,0-0.4-0.1-0.5c-0.4-0.7-1.2-0.9-2-0.8
					c-0.2,0-0.3,0.1-0.4,0.2c-0.2,0.1-0.1,0.2-0.3,0.2c-0.1,0-0.2,0.1-0.2,0.2C61.8-18.1,61.8-18.2,61.8-18.1
					C61.8-18,61.8-18.1,61.8-18.1"/>
				<path fill="#FFFFFF" d="M54.1-18.1c0,0.1,0,0.1,0,0.2c-0.1,0.1-0.1,0.1-0.2,0.1c-0.1,0.1-0.1,0.3-0.1,0.4c-0.2,0.1,0,0.2,0,0.3
					c0,0,0,0.1,0,0.2c0,0.1,0,0.3,0.1,0.4c0.1,0.2,0.3,0.4,0.4,0.5c0.2,0.1,0.4,0.6,0.6,0.6c0.2,0,0.4-0.1,0.5-0.1
					c0.2,0,0.4,0,0.6-0.1c0.2-0.1,0.1-0.3,0.3-0.5c0.1-0.1,0.3,0,0.4-0.1c0.2-0.1,0.3-0.3,0.4-0.5c0-0.1,0-0.1,0-0.2
					c0-0.1,0.1-0.2,0.1-0.3c0-0.1-0.1-0.1-0.1-0.2c0-0.1,0-0.2,0-0.3c0-0.2,0-0.4-0.1-0.5c-0.4-0.7-1.2-0.9-2-0.8
					c-0.2,0-0.3,0.1-0.4,0.2c-0.2,0.1-0.1,0.2-0.3,0.2c-0.1,0-0.2,0.1-0.2,0.2C54.1-18.1,54.1-18.2,54.1-18.1
					C54.1-18,54.1-18.1,54.1-18.1"/>
				<path fill="#FFFFFF" d="M46.5-18.1c0,0.1,0,0.1,0,0.2c-0.1,0.1-0.1,0.1-0.2,0.1c-0.1,0.1-0.1,0.3-0.1,0.4c-0.2,0.1,0,0.2,0,0.3
					c0,0,0,0.1,0,0.2c0,0.1,0,0.3,0.1,0.4c0.1,0.2,0.3,0.4,0.4,0.5c0.2,0.1,0.4,0.6,0.6,0.6c0.2,0,0.4-0.1,0.5-0.1
					c0.2,0,0.4,0,0.6-0.1c0.2-0.1,0.1-0.3,0.3-0.5c0.1-0.1,0.3,0,0.4-0.1c0.2-0.1,0.3-0.3,0.4-0.5c0-0.1,0-0.1,0-0.2
					c0-0.1,0.1-0.2,0.1-0.3c0-0.1-0.1-0.1-0.1-0.2c0-0.1,0-0.2,0-0.3c0-0.2,0-0.4-0.1-0.5c-0.4-0.7-1.2-0.9-2-0.8
					c-0.2,0-0.3,0.1-0.4,0.2c-0.2,0.1-0.1,0.2-0.3,0.2c-0.1,0-0.2,0.1-0.2,0.2C46.5-18.1,46.5-18.2,46.5-18.1
					C46.5-18,46.5-18.1,46.5-18.1"/>
				<path fill="#FFFFFF" d="M38.8-18.1c0,0.1,0,0.1,0,0.2c-0.1,0.1-0.1,0.1-0.2,0.1c-0.1,0.1-0.1,0.3-0.1,0.4c-0.2,0.1,0,0.2,0,0.3
					c0,0,0,0.1,0,0.2c0,0.1,0,0.3,0.1,0.4c0.1,0.2,0.3,0.4,0.4,0.5c0.2,0.1,0.4,0.6,0.6,0.6c0.2,0,0.4-0.1,0.5-0.1
					c0.2,0,0.4,0,0.6-0.1c0.2-0.1,0.1-0.3,0.3-0.5c0.1-0.1,0.3,0,0.4-0.1c0.2-0.1,0.3-0.3,0.4-0.5c0-0.1,0-0.1,0-0.2
					c0-0.1,0.1-0.2,0.1-0.3c0-0.1-0.1-0.1-0.1-0.2c0-0.1,0-0.2,0-0.3c0-0.2,0-0.4-0.1-0.5c-0.4-0.7-1.2-0.9-2-0.8
					c-0.2,0-0.3,0.1-0.4,0.2c-0.2,0.1-0.1,0.2-0.3,0.2c-0.1,0-0.2,0.1-0.2,0.2C38.8-18.1,38.8-18.2,38.8-18.1
					C38.8-18,38.8-18.1,38.8-18.1"/>
				<path fill="#FFFFFF" d="M31.1-18.1c0,0.1,0,0.1,0,0.2c-0.1,0.1-0.1,0.1-0.2,0.1c-0.1,0.1-0.1,0.3-0.1,0.4c-0.2,0.1,0,0.2,0,0.3
					c0,0,0,0.1,0,0.2c0,0.1,0,0.3,0.1,0.4c0.1,0.2,0.3,0.4,0.4,0.5c0.2,0.1,0.4,0.6,0.6,0.6c0.2,0,0.4-0.1,0.5-0.1
					c0.2,0,0.4,0,0.6-0.1c0.2-0.1,0.1-0.3,0.3-0.5c0.1-0.1,0.3,0,0.4-0.1c0.2-0.1,0.3-0.3,0.4-0.5c0-0.1,0-0.1,0-0.2
					c0-0.1,0.1-0.2,0.1-0.3c0-0.1-0.1-0.1-0.1-0.2c0-0.1,0-0.2,0-0.3c0-0.2,0-0.4-0.1-0.5c-0.4-0.7-1.2-0.9-2-0.8
					c-0.2,0-0.3,0.1-0.4,0.2c-0.2,0.1-0.1,0.2-0.3,0.2c-0.1,0-0.2,0.1-0.2,0.2C31.1-18.1,31.1-18.2,31.1-18.1
					C31.1-18,31.1-18.1,31.1-18.1"/>
				<path fill="#FFFFFF" d="M23.5-18.1c0,0.1,0,0.1,0,0.2c-0.1,0.1-0.1,0.1-0.2,0.1c-0.1,0.1-0.1,0.3-0.1,0.4c-0.2,0.1,0,0.2,0,0.3
					c0,0,0,0.1,0,0.2c0,0.1,0,0.3,0.1,0.4c0.1,0.2,0.3,0.4,0.4,0.5c0.2,0.1,0.4,0.6,0.6,0.6c0.2,0,0.4-0.1,0.5-0.1
					c0.2,0,0.4,0,0.6-0.1c0.2-0.1,0.1-0.3,0.3-0.5c0.1-0.1,0.3,0,0.4-0.1c0.2-0.1,0.3-0.3,0.4-0.5c0-0.1,0-0.1,0-0.2
					c0-0.1,0.1-0.2,0.1-0.3c0-0.1-0.1-0.1-0.1-0.2c0-0.1,0-0.2,0-0.3c0-0.2,0-0.4-0.1-0.5c-0.4-0.7-1.2-0.9-2-0.8
					c-0.2,0-0.3,0.1-0.4,0.2c-0.2,0.1-0.1,0.2-0.3,0.2c-0.1,0-0.2,0.1-0.2,0.2C23.5-18.1,23.5-18.2,23.5-18.1
					C23.5-18,23.5-18.1,23.5-18.1"/>
				<path fill="#FFFFFF" d="M15.8-18.1c0,0.1,0,0.1,0,0.2c-0.1,0.1-0.1,0.1-0.2,0.1c-0.1,0.1-0.1,0.3-0.1,0.4c-0.2,0.1,0,0.2,0,0.3
					c0,0,0,0.1,0,0.2c0,0.1,0,0.3,0.1,0.4c0.1,0.2,0.3,0.4,0.4,0.5c0.2,0.1,0.4,0.6,0.6,0.6c0.2,0,0.4-0.1,0.5-0.1
					c0.2,0,0.4,0,0.6-0.1c0.2-0.1,0.1-0.3,0.3-0.5c0.1-0.1,0.3,0,0.4-0.1c0.2-0.1,0.3-0.3,0.4-0.5c0-0.1,0-0.1,0-0.2
					c0-0.1,0.1-0.2,0.1-0.3c0-0.1-0.1-0.1-0.1-0.2c0-0.1,0-0.2,0-0.3c0-0.2,0-0.4-0.1-0.5c-0.4-0.7-1.2-0.9-2-0.8
					c-0.2,0-0.3,0.1-0.4,0.2c-0.2,0.1-0.1,0.2-0.3,0.2c-0.1,0-0.2,0.1-0.2,0.2C15.8-18.1,15.8-18.2,15.8-18.1
					C15.8-18,15.8-18.1,15.8-18.1"/>
				<path fill="#FFFFFF" d="M8.2-18.1c0,0.1,0,0.1,0,0.2C8.1-17.8,8-17.8,8-17.8c-0.1,0.1-0.1,0.3-0.1,0.4c-0.2,0.1,0,0.2,0,0.3
					c0,0,0,0.1,0,0.2c0,0.1,0,0.3,0.1,0.4C8-16.3,8.2-16.1,8.3-16c0.2,0.1,0.4,0.6,0.6,0.6c0.2,0,0.4-0.1,0.5-0.1
					c0.2,0,0.4,0,0.6-0.1c0.2-0.1,0.1-0.3,0.3-0.5c0.1-0.1,0.3,0,0.4-0.1c0.2-0.1,0.3-0.3,0.4-0.5c0-0.1,0-0.1,0-0.2
					c0-0.1,0.1-0.2,0.1-0.3c0-0.1-0.1-0.1-0.1-0.2c0-0.1,0-0.2,0-0.3c0-0.2,0-0.4-0.1-0.5c-0.4-0.7-1.2-0.9-2-0.8
					c-0.2,0-0.3,0.1-0.4,0.2c-0.2,0.1-0.1,0.2-0.3,0.2c-0.1,0-0.2,0.1-0.2,0.2C8.2-18.1,8.2-18.2,8.2-18.1C8.1-18,8.1-18.1,8.2-18.1
					"/>
				<path fill="#FFFFFF" d="M0.5-18.1c0,0.1,0,0.1,0,0.2c-0.1,0.1-0.1,0.1-0.2,0.1c-0.1,0.1-0.1,0.3-0.1,0.4c-0.2,0.1,0,0.2,0,0.3
					c0,0,0,0.1,0,0.2c0,0.1,0,0.3,0.1,0.4c0.1,0.2,0.3,0.4,0.4,0.5c0.2,0.1,0.4,0.6,0.6,0.6c0.2,0,0.4-0.1,0.5-0.1
					c0.2,0,0.4,0,0.6-0.1c0.2-0.1,0.1-0.3,0.3-0.5C2.8-16.1,3-16,3.1-16c0.2-0.1,0.3-0.3,0.4-0.5c0-0.1,0-0.1,0-0.2
					c0-0.1,0.1-0.2,0.1-0.3c0-0.1-0.1-0.1-0.1-0.2c0-0.1,0-0.2,0-0.3c0-0.2,0-0.4-0.1-0.5c-0.4-0.7-1.2-0.9-2-0.8
					c-0.2,0-0.3,0.1-0.4,0.2c-0.2,0.1-0.1,0.2-0.3,0.2c-0.1,0-0.2,0.1-0.2,0.2C0.5-18.1,0.5-18.2,0.5-18.1C0.5-18,0.5-18.1,0.5-18.1
					"/>
			</g>
			<g>
				<path fill="#FFFFFF" d="M69.4-10.4c0,0.1,0,0.1,0,0.2c-0.1,0.1-0.1,0.1-0.2,0.1c-0.1,0.1-0.1,0.3-0.1,0.4c-0.2,0.1,0,0.2,0,0.3
					c0,0,0,0.1,0,0.2c0,0.1,0,0.3,0.1,0.4c0.1,0.2,0.3,0.4,0.4,0.5c0.2,0.1,0.4,0.6,0.6,0.6c0.2,0,0.4-0.1,0.5-0.1
					c0.2,0,0.4,0,0.6-0.1c0.2-0.1,0.1-0.3,0.3-0.5c0.1-0.1,0.3,0,0.4-0.1c0.2-0.1,0.3-0.3,0.4-0.5c0-0.1,0-0.1,0-0.2
					c0-0.1,0.1-0.2,0.1-0.3c0-0.1-0.1-0.1-0.1-0.2c0-0.1,0-0.2,0-0.3c0-0.2,0-0.4-0.1-0.5c-0.4-0.7-1.2-0.9-2-0.8
					c-0.2,0-0.3,0.1-0.4,0.2c-0.2,0.1-0.1,0.2-0.3,0.2c-0.1,0-0.2,0.1-0.2,0.2C69.4-10.5,69.4-10.5,69.4-10.4
					C69.4-10.4,69.4-10.4,69.4-10.4"/>
				<path fill="#FFFFFF" d="M61.8-10.4c0,0.1,0,0.1,0,0.2c-0.1,0.1-0.1,0.1-0.2,0.1c-0.1,0.1-0.1,0.3-0.1,0.4c-0.2,0.1,0,0.2,0,0.3
					c0,0,0,0.1,0,0.2c0,0.1,0,0.3,0.1,0.4c0.1,0.2,0.3,0.4,0.4,0.5c0.2,0.1,0.4,0.6,0.6,0.6c0.2,0,0.4-0.1,0.5-0.1
					c0.2,0,0.4,0,0.6-0.1C63.9-8,63.8-8.2,64-8.3c0.1-0.1,0.3,0,0.4-0.1c0.2-0.1,0.3-0.3,0.4-0.5c0-0.1,0-0.1,0-0.2
					c0-0.1,0.1-0.2,0.1-0.3c0-0.1-0.1-0.1-0.1-0.2c0-0.1,0-0.2,0-0.3c0-0.2,0-0.4-0.1-0.5c-0.4-0.7-1.2-0.9-2-0.8
					c-0.2,0-0.3,0.1-0.4,0.2c-0.2,0.1-0.1,0.2-0.3,0.2c-0.1,0-0.2,0.1-0.2,0.2C61.8-10.5,61.8-10.5,61.8-10.4
					C61.8-10.4,61.8-10.4,61.8-10.4"/>
				<path fill="#FFFFFF" d="M54.1-10.4c0,0.1,0,0.1,0,0.2c-0.1,0.1-0.1,0.1-0.2,0.1c-0.1,0.1-0.1,0.3-0.1,0.4c-0.2,0.1,0,0.2,0,0.3
					c0,0,0,0.1,0,0.2c0,0.1,0,0.3,0.1,0.4c0.1,0.2,0.3,0.4,0.4,0.5c0.2,0.1,0.4,0.6,0.6,0.6c0.2,0,0.4-0.1,0.5-0.1
					c0.2,0,0.4,0,0.6-0.1c0.2-0.1,0.1-0.3,0.3-0.5c0.1-0.1,0.3,0,0.4-0.1c0.2-0.1,0.3-0.3,0.4-0.5c0-0.1,0-0.1,0-0.2
					c0-0.1,0.1-0.2,0.1-0.3c0-0.1-0.1-0.1-0.1-0.2c0-0.1,0-0.2,0-0.3c0-0.2,0-0.4-0.1-0.5c-0.4-0.7-1.2-0.9-2-0.8
					c-0.2,0-0.3,0.1-0.4,0.2c-0.2,0.1-0.1,0.2-0.3,0.2c-0.1,0-0.2,0.1-0.2,0.2C54.1-10.5,54.1-10.5,54.1-10.4
					C54.1-10.4,54.1-10.4,54.1-10.4"/>
				<path fill="#FFFFFF" d="M46.5-10.4c0,0.1,0,0.1,0,0.2c-0.1,0.1-0.1,0.1-0.2,0.1c-0.1,0.1-0.1,0.3-0.1,0.4c-0.2,0.1,0,0.2,0,0.3
					c0,0,0,0.1,0,0.2c0,0.1,0,0.3,0.1,0.4c0.1,0.2,0.3,0.4,0.4,0.5c0.2,0.1,0.4,0.6,0.6,0.6c0.2,0,0.4-0.1,0.5-0.1
					c0.2,0,0.4,0,0.6-0.1c0.2-0.1,0.1-0.3,0.3-0.5c0.1-0.1,0.3,0,0.4-0.1c0.2-0.1,0.3-0.3,0.4-0.5c0-0.1,0-0.1,0-0.2
					c0-0.1,0.1-0.2,0.1-0.3c0-0.1-0.1-0.1-0.1-0.2c0-0.1,0-0.2,0-0.3c0-0.2,0-0.4-0.1-0.5c-0.4-0.7-1.2-0.9-2-0.8
					c-0.2,0-0.3,0.1-0.4,0.2c-0.2,0.1-0.1,0.2-0.3,0.2c-0.1,0-0.2,0.1-0.2,0.2C46.5-10.5,46.5-10.5,46.5-10.4
					C46.5-10.4,46.5-10.4,46.5-10.4"/>
				<path fill="#FFFFFF" d="M38.8-10.4c0,0.1,0,0.1,0,0.2c-0.1,0.1-0.1,0.1-0.2,0.1c-0.1,0.1-0.1,0.3-0.1,0.4c-0.2,0.1,0,0.2,0,0.3
					c0,0,0,0.1,0,0.2c0,0.1,0,0.3,0.1,0.4c0.1,0.2,0.3,0.4,0.4,0.5c0.2,0.1,0.4,0.6,0.6,0.6c0.2,0,0.4-0.1,0.5-0.1
					c0.2,0,0.4,0,0.6-0.1C40.9-8,40.8-8.2,41-8.3c0.1-0.1,0.3,0,0.4-0.1c0.2-0.1,0.3-0.3,0.4-0.5c0-0.1,0-0.1,0-0.2
					c0-0.1,0.1-0.2,0.1-0.3c0-0.1-0.1-0.1-0.1-0.2c0-0.1,0-0.2,0-0.3c0-0.2,0-0.4-0.1-0.5c-0.4-0.7-1.2-0.9-2-0.8
					c-0.2,0-0.3,0.1-0.4,0.2c-0.2,0.1-0.1,0.2-0.3,0.2c-0.1,0-0.2,0.1-0.2,0.2C38.8-10.5,38.8-10.5,38.8-10.4
					C38.8-10.4,38.8-10.4,38.8-10.4"/>
				<path fill="#FFFFFF" d="M31.1-10.4c0,0.1,0,0.1,0,0.2c-0.1,0.1-0.1,0.1-0.2,0.1c-0.1,0.1-0.1,0.3-0.1,0.4c-0.2,0.1,0,0.2,0,0.3
					c0,0,0,0.1,0,0.2c0,0.1,0,0.3,0.1,0.4c0.1,0.2,0.3,0.4,0.4,0.5c0.2,0.1,0.4,0.6,0.6,0.6c0.2,0,0.4-0.1,0.5-0.1
					c0.2,0,0.4,0,0.6-0.1c0.2-0.1,0.1-0.3,0.3-0.5c0.1-0.1,0.3,0,0.4-0.1c0.2-0.1,0.3-0.3,0.4-0.5c0-0.1,0-0.1,0-0.2
					c0-0.1,0.1-0.2,0.1-0.3c0-0.1-0.1-0.1-0.1-0.2c0-0.1,0-0.2,0-0.3c0-0.2,0-0.4-0.1-0.5c-0.4-0.7-1.2-0.9-2-0.8
					c-0.2,0-0.3,0.1-0.4,0.2c-0.2,0.1-0.1,0.2-0.3,0.2c-0.1,0-0.2,0.1-0.2,0.2C31.1-10.5,31.1-10.5,31.1-10.4
					C31.1-10.4,31.1-10.4,31.1-10.4"/>
				<path fill="#FFFFFF" d="M23.5-10.4c0,0.1,0,0.1,0,0.2c-0.1,0.1-0.1,0.1-0.2,0.1c-0.1,0.1-0.1,0.3-0.1,0.4c-0.2,0.1,0,0.2,0,0.3
					c0,0,0,0.1,0,0.2c0,0.1,0,0.3,0.1,0.4c0.1,0.2,0.3,0.4,0.4,0.5c0.2,0.1,0.4,0.6,0.6,0.6c0.2,0,0.4-0.1,0.5-0.1
					c0.2,0,0.4,0,0.6-0.1c0.2-0.1,0.1-0.3,0.3-0.5c0.1-0.1,0.3,0,0.4-0.1c0.2-0.1,0.3-0.3,0.4-0.5c0-0.1,0-0.1,0-0.2
					c0-0.1,0.1-0.2,0.1-0.3c0-0.1-0.1-0.1-0.1-0.2c0-0.1,0-0.2,0-0.3c0-0.2,0-0.4-0.1-0.5c-0.4-0.7-1.2-0.9-2-0.8
					c-0.2,0-0.3,0.1-0.4,0.2c-0.2,0.1-0.1,0.2-0.3,0.2c-0.1,0-0.2,0.1-0.2,0.2C23.5-10.5,23.5-10.5,23.5-10.4
					C23.5-10.4,23.5-10.4,23.5-10.4"/>
				<path fill="#FFFFFF" d="M15.8-10.4c0,0.1,0,0.1,0,0.2c-0.1,0.1-0.1,0.1-0.2,0.1c-0.1,0.1-0.1,0.3-0.1,0.4c-0.2,0.1,0,0.2,0,0.3
					c0,0,0,0.1,0,0.2c0,0.1,0,0.3,0.1,0.4c0.1,0.2,0.3,0.4,0.4,0.5c0.2,0.1,0.4,0.6,0.6,0.6c0.2,0,0.4-0.1,0.5-0.1
					c0.2,0,0.4,0,0.6-0.1C17.9-8,17.8-8.2,18-8.3c0.1-0.1,0.3,0,0.4-0.1c0.2-0.1,0.3-0.3,0.4-0.5c0-0.1,0-0.1,0-0.2
					c0-0.1,0.1-0.2,0.1-0.3c0-0.1-0.1-0.1-0.1-0.2c0-0.1,0-0.2,0-0.3c0-0.2,0-0.4-0.1-0.5c-0.4-0.7-1.2-0.9-2-0.8
					c-0.2,0-0.3,0.1-0.4,0.2c-0.2,0.1-0.1,0.2-0.3,0.2c-0.1,0-0.2,0.1-0.2,0.2C15.8-10.5,15.8-10.5,15.8-10.4
					C15.8-10.4,15.8-10.4,15.8-10.4"/>
				<path fill="#FFFFFF" d="M8.2-10.4c0,0.1,0,0.1,0,0.2C8.1-10.1,8-10.2,8-10.1C7.9-10,7.9-9.8,7.9-9.8c-0.2,0.1,0,0.2,0,0.3
					c0,0,0,0.1,0,0.2c0,0.1,0,0.3,0.1,0.4C8-8.7,8.2-8.5,8.3-8.3c0.2,0.1,0.4,0.6,0.6,0.6c0.2,0,0.4-0.1,0.5-0.1
					c0.2,0,0.4,0,0.6-0.1c0.2-0.1,0.1-0.3,0.3-0.5c0.1-0.1,0.3,0,0.4-0.1c0.2-0.1,0.3-0.3,0.4-0.5c0-0.1,0-0.1,0-0.2
					c0-0.1,0.1-0.2,0.1-0.3c0-0.1-0.1-0.1-0.1-0.2c0-0.1,0-0.2,0-0.3c0-0.2,0-0.4-0.1-0.5c-0.4-0.7-1.2-0.9-2-0.8
					c-0.2,0-0.3,0.1-0.4,0.2c-0.2,0.1-0.1,0.2-0.3,0.2c-0.1,0-0.2,0.1-0.2,0.2C8.2-10.5,8.2-10.5,8.2-10.4
					C8.1-10.4,8.1-10.4,8.2-10.4"/>
				<path fill="#FFFFFF" d="M0.5-10.4c0,0.1,0,0.1,0,0.2c-0.1,0.1-0.1,0.1-0.2,0.1C0.3-10,0.2-9.8,0.2-9.8c-0.2,0.1,0,0.2,0,0.3
					c0,0,0,0.1,0,0.2c0,0.1,0,0.3,0.1,0.4c0.1,0.2,0.3,0.4,0.4,0.5C0.9-8.2,1-7.8,1.3-7.7c0.2,0,0.4-0.1,0.5-0.1
					c0.2,0,0.4,0,0.6-0.1C2.6-8,2.5-8.2,2.7-8.3c0.1-0.1,0.3,0,0.4-0.1c0.2-0.1,0.3-0.3,0.4-0.5c0-0.1,0-0.1,0-0.2
					c0-0.1,0.1-0.2,0.1-0.3c0-0.1-0.1-0.1-0.1-0.2c0-0.1,0-0.2,0-0.3c0-0.2,0-0.4-0.1-0.5c-0.4-0.7-1.2-0.9-2-0.8
					c-0.2,0-0.3,0.1-0.4,0.2c-0.2,0.1-0.1,0.2-0.3,0.2c-0.1,0-0.2,0.1-0.2,0.2C0.5-10.5,0.5-10.5,0.5-10.4
					C0.5-10.4,0.5-10.4,0.5-10.4"/>
			</g>
		</g>
		<g>
			<path fill="#FFFFFF" d="M69.4-2.8c0,0.1,0,0.1,0,0.2c-0.1,0.1-0.1,0.1-0.2,0.1c-0.1,0.1-0.1,0.3-0.1,0.4c-0.2,0.1,0,0.2,0,0.3
				c0,0,0,0.1,0,0.2c0,0.1,0,0.3,0.1,0.4c0.1,0.2,0.3,0.4,0.4,0.5C69.8-0.5,70-0.1,70.2,0c0.2,0,0.4-0.1,0.5-0.1
				c0.2,0,0.4,0,0.6-0.1c0.2-0.1,0.1-0.3,0.3-0.5c0.1-0.1,0.3,0,0.4-0.1c0.2-0.1,0.3-0.3,0.4-0.5c0-0.1,0-0.1,0-0.2
				c0-0.1,0.1-0.2,0.1-0.3c0-0.1-0.1-0.1-0.1-0.2c0-0.1,0-0.2,0-0.3c0-0.2,0-0.4-0.1-0.5c-0.4-0.7-1.2-0.9-2-0.8
				c-0.2,0-0.3,0.1-0.4,0.2c-0.2,0.1-0.1,0.2-0.3,0.2c-0.1,0-0.2,0.1-0.2,0.2C69.4-2.8,69.4-2.9,69.4-2.8
				C69.4-2.7,69.4-2.8,69.4-2.8"/>
			<path fill="#FFFFFF" d="M61.8-2.8c0,0.1,0,0.1,0,0.2c-0.1,0.1-0.1,0.1-0.2,0.1c-0.1,0.1-0.1,0.3-0.1,0.4c-0.2,0.1,0,0.2,0,0.3
				c0,0,0,0.1,0,0.2c0,0.1,0,0.3,0.1,0.4C61.6-1,61.8-0.8,62-0.7c0.2,0.1,0.4,0.6,0.6,0.6c0.2,0,0.4-0.1,0.5-0.1
				c0.2,0,0.4,0,0.6-0.1c0.2-0.1,0.1-0.3,0.3-0.5c0.1-0.1,0.3,0,0.4-0.1c0.2-0.1,0.3-0.3,0.4-0.5c0-0.1,0-0.1,0-0.2
				c0-0.1,0.1-0.2,0.1-0.3c0-0.1-0.1-0.1-0.1-0.2c0-0.1,0-0.2,0-0.3c0-0.2,0-0.4-0.1-0.5c-0.4-0.7-1.2-0.9-2-0.8
				c-0.2,0-0.3,0.1-0.4,0.2c-0.2,0.1-0.1,0.2-0.3,0.2c-0.1,0-0.2,0.1-0.2,0.2C61.8-2.8,61.8-2.9,61.8-2.8
				C61.8-2.7,61.8-2.8,61.8-2.8"/>
			<path fill="#FFFFFF" d="M54.1-2.8c0,0.1,0,0.1,0,0.2C54-2.5,54-2.5,53.9-2.5c-0.1,0.1-0.1,0.3-0.1,0.4c-0.2,0.1,0,0.2,0,0.3
				c0,0,0,0.1,0,0.2c0,0.1,0,0.3,0.1,0.4C54-1,54.1-0.8,54.3-0.7c0.2,0.1,0.4,0.6,0.6,0.6c0.2,0,0.4-0.1,0.5-0.1
				c0.2,0,0.4,0,0.6-0.1c0.2-0.1,0.1-0.3,0.3-0.5c0.1-0.1,0.3,0,0.4-0.1C56.9-0.8,57-1,57.1-1.2c0-0.1,0-0.1,0-0.2
				c0-0.1,0.1-0.2,0.1-0.3c0-0.1-0.1-0.1-0.1-0.2c0-0.1,0-0.2,0-0.3c0-0.2,0-0.4-0.1-0.5c-0.4-0.7-1.2-0.9-2-0.8
				c-0.2,0-0.3,0.1-0.4,0.2c-0.2,0.1-0.1,0.2-0.3,0.2c-0.1,0-0.2,0.1-0.2,0.2C54.1-2.8,54.1-2.9,54.1-2.8
				C54.1-2.7,54.1-2.8,54.1-2.8"/>
			<path fill="#FFFFFF" d="M46.5-2.8c0,0.1,0,0.1,0,0.2c-0.1,0.1-0.1,0.1-0.2,0.1c-0.1,0.1-0.1,0.3-0.1,0.4c-0.2,0.1,0,0.2,0,0.3
				c0,0,0,0.1,0,0.2c0,0.1,0,0.3,0.1,0.4c0.1,0.2,0.3,0.4,0.4,0.5C46.8-0.5,47-0.1,47.2,0c0.2,0,0.4-0.1,0.5-0.1
				c0.2,0,0.4,0,0.6-0.1c0.2-0.1,0.1-0.3,0.3-0.5c0.1-0.1,0.3,0,0.4-0.1c0.2-0.1,0.3-0.3,0.4-0.5c0-0.1,0-0.1,0-0.2
				c0-0.1,0.1-0.2,0.1-0.3c0-0.1-0.1-0.1-0.1-0.2c0-0.1,0-0.2,0-0.3c0-0.2,0-0.4-0.1-0.5c-0.4-0.7-1.2-0.9-2-0.8
				c-0.2,0-0.3,0.1-0.4,0.2c-0.2,0.1-0.1,0.2-0.3,0.2c-0.1,0-0.2,0.1-0.2,0.2C46.5-2.8,46.5-2.9,46.5-2.8
				C46.5-2.7,46.5-2.8,46.5-2.8"/>
			<path fill="#FFFFFF" d="M38.8-2.8c0,0.1,0,0.1,0,0.2c-0.1,0.1-0.1,0.1-0.2,0.1c-0.1,0.1-0.1,0.3-0.1,0.4c-0.2,0.1,0,0.2,0,0.3
				c0,0,0,0.1,0,0.2c0,0.1,0,0.3,0.1,0.4C38.6-1,38.8-0.8,39-0.7c0.2,0.1,0.4,0.6,0.6,0.6c0.2,0,0.4-0.1,0.5-0.1
				c0.2,0,0.4,0,0.6-0.1c0.2-0.1,0.1-0.3,0.3-0.5c0.1-0.1,0.3,0,0.4-0.1c0.2-0.1,0.3-0.3,0.4-0.5c0-0.1,0-0.1,0-0.2
				c0-0.1,0.1-0.2,0.1-0.3c0-0.1-0.1-0.1-0.1-0.2c0-0.1,0-0.2,0-0.3c0-0.2,0-0.4-0.1-0.5c-0.4-0.7-1.2-0.9-2-0.8
				c-0.2,0-0.3,0.1-0.4,0.2c-0.2,0.1-0.1,0.2-0.3,0.2c-0.1,0-0.2,0.1-0.2,0.2C38.8-2.8,38.8-2.9,38.8-2.8
				C38.8-2.7,38.8-2.8,38.8-2.8"/>
			<path fill="#FFFFFF" d="M31.1-2.8c0,0.1,0,0.1,0,0.2c-0.1,0.1-0.1,0.1-0.2,0.1c-0.1,0.1-0.1,0.3-0.1,0.4c-0.2,0.1,0,0.2,0,0.3
				c0,0,0,0.1,0,0.2c0,0.1,0,0.3,0.1,0.4C31-1,31.1-0.8,31.3-0.7c0.2,0.1,0.4,0.6,0.6,0.6c0.2,0,0.4-0.1,0.5-0.1
				c0.2,0,0.4,0,0.6-0.1c0.2-0.1,0.1-0.3,0.3-0.5c0.1-0.1,0.3,0,0.4-0.1c0.2-0.1,0.3-0.3,0.4-0.5c0-0.1,0-0.1,0-0.2
				c0-0.1,0.1-0.2,0.1-0.3c0-0.1-0.1-0.1-0.1-0.2c0-0.1,0-0.2,0-0.3c0-0.2,0-0.4-0.1-0.5c-0.4-0.7-1.2-0.9-2-0.8
				c-0.2,0-0.3,0.1-0.4,0.2c-0.2,0.1-0.1,0.2-0.3,0.2c-0.1,0-0.2,0.1-0.2,0.2C31.1-2.8,31.1-2.9,31.1-2.8
				C31.1-2.7,31.1-2.8,31.1-2.8"/>
			<path fill="#FFFFFF" d="M23.5-2.8c0,0.1,0,0.1,0,0.2c-0.1,0.1-0.1,0.1-0.2,0.1c-0.1,0.1-0.1,0.3-0.1,0.4c-0.2,0.1,0,0.2,0,0.3
				c0,0,0,0.1,0,0.2c0,0.1,0,0.3,0.1,0.4c0.1,0.2,0.3,0.4,0.4,0.5C23.8-0.5,24-0.1,24.3,0c0.2,0,0.4-0.1,0.5-0.1
				c0.2,0,0.4,0,0.6-0.1c0.2-0.1,0.1-0.3,0.3-0.5c0.1-0.1,0.3,0,0.4-0.1c0.2-0.1,0.3-0.3,0.4-0.5c0-0.1,0-0.1,0-0.2
				c0-0.1,0.1-0.2,0.1-0.3c0-0.1-0.1-0.1-0.1-0.2c0-0.1,0-0.2,0-0.3c0-0.2,0-0.4-0.1-0.5c-0.4-0.7-1.2-0.9-2-0.8
				c-0.2,0-0.3,0.1-0.4,0.2c-0.2,0.1-0.1,0.2-0.3,0.2c-0.1,0-0.2,0.1-0.2,0.2C23.5-2.8,23.5-2.9,23.5-2.8
				C23.5-2.7,23.5-2.8,23.5-2.8"/>
			<path fill="#FFFFFF" d="M15.8-2.8c0,0.1,0,0.1,0,0.2c-0.1,0.1-0.1,0.1-0.2,0.1c-0.1,0.1-0.1,0.3-0.1,0.4c-0.2,0.1,0,0.2,0,0.3
				c0,0,0,0.1,0,0.2c0,0.1,0,0.3,0.1,0.4C15.7-1,15.8-0.8,16-0.7c0.2,0.1,0.4,0.6,0.6,0.6c0.2,0,0.4-0.1,0.5-0.1
				c0.2,0,0.4,0,0.6-0.1c0.2-0.1,0.1-0.3,0.3-0.5c0.1-0.1,0.3,0,0.4-0.1c0.2-0.1,0.3-0.3,0.4-0.5c0-0.1,0-0.1,0-0.2
				c0-0.1,0.1-0.2,0.1-0.3c0-0.1-0.1-0.1-0.1-0.2c0-0.1,0-0.2,0-0.3c0-0.2,0-0.4-0.1-0.5c-0.4-0.7-1.2-0.9-2-0.8
				c-0.2,0-0.3,0.1-0.4,0.2c-0.2,0.1-0.1,0.2-0.3,0.2c-0.1,0-0.2,0.1-0.2,0.2C15.8-2.8,15.8-2.9,15.8-2.8
				C15.8-2.7,15.8-2.8,15.8-2.8"/>
			<path fill="#FFFFFF" d="M8.2-2.8c0,0.1,0,0.1,0,0.2C8.1-2.5,8-2.5,8-2.5C7.9-2.4,7.9-2.2,7.9-2.1c-0.2,0.1,0,0.2,0,0.3
				c0,0,0,0.1,0,0.2c0,0.1,0,0.3,0.1,0.4C8-1,8.2-0.8,8.3-0.7C8.5-0.5,8.7-0.1,8.9,0c0.2,0,0.4-0.1,0.5-0.1c0.2,0,0.4,0,0.6-0.1
				c0.2-0.1,0.1-0.3,0.3-0.5c0.1-0.1,0.3,0,0.4-0.1c0.2-0.1,0.3-0.3,0.4-0.5c0-0.1,0-0.1,0-0.2c0-0.1,0.1-0.2,0.1-0.3
				c0-0.1-0.1-0.1-0.1-0.2c0-0.1,0-0.2,0-0.3c0-0.2,0-0.4-0.1-0.5c-0.4-0.7-1.2-0.9-2-0.8C9-3.5,8.8-3.4,8.7-3.4
				C8.5-3.3,8.6-3.2,8.4-3.1C8.3-3.1,8.2-3,8.2-2.9C8.2-2.8,8.2-2.9,8.2-2.8C8.1-2.7,8.1-2.8,8.2-2.8"/>
			<path fill="#FFFFFF" d="M0.5-2.8c0,0.1,0,0.1,0,0.2C0.4-2.5,0.4-2.5,0.3-2.5C0.3-2.4,0.2-2.2,0.2-2.1c-0.2,0.1,0,0.2,0,0.3
				c0,0,0,0.1,0,0.2c0,0.1,0,0.3,0.1,0.4C0.3-1,0.5-0.8,0.7-0.7C0.9-0.5,1-0.1,1.3,0c0.2,0,0.4-0.1,0.5-0.1c0.2,0,0.4,0,0.6-0.1
				c0.2-0.1,0.1-0.3,0.3-0.5c0.1-0.1,0.3,0,0.4-0.1C3.3-0.8,3.4-1,3.5-1.2c0-0.1,0-0.1,0-0.2c0-0.1,0.1-0.2,0.1-0.3
				c0-0.1-0.1-0.1-0.1-0.2c0-0.1,0-0.2,0-0.3c0-0.2,0-0.4-0.1-0.5c-0.4-0.7-1.2-0.9-2-0.8C1.3-3.5,1.2-3.4,1-3.4
				C0.9-3.3,0.9-3.2,0.7-3.1C0.6-3.1,0.5-3,0.5-2.9C0.5-2.8,0.5-2.9,0.5-2.8C0.5-2.7,0.5-2.8,0.5-2.8"/>
		</g>
	</g>
</pattern>
<rect x="0" fill="#EDEEEE" width="160" height="200"/>
<g>
	<path fill="#D9DADB" d="M160,111.2c-0.1,0-0.1,0.1-0.2,0.1c-1.4,0.7-2.9,1.3-4.3,2c-0.1,0.1-0.2,0.3-0.3,0.7
		c-0.5,1.2-0.9,2.3-1.4,3.5c-1.4,3.5-2.7,7-4.1,10.5c-1.1,2.8-2.2,5.7-3.3,8.5c-0.8,2.1,2.5,0.3,4-0.1c0.1,0,0.1,0,0.2,0
		c0.5,2.2,3.1,19.3,4.2,19.3l4.9,0c0.1,0,0.1,0,0.2,0V111.2z"/>
	<g>
		<g>
			<path fill="#58595C" d="M159.8,155.6l-4.9,0c-1.1,0-3.7-17.1-4.2-19.3c-0.1,0-0.1-0.1-0.2,0c-1.6,0.4-4.8,2.2-4,0.1
				c1.1-2.8,2.2-5.7,3.3-8.5c1.4-3.5,2.7-7,4.1-10.5c0.5-1.2,0.9-2.3,1.4-3.5c0.1-0.3,0.2-0.5,0.3-0.7c1.4-0.7,2.9-1.3,4.3-2
				c0,0,0.1,0,0.1-0.1v-0.7c-3,1.2-5.9,2.3-7.1,5.4c-2.9,7.5-5.8,15-8.8,22.6c-0.1,0.1,0.1,0.1,0.2,0.1c0.6-0.1,4.4-1.2,4.5-0.8
				c0.4,1.9,0.8,3.8,1.2,5.7c0.9,4.5,1.8,9,2.8,13.5l0.1,0c2.4,0,4.8,0,7.2,0v-1.3C159.9,155.6,159.9,155.6,159.8,155.6z"/>
		</g>
	</g>
</g>
<g>
	<g>
		<path fill-rule="evenodd" clip-rule="evenodd" fill="#698781" d="M134.6,177.8c0,0,1.1-63.3,8.4-70.7l13.8-1.2
			c0,0-26.9-57.3-26.7-66.3L117.8,41l-1.3-10.1l4.8,0.5l1.4-13.4L111.8,6.8L91,12.7L89.4,28l3.1,1.2l0.1,14.5l-13.4,4.9L60,32.1
			L49.8,60l-8.8,0c0,0-13.4,27.6-31,41.1l6.1,3.4c0,0,8.2,51.6,7.6,71.5L134.6,177.8z"/>
	</g>
	<g>
		<g>
			<path fill="none" d="M134.6,177.8c0,0,1.1-63.3,8.4-70.7l13.8-1.2c0,0-26.9-57.3-26.7-66.3L117.8,41l-1.3-10.1l4.8,0.5l1.4-13.4
				L111.8,6.8L91,12.7L89.4,28l3.1,1.2l0.1,14.5l-13.4,4.9L60,32.1L49.8,60l-8.8,0c0,0-13.4,27.6-31,41.1l6.1,3.4
				c0,0,8.2,51.6,7.6,71.5L134.6,177.8z"/>
			<path fill="#58595C" d="M135.6,177.2c0.3-14.3,1-28.7,2.3-43c0.7-7.9,1.5-16.1,4-23.7c0.4-1.1,0.8-2.2,1.4-3.1
				c1-1.6-1.8,0.4-0.9,0.3c0.8-0.1,1.6-0.1,2.4-0.2c3.7-0.3,7.4-0.7,11.1-1c0.3,0,2.1-0.9,2-1.3c-4.5-9.7-8.9-19.5-13.2-29.3
				c-3.3-7.5-6.4-15-9.3-22.6c-1.7-4.4-4.1-9.6-4.2-14.4c-0.1,0-0.1-0.1-0.2,0c-3.9,0.5-7.9,0.9-11.8,1.4c-0.4,0-1.3-8.7-1.5-10
				c-0.7,0.4-1.4,0.9-2.1,1.3c1.6,0.2,3.2,0.3,4.8,0.5c0.4,0,2-0.7,2.1-1.2c0.3-2.4,0.5-4.8,0.8-7.2c0.1-0.9,1.3-5.7,0.6-6.4
				c-3.6-3.7-7.2-7.4-10.8-11.1c-0.1-0.1-0.3,0-0.4,0c-6.9,2-13.8,4-20.8,5.9c-0.4,0.1-1.7,0.7-1.8,1.1c-0.5,5.1-1.1,10.2-1.6,15.2
				c0,0.1,0,0.1,0.1,0.1c0.7,0.3,3,0.8,3,1.5c0,1.7,0,3.3,0,5c0,3.1,0,6.1,0,9.2c0.6-0.4,1.2-0.8,1.8-1.2c-3.1,1.1-6.3,2.3-9.4,3.4
				c-3.7,1.3-3.1,1.9-5.8-0.4c-5.7-4.9-11.3-9.8-17-14.7c-0.4-0.3-2,0.8-2.2,1.2c-3.4,9.3-6.8,18.6-10.2,27.9
				c0.7-0.4,1.4-0.8,2.1-1.2c-2.9,0-5.9,0-8.8,0c-0.6,0-1.8,0.6-2.1,1.2c-7.3,15-17.4,30.3-30.5,40.7c0,0-0.5,0.4-0.4,0.5
				c2,1.1,4.1,2.2,6.1,3.4c0.3,0.2,0.4,2.5,0.4,2.8c1,6.4,1.9,12.8,2.8,19.3c2.2,16.3,4.8,33,4.5,49.5c0,0,0,0,0.1,0
				c37,0.6,73.9,1.3,110.9,1.9C134.2,178.5,135.5,177.2,135.6,177.2c-24-0.4-47.8-0.8-71.7-1.3c-12-0.2-24-0.4-36-0.6
				c-1,0-1.9,0-2.9,0c-0.4,0-0.3-6.9-0.4-7.9c-0.4-9.6-1.5-19.2-2.7-28.8c-1.1-9.3-2.4-18.5-3.8-27.8c-0.3-2.2-0.6-4.3-1-6.5
				c-0.3-1.7-4.2-2.9-5.6-3.7c-0.7-0.4,2.8-2.9,3.4-3.5c2.1-1.9,4.1-4,6-6.1c4-4.4,7.5-9.3,10.8-14.2C35.5,71.4,39,65.5,42,59.4
				c-0.7,0.4-1.4,0.8-2.1,1.2c2.9,0,5.9,0,8.8,0c0.6,0,1.9-0.7,2.1-1.2c3.4-9.3,6.8-18.6,10.2-27.9c-0.7,0.4-1.4,0.8-2.2,1.2
				c6.4,5.5,12.8,11,19.2,16.6c0.1,0.1,0.3,0,0.4,0c4.5-1.6,8.9-3.3,13.4-4.9c0.4-0.1,1.8-0.7,1.8-1.2c0-4.8,0-9.7-0.1-14.5
				c0,0,0,0-0.1,0c-0.6-0.2-3.1-0.8-3-1.4c0.2-1.6,0.3-3.2,0.5-4.8c0.4-3.4,0.7-6.7,1.1-10.1c-0.6,0.4-1.2,0.8-1.8,1.1
				c4.2-1.2,8.5-2.4,12.7-3.6c2.3-0.6,4.5-1.3,6.8-1.9c1.6-0.5,1.2-0.1,2.6,1.4c1.9,2,3.8,3.9,5.7,5.9c0.6,0.7,3.5,2.8,3.4,3.8
				c-0.5,4.4-0.9,8.7-1.4,13.1c0.7-0.4,1.4-0.8,2.1-1.2c-1.6-0.2-3.2-0.3-4.8-0.5c-0.4,0-2.2,0.8-2.1,1.3c0.4,3.4,0.9,6.7,1.3,10.1
				c0.1,0,0.1,0.1,0.2,0c3.4-0.4,6.8-0.8,10.1-1.2c1.5-0.2,1.8-0.6,1.9,0.7c0.1,1.1,0.4,2.2,0.7,3.3c2.1,7.8,5.4,15.4,8.5,22.9
				c5.5,13.2,11.3,26.2,17.4,39.1c0.7-0.4,1.3-0.8,2-1.3c-3.7,0.3-7.4,0.7-11.1,1c-2,0.2-3.7,0.1-5.1,1.9
				c-4.3,5.5-4.4,15.6-5.1,22.2c-1.9,16-2.6,32.1-2.9,48.2C133.5,178.4,135.6,177.9,135.6,177.2z"/>
		</g>
	</g>
</g>
<g>
	<path fill="#FFFFFF" stroke="#58595C" stroke-width="0.5" d="M77.2,105.9l-2.4-5.4h3.4l2.3,5.4H77.2z M81.3,106.3
		c2.4,0.3,3.5,2.1,3.5,5.6v8.3h-6.3v0.7c0,2.5,0.6,3.8,1.7,3.8c1-0.4,1.5-1.1,1.5-2.1v-1.2h3.2l0,1.9l-0.2,1.4
		c-0.8,2.2-2.1,3.3-4,3.3h-1.3c-2.8-0.6-4.2-2.2-4.2-4.7v-7.8c-0.1-4.5,0.4-7.2,1.3-8.1C77.3,106.4,78.9,106.1,81.3,106.3z
		 M78.6,117.2h3c0.4-3.9-0.1-6-1.4-6.2C78.9,110.7,78.4,112.8,78.6,117.2z"/>
	<path fill="#FFFFFF" stroke="#58595C" stroke-width="0.5" d="M94.8,108.2h0.6c1.5,0,2.6,1.1,3.3,3.4l0.3,2.8V126h-4.3v-8.1
		c0-2.8-0.5-4.2-1.4-4.2H93c-1,0-1.5,1.5-1.5,4.4v7.9h-4.3V109h4.1v2.2h0.1C92.2,109.2,93.3,108.2,94.8,108.2z"/>
	<path fill="#FFFFFF" stroke="#58595C" stroke-width="0.5" d="M107.3,106.2c2.4,0.3,3.6,2.2,3.6,5.7v8.4h-6.4v0.7
		c0,2.5,0.6,3.8,1.7,3.8c1-0.4,1.5-1.1,1.5-2.2v-1.2h3.2l0,1.9l-0.2,1.4c-0.8,2.2-2.2,3.3-4.1,3.3h-1.3c-2.8-0.6-4.3-2.2-4.3-4.8
		v-7.9c-0.1-4.5,0.4-7.3,1.3-8.2C103.3,106.3,104.9,106,107.3,106.2z M104.5,117.2h3c0.4-4-0.1-6.1-1.4-6.3
		C104.8,110.6,104.3,112.8,104.5,117.2z"/>
	<g>
		<path fill="#FFFFFF" stroke="#58595C" stroke-width="0.5" d="M54.4,128.2c0,0,0.3-1.5-0.4-5.5h-5.1l-0.8,3.2h-5.2l6.5-26.4h5
			l5.3,28.7H54.4z M50,119.2l3.5,0l-1.4-9.3L50,119.2"/>
	</g>
	<g>
		<path fill="#FFFFFF" stroke="#58595C" stroke-width="0.5" d="M73.3,111.4c-0.1,1.9-1.8,3.8-5.3,5.8h2c2.1,0,3.1,0.9,3,2.5
			l-0.2,6.2h-3.5l0.1-3.5c0-0.9-0.1-1.6-0.8-1.6h-3.1l0.3,7.3h-3.7l0.1-21.6l4.2,0c4.7,0,7,1.6,6.9,4.6L73.3,111.4z M68.9,111.6
			c0.4-0.7-0.2-1.2-1.3-1.2h-1.8l-0.1,3.5C67.3,113.1,68.3,112.6,68.9,111.6"/>
	</g>
</g>
<path fill="#C6C7C8" d="M160,155.2c-75.7,8.9-132.9,19.3-160,24.7V200h160V155.2z"/>
<path fill="#D9DADB" d="M160,171c-65.1-4.6-155.3,8.2-155.3,8.2L0,179.9V200h160V171z"/>
<polyline fill="none" points="154.6,113.4 145,138 149.7,136.9 153.6,156.3 "/>
<path fill="#58595C" d="M38.6,174.6c-12.6,1.3-25.2,2.8-37.7,4.6c-0.2,0-0.5,0.2-0.9,0.4l0,0.7c24.7-3.6,49.6-6,74.4-7.8
	c22-1.5,44.1-2.4,66.2-1.9c6.3,0.1,13,0.5,19.3,0.9v-1.5C119.7,167.4,78.6,170.5,38.6,174.6z"/>
<g>
	<path fill="none" d="M0,179.9"/>
	<path fill="#58595C" d="M160,154.7c-52.5,6.1-105.1,14-156.9,24.1c-0.7,0.1-1.5,0.3-2.2,0.4c-0.2,0-0.5,0.2-0.9,0.5l0,0.7
		c52.9-10.4,106.5-18.4,160-24.6"/>
</g>
<rect x="160" fill="#EDEEEE" width="160" height="200"/>
<path fill="#D9DADB" d="M204.9,89.7c-0.5,0.2-1,0.5-1.5,0.7c-5.4,2.6-10.8,5.2-16.2,7.8c-9.1,4.3-18.1,8.7-27.2,13v44.4h0
	c4.7,0,9.5,0,14.2-0.1c15.2-0.1,30.3-0.1,45.5-0.2c2-9.7,4.1-19.3,6.1-29c-6-10.5-12-21.1-18-31.6C206.8,93.1,205.9,91.4,204.9,89.7
	z"/>
<path fill="#58595C" d="M207,88.3c-0.1-0.2-0.8,0.2-0.9,0.3c-14.7,7-29.5,14.1-44.2,21.1c-0.6,0.3-1.3,0.6-1.9,0.8v0.7
	c9.1-4.3,18.1-8.7,27.2-13c5.4-2.6,10.8-5.2,16.2-7.8c0.5-0.2,1-0.5,1.5-0.7c0.9,1.7,1.9,3.3,2.8,5c6,10.5,12,21.1,18,31.6
	c-2,9.7-4.1,19.3-6.1,29c-15.2,0.1-30.3,0.1-45.5,0.2c-4.7,0-9.5,0-14.2,0.1h0v1.3c19.8-0.1,39.7-0.2,59.5-0.3c0.5,0,2-0.7,2.1-1.2
	c2.1-10.1,4.3-20.2,6.4-30.3c0,0,0,0,0,0c0,0,0-0.1,0-0.1C221,112.9,214,100.6,207,88.3z"/>
<g>
	<path fill="#D9DADB" d="M320,98.3c-9.1,4.3-18.2,8.7-27.3,13c-0.1,0.1-0.2,0.3-0.3,0.7c-0.5,1.2-0.9,2.3-1.4,3.5
		c-1.4,3.5-2.7,7-4.1,10.5c-1.1,2.8-2.2,5.7-3.3,8.5c-0.8,2.1,2.5,0.3,4-0.1c0.1,0,0.1,0,0.2,0c0.5,2.2,3.1,19.3,4.2,19.3
		c6.4,0,12.7-0.1,19.1-0.1l8.8,0V98.3z"/>
	<path fill="#58595C" d="M319,153.6c-2.9,0-4.9,0-7.8,0c-6.4,0-12.7,0.1-19.1,0.1c-1.1,0-3.7-17.1-4.2-19.3c-0.1,0-0.1-0.1-0.2,0
		c-1.6,0.4-4.8,2.2-4,0.1c1.1-2.8,2.2-5.7,3.3-8.5c1.4-3.5,2.7-7,4.1-10.5c0.5-1.2,0.9-2.3,1.4-3.5c0.1-0.3,0.2-0.5,0.3-0.7
		c9.1-4.3,18.2-8.7,27.3-13v-0.6c-7,3.4-14.1,6.7-21.1,10.1c-3.5,1.7-7.6,2.5-9,6.3c-2.9,7.5-5.8,15-8.8,22.6
		c-0.1,0.1,0.1,0.1,0.2,0.1c0.6-0.1,4.4-1.2,4.5-0.8c0.4,1.9,0.8,3.8,1.2,5.7c0.9,4.5,1.8,9,2.8,13.5l0.1,0
		c10.1,0,19.1-0.1,29.2-0.1V153.6z"/>
</g>
<g>
	<g>
		<path fill-rule="evenodd" clip-rule="evenodd" fill="#F49561" d="M205.9,169.6c0,0,0.9-35.8-3.7-41.5l-6-3.2
			c0,0,28.4-41.9,29.9-49.7l12.4-1.7l-2.1-13.1l-3.2,0.7l-1.6-7.6l13.5-6.7l11.7,5.7l0.3,6l-3.5,0l1.5,14.7c0,0,22.4,0.5,26.1-1.8
			c0,0,19.3,39.1,25.5,48.9l-10.5,4.7c0,0-6.4,39.9-4.5,48.2L205.9,169.6z"/>
	</g>
	<g>
		<g>
			<path fill="none" d="M205.9,169.6c0,0,0.9-35.8-3.7-41.5l-6-3.2c0,0,28.4-41.9,29.9-49.7l12.4-1.7l-2.1-13.1l-3.2,0.7l-1.6-7.6
				l13.5-6.7l11.7,5.7l0.3,6l-3.5,0l1.5,14.7c0,0,22.4,0.5,26.1-1.8c0,0,19.3,39.1,25.5,48.9l-10.5,4.7c0,0-6.4,39.9-4.5,48.2
				L205.9,169.6z"/>
			<path fill="#58595C" d="M207,169c0.2-8.8,0.1-17.7-0.5-26.5c-0.3-4.6-0.6-9.5-2.4-13.8c-0.8-1.9-7.1-3.8-6.4-4.9
				c5.2-7.7,10.3-15.4,15.2-23.2c3.3-5.2,6.5-10.4,9.5-15.7c1.8-3.2,4-6.7,4.8-10.3c-0.6,0.4-1.3,0.8-1.9,1.2
				c4.1-0.6,8.3-1.1,12.4-1.7c0.4-0.1,2-0.8,2-1.3c-0.7-4.4-1.4-8.8-2.1-13.1c-0.1,0-0.1-0.1-0.2,0c-2.4,0.5-2.9,1.2-3.4-1.3
				c-0.4-1.9-0.8-3.8-1.2-5.7c-0.4,0.3-0.8,0.7-1.3,1c2.7-1.3,5.4-2.7,8.1-4c1.5-0.7,2.9-1.4,4.4-2.2c1.6-0.8-0.3-0.5,1.4,0.3
				c3.3,1.6,6.5,3.2,9.8,4.8c1.6,0.8,0.9,4.7,1,6.4c0.7-0.4,1.4-0.9,2.1-1.3c-1.2,0-2.4,0-3.5,0c-0.4,0-2.1,0.7-2.1,1.3
				c0.5,4.9,1,9.8,1.5,14.7c0,0,0,0,0.1,0c6.4,0.1,12.8,0.1,19.1-0.4c1.7-0.2,3.4-0.3,5.1-0.7c0.5-0.1,0.9-0.2,1.4-0.4
				c1.2-0.4,0.5-0.2,0.5-0.3c0.8,1.5,1.5,3.1,2.3,4.6c7.4,14.8,14.4,30.2,23.2,44.3c0.5-0.4,1-0.8,1.5-1.1c-3.7,1.7-7.9,3-11.3,5.2
				c-1.9,1.3-1.7,7.2-2,9.2c-1.1,7.6-2.1,15.1-2.8,22.7c-0.5,5.5-1.5,11.6-0.4,17c0.7-0.4,1.4-0.9,2.1-1.3
				C264.1,171.4,235.5,170.1,207,169c-0.8-0.1-2,1.3-2.1,1.3c28.6,1.2,57.2,2.4,85.9,3.7c0.4,0,2.2-0.8,2.1-1.3
				c-1-5.1-0.2-10.7,0.3-15.8c0.6-6.7,1.5-13.5,2.4-20.2c0.6-4,1.1-8,1.8-11.9c0.1-0.8-2.5,1.2-0.7,0.4c1.2-0.5,2.4-1.1,3.6-1.6
				c2-0.9,4.1-1.8,6.1-2.8c0.2-0.1,1.7-0.8,1.5-1.1c-9.7-15.6-17.4-32.5-25.5-48.9c-0.1-0.2-0.8,0.2-0.9,0.3
				c-3.5,1.8-8.8,1.3-12.5,1.4c-3.8,0.1-7.6,0.1-11.4,0.1c-2.3,0-1.6-3-1.8-5c-0.3-3.2-0.7-6.5-1-9.7c-0.7,0.4-1.4,0.9-2.1,1.3
				c1.2,0,2.4,0,3.5,0c0.5,0,2.1-0.7,2.1-1.3c-0.1-2.3,0.7-5.5-1.5-6.6c-3.5-1.7-6.9-3.4-10.4-5.1c-1-0.5-4,1.7-4.8,2.1
				c-3.3,1.6-6.5,3.2-9.8,4.8c-0.2,0.1-1.3,0.6-1.3,1c0.5,2.5,1,5.1,1.6,7.6c0.1,0,0.1,0.1,0.2,0c0.6-0.1,2.9-1,3-0.3
				c0.2,1.4,0.4,2.8,0.7,4.3c0.4,2.8,0.9,5.7,1.3,8.5c0.7-0.4,1.3-0.8,2-1.3c-4.1,0.6-8.3,1.1-12.4,1.7c-0.5,0.1-1.8,0.7-1.9,1.2
				c-0.9,3.9-3.3,7.6-5.3,11.1c-3.2,5.7-6.7,11.2-10.2,16.7c-4.7,7.4-9.5,14.7-14.4,21.9c0,0,0,0.1,0,0.1c2.8,1.5,6,2.3,7.1,5.5
				c1.7,4.6,1.8,10,2.2,14.8c0.5,8.1,0.6,16.3,0.4,24.5C204.8,170.2,206.9,169.6,207,169z"/>
		</g>
	</g>
</g>
<g>
	<path fill="#FFFFFF" stroke="#58595C" stroke-width="0.5" d="M214.9,110.5v2.6l-4.3,0v4.3l2.6,0v2.6h-2.6v3.4h4.3v2.6H208v-15.4
		H214.9z"/>
	<path fill="#FFFFFF" stroke="#58595C" stroke-width="0.5" d="M220.2,115.6h0.4c0.9,0,1.5,0.7,1.9,2l0.1,1.6v6.6h-2.5v-4.6
		c0-1.6-0.3-2.4-0.8-2.4h-0.1c-0.6,0-0.9,0.8-0.9,2.5v4.5h-2.5v-9.7h2.3v1.3h0.1C218.7,116.2,219.4,115.6,220.2,115.6z"/>
	<path fill="#FFFFFF" stroke="#58595C" stroke-width="0.5" d="M223.6,113.1h-3.4v-2.6h7.7v2.6h-1.7v12.7h-2.6V113.1z"/>
	<path fill="#FFFFFF" stroke="#58595C" stroke-width="0.5" d="M290.1,113.1h-3.4v-2.6h7.7v2.6h-1.7v12.7h-2.6V113.1z"/>
	<path fill="#FFFFFF" stroke="#58595C" stroke-width="0.5" d="M244.3,112h0.5c0.8,0,1.2,0.4,1.4,1.1v0.1c-0.1,0.7-0.6,1.1-1.4,1.1
		h-0.4c-0.8,0-1.3-0.4-1.4-1.3C243.1,112.4,243.6,112,244.3,112z M245.9,116l0,10h-2.7v-10H245.9z"/>
	<path fill="#FFFFFF" stroke="#58595C" stroke-width="0.5" d="M251.4,115.4h0.4c0.9,0,1.6,0.7,1.9,2l0.1,1.7v6.8h-2.6v-4.7
		c0-1.7-0.3-2.5-0.8-2.5h-0.1c-0.6,0-0.9,0.9-0.9,2.6v4.6h-2.6v-10h2.4v1.3h0.1C249.9,116,250.6,115.4,251.4,115.4z"/>
	<path fill="#FFFFFF" stroke="#58595C" stroke-width="0.5" d="M286.6,115.4h0.4c0.9,0,1.6,0.7,1.9,2l0.1,1.7v6.8h-2.6v-4.7
		c0-1.7-0.3-2.5-0.8-2.5h-0.1c-0.6,0-0.9,0.9-0.9,2.6v4.6h-2.6v-10h2.4v1.3h0.1C285,116,285.7,115.4,286.6,115.4z"/>
	<path fill="#FFFFFF" stroke="#58595C" stroke-width="0.5" d="M258.5,114.4c1.4,0.1,2,1.2,2,3.3v4.8h-3.7v0.4c0,1.5,0.3,2.2,1,2.2
		c0.6-0.2,0.9-0.6,0.9-1.2v-0.7h1.9l0,1.1l-0.1,0.8c-0.5,1.3-1.2,1.9-2.3,1.9h-0.7c-1.6-0.4-2.4-1.3-2.4-2.7v-4.5
		c0-2.6,0.2-4.2,0.7-4.7C256.2,114.5,257.1,114.3,258.5,114.4z M256.9,120.7h1.7c0.2-2.3,0-3.5-0.8-3.6
		C257.1,117,256.8,118.2,256.9,120.7z"/>
	<path fill="#FFFFFF" stroke="#58595C" stroke-width="0.5" d="M279.1,114.4c1.4,0.1,2,1.2,2,3.3v4.8h-3.7v0.4c0,1.5,0.3,2.2,1,2.2
		c0.6-0.2,0.9-0.6,0.9-1.2v-0.7h1.9l0,1.1l-0.1,0.8c-0.5,1.3-1.2,1.9-2.3,1.9h-0.7c-1.6-0.4-2.4-1.3-2.4-2.7v-4.5
		c0-2.6,0.2-4.2,0.7-4.7C276.8,114.5,277.7,114.3,279.1,114.4z M277.5,120.7h1.7c0.2-2.3,0-3.5-0.8-3.6
		C277.7,117,277.4,118.2,277.5,120.7z"/>
	<path fill="#FFFFFF" stroke="#58595C" stroke-width="0.5" d="M266.6,115.5h0.5c0.8,0,1.6,0.5,2.2,1.6c0.6-1.1,1.4-1.6,2.2-1.6h0.5
		c1.5,0,2.3,1.2,2.4,3.5v6.8h-3v-6.3c-0.2-0.6-0.5-0.8-0.9-0.8h-0.1c-0.7,0-1,0.9-1,2.8v4.3h-3v-6.1c-0.1-0.7-0.3-1.1-0.8-1.1h-0.2
		c-0.5,0-0.8,0.5-0.9,1.4v5.7h-3v-9.8h2.8v1.1C265.1,116,265.8,115.5,266.6,115.5z"/>
	<g>
		<path fill="#FFFFFF" stroke="#58595C" stroke-width="0.5" d="M239.7,127.1c0,0-0.1-0.9-0.4-2.6h-2.2l-0.3,1.4h-2.3l2.8-11.5h2.2
			l2.5,12.7H239.7z M237.6,123l1.5,0l-0.6-4L237.6,123"/>
	</g>
	<g>
		<path fill="#FFFFFF" stroke="#58595C" stroke-width="0.5" d="M233.8,117.3c0,1.1-1.1,2.2-3.1,3.4h1.2c1.2,0,1.8,0.6,1.8,1.5
			l-0.1,3.6h-2.1l0.1-2.1c0-0.5,0-0.9-0.5-0.9h-1.8l0.2,4.3h-2.2l0-12.7l2.4,0c2.8,0,4.1,0.9,4.1,2.7L233.8,117.3z M231.2,117.4
			c0.3-0.4-0.1-0.7-0.8-0.7h-1l-0.1,2.1C230.3,118.3,230.9,118,231.2,117.4"/>
	</g>
</g>
<path fill="#C6C7C8" d="M320,142.1c-58.7,2.7-112.9,7.6-160,13.2V200h160V142.1z"/>
<path fill="#D9DADB" d="M320,185.5c-39.1-0.2-89.2-2.9-132.5-11.2c-8.3-1.6-17.6-2.7-27.5-3.4v29h160V185.5z"/>
<g>
	<path fill="#58595C" d="M320,141.4c-47,2.2-93.9,6-140.7,11.1c-6.5,0.7-12.8,1.4-19.3,2.2l0,1.1c3.9-0.4,7.5-0.9,11.4-1.3
		c49.4-5.5,98.9-9.5,148.6-11.8L320,141.4z"/>
</g>
<path fill="#58595C" d="M316.6,184.8c-27.2-0.3-54.5-1.6-81.6-4.4c-24.1-2.5-47.8-8-71.9-10c-1.1-0.1-2-0.2-3.1-0.2v1.5
	c4,0.3,7.9,0.7,11.9,1.1c11.4,1.3,22.7,3.8,34.1,5.5c37.6,5.7,75.8,8,114,8l0-1.5C318.8,184.9,317.7,184.8,316.6,184.8z"/>
<rect x="320" fill="#EDEEEE" width="160" height="200"/>
<g>
	<path fill="#D9DADB" d="M480,84.7c-9.7-4.6-19.4-9.3-29.1-13.9c-7.8,13.8-15.7,27.5-23.5,41.3c2.2,10.4,4.4,20.8,6.6,31.3
		c0.6,2.9-0.1,4.3,2.8,4.3l12.3,0.1l31,0.1V84.7z"/>
	<path fill="#58595C" d="M480,147.9c-10.3,0-20.7-0.1-31-0.1l-12.3-0.1c-2.8,0-2.1-1.4-2.8-4.3c-2.2-10.4-4.4-20.8-6.6-31.3
		c7.8-13.8,15.7-27.5,23.5-41.3c9.7,4.6,19.4,9.3,29.1,13.9V82c-9.3-4.5-18.7-8.9-28-13.4c-0.5-0.3-2.2,1-2.5,1.4
		c-8.2,14.3-16.4,28.7-24.5,43c-0.1,0.1-0.2,0.3-0.2,0.4c2.5,11.9,5,23.8,7.5,35.7c0,0,0.1,0,0.1,0c15.9,0.1,31.7,0.1,47.6,0.2
		V147.9z"/>
</g>
<g>
	<path fill="#D9DADB" d="M342.1,87.7c-0.5,0.2-1,0.5-1.5,0.7c-5.4,2.6-10.8,5.2-16.2,7.8c-1.4,0.7-2.7,1.3-4.1,2
		c-0.1,0-0.2,0.1-0.3,0.1v55.2l0.3,0c12.2-0.1,24.4-0.1,36.5-0.2c2-9.7,4.1-19.3,6.1-29c-6-10.5-12-21.1-18-31.6
		C344,91.1,343.1,89.4,342.1,87.7z"/>
	<path fill="#58595C" d="M344.2,86.3c-0.1-0.2-0.8,0.2-0.9,0.3c-7.7,3.7-15.3,7.3-23,11c-0.1,0-0.2,0.1-0.3,0.1v0.6
		c0.1,0,0.2-0.1,0.3-0.1c1.4-0.7,2.7-1.3,4.1-2c5.4-2.6,10.8-5.2,16.2-7.8c0.5-0.2,1-0.5,1.5-0.7c0.9,1.7,1.9,3.3,2.8,5
		c6,10.5,12,21.1,18,31.6c-2,9.7-4.1,19.3-6.1,29c-12.2,0.1-24.4,0.1-36.5,0.2c-0.1,0-0.2,0-0.3,0v1.3c0.1,0,0.2,0,0.3,0
		c12.1-0.1,24.2-0.1,36.4-0.2c0.5,0,2-0.7,2.1-1.2c2.1-10.1,4.3-20.2,6.4-30.3c0,0,0,0,0,0c0,0,0-0.1,0-0.1
		C358.2,110.9,351.2,98.6,344.2,86.3z"/>
</g>
<g>
	<path fill-rule="evenodd" clip-rule="evenodd" fill="#7F8184" d="M448.7,124.1l-12.3-22.2c0,0-22.4-0.5-28.9-1.9l0.6-28.1l6.6-0.3
		l-13.1-24L388.9,47l-13.7,23.4l7,0.6l2.5,27.7l-13.6,0.2c0,0-14.5,23-16.7,23.8l4.8,0.5l-1.1,33.3l89.5,2.8L448.7,124.1z"/>
	<g>
		<path fill="none" d="M448.7,124.1l-12.3-22.2c0,0-22.4-0.5-28.9-1.9l0.6-28.1l6.6-0.3l-13.1-24L388.9,47l-13.7,23.4l7,0.6
			l2.5,27.7l-13.6,0.2c0,0-14.5,23-16.7,23.8l4.8,0.5l-1.1,33.3l89.5,2.8L448.7,124.1z"/>
		<path fill="#58595C" d="M449.9,123.4c-3.4-6.2-6.8-12.4-10.3-18.6c-0.5-1-1.3-3.7-2.6-3.7c-4.2-0.1-8.4-0.3-12.6-0.5
			c-4.8-0.2-9.7-0.5-14.5-1.2c-2.3-0.4-1.1-5.2-1.1-7.2c0.1-7,0.3-14.1,0.4-21.1c-0.8,0.5-1.5,0.9-2.3,1.4c2.2-0.1,4.4-0.2,6.6-0.3
			c0.4,0,2.6-1,2.3-1.4c-3.7-6.8-7.4-13.6-11.1-20.4c-1-1.9-1.2-3.6-3.4-3.7c-3.8-0.2-7.6-0.4-11.4-0.6c-0.7,0-2,0.7-2.3,1.3
			c-4.6,7.8-9.1,15.6-13.7,23.4c0,0.1,0,0.1,0.1,0.1c1.1,0.1,6.9,0,7,1c0.3,2.9,0.5,5.7,0.8,8.6c0.6,6.2,1.1,12.5,1.7,18.7
			c0.8-0.5,1.5-0.9,2.3-1.4c-4.1,0-8.2,0.1-12.3,0.1c-1.5,0-2.9,0.3-3.8,1.7c-2.3,3.6-4.7,7.2-7,10.8c-1.6,2.4-3.3,4.8-5,7.2
			c-0.8,1.2-2.2,3.9-3.5,4.6c-0.1,0-1.3,0.9-1,1c2.5,0.3,4.8-0.6,4.7,2.2c-0.1,3.8-0.3,7.7-0.4,11.5c-0.2,6.7-0.5,13.4-0.7,20.1
			c0,0,0.1,0,0.1,0c29.8,0.9,59.6,1.8,89.5,2.8c0.5,0,2.3-0.8,2.3-1.4C449.1,146.8,449.5,135.1,449.9,123.4c0,0.1-2.4,0.6-2.4,1.4
			c-0.4,11.7-0.8,23.4-1.2,35.1c0.8-0.5,1.5-0.9,2.3-1.4c-22.7-0.7-45.3-1.4-68-2.1c-5.4-0.2-10.8-0.3-16.1-0.5
			c-1.2,0-5.2,0.5-5.2-0.7c0.4-10.9,0.7-21.8,1.1-32.7c0,0-0.1,0-0.1,0c-1.6-0.2-3.2-0.4-4.8-0.5c-0.3,0.3-0.7,0.6-1,1
			c3.9-2.1,6.4-7.4,8.8-10.9c3.1-4.5,6.1-9.1,9-13.7c-0.8,0.4-1.5,0.9-2.3,1.3c4.5-0.1,9.1-0.1,13.6-0.2c0.5,0,2.4-0.8,2.3-1.4
			c-0.8-9.2-1.7-18.5-2.5-27.7c0,0-0.1,0-0.1,0c-1-0.1-6.7-0.9-6.8-0.6c1.4-2.3,2.7-4.6,4.1-6.9c3.2-5.4,6.3-10.9,9.5-16.3
			c-0.8,0.4-1.5,0.9-2.3,1.3c3.6,0.2,7.1,0.4,10.7,0.6c2.8,0.2,2.9,1.9,4.2,4.3c3.6,6.6,7.2,13.1,10.8,19.7c0.8-0.5,1.5-0.9,2.3-1.4
			c-2.2,0.1-4.4,0.2-6.6,0.3c-0.5,0-2.3,0.8-2.3,1.4c-0.2,9.4-0.4,18.7-0.6,28.1c0,0,0.1,0,0.1,0c5.9,1.2,12.1,1.3,18,1.6
			c1.5,0.1,10.2-0.7,11,0.7c4,7.3,8,14.6,12.1,21.8C447.7,125.2,450.1,123.8,449.9,123.4z"/>
	</g>
</g>
<g>
	<path fill="#FFFFFF" stroke="#58595C" stroke-width="0.5" d="M382.7,107.2c4.4,0,6.6,1.4,6.6,4.1v0.4c0,1.7-2.3,3.6-7,5.7v8.8
		l-3.5,0l0-19L382.7,107.2z M382.3,110.7v3.1c1.5-0.7,2.4-1.3,2.9-2c0-0.7-0.4-1.1-1.2-1.1H382.3z"/>
	<path fill="#FFFFFF" stroke="#58595C" stroke-width="0.5" d="M400.8,115.7h1.1c2.7,0,4.4,1.4,5.1,4.3v1.4c0,2.1-1.2,3.6-3.7,4.5
		c-0.3,0.2-0.8,0.2-1.4,0.2h-1.2c-2.3,0-3.9-1.3-4.9-3.8l-0.1-0.9v-0.9c0-2.2,1.3-3.7,4-4.6L400.8,115.7z M399.6,120.7v0.8
		c0.2,1.4,0.8,2,1.8,2c1,0,1.6-0.7,1.8-2v-0.8c0-1.5-0.5-2.3-1.5-2.3h-0.4C400.1,118.4,399.6,119.2,399.6,120.7z"/>
	<path fill="#FFFFFF" stroke="#58595C" stroke-width="0.5" d="M411.7,110.5l3.6,0l-1.3,4h-0.7c-0.8,0.2-1.2,0.6-1.2,1.4l0,1.1h2v2.8
		h-1.8v7.6h-3.5l0-7.6h-0.5V117h0.7v-1.6C408.8,112.6,409.8,110.9,411.7,110.5z"/>
	<path fill="#FFFFFF" stroke="#58595C" stroke-width="0.5" d="M417.5,110.4h0.6c0.9,0,1.5,0.4,1.7,1.3v0.1c-0.1,0.9-0.7,1.3-1.7,1.3
		h-0.5c-1,0-1.6-0.5-1.7-1.6C416,110.8,416.5,110.4,417.5,110.4z M419.3,115.1l0,11.1H416v-11.1H419.3z"/>
	<path fill="#FFFFFF" stroke="#58595C" stroke-width="0.5" d="M420.6,127.5l0-17h3.1v14.5l4.6,0v2.6L420.6,127.5z"/>
	<g>
		<path fill="#FFFFFF" stroke="#58595C" stroke-width="0.5" d="M395.1,117.3c0,1.2-1.1,2.3-3.2,3.5h1.2c1.3,0,1.9,0.6,1.9,1.5
			l-0.1,3.8h-2.2l0.1-2.2c0-0.5,0-1-0.5-1h-1.9l0.2,4.5h-2.3l0-13.3l2.6,0c2.9,0,4.3,1,4.2,2.8L395.1,117.3z M392.4,117.4
			c0.3-0.4-0.1-0.8-0.8-0.8h-1.1l-0.1,2.2C391.5,118.3,392.1,118,392.4,117.4"/>
	</g>
</g>
<path fill="#C6C7C8" d="M320,142.1V200h160v-59C424.6,139,370.7,139.8,320,142.1z"/>
<g>
	<path fill="#58595C" d="M480,140.3c-2.9-0.1-5.7-0.2-8.6-0.3c-50.4-1.5-101-1-151.4,1.4l0,1.2c48.1-2.2,96.4-2.7,144.5-1.5
		c5.2,0.1,10.3,0.3,15.5,0.5V140.3z"/>
</g>
<path fill="#D9DADB" d="M480,185.7c-23.5,1.8-44.8,3.4-44.8,3.4s-32.7-6.2-69.8-4.4c-11.7,0.6-27.4,1-45.4,0.9V200h160V185.7z"/>
<g>
	<path fill="none" d="M434.8,189.1c0,0-32.7-6.2-69.8-4.4"/>
	<path fill="#58595C" d="M480,184.9c-14.6,1.2-29.3,2.4-43.9,3.5c-4.1,0.3-9.1-1.4-13.2-2c-12.5-1.6-25.2-2.5-37.8-2.7
		c-21.7-0.4-43.3,1.2-65,1.1l0,1.5c12.7,0,25.4-0.3,38.1-0.7c23.8-0.9,47.4-0.3,71,3.3c9,1.4,18-0.2,27.1-0.9
		c8-0.6,15.9-1.3,23.9-1.9L480,184.9z"/>
</g>
<rect x="480" fill="#EDEEEE" width="160" height="200"/>
<path fill="#D9DADB" d="M640,71c-1-0.7-2-0.5-2.9-1.1c-16.2,20.6-32.4,41.3-48.7,61.9c1.1,19.1,2.3,38.2,3.4,57.3
	c0.1,2.2,0.5,1.7,2.8,2.1c4.2,0.6,8.4,1.3,12.7,1.9c10.9,1.7,21.8,3.3,32.7,5V71z"/>
<path fill="#D9DADB" d="M508.5,98.2c-3.2-1.5-6.5-3.1-9.7-4.6c-6.1-2.9-12.2-5.8-18.3-8.7c-0.2-0.1-0.3-0.2-0.5-0.2v63.2l0.5,0
	c10.3,0,20.6,0.1,30.9,0.1c1.5-7.1,2.9-14.3,4.4-21.4c0.1-0.5,1.9-1.5,2.5-1.4c0.7,0.2,1.4,0.3,2.1,0.5c-3-7.8-6-15.5-9-23.3
	C510.4,100.1,510.5,99.2,508.5,98.2z"/>
<path fill="#58595C" d="M511.7,97.1c-3-1.4-6.1-2.9-9.1-4.3c-7.4-3.5-14.7-7-22.1-10.5c-0.2-0.1-0.3-0.2-0.5-0.2v2.7
	c0.2,0.1,0.3,0.2,0.5,0.2c6.1,2.9,12.2,5.8,18.3,8.7c3.2,1.5,6.5,3.1,9.7,4.6c2.1,1,2,1.8,2.9,4.1c3,7.8,6,15.5,9,23.3
	c-0.7-0.2-1.4-0.3-2.1-0.5c-0.5-0.1-2.3,0.9-2.5,1.4c-1.5,7.1-2.9,14.3-4.4,21.4c-10.3,0-20.6-0.1-30.9-0.1c-0.2,0-0.3,0-0.5,0v1.6
	c0.2,0,0.3,0,0.5,0c10.2,0,20.5,0.1,30.7,0.1c0.6,0,2.3-0.8,2.5-1.4c1.4-7,2.9-14,4.3-20.9c1.1,0.3,2.3,0.5,3.4,0.8
	c0.4,0.1,2.7-1,2.5-1.5c-3.3-8.5-6.6-17-9.9-25.6C513.3,99.3,513.2,97.8,511.7,97.1z"/>
<path fill="#58595C" d="M640,198c-10.9-1.7-21.8-3.3-32.7-5c-4.2-0.6-8.4-1.3-12.7-1.9c-2.3-0.4-2.7,0.2-2.8-2.1
	c-1.1-19.1-2.3-38.2-3.4-57.3c16.2-20.6,32.4-41.3,48.7-61.9c1,0.7,2,1.2,2.9,1.9V69c-0.5-0.4-1.1-0.6-1.6-1
	c-0.4-0.3-1.8,0.7-2.1,1.1c-16.6,21.1-33.2,42.3-49.9,63.4c-0.1,0.1-0.2,0.3-0.2,0.4c1.2,19.7,2.4,39.3,3.6,59c0,0,0,0,0.1,0
	c16.7,2.6,33.4,5.1,50.1,7.7V198z"/>
<g>
	<g>
		<path fill-rule="evenodd" clip-rule="evenodd" fill="#498D4A" d="M594.1,169.6c0,0-0.9-35.8,3.7-41.5l6-3.2
			c0,0-28.4-41.9-29.9-49.7l-12.4-1.7l2.1-13.1l3.2,0.7l1.6-7.6l-13.5-6.7l-11.7,5.7l-0.3,6l3.5,0l-1.5,14.7c0,0-22.4,0.5-26.1-1.8
			c0,0-19.3,39.1-25.5,48.9l10.5,4.7c0,0,6.4,39.9,4.5,48.2L594.1,169.6z"/>
	</g>
	<g>
		<g>
			<path fill="none" d="M594.1,169.6c0,0-0.9-35.8,3.7-41.5l6-3.2c0,0-28.4-41.9-29.9-49.7l-12.4-1.7l2.1-13.1l3.2,0.7l1.6-7.6
				l-13.5-6.7l-11.7,5.7l-0.3,6l3.5,0l-1.5,14.7c0,0-22.4,0.5-26.1-1.8c0,0-19.3,39.1-25.5,48.9l10.5,4.7c0,0,6.4,39.9,4.5,48.2
				L594.1,169.6z"/>
			<path fill="#58595C" d="M595.2,169c-0.2-7.4-0.1-14.9,0.3-22.3c0.3-5.2,0.6-10.5,1.9-15.6c0.5-2,0.5-2.7,1.3-3.2
				c1.6-0.9,3.3-1.8,4.9-2.6c0.1-0.1,1.4-0.7,1.2-1c-4.9-7.2-9.7-14.6-14.4-21.9c-3.5-5.5-7-11.1-10.2-16.7c-2-3.4-4.4-7.2-5.3-11.1
				c0,0,0,0-0.1,0c-1.2-0.2-12.3-1.7-12.3-1.7c0.7-4.3,1.4-8.7,2-13c-0.7,0.4-1.4,0.8-2.1,1.2c1.1,0.2,2.1,0.5,3.2,0.7
				c0.4,0.1,2-0.7,2.1-1.2c0.5-2.5,1-5.1,1.6-7.6c0,0,0-0.1,0-0.1c-2.4-1.2-4.8-2.4-7.2-3.6c-1.7-0.9-4.4-2.9-6.4-3.2
				c-1.4-0.1-3.8,1.8-5,2.3c-2.5,1.2-5,2.5-7.6,3.7c-0.3,0.2-1.2,0.6-1.2,1c-0.1,2-0.2,4-0.3,6c0,0,0,0,0.1,0c0.6,0,3.5-0.2,3.4,0.2
				c-0.2,1.6-0.3,3.1-0.5,4.7c-0.3,3.2-0.7,6.5-1,9.7c0.7-0.4,1.4-0.8,2.1-1.2c-3.5,0.1-7.1,0-10.6,0c-4.7-0.1-11.2,0.5-15.4-1.8
				c-0.5-0.3-1.9,0.7-2.2,1.2c-8.1,16.4-15.8,33.4-25.5,48.9c0,0.1,0,0.1,0.1,0.1c1.5,0.7,10.2,3.5,10.4,4.8
				c0.6,3.7,1.1,7.4,1.7,11.1c0.9,6.7,1.8,13.3,2.4,20c0.5,5.4,1.5,11.5,0.4,16.8c0,0.1,0,0.1,0.1,0.1c28.6-1.2,57.2-2.4,85.9-3.7
				C593.8,170.2,595,168.9,595.2,169c-25,1-49.9,2.1-74.9,3.2c-3.6,0.2-7.2,0.3-10.8,0.5c0.8,0-0.4-15.5-0.6-16.9
				c-0.8-8.4-1.9-16.8-3.2-25.1c-0.3-2-0.6-3.9-0.9-5.9c-0.2-1.1-4.5-2.3-5.4-2.7c-0.9-0.4-5.4-2-4.9-2.7c1.2-1.9,2.2-3.8,3.3-5.8
				c3.2-5.9,6.3-11.9,9.4-17.9c4.2-8.2,8.4-16.5,12.5-24.8c-0.7,0.4-1.4,0.8-2.2,1.2c3.8,2,9.3,1.6,13.4,1.8
				c4.2,0.2,8.5,0.2,12.7,0.1c0.5,0,2-0.7,2.1-1.2c0.5-4.9,1-9.8,1.5-14.7c0-0.1,0-0.1-0.1-0.1c-0.9,0-3.5,0.6-3.4-0.6
				c0.1-1.8,0.2-3.6,0.3-5.4c-0.4,0.3-0.8,0.7-1.2,1c2.8-1.4,5.6-2.7,8.4-4.1c1.1-0.5,2.1-1.1,3.2-1.6c-1.3,0.6,1.1,1.2,2.2,1.7
				c3.3,1.6,6.6,3.3,9.9,4.9c1.4,0.7-0.6,6.3-0.9,7.9c0.7-0.4,1.4-0.8,2.1-1.2c-1.1-0.2-2.1-0.5-3.2-0.7c-0.4-0.1-2,0.7-2.1,1.2
				c-0.7,4.4-1.4,8.8-2.1,13.1c0,0.1,0,0.1,0.1,0.1c2.6,0.4,5.1,0.7,7.7,1.1c2.9,0.4,4.3-0.1,5.3,2.6c2.4,6.2,6.3,12,9.8,17.6
				c6.2,10.2,12.8,20.2,19.5,30.1c0.4-0.3,0.8-0.7,1.2-1c-2.1,1.1-6.2,2.3-7.5,4.5c-2.3,3.9-2.4,9.3-2.8,13.6
				c-0.8,9.2-0.9,18.4-0.6,27.6C593.1,170.2,595.2,169.6,595.2,169z"/>
		</g>
	</g>
</g>
<g>
	<path fill="#FFFFFF" stroke="#58595C" stroke-width="0.5" d="M527.7,96c6.4,0,9.7,2,9.7,6v0.6c0,2.5-3.4,5.3-10.3,8.3v15l-5.1,0
		l0-29.9L527.7,96z M527,101.2v4.6c2.2-1,3.6-2,4.2-3c0-1.1-0.6-1.6-1.8-1.6H527z"/>
	<path fill="#FFFFFF" stroke="#58595C" stroke-width="0.5" d="M561.1,101.1h0.8c1.4,0,2.2,0.7,2.4,2v0.2c-0.2,1.3-1,1.9-2.4,2h-0.8
		c-1.5,0-2.3-0.8-2.5-2.3C558.9,101.7,559.7,101.1,561.1,101.1z M563.8,108l0,17.8h-4.9V108H563.8z"/>
	<path fill="#FFFFFF" stroke="#58595C" stroke-width="0.5" d="M570.9,127.9c-3.5,0-5.3-2.2-5.3-6.7v-4.6h3.8v4.6
		c0,0.8,0.5,1.4,1.5,1.7c1,0,1.5-0.7,1.7-2v-0.7c-0.1-2-0.7-3.3-1.7-3.9c-1-0.6-2.2-1.1-3.4-1.6c-1.2-0.5-1.9-1.4-1.9-2.8v-1.5
		c0-2.4,1.8-3.7,5.3-4.1h0.6c3.4,0,5.1,2.1,5.1,6.3h-3.4l-0.4-1.8c-0.5-0.7-1.2-0.9-2.1-0.7c-0.8,0.2-1.1,0.6-1.1,1.3
		c0.2,1.2,1.9,2.2,4.9,2.8c1.4,0.6,2.1,2.2,2.1,4.8v2.8C576.6,125.8,574.7,127.9,570.9,127.9z"/>
	<g>
		<path fill="#FFFFFF" stroke="#58595C" stroke-width="0.5" d="M539.6,127.9c0,0-0.2-1.5-0.6-4.5h-3.8l-0.6,2.4h-3.9l4.9-19.8h3.8
			l4.4,21.9H539.6z M536,120.7l2.6,0l-1-6.9L536,120.7"/>
	</g>
	<g>
		<path fill="#FFFFFF" stroke="#58595C" stroke-width="0.5" d="M556.8,111.9c-0.1,1.8-1.7,3.7-5.1,5.6h1.9c2,0,3,0.9,2.9,2.4l-0.2,6
			H553l0.1-3.4c0-0.8,0-1.6-0.8-1.6h-3l0.3,7.1H546l0.1-20.8l4,0c4.5,0,6.8,1.5,6.7,4.4L556.8,111.9z M552.5,112.1
			c0.4-0.7-0.2-1.2-1.2-1.2h-1.7l-0.1,3.4C551,113.6,552,113,552.5,112.1"/>
	</g>
</g>
<path fill="#C6C7C8" d="M480,141v59h160v-45.5C586.4,147,532.5,142.8,480,141z"/>
<g>
	<path fill="#58595C" d="M480,141.7c53.5,1.9,107,6.1,160,13.6l0-1.6c-53-7.4-106.5-11.5-160-13.4V141.7z"/>
</g>
<path fill="#D9DADB" d="M640,181.5c-40.8-1.6-88.3-1.9-111.4,0.2c-12.1,1.1-31,2.6-48.6,4V200h160V181.5z"/>
<g>
	<path fill="none" d="M528.1,181.7"/>
	<path fill="#58595C" d="M480,186.3c31.5-2.6,62.9-5.3,94.6-5.3c21.8,0,43.6,0.8,65.4,1.6l0-1.4c-35.4-1.5-70.9-2.8-106.3-0.4
		c-17.9,1.2-35.8,2.8-53.7,4.3L480,186.3z"/>
</g>
<rect x="640" fill="#EDEEEE" width="160" height="200"/>
<g>
	<path fill="#D9DADB" d="M727.1,133.2c-0.6-2.5-0.4-3.1-2.4-4.4c-9.4-6.4-18.9-12.7-28.3-19.1c-18.8-12.7-37.6-25.4-56.4-38V198
		c3.7,0.6,7.4,1.1,11.1,1.7c0.6,0.1,1.3,0.2,1.9,0.3h67c3-8.1,5.9-16.2,8.9-24.3c0.2-0.4,1.6-1.4,2.1-1.2c1.9,0.8,3.9,1.5,5.8,2.3
		c-1.7-7.7-3.5-15.5-5.2-23.2C730.1,146.8,728.6,140,727.1,133.2z"/>
	<path fill="#58595C" d="M731.5,142c-1-4.4-2-8.9-3-13.3c-0.2-1-4.5-3-5.3-3.6c-23.9-16.1-47.8-32.2-71.7-48.3
		c-3.8-2.6-7.7-5.2-11.5-7.8v2.7c18.8,12.7,37.6,25.4,56.4,38c9.4,6.4,18.9,12.7,28.3,19.1c2,1.3,1.8,1.9,2.4,4.4
		c1.5,6.8,3.1,13.5,4.6,20.3c1.7,7.7,3.5,15.5,5.2,23.2c-1.9-0.8-3.9-1.5-5.8-2.3c-0.4-0.2-1.9,0.8-2.1,1.2
		c-3,8.1-5.9,16.2-8.9,24.3h1.8c2.9-7.9,5.7-15.8,8.6-23.6c2.3,0.9,4.7,1.8,7,2.7c0.4,0.1,2.2-0.9,2.1-1.3
		C736.9,165.9,734.2,153.9,731.5,142z M640,198v1.6c0.8,0.1,1.6,0.2,2.4,0.4h10.6c-0.6-0.1-1.3-0.2-1.9-0.3
		C647.4,199.1,643.7,198.6,640,198z"/>
</g>
<g>
	<g>
		<path fill-rule="evenodd" clip-rule="evenodd" fill="#FFD061" d="M665.4,174.8c0,0-1.1-63.3-8.4-70.7l-13.8-1.2
			c0,0,26.9-57.3,26.7-66.3l12.2,1.4l1.3-10.1l-4.8,0.5l-1.4-13.4l10.9-11.1L709,9.7l1.6,15.2l-3.1,1.2l-0.1,14.5l13.4,4.9L740,29.1
			L750.2,57l8.8,0c0,0,13.4,27.6,31,41.1l-6.1,3.4c0,0-8.8,62.4-8.3,82.2L665.4,174.8z"/>
		<g>
			<path fill="none" d="M665.4,174.8c0,0-1.1-63.3-8.4-70.7l-13.8-1.2c0,0,26.9-57.3,26.7-66.3l12.2,1.4l1.3-10.1l-4.8,0.5
				l-1.4-13.4l10.9-11.1L709,9.7l1.6,15.2l-3.1,1.2l-0.1,14.5l13.4,4.9L740,29.1L750.2,57l8.8,0c0,0,13.4,27.6,31,41.1l-6.1,3.4
				c0,0-8.8,62.4-8.3,82.2L665.4,174.8z"/>
			<path fill="#58595C" d="M666.5,174.2c-0.2-11.6-0.8-23.1-1.6-34.7c-0.6-8.2-1.4-16.3-2.8-24.4c-0.4-2.5-1.4-11.4-4.8-11.7
				c-3.4-0.3-6.9-0.6-10.3-0.9c-1.9-0.2-3,0.5-2.1-1.3c2.3-5,4.7-10.1,6.9-15.2c6.5-14.5,13.5-29.2,18.1-44.5
				c0.5-1.8,1.1-3.7,1.1-5.6c-0.7,0.4-1.4,0.9-2.1,1.3c4.1,0.5,8.1,0.9,12.2,1.4c0.4,0.1,2-0.7,2.1-1.2c0.4-3.4,0.9-6.7,1.3-10.1
				c0-0.1-0.1-0.1-0.2-0.1c-2.7,0.3-4.5,1.6-4.8-1.4c-0.4-3.6-0.8-7.2-1.2-10.8c-0.2-1.6,3.4-4.2,4.6-5.4c2-2.1,4.1-4.2,6.1-6.3
				c-0.7,0.4-1.3,0.7-2,1.1c6.3,1.8,12.6,3.6,18.9,5.4c2.7,0.8,2,2.9,2.3,5.7c0.4,3.4,0.7,6.7,1.1,10.1c0.5-0.4,1-0.8,1.5-1.1
				c-1,0.4-2.1,0.8-3.1,1.2c-0.4,0.1-1.5,0.6-1.5,1.1c0,4.8,0,9.7-0.1,14.5c0,0,0,0,0.1,0c4.5,1.6,8.9,3.3,13.4,4.9
				c0.5,0.2,1.5-0.7,1.9-0.9c6.4-5.5,12.8-11,19.2-16.6c-0.6,0.3-1.3,0.6-1.9,0.9c3.4,9.3,6.8,18.6,10.2,27.9c0,0,0,0,0.1,0
				c1.2,0,8.5-0.7,8.8,0.1c1.5,2.9,3.1,5.8,4.7,8.6c6.9,11.9,15.3,23.7,26.2,32.3c0.3-0.3,0.6-0.6,1-0.8c-2.2,1.2-4.9,2.2-6.8,3.9
				c-0.6,0.5-0.5,2.3-0.6,3c-1,7.5-2,15-2.9,22.6c-2.3,18.8-5.3,38-5,57c0.7-0.4,1.4-0.9,2.1-1.3
				C739.9,180.1,703.2,177.1,666.5,174.2c-0.8-0.1-2.1,1.3-2.1,1.3c36.7,2.9,73.5,5.9,110.2,8.8c0.5,0,2.1-0.7,2.1-1.3
				c-0.4-18.2,2.5-36.7,4.7-54.7c0.9-7.6,1.9-15.1,2.9-22.7c0.2-1.5,0.4-3.1,0.6-4.6c0.1-0.5,0.1,0-0.8,0.5c0.6-0.3,1.1-0.6,1.7-0.9
				c1.4-0.8,2.8-1.6,4.3-2.4c0.1,0,1.1-0.7,1-0.8c-13.3-10.5-23.5-25.9-31-41.1c0,0,0,0-0.1,0c-1,0-8.6,0.5-8.8,0
				c-1-2.7-2-5.4-2.9-8c-2.4-6.6-4.8-13.2-7.3-19.8c-0.1-0.3-1.8,0.8-1.9,0.9c-6.4,5.5-12.8,11-19.2,16.6c0.6-0.3,1.2-0.6,1.9-0.9
				c-4.4-1.6-8.9-3.3-13.3-4.9c-0.8-0.3,0-12.9,0-14.5c-0.5,0.4-1,0.8-1.5,1.1c1-0.4,2.1-0.8,3.1-1.2c0.3-0.1,1.6-0.7,1.5-1.1
				c-0.5-5.1-1.1-10.2-1.6-15.2c0,0,0,0-0.1,0c-6.9-2-13.8-4-20.8-5.9c-0.6-0.2-1.7,0.7-2,1.1c-3.6,3.7-7.2,7.4-10.8,11.1
				c-0.7,0.7,0.3,4.6,0.4,5.5c0.3,2.7,0.6,5.4,0.9,8.2c0.1,0,0.1,0.1,0.2,0c2.2-0.2,4.7-1.7,4.4,1c-0.4,2.8-0.8,5.7-1.1,8.5
				c0.7-0.4,1.4-0.8,2.1-1.2c-4.1-0.5-8.1-0.9-12.2-1.4c-0.5-0.1-2.1,0.8-2.1,1.3c-0.1,4.8-2.5,9.9-4.2,14.3
				c-2.9,7.6-6.1,15.2-9.3,22.6c-4.3,9.8-8.7,19.6-13.2,29.3c0,0.1,0,0.1,0.1,0.1c3.4,0.3,6.8,0.6,10.2,0.9c3.4,0.3,4.1,0.5,5.4,3.7
				c2.9,7.5,3.4,16.3,4.2,24.2c1.4,14.3,2.1,28.7,2.3,43C664.4,175.4,666.5,174.9,666.5,174.2z"/>
		</g>
	</g>
</g>
<g>
	<path fill="#FFFFFF" stroke="#58595C" stroke-width="0.5" d="M686.6,111.5v16.4h-4.7v-24.4l0-1.8h4.1l4.8,8.1l5.3-10.2h3.8v26.1
		h-4.8l0-14.9l-2.7,4.2l-2.9,0L686.6,111.5z"/>
	<path fill="#FFFFFF" stroke="#58595C" stroke-width="0.5" d="M735.2,114.9l6.8,13h-3.7l-4.8-10.2l0,0.1l-1,1.4l0,6.7l-3.4,0v-20.8
		h3.4v7.9l5.8-10.1l4,0L735.2,114.9z"/>
	<path fill="#FFFFFF" stroke="#58595C" stroke-width="0.5" d="M747.7,106.4c2.4,0.3,3.5,2.1,3.5,5.6v8.2h-6.3v0.7
		c0,2.5,0.6,3.8,1.7,3.8c1-0.4,1.5-1.1,1.5-2.1v-1.2h3.2l0,1.9l-0.2,1.4c-0.8,2.2-2.1,3.3-4,3.3h-1.3c-2.8-0.6-4.2-2.2-4.2-4.7v-7.8
		c-0.1-4.5,0.4-7.2,1.3-8.1S745.3,106.1,747.7,106.4z M744.9,117.2h3c0.4-3.9-0.1-6-1.4-6.2C745.3,110.7,744.7,112.8,744.9,117.2z"
		/>
	<path fill="#FFFFFF" stroke="#58595C" stroke-width="0.5" d="M753.2,103.9h-6.1v-4.6h13.7v4.6h-3v23.7h-4.6V103.9z"/>
	<g>
		<path fill="#FFFFFF" stroke="#58595C" stroke-width="0.5" d="M710.3,127.9c0,0-0.2-1.5-0.6-4.5h-3.8l-0.6,2.4h-3.9l4.9-19.8h3.8
			l4.4,21.9H710.3z M706.6,120.7l2.6,0l-1-6.9L706.6,120.7"/>
	</g>
	<g>
		<path fill="#FFFFFF" stroke="#58595C" stroke-width="0.5" d="M727.5,111.9c-0.1,1.8-1.7,3.7-5.1,5.6h1.9c2,0,3,0.9,2.9,2.4l-0.2,6
			h-3.4l0.1-3.4c0-0.8,0-1.6-0.8-1.6h-3l0.3,7.1h-3.6l0.1-20.8l4,0c4.5,0,6.8,1.5,6.7,4.4L727.5,111.9z M723.2,112.1
			c0.4-0.7-0.2-1.2-1.2-1.2h-1.7l-0.1,3.4C721.7,113.6,722.6,113,723.2,112.1"/>
	</g>
</g>
<path fill="#C6C7C8" d="M640,154.5V200h160v-12C747.9,172.9,694.1,162.1,640,154.5z"/>
<g>
	<path fill="none" d="M800,188.2"/>
	<path fill="#58595C" d="M640,155.3c52,7.3,103.6,17.8,154.1,32.1c1.6,0.5,3.2,0.9,4.8,1.4c0.2,0.1-0.7,0-0.4-0.3l0-1.2
		c-52.4-15.1-104.6-26-158.6-33.5"/>
</g>
<path fill="#D9DADB" d="M666.1,182.8c-8.1-0.5-16.9-0.9-26.1-1.3V200h160v-19C774.9,182.5,704.9,185.1,666.1,182.8z"/>
<g>
	<path fill="none" d="M800,181c-24.5,1.5-95.5,4.1-134.6,1.8"/>
	<path fill="#58595C" d="M640,182.5c26.3,1,52.7,2,79,1.8c26.7-0.3,54.4-1,81-2.6v-1.3c-42,2.5-83.4,3.7-125.5,2.1
		c-11.5-0.4-23-1-34.5-1.4L640,182.5z"/>
</g>
</svg>
