<?xml version="1.0" encoding="utf-8"?>
<!-- Generator: Adobe Illustrator 16.0.0, SVG Export Plug-In . SVG Version: 6.00 Build 0)  -->
<!DOCTYPE svg PUBLIC "-//W3C//DTD SVG 1.1//EN" "http://www.w3.org/Graphics/SVG/1.1/DTD/svg11.dtd">
<svg version="1.1" id="Calque_1" xmlns="http://www.w3.org/2000/svg" xmlns:xlink="http://www.w3.org/1999/xlink" x="0px" y="0px"
	 width="149px" height="166.9px" viewBox="0 0 149 166.9" enable-background="new 0 0 149 166.9" xml:space="preserve">
<g>
	<path fill="#84837F" d="M14.8,166.23c30.1-4.899,68-10.399,111.601-15.3c1-19.2,3.1-45.399,7.6-50l13.8-1.2
		c0,0-26.899-57.3-26.7-66.3l-12.199,1.4L107.6,24.73l4.801,0.5l1.399-13.399L102.9,0.631l-20.7,5.9L80.6,21.73l3.101,1.2l0.1,14.5
		l-13.4,4.9l-19.3-16.5l-10.2,28h-8.8c0,0-13.4,27.6-31,41.1l6.1,3.4C7.2,98.23,14.5,144.331,14.8,166.23z"/>
	<g>
		<g>
			<path fill="none" d="M14.8,166.3C44.9,161.4,82.8,155.9,126.4,151c1-19.2,3.1-45.399,7.6-50l13.8-1.2c0,0-26.899-57.3-26.7-66.3
				L108.9,34.9L107.6,24.8l4.801,0.5L113.8,11.9L102.9,0.7L82.2,6.6L80.6,21.8L83.7,23l0.1,14.5l-13.4,4.9L51.1,25.9l-10.2,28h-8.8
				c0,0-13.4,27.6-31,41.1l6.1,3.4C7.2,98.3,14.5,144.4,14.8,166.3z"/>
			<g>
			</g>
		</g>
	</g>
	<g>
		<path fill="#FFFFFF" stroke="#000000" stroke-width="0.25" stroke-miterlimit="10" d="M24.324,115.867l-3.584,0.031
			c0.533-4.096,1.227-7.818,2.08-11.168c0.981-3.84,2.24-7.392,3.776-10.655l6.048-0.576c0.49,4.182,0.97,7.957,1.44,11.328
			c0.576,4.245,1.152,7.989,1.728,11.231h-4.48l-0.8-8.384l-4.8,0.416L24.324,115.867z M27.14,101.306l2.72-0.191l-0.384-4.993
			l-0.96,0.673L27.14,101.306z"/>
		<path fill="#FFFFFF" stroke="#000000" stroke-width="0.25" stroke-miterlimit="10" d="M53.059,104.379l-4.287,0.384
			c-0.149-1.664-0.374-2.923-0.672-3.776c-0.555-1.578-1.419-2.368-2.592-2.368c-0.896,0-1.584,0.812-2.064,2.433
			s-0.72,3.872-0.72,6.752c0,1.899,0.138,3.2,0.416,3.904c0.512,1.279,1.578,1.92,3.2,1.92c0.491,0,0.864-0.091,1.12-0.272
			c0.256-0.181,0.384-0.517,0.384-1.008c0-0.448-0.043-0.965-0.128-1.552c-0.085-0.587-0.139-0.986-0.16-1.2l4.735-0.16
			c0,1.644-0.512,3.008-1.536,4.097c-1.024,1.088-2.357,1.632-4,1.632c-2.688,0-4.832-0.917-6.432-2.752
			c-1.515-1.729-2.272-3.969-2.272-6.721c0-2.367,0.875-4.517,2.624-6.447c1.749-1.931,3.797-2.896,6.144-2.896
			c1.834,0,3.371,0.907,4.608,2.72C52.516,100.667,53.059,102.437,53.059,104.379z"/>
		<path fill="#FFFFFF" stroke="#000000" stroke-width="0.25" stroke-miterlimit="10" d="M69.667,104.379l-4.288,0.384
			c-0.149-1.664-0.373-2.923-0.672-3.776c-0.555-1.578-1.419-2.368-2.592-2.368c-0.896,0-1.584,0.812-2.063,2.433
			c-0.48,1.621-0.721,3.872-0.721,6.752c0,1.899,0.139,3.2,0.416,3.904c0.513,1.279,1.579,1.92,3.2,1.92
			c0.49,0,0.864-0.091,1.12-0.272c0.256-0.181,0.384-0.517,0.384-1.008c0-0.448-0.043-0.965-0.128-1.552s-0.139-0.986-0.16-1.2
			l4.736-0.16c0,1.644-0.512,3.008-1.536,4.097c-1.023,1.088-2.357,1.632-4,1.632c-2.688,0-4.832-0.917-6.432-2.752
			c-1.516-1.729-2.272-3.969-2.272-6.721c0-2.367,0.875-4.517,2.624-6.447s3.797-2.896,6.145-2.896c1.834,0,3.37,0.907,4.607,2.72
			C69.123,100.667,69.667,102.437,69.667,104.379z"/>
		<path fill="#FFFFFF" stroke="#000000" stroke-width="0.25" stroke-miterlimit="10" d="M71.363,103.419
			c0-0.769-0.032-1.632-0.097-2.592c-0.063-0.96-0.139-1.803-0.224-2.528l5.439,1.312c-0.362,1.942-0.629,3.681-0.8,5.217
			c-0.171,1.535-0.256,3.125-0.256,4.768v0.576c0,1.045,0.096,1.824,0.288,2.336c0.299,0.811,0.853,1.216,1.664,1.216
			c1.728,0,2.933-1.205,3.616-3.616c0.404-1.45,0.607-3.338,0.607-5.664c0-1.749-0.054-3.424-0.16-5.023s-0.267-3.232-0.479-4.896
			l5.216-0.992c-0.405,2.369-0.709,4.571-0.912,6.608s-0.304,4.134-0.304,6.288c0,3.755-0.63,6.39-1.888,7.904
			c-1.067,1.279-2.624,1.92-4.673,1.92c-1.92,0-3.595-0.459-5.023-1.376c-1.644-1.045-2.464-2.475-2.464-4.288
			c0-0.789,0.074-1.984,0.224-3.584C71.288,105.402,71.363,104.208,71.363,103.419z"/>
		<path fill="#FFFFFF" stroke="#000000" stroke-width="0.25" stroke-miterlimit="10" d="M87.843,102.97
			c0-2.475,0.513-4.304,1.536-5.487c1.024-1.185,2.73-1.777,5.12-1.777c1.835,0,3.253,0.79,4.256,2.369
			c0.832,1.322,1.248,2.954,1.248,4.896h-7.872c0.021,0.854,0.043,1.707,0.064,2.561c0.106,2.154,0.725,3.231,1.855,3.231
			c0.619,0,1.189-0.171,1.713-0.512c0.522-0.341,0.783-0.8,0.783-1.376c0-0.362-0.053-0.778-0.159-1.248l3.84-0.096
			c-0.534,1.792-1.185,3.029-1.952,3.712c-0.896,0.811-2.24,1.216-4.032,1.216c-1.963,0-3.541-0.769-4.736-2.305
			C88.397,106.747,87.843,105.018,87.843,102.97z M90.499,100.923l4.832-0.128v-0.416c0-0.917-0.203-1.61-0.607-2.08
			c-0.406-0.47-1.057-0.704-1.952-0.704c-0.832,0-1.424,0.246-1.776,0.736c-0.352,0.49-0.528,1.173-0.528,2.048L90.499,100.923z"/>
		<path fill="#FFFFFF" stroke="#000000" stroke-width="0.25" stroke-miterlimit="10" d="M105.283,99.451l0.544,10.783h-3.36
			c0-0.896-0.032-2.25-0.096-4.063c-0.064-1.813-0.097-3.179-0.097-4.096c0-0.342,0.027-0.752,0.08-1.232
			c0.054-0.48,0.112-0.944,0.177-1.392H105.283z M105.57,96.987c0,0.576-0.117,1.023-0.352,1.344
			c-0.235,0.319-0.619,0.479-1.152,0.479c-0.427,0-0.805-0.133-1.136-0.399c-0.331-0.268-0.496-0.613-0.496-1.041
			c0-0.469,0.192-0.922,0.576-1.359s0.811-0.656,1.28-0.656c0.404,0,0.72,0.166,0.943,0.496
			C105.459,96.181,105.57,96.559,105.57,96.987z"/>
		<path fill="#FFFFFF" stroke="#000000" stroke-width="0.25" stroke-miterlimit="10" d="M107.683,95.131l3.264,0.319l-0.224,15.265
			h7.936l-0.512,4.096l-10.271-1.023L107.683,95.131z"/>
	</g>
</g>
<g>
	<path fill="#FFFFFF" d="M24.323,115.868l-3.584,0.031c0.533-4.096,1.227-7.818,2.08-11.168c0.981-3.84,2.24-7.393,3.776-10.656
		l6.048-0.576c0.49,4.182,0.97,7.957,1.44,11.328c0.576,4.246,1.152,7.99,1.728,11.232h-4.48l-0.8-8.385l-4.8,0.416L24.323,115.868z
		 M27.14,101.307l2.72-0.192l-0.384-4.992l-0.96,0.673L27.14,101.307z"/>
	<path fill="#FFFFFF" d="M53.059,104.38l-4.288,0.383c-0.149-1.664-0.374-2.922-0.672-3.775c-0.555-1.578-1.419-2.368-2.592-2.368
		c-0.896,0-1.584,0.812-2.064,2.433s-0.72,3.871-0.72,6.752c0,1.898,0.138,3.199,0.416,3.903c0.512,1.28,1.578,1.921,3.2,1.921
		c0.491,0,0.864-0.092,1.12-0.272s0.384-0.517,0.384-1.009c0-0.447-0.043-0.965-0.128-1.551c-0.085-0.587-0.139-0.987-0.16-1.201
		l4.736-0.16c0,1.644-0.512,3.009-1.536,4.097s-2.357,1.632-4,1.632c-2.688,0-4.832-0.917-6.432-2.752
		c-1.515-1.729-2.272-3.968-2.272-6.72c0-2.368,0.875-4.517,2.624-6.448c1.749-1.93,3.797-2.896,6.144-2.896
		c1.834,0,3.371,0.908,4.608,2.721C52.515,100.667,53.059,102.438,53.059,104.38z"/>
	<path fill="#FFFFFF" d="M69.667,104.38l-4.288,0.383c-0.149-1.664-0.374-2.922-0.672-3.775c-0.555-1.578-1.419-2.368-2.592-2.368
		c-0.896,0-1.584,0.812-2.064,2.433s-0.72,3.871-0.72,6.752c0,1.898,0.138,3.199,0.416,3.903c0.512,1.28,1.578,1.921,3.2,1.921
		c0.491,0,0.864-0.092,1.12-0.272s0.384-0.517,0.384-1.009c0-0.447-0.043-0.965-0.128-1.551c-0.085-0.587-0.139-0.987-0.16-1.201
		l4.736-0.16c0,1.644-0.512,3.009-1.536,4.097s-2.357,1.632-4,1.632c-2.688,0-4.832-0.917-6.432-2.752
		c-1.515-1.729-2.272-3.968-2.272-6.72c0-2.368,0.875-4.517,2.624-6.448c1.749-1.93,3.797-2.896,6.144-2.896
		c1.834,0,3.371,0.908,4.608,2.721C69.123,100.667,69.667,102.438,69.667,104.38z"/>
	<path fill="#FFFFFF" d="M71.363,103.419c0-0.768-0.032-1.632-0.096-2.592c-0.064-0.96-0.139-1.803-0.224-2.527l5.439,1.312
		c-0.361,1.941-0.629,3.68-0.799,5.216c-0.172,1.536-0.256,3.125-0.256,4.768v0.576c0,1.046,0.096,1.824,0.287,2.336
		c0.299,0.812,0.854,1.217,1.664,1.217c1.729,0,2.934-1.205,3.617-3.616c0.404-1.45,0.607-3.339,0.607-5.664
		c0-1.749-0.055-3.425-0.16-5.024c-0.107-1.6-0.268-3.232-0.48-4.896l5.217-0.992c-0.406,2.368-0.709,4.571-0.912,6.608
		s-0.305,4.133-0.305,6.287c0,3.756-0.629,6.391-1.887,7.904c-1.068,1.281-2.625,1.92-4.674,1.92c-1.92,0-3.594-0.459-5.023-1.375
		c-1.643-1.046-2.464-2.475-2.464-4.289c0-0.789,0.074-1.984,0.224-3.584C71.288,105.403,71.363,104.209,71.363,103.419z"/>
	<path fill="#FFFFFF" d="M87.842,102.971c0-2.475,0.514-4.305,1.537-5.488s2.73-1.776,5.119-1.776c1.836,0,3.254,0.79,4.256,2.368
		c0.832,1.323,1.248,2.955,1.248,4.896h-7.871c0.021,0.854,0.043,1.707,0.064,2.56c0.105,2.155,0.725,3.231,1.855,3.231
		c0.619,0,1.189-0.17,1.713-0.512c0.521-0.341,0.783-0.8,0.783-1.375c0-0.363-0.053-0.779-0.16-1.248l3.84-0.097
		c-0.533,1.792-1.184,3.029-1.951,3.712c-0.896,0.811-2.24,1.217-4.033,1.217c-1.963,0-3.541-0.769-4.736-2.305
		C88.396,106.747,87.842,105.018,87.842,102.971z M90.498,100.923l4.832-0.127v-0.416c0-0.918-0.203-1.611-0.607-2.08
		c-0.406-0.47-1.057-0.705-1.951-0.705c-0.832,0-1.424,0.246-1.777,0.736c-0.352,0.491-0.527,1.174-0.527,2.049L90.498,100.923z"/>
	<path fill="#FFFFFF" d="M105.283,99.451l0.543,10.784h-3.359c0-0.896-0.033-2.25-0.096-4.064c-0.064-1.813-0.098-3.178-0.098-4.096
		c0-0.341,0.027-0.752,0.08-1.232c0.055-0.479,0.113-0.943,0.178-1.392H105.283z M105.57,96.987c0,0.576-0.117,1.023-0.352,1.344
		c-0.236,0.32-0.619,0.48-1.152,0.48c-0.428,0-0.805-0.133-1.137-0.4c-0.33-0.267-0.496-0.613-0.496-1.04
		c0-0.469,0.193-0.923,0.576-1.36c0.385-0.437,0.811-0.655,1.281-0.655c0.404,0,0.719,0.165,0.943,0.495
		C105.459,96.182,105.57,96.56,105.57,96.987z"/>
	<path fill="#FFFFFF" d="M107.682,95.132l3.264,0.319l-0.223,15.265h7.936l-0.512,4.096l-10.271-1.024L107.682,95.132z"/>
</g>
</svg>
