<?xml version="1.0" encoding="utf-8"?>
<!-- Generator: Adobe Illustrator 13.0.0, SVG Export Plug-In . SVG Version: 6.00 Build 14948)  -->
<!DOCTYPE svg PUBLIC "-//W3C//DTD SVG 1.1//EN" "http://www.w3.org/Graphics/SVG/1.1/DTD/svg11.dtd">
<svg version="1.1" id="Layer_1" xmlns="http://www.w3.org/2000/svg" xmlns:xlink="http://www.w3.org/1999/xlink" x="0px" y="0px"
	 width="401.8px" height="340.5px" viewBox="0 0 401.8 340.5" enable-background="new 0 0 401.8 340.5" xml:space="preserve">
<pattern  x="-249.2" y="519.3" width="69" height="69" patternUnits="userSpaceOnUse" id="Polka_Dot_Pattern" viewBox="2.1 -70.9 69 69" overflow="visible">
	<g>
		<polygon fill="none" points="71.1,-1.9 2.1,-1.9 2.1,-70.9 71.1,-70.9 		"/>
		<polygon fill="#F7BC60" points="71.1,-1.9 2.1,-1.9 2.1,-70.9 71.1,-70.9 		"/>
		<g>
			<path fill="#FFFFFF" d="M61.8-71.7c0,0.1,0,0.1,0,0.2c-0.1,0.1-0.1,0.1-0.2,0.1c-0.1,0.1-0.1,0.3-0.1,0.4c-0.2,0.1,0,0.2,0,0.3
				c0,0,0,0.1,0,0.2c0,0.1,0,0.3,0.1,0.4c0.1,0.2,0.3,0.4,0.4,0.5c0.2,0.1,0.4,0.6,0.6,0.6c0.2,0,0.4-0.1,0.5-0.1
				c0.2,0,0.4,0,0.6-0.1c0.2-0.1,0.1-0.3,0.3-0.5c0.1-0.1,0.3,0,0.4-0.1c0.2-0.1,0.3-0.3,0.4-0.5c0-0.1,0-0.1,0-0.2
				c0-0.1,0.1-0.2,0.1-0.3c0-0.1-0.1-0.1-0.1-0.2c0-0.1,0-0.2,0-0.3c0-0.2,0-0.4-0.1-0.5c-0.4-0.7-1.2-0.9-2-0.8
				c-0.2,0-0.3,0.1-0.4,0.2c-0.2,0.1-0.1,0.2-0.3,0.2c-0.1,0-0.2,0.1-0.2,0.2C61.8-71.7,61.8-71.7,61.8-71.7
				C61.8-71.6,61.8-71.6,61.8-71.7"/>
			<path fill="#FFFFFF" d="M54.1-71.7c0,0.1,0,0.1,0,0.2c-0.1,0.1-0.1,0.1-0.2,0.1c-0.1,0.1-0.1,0.3-0.1,0.4c-0.2,0.1,0,0.2,0,0.3
				c0,0,0,0.1,0,0.2c0,0.1,0,0.3,0.1,0.4c0.1,0.2,0.3,0.4,0.4,0.5c0.2,0.1,0.4,0.6,0.6,0.6c0.2,0,0.4-0.1,0.5-0.1
				c0.2,0,0.4,0,0.6-0.1c0.2-0.1,0.1-0.3,0.3-0.5c0.1-0.1,0.3,0,0.4-0.1c0.2-0.1,0.3-0.3,0.4-0.5c0-0.1,0-0.1,0-0.2
				c0-0.1,0.1-0.2,0.1-0.3c0-0.1-0.1-0.1-0.1-0.2c0-0.1,0-0.2,0-0.3c0-0.2,0-0.4-0.1-0.5c-0.4-0.7-1.2-0.9-2-0.8
				c-0.2,0-0.3,0.1-0.4,0.2c-0.2,0.1-0.1,0.2-0.3,0.2c-0.1,0-0.2,0.1-0.2,0.2C54.1-71.7,54.1-71.7,54.1-71.7
				C54.1-71.6,54.1-71.6,54.1-71.7"/>
			<path fill="#FFFFFF" d="M46.4-71.7c0,0.1,0,0.1,0,0.2c-0.1,0.1-0.1,0.1-0.2,0.1c-0.1,0.1-0.1,0.3-0.1,0.4c-0.2,0.1,0,0.2,0,0.3
				c0,0,0,0.1,0,0.2c0,0.1,0,0.3,0.1,0.4c0.1,0.2,0.3,0.4,0.4,0.5c0.2,0.1,0.4,0.6,0.6,0.6c0.2,0,0.4-0.1,0.5-0.1
				c0.2,0,0.4,0,0.6-0.1c0.2-0.1,0.1-0.3,0.3-0.5c0.1-0.1,0.3,0,0.4-0.1c0.2-0.1,0.3-0.3,0.4-0.5c0-0.1,0-0.1,0-0.2
				c0-0.1,0.1-0.2,0.1-0.3c0-0.1-0.1-0.1-0.1-0.2c0-0.1,0-0.2,0-0.3c0-0.2,0-0.4-0.1-0.5c-0.4-0.7-1.2-0.9-2-0.8
				c-0.2,0-0.3,0.1-0.4,0.2c-0.2,0.1-0.1,0.2-0.3,0.2c-0.1,0-0.2,0.1-0.2,0.2C46.4-71.7,46.4-71.7,46.4-71.7
				C46.4-71.6,46.4-71.6,46.4-71.7"/>
			<path fill="#FFFFFF" d="M38.8-71.7c0,0.1,0,0.1,0,0.2c-0.1,0.1-0.1,0.1-0.2,0.1c-0.1,0.1-0.1,0.3-0.1,0.4c-0.2,0.1,0,0.2,0,0.3
				c0,0,0,0.1,0,0.2c0,0.1,0,0.3,0.1,0.4c0.1,0.2,0.3,0.4,0.4,0.5c0.2,0.1,0.4,0.6,0.6,0.6c0.2,0,0.4-0.1,0.5-0.1
				c0.2,0,0.4,0,0.6-0.1c0.2-0.1,0.1-0.3,0.3-0.5c0.1-0.1,0.3,0,0.4-0.1c0.2-0.1,0.3-0.3,0.4-0.5c0-0.1,0-0.1,0-0.2
				c0-0.1,0.1-0.2,0.1-0.3c0-0.1-0.1-0.1-0.1-0.2c0-0.1,0-0.2,0-0.3c0-0.2,0-0.4-0.1-0.5c-0.4-0.7-1.2-0.9-2-0.8
				c-0.2,0-0.3,0.1-0.4,0.2c-0.2,0.1-0.1,0.2-0.3,0.2c-0.1,0-0.2,0.1-0.2,0.2C38.8-71.7,38.8-71.7,38.8-71.7
				C38.8-71.6,38.8-71.6,38.8-71.7"/>
			<path fill="#FFFFFF" d="M31.1-71.7c0,0.1,0,0.1,0,0.2c-0.1,0.1-0.1,0.1-0.2,0.1c-0.1,0.1-0.1,0.3-0.1,0.4c-0.2,0.1,0,0.2,0,0.3
				c0,0,0,0.1,0,0.2c0,0.1,0,0.3,0.1,0.4c0.1,0.2,0.3,0.4,0.4,0.5c0.2,0.1,0.4,0.6,0.6,0.6c0.2,0,0.4-0.1,0.5-0.1
				c0.2,0,0.4,0,0.6-0.1c0.2-0.1,0.1-0.3,0.3-0.5c0.1-0.1,0.3,0,0.4-0.1c0.2-0.1,0.3-0.3,0.4-0.5c0-0.1,0-0.1,0-0.2
				c0-0.1,0.1-0.2,0.1-0.3c0-0.1-0.1-0.1-0.1-0.2c0-0.1,0-0.2,0-0.3c0-0.2,0-0.4-0.1-0.5c-0.4-0.7-1.2-0.9-2-0.8
				c-0.2,0-0.3,0.1-0.4,0.2c-0.2,0.1-0.1,0.2-0.3,0.2c-0.1,0-0.2,0.1-0.2,0.2C31.1-71.7,31.1-71.7,31.1-71.7
				C31.1-71.6,31.1-71.6,31.1-71.7"/>
			<path fill="#FFFFFF" d="M23.4-71.7c0,0.1,0,0.1,0,0.2c-0.1,0.1-0.1,0.1-0.2,0.1c-0.1,0.1-0.1,0.3-0.1,0.4c-0.2,0.1,0,0.2,0,0.3
				c0,0,0,0.1,0,0.2c0,0.1,0,0.3,0.1,0.4c0.1,0.2,0.3,0.4,0.4,0.5c0.2,0.1,0.4,0.6,0.6,0.6c0.2,0,0.4-0.1,0.5-0.1
				c0.2,0,0.4,0,0.6-0.1c0.2-0.1,0.1-0.3,0.3-0.5c0.1-0.1,0.3,0,0.4-0.1c0.2-0.1,0.3-0.3,0.4-0.5c0-0.1,0-0.1,0-0.2
				c0-0.1,0.1-0.2,0.1-0.3c0-0.1-0.1-0.1-0.1-0.2c0-0.1,0-0.2,0-0.3c0-0.2,0-0.4-0.1-0.5c-0.4-0.7-1.2-0.9-2-0.8
				c-0.2,0-0.3,0.1-0.4,0.2c-0.2,0.1-0.1,0.2-0.3,0.2c-0.1,0-0.2,0.1-0.2,0.2C23.4-71.7,23.4-71.7,23.4-71.7
				C23.4-71.6,23.4-71.6,23.4-71.7"/>
			<path fill="#FFFFFF" d="M15.8-71.7c0,0.1,0,0.1,0,0.2c-0.1,0.1-0.1,0.1-0.2,0.1c-0.1,0.1-0.1,0.3-0.1,0.4c-0.2,0.1,0,0.2,0,0.3
				c0,0,0,0.1,0,0.2c0,0.1,0,0.3,0.1,0.4c0.1,0.2,0.3,0.4,0.4,0.5c0.2,0.1,0.4,0.6,0.6,0.6c0.2,0,0.4-0.1,0.5-0.1
				c0.2,0,0.4,0,0.6-0.1c0.2-0.1,0.1-0.3,0.3-0.5c0.1-0.1,0.3,0,0.4-0.1c0.2-0.1,0.3-0.3,0.4-0.5c0-0.1,0-0.1,0-0.2
				c0-0.1,0.1-0.2,0.1-0.3c0-0.1-0.1-0.1-0.1-0.2c0-0.1,0-0.2,0-0.3c0-0.2,0-0.4-0.1-0.5c-0.4-0.7-1.2-0.9-2-0.8
				c-0.2,0-0.3,0.1-0.4,0.2c-0.2,0.1-0.1,0.2-0.3,0.2c-0.1,0-0.2,0.1-0.2,0.2C15.8-71.7,15.8-71.7,15.8-71.7
				C15.8-71.6,15.8-71.6,15.8-71.7"/>
			<path fill="#FFFFFF" d="M8.1-71.7c0,0.1,0,0.1,0,0.2C8-71.4,8-71.4,7.9-71.3c-0.1,0.1-0.1,0.3-0.1,0.4c-0.2,0.1,0,0.2,0,0.3
				c0,0,0,0.1,0,0.2c0,0.1,0,0.3,0.1,0.4c0.1,0.2,0.3,0.4,0.4,0.5c0.2,0.1,0.4,0.6,0.6,0.6c0.2,0,0.4-0.1,0.5-0.1
				c0.2,0,0.4,0,0.6-0.1c0.2-0.1,0.1-0.3,0.3-0.5c0.1-0.1,0.3,0,0.4-0.1c0.2-0.1,0.3-0.3,0.4-0.5c0-0.1,0-0.1,0-0.2
				c0-0.1,0.1-0.2,0.1-0.3c0-0.1-0.1-0.1-0.1-0.2c0-0.1,0-0.2,0-0.3c0-0.2,0-0.4-0.1-0.5c-0.4-0.7-1.2-0.9-2-0.8
				c-0.2,0-0.3,0.1-0.4,0.2c-0.2,0.1-0.1,0.2-0.3,0.2c-0.1,0-0.2,0.1-0.2,0.2C8.1-71.7,8.1-71.7,8.1-71.7
				C8.1-71.6,8.1-71.6,8.1-71.7"/>
			<path fill="#FFFFFF" d="M0.4-71.7c0,0.1,0,0.1,0,0.2c-0.1,0.1-0.1,0.1-0.2,0.1c-0.1,0.1-0.1,0.3-0.1,0.4c-0.2,0.1,0,0.2,0,0.3
				c0,0,0,0.1,0,0.2c0,0.1,0,0.3,0.1,0.4c0.1,0.2,0.3,0.4,0.4,0.5C0.8-69.4,1-69,1.2-68.9c0.2,0,0.4-0.1,0.5-0.1
				c0.2,0,0.4,0,0.6-0.1c0.2-0.1,0.1-0.3,0.3-0.5c0.1-0.1,0.3,0,0.4-0.1c0.2-0.1,0.3-0.3,0.4-0.5c0-0.1,0-0.1,0-0.2
				c0-0.1,0.1-0.2,0.1-0.3c0-0.1-0.1-0.1-0.1-0.2c0-0.1,0-0.2,0-0.3c0-0.2,0-0.4-0.1-0.5c-0.4-0.7-1.2-0.9-2-0.8
				c-0.2,0-0.3,0.1-0.4,0.2c-0.2,0.1-0.1,0.2-0.3,0.2c-0.1,0-0.2,0.1-0.2,0.2C0.4-71.7,0.4-71.7,0.4-71.7
				C0.4-71.6,0.4-71.6,0.4-71.7"/>
		</g>
		<g>
			<path fill="#FFFFFF" d="M69.4-71.7c0,0.1,0,0.1,0,0.2c-0.1,0.1-0.1,0.1-0.2,0.1c-0.1,0.1-0.1,0.3-0.1,0.4c-0.2,0.1,0,0.2,0,0.3
				c0,0,0,0.1,0,0.2c0,0.1,0,0.3,0.1,0.4c0.1,0.2,0.3,0.4,0.4,0.5c0.2,0.1,0.4,0.6,0.6,0.6c0.2,0,0.4-0.1,0.5-0.1
				c0.2,0,0.4,0,0.6-0.1c0.2-0.1,0.1-0.3,0.3-0.5c0.1-0.1,0.3,0,0.4-0.1c0.2-0.1,0.3-0.3,0.4-0.5c0-0.1,0-0.1,0-0.2
				c0-0.1,0.1-0.2,0.1-0.3c0-0.1-0.1-0.1-0.1-0.2c0-0.1,0-0.2,0-0.3c0-0.2,0-0.4-0.1-0.5c-0.4-0.7-1.2-0.9-2-0.8
				c-0.2,0-0.3,0.1-0.4,0.2c-0.2,0.1-0.1,0.2-0.3,0.2c-0.1,0-0.2,0.1-0.2,0.2C69.4-71.7,69.4-71.7,69.4-71.7
				C69.4-71.6,69.4-71.6,69.4-71.7"/>
		</g>
		<path fill="#FFFFFF" d="M0.5-71.7c0,0.1,0,0.1,0,0.2c-0.1,0.1-0.1,0.1-0.2,0.1c-0.1,0.1-0.1,0.3-0.1,0.4c-0.2,0.1,0,0.2,0,0.3
			c0,0,0,0.1,0,0.2c0,0.1,0,0.3,0.1,0.4c0.1,0.2,0.3,0.4,0.4,0.5C0.9-69.4,1-69,1.3-68.9c0.2,0,0.4-0.1,0.5-0.1c0.2,0,0.4,0,0.6-0.1
			c0.2-0.1,0.1-0.3,0.3-0.5c0.1-0.1,0.3,0,0.4-0.1c0.2-0.1,0.3-0.3,0.4-0.5c0-0.1,0-0.1,0-0.2c0-0.1,0.1-0.2,0.1-0.3
			c0-0.1-0.1-0.1-0.1-0.2c0-0.1,0-0.2,0-0.3c0-0.2,0-0.4-0.1-0.5c-0.4-0.7-1.2-0.9-2-0.8c-0.2,0-0.3,0.1-0.4,0.2
			c-0.2,0.1-0.1,0.2-0.3,0.2c-0.1,0-0.2,0.1-0.2,0.2C0.5-71.7,0.5-71.7,0.5-71.7C0.5-71.6,0.5-71.6,0.5-71.7"/>
		<g>
			<g>
				<path fill="#FFFFFF" d="M69.4-64c0,0.1,0,0.1,0,0.2c-0.1,0.1-0.1,0.1-0.2,0.1c-0.1,0.1-0.1,0.3-0.1,0.4c-0.2,0.1,0,0.2,0,0.3
					c0,0,0,0.1,0,0.2c0,0.1,0,0.3,0.1,0.4c0.1,0.2,0.3,0.4,0.4,0.5c0.2,0.1,0.4,0.6,0.6,0.6c0.2,0,0.4-0.1,0.5-0.1
					c0.2,0,0.4,0,0.6-0.1c0.2-0.1,0.1-0.3,0.3-0.5c0.1-0.1,0.3,0,0.4-0.1c0.2-0.1,0.3-0.3,0.4-0.5c0-0.1,0-0.1,0-0.2
					c0-0.1,0.1-0.2,0.1-0.3c0-0.1-0.1-0.1-0.1-0.2c0-0.1,0-0.2,0-0.3c0-0.2,0-0.4-0.1-0.5c-0.4-0.7-1.2-0.9-2-0.8
					c-0.2,0-0.3,0.1-0.4,0.2c-0.2,0.1-0.1,0.2-0.3,0.2c-0.1,0-0.2,0.1-0.2,0.2C69.4-64,69.4-64.1,69.4-64C69.4-64,69.4-64,69.4-64"
					/>
				<path fill="#FFFFFF" d="M61.8-64c0,0.1,0,0.1,0,0.2c-0.1,0.1-0.1,0.1-0.2,0.1c-0.1,0.1-0.1,0.3-0.1,0.4c-0.2,0.1,0,0.2,0,0.3
					c0,0,0,0.1,0,0.2c0,0.1,0,0.3,0.1,0.4c0.1,0.2,0.3,0.4,0.4,0.5c0.2,0.1,0.4,0.6,0.6,0.6c0.2,0,0.4-0.1,0.5-0.1
					c0.2,0,0.4,0,0.6-0.1c0.2-0.1,0.1-0.3,0.3-0.5c0.1-0.1,0.3,0,0.4-0.1c0.2-0.1,0.3-0.3,0.4-0.5c0-0.1,0-0.1,0-0.2
					c0-0.1,0.1-0.2,0.1-0.3c0-0.1-0.1-0.1-0.1-0.2c0-0.1,0-0.2,0-0.3c0-0.2,0-0.4-0.1-0.5c-0.4-0.7-1.2-0.9-2-0.8
					c-0.2,0-0.3,0.1-0.4,0.2c-0.2,0.1-0.1,0.2-0.3,0.2c-0.1,0-0.2,0.1-0.2,0.2C61.8-64,61.8-64.1,61.8-64C61.8-64,61.8-64,61.8-64"
					/>
				<path fill="#FFFFFF" d="M54.1-64c0,0.1,0,0.1,0,0.2c-0.1,0.1-0.1,0.1-0.2,0.1c-0.1,0.1-0.1,0.3-0.1,0.4c-0.2,0.1,0,0.2,0,0.3
					c0,0,0,0.1,0,0.2c0,0.1,0,0.3,0.1,0.4c0.1,0.2,0.3,0.4,0.4,0.5c0.2,0.1,0.4,0.6,0.6,0.6c0.2,0,0.4-0.1,0.5-0.1
					c0.2,0,0.4,0,0.6-0.1c0.2-0.1,0.1-0.3,0.3-0.5c0.1-0.1,0.3,0,0.4-0.1c0.2-0.1,0.3-0.3,0.4-0.5c0-0.1,0-0.1,0-0.2
					c0-0.1,0.1-0.2,0.1-0.3c0-0.1-0.1-0.1-0.1-0.2c0-0.1,0-0.2,0-0.3c0-0.2,0-0.4-0.1-0.5c-0.4-0.7-1.2-0.9-2-0.8
					c-0.2,0-0.3,0.1-0.4,0.2c-0.2,0.1-0.1,0.2-0.3,0.2c-0.1,0-0.2,0.1-0.2,0.2C54.1-64,54.1-64.1,54.1-64C54.1-64,54.1-64,54.1-64"
					/>
				<path fill="#FFFFFF" d="M46.5-64c0,0.1,0,0.1,0,0.2c-0.1,0.1-0.1,0.1-0.2,0.1c-0.1,0.1-0.1,0.3-0.1,0.4c-0.2,0.1,0,0.2,0,0.3
					c0,0,0,0.1,0,0.2c0,0.1,0,0.3,0.1,0.4c0.1,0.2,0.3,0.4,0.4,0.5c0.2,0.1,0.4,0.6,0.6,0.6c0.2,0,0.4-0.1,0.5-0.1
					c0.2,0,0.4,0,0.6-0.1c0.2-0.1,0.1-0.3,0.3-0.5c0.1-0.1,0.3,0,0.4-0.1c0.2-0.1,0.3-0.3,0.4-0.5c0-0.1,0-0.1,0-0.2
					c0-0.1,0.1-0.2,0.1-0.3c0-0.1-0.1-0.1-0.1-0.2c0-0.1,0-0.2,0-0.3c0-0.2,0-0.4-0.1-0.5c-0.4-0.7-1.2-0.9-2-0.8
					c-0.2,0-0.3,0.1-0.4,0.2c-0.2,0.1-0.1,0.2-0.3,0.2c-0.1,0-0.2,0.1-0.2,0.2C46.5-64,46.5-64.1,46.5-64C46.5-64,46.5-64,46.5-64"
					/>
				<path fill="#FFFFFF" d="M38.8-64c0,0.1,0,0.1,0,0.2c-0.1,0.1-0.1,0.1-0.2,0.1c-0.1,0.1-0.1,0.3-0.1,0.4c-0.2,0.1,0,0.2,0,0.3
					c0,0,0,0.1,0,0.2c0,0.1,0,0.3,0.1,0.4c0.1,0.2,0.3,0.4,0.4,0.5c0.2,0.1,0.4,0.6,0.6,0.6c0.2,0,0.4-0.1,0.5-0.1
					c0.2,0,0.4,0,0.6-0.1c0.2-0.1,0.1-0.3,0.3-0.5c0.1-0.1,0.3,0,0.4-0.1c0.2-0.1,0.3-0.3,0.4-0.5c0-0.1,0-0.1,0-0.2
					c0-0.1,0.1-0.2,0.1-0.3c0-0.1-0.1-0.1-0.1-0.2c0-0.1,0-0.2,0-0.3c0-0.2,0-0.4-0.1-0.5c-0.4-0.7-1.2-0.9-2-0.8
					c-0.2,0-0.3,0.1-0.4,0.2c-0.2,0.1-0.1,0.2-0.3,0.2c-0.1,0-0.2,0.1-0.2,0.2C38.8-64,38.8-64.1,38.8-64C38.8-64,38.8-64,38.8-64"
					/>
				<path fill="#FFFFFF" d="M31.1-64c0,0.1,0,0.1,0,0.2c-0.1,0.1-0.1,0.1-0.2,0.1c-0.1,0.1-0.1,0.3-0.1,0.4c-0.2,0.1,0,0.2,0,0.3
					c0,0,0,0.1,0,0.2c0,0.1,0,0.3,0.1,0.4c0.1,0.2,0.3,0.4,0.4,0.5c0.2,0.1,0.4,0.6,0.6,0.6c0.2,0,0.4-0.1,0.5-0.1
					c0.2,0,0.4,0,0.6-0.1c0.2-0.1,0.1-0.3,0.3-0.5c0.1-0.1,0.3,0,0.4-0.1c0.2-0.1,0.3-0.3,0.4-0.5c0-0.1,0-0.1,0-0.2
					c0-0.1,0.1-0.2,0.1-0.3c0-0.1-0.1-0.1-0.1-0.2c0-0.1,0-0.2,0-0.3c0-0.2,0-0.4-0.1-0.5c-0.4-0.7-1.2-0.9-2-0.8
					c-0.2,0-0.3,0.1-0.4,0.2c-0.2,0.1-0.1,0.2-0.3,0.2c-0.1,0-0.2,0.1-0.2,0.2C31.1-64,31.1-64.1,31.1-64C31.1-64,31.1-64,31.1-64"
					/>
				<path fill="#FFFFFF" d="M23.5-64c0,0.1,0,0.1,0,0.2c-0.1,0.1-0.1,0.1-0.2,0.1c-0.1,0.1-0.1,0.3-0.1,0.4c-0.2,0.1,0,0.2,0,0.3
					c0,0,0,0.1,0,0.2c0,0.1,0,0.3,0.1,0.4c0.1,0.2,0.3,0.4,0.4,0.5c0.2,0.1,0.4,0.6,0.6,0.6c0.2,0,0.4-0.1,0.5-0.1
					c0.2,0,0.4,0,0.6-0.1c0.2-0.1,0.1-0.3,0.3-0.5c0.1-0.1,0.3,0,0.4-0.1c0.2-0.1,0.3-0.3,0.4-0.5c0-0.1,0-0.1,0-0.2
					c0-0.1,0.1-0.2,0.1-0.3c0-0.1-0.1-0.1-0.1-0.2c0-0.1,0-0.2,0-0.3c0-0.2,0-0.4-0.1-0.5c-0.4-0.7-1.2-0.9-2-0.8
					c-0.2,0-0.3,0.1-0.4,0.2c-0.2,0.1-0.1,0.2-0.3,0.2c-0.1,0-0.2,0.1-0.2,0.2C23.5-64,23.5-64.1,23.5-64C23.5-64,23.5-64,23.5-64"
					/>
				<path fill="#FFFFFF" d="M15.8-64c0,0.1,0,0.1,0,0.2c-0.1,0.1-0.1,0.1-0.2,0.1c-0.1,0.1-0.1,0.3-0.1,0.4c-0.2,0.1,0,0.2,0,0.3
					c0,0,0,0.1,0,0.2c0,0.1,0,0.3,0.1,0.4c0.1,0.2,0.3,0.4,0.4,0.5c0.2,0.1,0.4,0.6,0.6,0.6c0.2,0,0.4-0.1,0.5-0.1
					c0.2,0,0.4,0,0.6-0.1c0.2-0.1,0.1-0.3,0.3-0.5c0.1-0.1,0.3,0,0.4-0.1c0.2-0.1,0.3-0.3,0.4-0.5c0-0.1,0-0.1,0-0.2
					c0-0.1,0.1-0.2,0.1-0.3c0-0.1-0.1-0.1-0.1-0.2c0-0.1,0-0.2,0-0.3c0-0.2,0-0.4-0.1-0.5c-0.4-0.7-1.2-0.9-2-0.8
					c-0.2,0-0.3,0.1-0.4,0.2c-0.2,0.1-0.1,0.2-0.3,0.2c-0.1,0-0.2,0.1-0.2,0.2C15.8-64,15.8-64.1,15.8-64C15.8-64,15.8-64,15.8-64"
					/>
				<path fill="#FFFFFF" d="M8.2-64c0,0.1,0,0.1,0,0.2C8.1-63.7,8-63.7,8-63.7c-0.1,0.1-0.1,0.3-0.1,0.4c-0.2,0.1,0,0.2,0,0.3
					c0,0,0,0.1,0,0.2c0,0.1,0,0.3,0.1,0.4C8-62.2,8.2-62,8.3-61.9c0.2,0.1,0.4,0.6,0.6,0.6c0.2,0,0.4-0.1,0.5-0.1
					c0.2,0,0.4,0,0.6-0.1c0.2-0.1,0.1-0.3,0.3-0.5c0.1-0.1,0.3,0,0.4-0.1c0.2-0.1,0.3-0.3,0.4-0.5c0-0.1,0-0.1,0-0.2
					c0-0.1,0.1-0.2,0.1-0.3c0-0.1-0.1-0.1-0.1-0.2c0-0.1,0-0.2,0-0.3c0-0.2,0-0.4-0.1-0.5c-0.4-0.7-1.2-0.9-2-0.8
					c-0.2,0-0.3,0.1-0.4,0.2c-0.2,0.1-0.1,0.2-0.3,0.2c-0.1,0-0.2,0.1-0.2,0.2C8.2-64,8.2-64.1,8.2-64C8.1-64,8.1-64,8.2-64"/>
				<path fill="#FFFFFF" d="M0.5-64c0,0.1,0,0.1,0,0.2c-0.1,0.1-0.1,0.1-0.2,0.1c-0.1,0.1-0.1,0.3-0.1,0.4c-0.2,0.1,0,0.2,0,0.3
					c0,0,0,0.1,0,0.2c0,0.1,0,0.3,0.1,0.4c0.1,0.2,0.3,0.4,0.4,0.5c0.2,0.1,0.4,0.6,0.6,0.6c0.2,0,0.4-0.1,0.5-0.1
					c0.2,0,0.4,0,0.6-0.1c0.2-0.1,0.1-0.3,0.3-0.5C2.8-62,3-61.9,3.1-62c0.2-0.1,0.3-0.3,0.4-0.5c0-0.1,0-0.1,0-0.2
					c0-0.1,0.1-0.2,0.1-0.3c0-0.1-0.1-0.1-0.1-0.2c0-0.1,0-0.2,0-0.3c0-0.2,0-0.4-0.1-0.5c-0.4-0.7-1.2-0.9-2-0.8
					c-0.2,0-0.3,0.1-0.4,0.2c-0.2,0.1-0.1,0.2-0.3,0.2c-0.1,0-0.2,0.1-0.2,0.2C0.5-64,0.5-64.1,0.5-64C0.5-64,0.5-64,0.5-64"/>
			</g>
			<g>
				<path fill="#FFFFFF" d="M69.4-56.3c0,0.1,0,0.1,0,0.2c-0.1,0.1-0.1,0.1-0.2,0.1c-0.1,0.1-0.1,0.3-0.1,0.4c-0.2,0.1,0,0.2,0,0.3
					c0,0,0,0.1,0,0.2c0,0.1,0,0.3,0.1,0.4c0.1,0.2,0.3,0.4,0.4,0.5c0.2,0.1,0.4,0.6,0.6,0.6c0.2,0,0.4-0.1,0.5-0.1
					c0.2,0,0.4,0,0.6-0.1c0.2-0.1,0.1-0.3,0.3-0.5c0.1-0.1,0.3,0,0.4-0.1c0.2-0.1,0.3-0.3,0.4-0.5c0-0.1,0-0.1,0-0.2
					c0-0.1,0.1-0.2,0.1-0.3c0-0.1-0.1-0.1-0.1-0.2c0-0.1,0-0.2,0-0.3c0-0.2,0-0.4-0.1-0.5c-0.4-0.7-1.2-0.9-2-0.8
					c-0.2,0-0.3,0.1-0.4,0.2c-0.2,0.1-0.1,0.2-0.3,0.2c-0.1,0-0.2,0.1-0.2,0.2C69.4-56.4,69.4-56.4,69.4-56.3
					C69.4-56.3,69.4-56.3,69.4-56.3"/>
				<path fill="#FFFFFF" d="M61.8-56.3c0,0.1,0,0.1,0,0.2c-0.1,0.1-0.1,0.1-0.2,0.1c-0.1,0.1-0.1,0.3-0.1,0.4c-0.2,0.1,0,0.2,0,0.3
					c0,0,0,0.1,0,0.2c0,0.1,0,0.3,0.1,0.4c0.1,0.2,0.3,0.4,0.4,0.5c0.2,0.1,0.4,0.6,0.6,0.6c0.2,0,0.4-0.1,0.5-0.1
					c0.2,0,0.4,0,0.6-0.1c0.2-0.1,0.1-0.3,0.3-0.5c0.1-0.1,0.3,0,0.4-0.1c0.2-0.1,0.3-0.3,0.4-0.5c0-0.1,0-0.1,0-0.2
					c0-0.1,0.1-0.2,0.1-0.3c0-0.1-0.1-0.1-0.1-0.2c0-0.1,0-0.2,0-0.3c0-0.2,0-0.4-0.1-0.5c-0.4-0.7-1.2-0.9-2-0.8
					c-0.2,0-0.3,0.1-0.4,0.2c-0.2,0.1-0.1,0.2-0.3,0.2c-0.1,0-0.2,0.1-0.2,0.2C61.8-56.4,61.8-56.4,61.8-56.3
					C61.8-56.3,61.8-56.3,61.8-56.3"/>
				<path fill="#FFFFFF" d="M54.1-56.3c0,0.1,0,0.1,0,0.2C54-56.1,54-56.1,53.9-56c-0.1,0.1-0.1,0.3-0.1,0.4c-0.2,0.1,0,0.2,0,0.3
					c0,0,0,0.1,0,0.2c0,0.1,0,0.3,0.1,0.4c0.1,0.2,0.3,0.4,0.4,0.5c0.2,0.1,0.4,0.6,0.6,0.6c0.2,0,0.4-0.1,0.5-0.1
					c0.2,0,0.4,0,0.6-0.1c0.2-0.1,0.1-0.3,0.3-0.5c0.1-0.1,0.3,0,0.4-0.1c0.2-0.1,0.3-0.3,0.4-0.5c0-0.1,0-0.1,0-0.2
					c0-0.1,0.1-0.2,0.1-0.3c0-0.1-0.1-0.1-0.1-0.2c0-0.1,0-0.2,0-0.3c0-0.2,0-0.4-0.1-0.5c-0.4-0.7-1.2-0.9-2-0.8
					c-0.2,0-0.3,0.1-0.4,0.2c-0.2,0.1-0.1,0.2-0.3,0.2c-0.1,0-0.2,0.1-0.2,0.2C54.1-56.4,54.1-56.4,54.1-56.3
					C54.1-56.3,54.1-56.3,54.1-56.3"/>
				<path fill="#FFFFFF" d="M46.5-56.3c0,0.1,0,0.1,0,0.2c-0.1,0.1-0.1,0.1-0.2,0.1c-0.1,0.1-0.1,0.3-0.1,0.4c-0.2,0.1,0,0.2,0,0.3
					c0,0,0,0.1,0,0.2c0,0.1,0,0.3,0.1,0.4c0.1,0.2,0.3,0.4,0.4,0.5c0.2,0.1,0.4,0.6,0.6,0.6c0.2,0,0.4-0.1,0.5-0.1
					c0.2,0,0.4,0,0.6-0.1c0.2-0.1,0.1-0.3,0.3-0.5c0.1-0.1,0.3,0,0.4-0.1c0.2-0.1,0.3-0.3,0.4-0.5c0-0.1,0-0.1,0-0.2
					c0-0.1,0.1-0.2,0.1-0.3c0-0.1-0.1-0.1-0.1-0.2c0-0.1,0-0.2,0-0.3c0-0.2,0-0.4-0.1-0.5c-0.4-0.7-1.2-0.9-2-0.8
					c-0.2,0-0.3,0.1-0.4,0.2c-0.2,0.1-0.1,0.2-0.3,0.2c-0.1,0-0.2,0.1-0.2,0.2C46.5-56.4,46.5-56.4,46.5-56.3
					C46.5-56.3,46.5-56.3,46.5-56.3"/>
				<path fill="#FFFFFF" d="M38.8-56.3c0,0.1,0,0.1,0,0.2c-0.1,0.1-0.1,0.1-0.2,0.1c-0.1,0.1-0.1,0.3-0.1,0.4c-0.2,0.1,0,0.2,0,0.3
					c0,0,0,0.1,0,0.2c0,0.1,0,0.3,0.1,0.4c0.1,0.2,0.3,0.4,0.4,0.5c0.2,0.1,0.4,0.6,0.6,0.6c0.2,0,0.4-0.1,0.5-0.1
					c0.2,0,0.4,0,0.6-0.1c0.2-0.1,0.1-0.3,0.3-0.5c0.1-0.1,0.3,0,0.4-0.1c0.2-0.1,0.3-0.3,0.4-0.5c0-0.1,0-0.1,0-0.2
					c0-0.1,0.1-0.2,0.1-0.3c0-0.1-0.1-0.1-0.1-0.2c0-0.1,0-0.2,0-0.3c0-0.2,0-0.4-0.1-0.5c-0.4-0.7-1.2-0.9-2-0.8
					c-0.2,0-0.3,0.1-0.4,0.2c-0.2,0.1-0.1,0.2-0.3,0.2c-0.1,0-0.2,0.1-0.2,0.2C38.8-56.4,38.8-56.4,38.8-56.3
					C38.8-56.3,38.8-56.3,38.8-56.3"/>
				<path fill="#FFFFFF" d="M31.1-56.3c0,0.1,0,0.1,0,0.2c-0.1,0.1-0.1,0.1-0.2,0.1c-0.1,0.1-0.1,0.3-0.1,0.4c-0.2,0.1,0,0.2,0,0.3
					c0,0,0,0.1,0,0.2c0,0.1,0,0.3,0.1,0.4c0.1,0.2,0.3,0.4,0.4,0.5c0.2,0.1,0.4,0.6,0.6,0.6c0.2,0,0.4-0.1,0.5-0.1
					c0.2,0,0.4,0,0.6-0.1c0.2-0.1,0.1-0.3,0.3-0.5c0.1-0.1,0.3,0,0.4-0.1c0.2-0.1,0.3-0.3,0.4-0.5c0-0.1,0-0.1,0-0.2
					c0-0.1,0.1-0.2,0.1-0.3c0-0.1-0.1-0.1-0.1-0.2c0-0.1,0-0.2,0-0.3c0-0.2,0-0.4-0.1-0.5c-0.4-0.7-1.2-0.9-2-0.8
					c-0.2,0-0.3,0.1-0.4,0.2c-0.2,0.1-0.1,0.2-0.3,0.2c-0.1,0-0.2,0.1-0.2,0.2C31.1-56.4,31.1-56.4,31.1-56.3
					C31.1-56.3,31.1-56.3,31.1-56.3"/>
				<path fill="#FFFFFF" d="M23.5-56.3c0,0.1,0,0.1,0,0.2c-0.1,0.1-0.1,0.1-0.2,0.1c-0.1,0.1-0.1,0.3-0.1,0.4c-0.2,0.1,0,0.2,0,0.3
					c0,0,0,0.1,0,0.2c0,0.1,0,0.3,0.1,0.4c0.1,0.2,0.3,0.4,0.4,0.5c0.2,0.1,0.4,0.6,0.6,0.6c0.2,0,0.4-0.1,0.5-0.1
					c0.2,0,0.4,0,0.6-0.1c0.2-0.1,0.1-0.3,0.3-0.5c0.1-0.1,0.3,0,0.4-0.1c0.2-0.1,0.3-0.3,0.4-0.5c0-0.1,0-0.1,0-0.2
					c0-0.1,0.1-0.2,0.1-0.3c0-0.1-0.1-0.1-0.1-0.2c0-0.1,0-0.2,0-0.3c0-0.2,0-0.4-0.1-0.5c-0.4-0.7-1.2-0.9-2-0.8
					c-0.2,0-0.3,0.1-0.4,0.2c-0.2,0.1-0.1,0.2-0.3,0.2c-0.1,0-0.2,0.1-0.2,0.2C23.5-56.4,23.5-56.4,23.5-56.3
					C23.5-56.3,23.5-56.3,23.5-56.3"/>
				<path fill="#FFFFFF" d="M15.8-56.3c0,0.1,0,0.1,0,0.2c-0.1,0.1-0.1,0.1-0.2,0.1c-0.1,0.1-0.1,0.3-0.1,0.4c-0.2,0.1,0,0.2,0,0.3
					c0,0,0,0.1,0,0.2c0,0.1,0,0.3,0.1,0.4c0.1,0.2,0.3,0.4,0.4,0.5c0.2,0.1,0.4,0.6,0.6,0.6c0.2,0,0.4-0.1,0.5-0.1
					c0.2,0,0.4,0,0.6-0.1c0.2-0.1,0.1-0.3,0.3-0.5c0.1-0.1,0.3,0,0.4-0.1c0.2-0.1,0.3-0.3,0.4-0.5c0-0.1,0-0.1,0-0.2
					c0-0.1,0.1-0.2,0.1-0.3c0-0.1-0.1-0.1-0.1-0.2c0-0.1,0-0.2,0-0.3c0-0.2,0-0.4-0.1-0.5c-0.4-0.7-1.2-0.9-2-0.8
					c-0.2,0-0.3,0.1-0.4,0.2c-0.2,0.1-0.1,0.2-0.3,0.2c-0.1,0-0.2,0.1-0.2,0.2C15.8-56.4,15.8-56.4,15.8-56.3
					C15.8-56.3,15.8-56.3,15.8-56.3"/>
				<path fill="#FFFFFF" d="M8.2-56.3c0,0.1,0,0.1,0,0.2C8.1-56.1,8-56.1,8-56c-0.1,0.1-0.1,0.3-0.1,0.4c-0.2,0.1,0,0.2,0,0.3
					c0,0,0,0.1,0,0.2c0,0.1,0,0.3,0.1,0.4c0.1,0.2,0.3,0.4,0.4,0.5c0.2,0.1,0.4,0.6,0.6,0.6c0.2,0,0.4-0.1,0.5-0.1
					c0.2,0,0.4,0,0.6-0.1c0.2-0.1,0.1-0.3,0.3-0.5c0.1-0.1,0.3,0,0.4-0.1c0.2-0.1,0.3-0.3,0.4-0.5c0-0.1,0-0.1,0-0.2
					c0-0.1,0.1-0.2,0.1-0.3c0-0.1-0.1-0.1-0.1-0.2c0-0.1,0-0.2,0-0.3c0-0.2,0-0.4-0.1-0.5c-0.4-0.7-1.2-0.9-2-0.8
					c-0.2,0-0.3,0.1-0.4,0.2c-0.2,0.1-0.1,0.2-0.3,0.2c-0.1,0-0.2,0.1-0.2,0.2C8.2-56.4,8.2-56.4,8.2-56.3
					C8.1-56.3,8.1-56.3,8.2-56.3"/>
				<path fill="#FFFFFF" d="M0.5-56.3c0,0.1,0,0.1,0,0.2c-0.1,0.1-0.1,0.1-0.2,0.1c-0.1,0.1-0.1,0.3-0.1,0.4c-0.2,0.1,0,0.2,0,0.3
					c0,0,0,0.1,0,0.2c0,0.1,0,0.3,0.1,0.4c0.1,0.2,0.3,0.4,0.4,0.5c0.2,0.1,0.4,0.6,0.6,0.6c0.2,0,0.4-0.1,0.5-0.1
					c0.2,0,0.4,0,0.6-0.1c0.2-0.1,0.1-0.3,0.3-0.5c0.1-0.1,0.3,0,0.4-0.1c0.2-0.1,0.3-0.3,0.4-0.5c0-0.1,0-0.1,0-0.2
					c0-0.1,0.1-0.2,0.1-0.3c0-0.1-0.1-0.1-0.1-0.2c0-0.1,0-0.2,0-0.3c0-0.2,0-0.4-0.1-0.5c-0.4-0.7-1.2-0.9-2-0.8
					c-0.2,0-0.3,0.1-0.4,0.2c-0.2,0.1-0.1,0.2-0.3,0.2c-0.1,0-0.2,0.1-0.2,0.2C0.5-56.4,0.5-56.4,0.5-56.3
					C0.5-56.3,0.5-56.3,0.5-56.3"/>
			</g>
			<g>
				<path fill="#FFFFFF" d="M69.4-48.7c0,0.1,0,0.1,0,0.2c-0.1,0.1-0.1,0.1-0.2,0.1c-0.1,0.1-0.1,0.3-0.1,0.4c-0.2,0.1,0,0.2,0,0.3
					c0,0,0,0.1,0,0.2c0,0.1,0,0.3,0.1,0.4c0.1,0.2,0.3,0.4,0.4,0.5c0.2,0.1,0.4,0.6,0.6,0.6c0.2,0,0.4-0.1,0.5-0.1
					c0.2,0,0.4,0,0.6-0.1c0.2-0.1,0.1-0.3,0.3-0.5c0.1-0.1,0.3,0,0.4-0.1c0.2-0.1,0.3-0.3,0.4-0.5c0-0.1,0-0.1,0-0.2
					c0-0.1,0.1-0.2,0.1-0.3c0-0.1-0.1-0.1-0.1-0.2c0-0.1,0-0.2,0-0.3c0-0.2,0-0.4-0.1-0.5c-0.4-0.7-1.2-0.9-2-0.8
					c-0.2,0-0.3,0.1-0.4,0.2c-0.2,0.1-0.1,0.2-0.3,0.2c-0.1,0-0.2,0.1-0.2,0.2C69.4-48.7,69.4-48.8,69.4-48.7
					C69.4-48.7,69.4-48.7,69.4-48.7"/>
				<path fill="#FFFFFF" d="M61.8-48.7c0,0.1,0,0.1,0,0.2c-0.1,0.1-0.1,0.1-0.2,0.1c-0.1,0.1-0.1,0.3-0.1,0.4c-0.2,0.1,0,0.2,0,0.3
					c0,0,0,0.1,0,0.2c0,0.1,0,0.3,0.1,0.4c0.1,0.2,0.3,0.4,0.4,0.5c0.2,0.1,0.4,0.6,0.6,0.6c0.2,0,0.4-0.1,0.5-0.1
					c0.2,0,0.4,0,0.6-0.1c0.2-0.1,0.1-0.3,0.3-0.5c0.1-0.1,0.3,0,0.4-0.1c0.2-0.1,0.3-0.3,0.4-0.5c0-0.1,0-0.1,0-0.2
					c0-0.1,0.1-0.2,0.1-0.3c0-0.1-0.1-0.1-0.1-0.2c0-0.1,0-0.2,0-0.3c0-0.2,0-0.4-0.1-0.5c-0.4-0.7-1.2-0.9-2-0.8
					c-0.2,0-0.3,0.1-0.4,0.2c-0.2,0.1-0.1,0.2-0.3,0.2c-0.1,0-0.2,0.1-0.2,0.2C61.8-48.7,61.8-48.8,61.8-48.7
					C61.8-48.7,61.8-48.7,61.8-48.7"/>
				<path fill="#FFFFFF" d="M54.1-48.7c0,0.1,0,0.1,0,0.2c-0.1,0.1-0.1,0.1-0.2,0.1c-0.1,0.1-0.1,0.3-0.1,0.4c-0.2,0.1,0,0.2,0,0.3
					c0,0,0,0.1,0,0.2c0,0.1,0,0.3,0.1,0.4c0.1,0.2,0.3,0.4,0.4,0.5c0.2,0.1,0.4,0.6,0.6,0.6c0.2,0,0.4-0.1,0.5-0.1
					c0.2,0,0.4,0,0.6-0.1c0.2-0.1,0.1-0.3,0.3-0.5c0.1-0.1,0.3,0,0.4-0.1c0.2-0.1,0.3-0.3,0.4-0.5c0-0.1,0-0.1,0-0.2
					c0-0.1,0.1-0.2,0.1-0.3c0-0.1-0.1-0.1-0.1-0.2c0-0.1,0-0.2,0-0.3c0-0.2,0-0.4-0.1-0.5c-0.4-0.7-1.2-0.9-2-0.8
					c-0.2,0-0.3,0.1-0.4,0.2c-0.2,0.1-0.1,0.2-0.3,0.2c-0.1,0-0.2,0.1-0.2,0.2C54.1-48.7,54.1-48.8,54.1-48.7
					C54.1-48.7,54.1-48.7,54.1-48.7"/>
				<path fill="#FFFFFF" d="M46.5-48.7c0,0.1,0,0.1,0,0.2c-0.1,0.1-0.1,0.1-0.2,0.1c-0.1,0.1-0.1,0.3-0.1,0.4c-0.2,0.1,0,0.2,0,0.3
					c0,0,0,0.1,0,0.2c0,0.1,0,0.3,0.1,0.4c0.1,0.2,0.3,0.4,0.4,0.5c0.2,0.1,0.4,0.6,0.6,0.6c0.2,0,0.4-0.1,0.5-0.1
					c0.2,0,0.4,0,0.6-0.1c0.2-0.1,0.1-0.3,0.3-0.5c0.1-0.1,0.3,0,0.4-0.1c0.2-0.1,0.3-0.3,0.4-0.5c0-0.1,0-0.1,0-0.2
					c0-0.1,0.1-0.2,0.1-0.3c0-0.1-0.1-0.1-0.1-0.2c0-0.1,0-0.2,0-0.3c0-0.2,0-0.4-0.1-0.5c-0.4-0.7-1.2-0.9-2-0.8
					c-0.2,0-0.3,0.1-0.4,0.2c-0.2,0.1-0.1,0.2-0.3,0.2c-0.1,0-0.2,0.1-0.2,0.2C46.5-48.7,46.5-48.8,46.5-48.7
					C46.5-48.7,46.5-48.7,46.5-48.7"/>
				<path fill="#FFFFFF" d="M38.8-48.7c0,0.1,0,0.1,0,0.2c-0.1,0.1-0.1,0.1-0.2,0.1c-0.1,0.1-0.1,0.3-0.1,0.4c-0.2,0.1,0,0.2,0,0.3
					c0,0,0,0.1,0,0.2c0,0.1,0,0.3,0.1,0.4c0.1,0.2,0.3,0.4,0.4,0.5c0.2,0.1,0.4,0.6,0.6,0.6c0.2,0,0.4-0.1,0.5-0.1
					c0.2,0,0.4,0,0.6-0.1c0.2-0.1,0.1-0.3,0.3-0.5c0.1-0.1,0.3,0,0.4-0.1c0.2-0.1,0.3-0.3,0.4-0.5c0-0.1,0-0.1,0-0.2
					c0-0.1,0.1-0.2,0.1-0.3c0-0.1-0.1-0.1-0.1-0.2c0-0.1,0-0.2,0-0.3c0-0.2,0-0.4-0.1-0.5c-0.4-0.7-1.2-0.9-2-0.8
					c-0.2,0-0.3,0.1-0.4,0.2c-0.2,0.1-0.1,0.2-0.3,0.2c-0.1,0-0.2,0.1-0.2,0.2C38.8-48.7,38.8-48.8,38.8-48.7
					C38.8-48.7,38.8-48.7,38.8-48.7"/>
				<path fill="#FFFFFF" d="M31.1-48.7c0,0.1,0,0.1,0,0.2c-0.1,0.1-0.1,0.1-0.2,0.1c-0.1,0.1-0.1,0.3-0.1,0.4c-0.2,0.1,0,0.2,0,0.3
					c0,0,0,0.1,0,0.2c0,0.1,0,0.3,0.1,0.4c0.1,0.2,0.3,0.4,0.4,0.5c0.2,0.1,0.4,0.6,0.6,0.6c0.2,0,0.4-0.1,0.5-0.1
					c0.2,0,0.4,0,0.6-0.1c0.2-0.1,0.1-0.3,0.3-0.5c0.1-0.1,0.3,0,0.4-0.1c0.2-0.1,0.3-0.3,0.4-0.5c0-0.1,0-0.1,0-0.2
					c0-0.1,0.1-0.2,0.1-0.3c0-0.1-0.1-0.1-0.1-0.2c0-0.1,0-0.2,0-0.3c0-0.2,0-0.4-0.1-0.5c-0.4-0.7-1.2-0.9-2-0.8
					c-0.2,0-0.3,0.1-0.4,0.2c-0.2,0.1-0.1,0.2-0.3,0.2c-0.1,0-0.2,0.1-0.2,0.2C31.1-48.7,31.1-48.8,31.1-48.7
					C31.1-48.7,31.1-48.7,31.1-48.7"/>
				<path fill="#FFFFFF" d="M23.5-48.7c0,0.1,0,0.1,0,0.2c-0.1,0.1-0.1,0.1-0.2,0.1c-0.1,0.1-0.1,0.3-0.1,0.4c-0.2,0.1,0,0.2,0,0.3
					c0,0,0,0.1,0,0.2c0,0.1,0,0.3,0.1,0.4c0.1,0.2,0.3,0.4,0.4,0.5c0.2,0.1,0.4,0.6,0.6,0.6c0.2,0,0.4-0.1,0.5-0.1
					c0.2,0,0.4,0,0.6-0.1c0.2-0.1,0.1-0.3,0.3-0.5c0.1-0.1,0.3,0,0.4-0.1c0.2-0.1,0.3-0.3,0.4-0.5c0-0.1,0-0.1,0-0.2
					c0-0.1,0.1-0.2,0.1-0.3c0-0.1-0.1-0.1-0.1-0.2c0-0.1,0-0.2,0-0.3c0-0.2,0-0.4-0.1-0.5c-0.4-0.7-1.2-0.9-2-0.8
					c-0.2,0-0.3,0.1-0.4,0.2c-0.2,0.1-0.1,0.2-0.3,0.2c-0.1,0-0.2,0.1-0.2,0.2C23.5-48.7,23.5-48.8,23.5-48.7
					C23.5-48.7,23.5-48.7,23.5-48.7"/>
				<path fill="#FFFFFF" d="M15.8-48.7c0,0.1,0,0.1,0,0.2c-0.1,0.1-0.1,0.1-0.2,0.1c-0.1,0.1-0.1,0.3-0.1,0.4c-0.2,0.1,0,0.2,0,0.3
					c0,0,0,0.1,0,0.2c0,0.1,0,0.3,0.1,0.4c0.1,0.2,0.3,0.4,0.4,0.5c0.2,0.1,0.4,0.6,0.6,0.6c0.2,0,0.4-0.1,0.5-0.1
					c0.2,0,0.4,0,0.6-0.1c0.2-0.1,0.1-0.3,0.3-0.5c0.1-0.1,0.3,0,0.4-0.1c0.2-0.1,0.3-0.3,0.4-0.5c0-0.1,0-0.1,0-0.2
					c0-0.1,0.1-0.2,0.1-0.3c0-0.1-0.1-0.1-0.1-0.2c0-0.1,0-0.2,0-0.3c0-0.2,0-0.4-0.1-0.5c-0.4-0.7-1.2-0.9-2-0.8
					c-0.2,0-0.3,0.1-0.4,0.2c-0.2,0.1-0.1,0.2-0.3,0.2c-0.1,0-0.2,0.1-0.2,0.2C15.8-48.7,15.8-48.8,15.8-48.7
					C15.8-48.7,15.8-48.7,15.8-48.7"/>
				<path fill="#FFFFFF" d="M8.2-48.7c0,0.1,0,0.1,0,0.2C8.1-48.4,8-48.4,8-48.4c-0.1,0.1-0.1,0.3-0.1,0.4c-0.2,0.1,0,0.2,0,0.3
					c0,0,0,0.1,0,0.2c0,0.1,0,0.3,0.1,0.4c0.1,0.2,0.3,0.4,0.4,0.5C8.5-46.4,8.7-46,8.9-46c0.2,0,0.4-0.1,0.5-0.1
					c0.2,0,0.4,0,0.6-0.1c0.2-0.1,0.1-0.3,0.3-0.5c0.1-0.1,0.3,0,0.4-0.1c0.2-0.1,0.3-0.3,0.4-0.5c0-0.1,0-0.1,0-0.2
					c0-0.1,0.1-0.2,0.1-0.3c0-0.1-0.1-0.1-0.1-0.2c0-0.1,0-0.2,0-0.3c0-0.2,0-0.4-0.1-0.5c-0.4-0.7-1.2-0.9-2-0.8
					c-0.2,0-0.3,0.1-0.4,0.2c-0.2,0.1-0.1,0.2-0.3,0.2c-0.1,0-0.2,0.1-0.2,0.2C8.2-48.7,8.2-48.8,8.2-48.7
					C8.1-48.7,8.1-48.7,8.2-48.7"/>
				<path fill="#FFFFFF" d="M0.5-48.7c0,0.1,0,0.1,0,0.2c-0.1,0.1-0.1,0.1-0.2,0.1c-0.1,0.1-0.1,0.3-0.1,0.4c-0.2,0.1,0,0.2,0,0.3
					c0,0,0,0.1,0,0.2c0,0.1,0,0.3,0.1,0.4c0.1,0.2,0.3,0.4,0.4,0.5C0.9-46.4,1-46,1.3-46c0.2,0,0.4-0.1,0.5-0.1c0.2,0,0.4,0,0.6-0.1
					c0.2-0.1,0.1-0.3,0.3-0.5c0.1-0.1,0.3,0,0.4-0.1c0.2-0.1,0.3-0.3,0.4-0.5c0-0.1,0-0.1,0-0.2c0-0.1,0.1-0.2,0.1-0.3
					c0-0.1-0.1-0.1-0.1-0.2c0-0.1,0-0.2,0-0.3c0-0.2,0-0.4-0.1-0.5c-0.4-0.7-1.2-0.9-2-0.8c-0.2,0-0.3,0.1-0.4,0.2
					c-0.2,0.1-0.1,0.2-0.3,0.2c-0.1,0-0.2,0.1-0.2,0.2C0.5-48.7,0.5-48.8,0.5-48.7C0.5-48.7,0.5-48.7,0.5-48.7"/>
			</g>
			<g>
				<path fill="#FFFFFF" d="M69.4-41c0,0.1,0,0.1,0,0.2c-0.1,0.1-0.1,0.1-0.2,0.1c-0.1,0.1-0.1,0.3-0.1,0.4c-0.2,0.1,0,0.2,0,0.3
					c0,0,0,0.1,0,0.2c0,0.1,0,0.3,0.1,0.4c0.1,0.2,0.3,0.4,0.4,0.5c0.2,0.1,0.4,0.6,0.6,0.6c0.2,0,0.4-0.1,0.5-0.1
					c0.2,0,0.4,0,0.6-0.1c0.2-0.1,0.1-0.3,0.3-0.5c0.1-0.1,0.3,0,0.4-0.1c0.2-0.1,0.3-0.3,0.4-0.5c0-0.1,0-0.1,0-0.2
					c0-0.1,0.1-0.2,0.1-0.3c0-0.1-0.1-0.1-0.1-0.2c0-0.1,0-0.2,0-0.3c0-0.2,0-0.4-0.1-0.5c-0.4-0.7-1.2-0.9-2-0.8
					c-0.2,0-0.3,0.1-0.4,0.2c-0.2,0.1-0.1,0.2-0.3,0.2c-0.1,0-0.2,0.1-0.2,0.2C69.4-41.1,69.4-41.1,69.4-41C69.4-41,69.4-41,69.4-41
					"/>
				<path fill="#FFFFFF" d="M61.8-41c0,0.1,0,0.1,0,0.2c-0.1,0.1-0.1,0.1-0.2,0.1c-0.1,0.1-0.1,0.3-0.1,0.4c-0.2,0.1,0,0.2,0,0.3
					c0,0,0,0.1,0,0.2c0,0.1,0,0.3,0.1,0.4c0.1,0.2,0.3,0.4,0.4,0.5c0.2,0.1,0.4,0.6,0.6,0.6c0.2,0,0.4-0.1,0.5-0.1
					c0.2,0,0.4,0,0.6-0.1c0.2-0.1,0.1-0.3,0.3-0.5c0.1-0.1,0.3,0,0.4-0.1c0.2-0.1,0.3-0.3,0.4-0.5c0-0.1,0-0.1,0-0.2
					c0-0.1,0.1-0.2,0.1-0.3c0-0.1-0.1-0.1-0.1-0.2c0-0.1,0-0.2,0-0.3c0-0.2,0-0.4-0.1-0.5c-0.4-0.7-1.2-0.9-2-0.8
					c-0.2,0-0.3,0.1-0.4,0.2c-0.2,0.1-0.1,0.2-0.3,0.2c-0.1,0-0.2,0.1-0.2,0.2C61.8-41.1,61.8-41.1,61.8-41C61.8-41,61.8-41,61.8-41
					"/>
				<path fill="#FFFFFF" d="M54.1-41c0,0.1,0,0.1,0,0.2c-0.1,0.1-0.1,0.1-0.2,0.1c-0.1,0.1-0.1,0.3-0.1,0.4c-0.2,0.1,0,0.2,0,0.3
					c0,0,0,0.1,0,0.2c0,0.1,0,0.3,0.1,0.4c0.1,0.2,0.3,0.4,0.4,0.5c0.2,0.1,0.4,0.6,0.6,0.6c0.2,0,0.4-0.1,0.5-0.1
					c0.2,0,0.4,0,0.6-0.1c0.2-0.1,0.1-0.3,0.3-0.5c0.1-0.1,0.3,0,0.4-0.1c0.2-0.1,0.3-0.3,0.4-0.5c0-0.1,0-0.1,0-0.2
					c0-0.1,0.1-0.2,0.1-0.3c0-0.1-0.1-0.1-0.1-0.2c0-0.1,0-0.2,0-0.3c0-0.2,0-0.4-0.1-0.5c-0.4-0.7-1.2-0.9-2-0.8
					c-0.2,0-0.3,0.1-0.4,0.2c-0.2,0.1-0.1,0.2-0.3,0.2c-0.1,0-0.2,0.1-0.2,0.2C54.1-41.1,54.1-41.1,54.1-41C54.1-41,54.1-41,54.1-41
					"/>
				<path fill="#FFFFFF" d="M46.5-41c0,0.1,0,0.1,0,0.2c-0.1,0.1-0.1,0.1-0.2,0.1c-0.1,0.1-0.1,0.3-0.1,0.4c-0.2,0.1,0,0.2,0,0.3
					c0,0,0,0.1,0,0.2c0,0.1,0,0.3,0.1,0.4c0.1,0.2,0.3,0.4,0.4,0.5c0.2,0.1,0.4,0.6,0.6,0.6c0.2,0,0.4-0.1,0.5-0.1
					c0.2,0,0.4,0,0.6-0.1c0.2-0.1,0.1-0.3,0.3-0.5c0.1-0.1,0.3,0,0.4-0.1c0.2-0.1,0.3-0.3,0.4-0.5c0-0.1,0-0.1,0-0.2
					c0-0.1,0.1-0.2,0.1-0.3c0-0.1-0.1-0.1-0.1-0.2c0-0.1,0-0.2,0-0.3c0-0.2,0-0.4-0.1-0.5c-0.4-0.7-1.2-0.9-2-0.8
					c-0.2,0-0.3,0.1-0.4,0.2c-0.2,0.1-0.1,0.2-0.3,0.2c-0.1,0-0.2,0.1-0.2,0.2C46.5-41.1,46.5-41.1,46.5-41C46.5-41,46.5-41,46.5-41
					"/>
				<path fill="#FFFFFF" d="M38.8-41c0,0.1,0,0.1,0,0.2c-0.1,0.1-0.1,0.1-0.2,0.1c-0.1,0.1-0.1,0.3-0.1,0.4c-0.2,0.1,0,0.2,0,0.3
					c0,0,0,0.1,0,0.2c0,0.1,0,0.3,0.1,0.4c0.1,0.2,0.3,0.4,0.4,0.5c0.2,0.1,0.4,0.6,0.6,0.6c0.2,0,0.4-0.1,0.5-0.1
					c0.2,0,0.4,0,0.6-0.1c0.2-0.1,0.1-0.3,0.3-0.5c0.1-0.1,0.3,0,0.4-0.1c0.2-0.1,0.3-0.3,0.4-0.5c0-0.1,0-0.1,0-0.2
					c0-0.1,0.1-0.2,0.1-0.3c0-0.1-0.1-0.1-0.1-0.2c0-0.1,0-0.2,0-0.3c0-0.2,0-0.4-0.1-0.5c-0.4-0.7-1.2-0.9-2-0.8
					c-0.2,0-0.3,0.1-0.4,0.2c-0.2,0.1-0.1,0.2-0.3,0.2c-0.1,0-0.2,0.1-0.2,0.2C38.8-41.1,38.8-41.1,38.8-41C38.8-41,38.8-41,38.8-41
					"/>
				<path fill="#FFFFFF" d="M31.1-41c0,0.1,0,0.1,0,0.2c-0.1,0.1-0.1,0.1-0.2,0.1c-0.1,0.1-0.1,0.3-0.1,0.4c-0.2,0.1,0,0.2,0,0.3
					c0,0,0,0.1,0,0.2c0,0.1,0,0.3,0.1,0.4c0.1,0.2,0.3,0.4,0.4,0.5c0.2,0.1,0.4,0.6,0.6,0.6c0.2,0,0.4-0.1,0.5-0.1
					c0.2,0,0.4,0,0.6-0.1c0.2-0.1,0.1-0.3,0.3-0.5c0.1-0.1,0.3,0,0.4-0.1c0.2-0.1,0.3-0.3,0.4-0.5c0-0.1,0-0.1,0-0.2
					c0-0.1,0.1-0.2,0.1-0.3c0-0.1-0.1-0.1-0.1-0.2c0-0.1,0-0.2,0-0.3c0-0.2,0-0.4-0.1-0.5c-0.4-0.7-1.2-0.9-2-0.8
					c-0.2,0-0.3,0.1-0.4,0.2c-0.2,0.1-0.1,0.2-0.3,0.2c-0.1,0-0.2,0.1-0.2,0.2C31.1-41.1,31.1-41.1,31.1-41C31.1-41,31.1-41,31.1-41
					"/>
				<path fill="#FFFFFF" d="M23.5-41c0,0.1,0,0.1,0,0.2c-0.1,0.1-0.1,0.1-0.2,0.1c-0.1,0.1-0.1,0.3-0.1,0.4c-0.2,0.1,0,0.2,0,0.3
					c0,0,0,0.1,0,0.2c0,0.1,0,0.3,0.1,0.4c0.1,0.2,0.3,0.4,0.4,0.5c0.2,0.1,0.4,0.6,0.6,0.6c0.2,0,0.4-0.1,0.5-0.1
					c0.2,0,0.4,0,0.6-0.1c0.2-0.1,0.1-0.3,0.3-0.5c0.1-0.1,0.3,0,0.4-0.1c0.2-0.1,0.3-0.3,0.4-0.5c0-0.1,0-0.1,0-0.2
					c0-0.1,0.1-0.2,0.1-0.3c0-0.1-0.1-0.1-0.1-0.2c0-0.1,0-0.2,0-0.3c0-0.2,0-0.4-0.1-0.5c-0.4-0.7-1.2-0.9-2-0.8
					c-0.2,0-0.3,0.1-0.4,0.2c-0.2,0.1-0.1,0.2-0.3,0.2c-0.1,0-0.2,0.1-0.2,0.2C23.5-41.1,23.5-41.1,23.5-41C23.5-41,23.5-41,23.5-41
					"/>
				<path fill="#FFFFFF" d="M15.8-41c0,0.1,0,0.1,0,0.2c-0.1,0.1-0.1,0.1-0.2,0.1c-0.1,0.1-0.1,0.3-0.1,0.4c-0.2,0.1,0,0.2,0,0.3
					c0,0,0,0.1,0,0.2c0,0.1,0,0.3,0.1,0.4c0.1,0.2,0.3,0.4,0.4,0.5c0.2,0.1,0.4,0.6,0.6,0.6c0.2,0,0.4-0.1,0.5-0.1
					c0.2,0,0.4,0,0.6-0.1c0.2-0.1,0.1-0.3,0.3-0.5c0.1-0.1,0.3,0,0.4-0.1c0.2-0.1,0.3-0.3,0.4-0.5c0-0.1,0-0.1,0-0.2
					c0-0.1,0.1-0.2,0.1-0.3c0-0.1-0.1-0.1-0.1-0.2c0-0.1,0-0.2,0-0.3c0-0.2,0-0.4-0.1-0.5c-0.4-0.7-1.2-0.9-2-0.8
					c-0.2,0-0.3,0.1-0.4,0.2c-0.2,0.1-0.1,0.2-0.3,0.2c-0.1,0-0.2,0.1-0.2,0.2C15.8-41.1,15.8-41.1,15.8-41C15.8-41,15.8-41,15.8-41
					"/>
				<path fill="#FFFFFF" d="M8.2-41c0,0.1,0,0.1,0,0.2C8.1-40.8,8-40.8,8-40.7c-0.1,0.1-0.1,0.3-0.1,0.4c-0.2,0.1,0,0.2,0,0.3
					c0,0,0,0.1,0,0.2c0,0.1,0,0.3,0.1,0.4c0.1,0.2,0.3,0.4,0.4,0.5c0.2,0.1,0.4,0.6,0.6,0.6c0.2,0,0.4-0.1,0.5-0.1
					c0.2,0,0.4,0,0.6-0.1c0.2-0.1,0.1-0.3,0.3-0.5c0.1-0.1,0.3,0,0.4-0.1c0.2-0.1,0.3-0.3,0.4-0.5c0-0.1,0-0.1,0-0.2
					c0-0.1,0.1-0.2,0.1-0.3c0-0.1-0.1-0.1-0.1-0.2c0-0.1,0-0.2,0-0.3c0-0.2,0-0.4-0.1-0.5c-0.4-0.7-1.2-0.9-2-0.8
					c-0.2,0-0.3,0.1-0.4,0.2c-0.2,0.1-0.1,0.2-0.3,0.2c-0.1,0-0.2,0.1-0.2,0.2C8.2-41.1,8.2-41.1,8.2-41C8.1-41,8.1-41,8.2-41"/>
				<path fill="#FFFFFF" d="M0.5-41c0,0.1,0,0.1,0,0.2c-0.1,0.1-0.1,0.1-0.2,0.1c-0.1,0.1-0.1,0.3-0.1,0.4c-0.2,0.1,0,0.2,0,0.3
					c0,0,0,0.1,0,0.2c0,0.1,0,0.3,0.1,0.4c0.1,0.2,0.3,0.4,0.4,0.5c0.2,0.1,0.4,0.6,0.6,0.6c0.2,0,0.4-0.1,0.5-0.1
					c0.2,0,0.4,0,0.6-0.1c0.2-0.1,0.1-0.3,0.3-0.5C2.8-39,3-39,3.1-39c0.2-0.1,0.3-0.3,0.4-0.5c0-0.1,0-0.1,0-0.2
					c0-0.1,0.1-0.2,0.1-0.3c0-0.1-0.1-0.1-0.1-0.2c0-0.1,0-0.2,0-0.3c0-0.2,0-0.4-0.1-0.5c-0.4-0.7-1.2-0.9-2-0.8
					c-0.2,0-0.3,0.1-0.4,0.2c-0.2,0.1-0.1,0.2-0.3,0.2c-0.1,0-0.2,0.1-0.2,0.2C0.5-41.1,0.5-41.1,0.5-41C0.5-41,0.5-41,0.5-41"/>
			</g>
			<g>
				<path fill="#FFFFFF" d="M69.4-33.4c0,0.1,0,0.1,0,0.2c-0.1,0.1-0.1,0.1-0.2,0.1c-0.1,0.1-0.1,0.3-0.1,0.4c-0.2,0.1,0,0.2,0,0.3
					c0,0,0,0.1,0,0.2c0,0.1,0,0.3,0.1,0.4c0.1,0.2,0.3,0.4,0.4,0.5c0.2,0.1,0.4,0.6,0.6,0.6c0.2,0,0.4-0.1,0.5-0.1
					c0.2,0,0.4,0,0.6-0.1c0.2-0.1,0.1-0.3,0.3-0.5c0.1-0.1,0.3,0,0.4-0.1c0.2-0.1,0.3-0.3,0.4-0.5c0-0.1,0-0.1,0-0.2
					c0-0.1,0.1-0.2,0.1-0.3c0-0.1-0.1-0.1-0.1-0.2c0-0.1,0-0.2,0-0.3c0-0.2,0-0.4-0.1-0.5c-0.4-0.7-1.2-0.9-2-0.8
					c-0.2,0-0.3,0.1-0.4,0.2c-0.2,0.1-0.1,0.2-0.3,0.2c-0.1,0-0.2,0.1-0.2,0.2C69.4-33.4,69.4-33.5,69.4-33.4
					C69.4-33.4,69.4-33.4,69.4-33.4"/>
				<path fill="#FFFFFF" d="M61.8-33.4c0,0.1,0,0.1,0,0.2c-0.1,0.1-0.1,0.1-0.2,0.1c-0.1,0.1-0.1,0.3-0.1,0.4c-0.2,0.1,0,0.2,0,0.3
					c0,0,0,0.1,0,0.2c0,0.1,0,0.3,0.1,0.4c0.1,0.2,0.3,0.4,0.4,0.5c0.2,0.1,0.4,0.6,0.6,0.6c0.2,0,0.4-0.1,0.5-0.1
					c0.2,0,0.4,0,0.6-0.1c0.2-0.1,0.1-0.3,0.3-0.5c0.1-0.1,0.3,0,0.4-0.1c0.2-0.1,0.3-0.3,0.4-0.5c0-0.1,0-0.1,0-0.2
					c0-0.1,0.1-0.2,0.1-0.3c0-0.1-0.1-0.1-0.1-0.2c0-0.1,0-0.2,0-0.3c0-0.2,0-0.4-0.1-0.5c-0.4-0.7-1.2-0.9-2-0.8
					c-0.2,0-0.3,0.1-0.4,0.2c-0.2,0.1-0.1,0.2-0.3,0.2c-0.1,0-0.2,0.1-0.2,0.2C61.8-33.4,61.8-33.5,61.8-33.4
					C61.8-33.4,61.8-33.4,61.8-33.4"/>
				<path fill="#FFFFFF" d="M54.1-33.4c0,0.1,0,0.1,0,0.2c-0.1,0.1-0.1,0.1-0.2,0.1c-0.1,0.1-0.1,0.3-0.1,0.4c-0.2,0.1,0,0.2,0,0.3
					c0,0,0,0.1,0,0.2c0,0.1,0,0.3,0.1,0.4c0.1,0.2,0.3,0.4,0.4,0.5c0.2,0.1,0.4,0.6,0.6,0.6c0.2,0,0.4-0.1,0.5-0.1
					c0.2,0,0.4,0,0.6-0.1c0.2-0.1,0.1-0.3,0.3-0.5c0.1-0.1,0.3,0,0.4-0.1c0.2-0.1,0.3-0.3,0.4-0.5c0-0.1,0-0.1,0-0.2
					c0-0.1,0.1-0.2,0.1-0.3c0-0.1-0.1-0.1-0.1-0.2c0-0.1,0-0.2,0-0.3c0-0.2,0-0.4-0.1-0.5c-0.4-0.7-1.2-0.9-2-0.8
					c-0.2,0-0.3,0.1-0.4,0.2c-0.2,0.1-0.1,0.2-0.3,0.2c-0.1,0-0.2,0.1-0.2,0.2C54.1-33.4,54.1-33.5,54.1-33.4
					C54.1-33.4,54.1-33.4,54.1-33.4"/>
				<path fill="#FFFFFF" d="M46.5-33.4c0,0.1,0,0.1,0,0.2c-0.1,0.1-0.1,0.1-0.2,0.1c-0.1,0.1-0.1,0.3-0.1,0.4c-0.2,0.1,0,0.2,0,0.3
					c0,0,0,0.1,0,0.2c0,0.1,0,0.3,0.1,0.4c0.1,0.2,0.3,0.4,0.4,0.5c0.2,0.1,0.4,0.6,0.6,0.6c0.2,0,0.4-0.1,0.5-0.1
					c0.2,0,0.4,0,0.6-0.1c0.2-0.1,0.1-0.3,0.3-0.5c0.1-0.1,0.3,0,0.4-0.1c0.2-0.1,0.3-0.3,0.4-0.5c0-0.1,0-0.1,0-0.2
					c0-0.1,0.1-0.2,0.1-0.3c0-0.1-0.1-0.1-0.1-0.2c0-0.1,0-0.2,0-0.3c0-0.2,0-0.4-0.1-0.5c-0.4-0.7-1.2-0.9-2-0.8
					c-0.2,0-0.3,0.1-0.4,0.2c-0.2,0.1-0.1,0.2-0.3,0.2c-0.1,0-0.2,0.1-0.2,0.2C46.5-33.4,46.5-33.5,46.5-33.4
					C46.5-33.4,46.5-33.4,46.5-33.4"/>
				<path fill="#FFFFFF" d="M38.8-33.4c0,0.1,0,0.1,0,0.2c-0.1,0.1-0.1,0.1-0.2,0.1c-0.1,0.1-0.1,0.3-0.1,0.4c-0.2,0.1,0,0.2,0,0.3
					c0,0,0,0.1,0,0.2c0,0.1,0,0.3,0.1,0.4c0.1,0.2,0.3,0.4,0.4,0.5c0.2,0.1,0.4,0.6,0.6,0.6c0.2,0,0.4-0.1,0.5-0.1
					c0.2,0,0.4,0,0.6-0.1c0.2-0.1,0.1-0.3,0.3-0.5c0.1-0.1,0.3,0,0.4-0.1c0.2-0.1,0.3-0.3,0.4-0.5c0-0.1,0-0.1,0-0.2
					c0-0.1,0.1-0.2,0.1-0.3c0-0.1-0.1-0.1-0.1-0.2c0-0.1,0-0.2,0-0.3c0-0.2,0-0.4-0.1-0.5c-0.4-0.7-1.2-0.9-2-0.8
					c-0.2,0-0.3,0.1-0.4,0.2c-0.2,0.1-0.1,0.2-0.3,0.2c-0.1,0-0.2,0.1-0.2,0.2C38.8-33.4,38.8-33.5,38.8-33.4
					C38.8-33.4,38.8-33.4,38.8-33.4"/>
				<path fill="#FFFFFF" d="M31.1-33.4c0,0.1,0,0.1,0,0.2c-0.1,0.1-0.1,0.1-0.2,0.1c-0.1,0.1-0.1,0.3-0.1,0.4c-0.2,0.1,0,0.2,0,0.3
					c0,0,0,0.1,0,0.2c0,0.1,0,0.3,0.1,0.4c0.1,0.2,0.3,0.4,0.4,0.5c0.2,0.1,0.4,0.6,0.6,0.6c0.2,0,0.4-0.1,0.5-0.1
					c0.2,0,0.4,0,0.6-0.1c0.2-0.1,0.1-0.3,0.3-0.5c0.1-0.1,0.3,0,0.4-0.1c0.2-0.1,0.3-0.3,0.4-0.5c0-0.1,0-0.1,0-0.2
					c0-0.1,0.1-0.2,0.1-0.3c0-0.1-0.1-0.1-0.1-0.2c0-0.1,0-0.2,0-0.3c0-0.2,0-0.4-0.1-0.5c-0.4-0.7-1.2-0.9-2-0.8
					c-0.2,0-0.3,0.1-0.4,0.2c-0.2,0.1-0.1,0.2-0.3,0.2c-0.1,0-0.2,0.1-0.2,0.2C31.1-33.4,31.1-33.5,31.1-33.4
					C31.1-33.4,31.1-33.4,31.1-33.4"/>
				<path fill="#FFFFFF" d="M23.5-33.4c0,0.1,0,0.1,0,0.2c-0.1,0.1-0.1,0.1-0.2,0.1c-0.1,0.1-0.1,0.3-0.1,0.4c-0.2,0.1,0,0.2,0,0.3
					c0,0,0,0.1,0,0.2c0,0.1,0,0.3,0.1,0.4c0.1,0.2,0.3,0.4,0.4,0.5c0.2,0.1,0.4,0.6,0.6,0.6c0.2,0,0.4-0.1,0.5-0.1
					c0.2,0,0.4,0,0.6-0.1c0.2-0.1,0.1-0.3,0.3-0.5c0.1-0.1,0.3,0,0.4-0.1c0.2-0.1,0.3-0.3,0.4-0.5c0-0.1,0-0.1,0-0.2
					c0-0.1,0.1-0.2,0.1-0.3c0-0.1-0.1-0.1-0.1-0.2c0-0.1,0-0.2,0-0.3c0-0.2,0-0.4-0.1-0.5c-0.4-0.7-1.2-0.9-2-0.8
					c-0.2,0-0.3,0.1-0.4,0.2c-0.2,0.1-0.1,0.2-0.3,0.2c-0.1,0-0.2,0.1-0.2,0.2C23.5-33.4,23.5-33.5,23.5-33.4
					C23.5-33.4,23.5-33.4,23.5-33.4"/>
				<path fill="#FFFFFF" d="M15.8-33.4c0,0.1,0,0.1,0,0.2c-0.1,0.1-0.1,0.1-0.2,0.1c-0.1,0.1-0.1,0.3-0.1,0.4c-0.2,0.1,0,0.2,0,0.3
					c0,0,0,0.1,0,0.2c0,0.1,0,0.3,0.1,0.4c0.1,0.2,0.3,0.4,0.4,0.5c0.2,0.1,0.4,0.6,0.6,0.6c0.2,0,0.4-0.1,0.5-0.1
					c0.2,0,0.4,0,0.6-0.1c0.2-0.1,0.1-0.3,0.3-0.5c0.1-0.1,0.3,0,0.4-0.1c0.2-0.1,0.3-0.3,0.4-0.5c0-0.1,0-0.1,0-0.2
					c0-0.1,0.1-0.2,0.1-0.3c0-0.1-0.1-0.1-0.1-0.2c0-0.1,0-0.2,0-0.3c0-0.2,0-0.4-0.1-0.5c-0.4-0.7-1.2-0.9-2-0.8
					c-0.2,0-0.3,0.1-0.4,0.2c-0.2,0.1-0.1,0.2-0.3,0.2c-0.1,0-0.2,0.1-0.2,0.2C15.8-33.4,15.8-33.5,15.8-33.4
					C15.8-33.4,15.8-33.4,15.8-33.4"/>
				<path fill="#FFFFFF" d="M8.2-33.4c0,0.1,0,0.1,0,0.2C8.1-33.1,8-33.1,8-33.1c-0.1,0.1-0.1,0.3-0.1,0.4c-0.2,0.1,0,0.2,0,0.3
					c0,0,0,0.1,0,0.2c0,0.1,0,0.3,0.1,0.4c0.1,0.2,0.3,0.4,0.4,0.5c0.2,0.1,0.4,0.6,0.6,0.6c0.2,0,0.4-0.1,0.5-0.1
					c0.2,0,0.4,0,0.6-0.1c0.2-0.1,0.1-0.3,0.3-0.5c0.1-0.1,0.3,0,0.4-0.1c0.2-0.1,0.3-0.3,0.4-0.5c0-0.1,0-0.1,0-0.2
					c0-0.1,0.1-0.2,0.1-0.3c0-0.1-0.1-0.1-0.1-0.2c0-0.1,0-0.2,0-0.3c0-0.2,0-0.4-0.1-0.5c-0.4-0.7-1.2-0.9-2-0.8
					c-0.2,0-0.3,0.1-0.4,0.2c-0.2,0.1-0.1,0.2-0.3,0.2c-0.1,0-0.2,0.1-0.2,0.2C8.2-33.4,8.2-33.5,8.2-33.4
					C8.1-33.4,8.1-33.4,8.2-33.4"/>
				<path fill="#FFFFFF" d="M0.5-33.4c0,0.1,0,0.1,0,0.2c-0.1,0.1-0.1,0.1-0.2,0.1c-0.1,0.1-0.1,0.3-0.1,0.4c-0.2,0.1,0,0.2,0,0.3
					c0,0,0,0.1,0,0.2c0,0.1,0,0.3,0.1,0.4c0.1,0.2,0.3,0.4,0.4,0.5c0.2,0.1,0.4,0.6,0.6,0.6c0.2,0,0.4-0.1,0.5-0.1
					c0.2,0,0.4,0,0.6-0.1c0.2-0.1,0.1-0.3,0.3-0.5c0.1-0.1,0.3,0,0.4-0.1c0.2-0.1,0.3-0.3,0.4-0.5c0-0.1,0-0.1,0-0.2
					c0-0.1,0.1-0.2,0.1-0.3c0-0.1-0.1-0.1-0.1-0.2c0-0.1,0-0.2,0-0.3c0-0.2,0-0.4-0.1-0.5c-0.4-0.7-1.2-0.9-2-0.8
					c-0.2,0-0.3,0.1-0.4,0.2c-0.2,0.1-0.1,0.2-0.3,0.2c-0.1,0-0.2,0.1-0.2,0.2C0.5-33.4,0.5-33.5,0.5-33.4
					C0.5-33.4,0.5-33.4,0.5-33.4"/>
			</g>
			<g>
				<path fill="#FFFFFF" d="M69.4-25.7c0,0.1,0,0.1,0,0.2c-0.1,0.1-0.1,0.1-0.2,0.1c-0.1,0.1-0.1,0.3-0.1,0.4c-0.2,0.1,0,0.2,0,0.3
					c0,0,0,0.1,0,0.2c0,0.1,0,0.3,0.1,0.4c0.1,0.2,0.3,0.4,0.4,0.5c0.2,0.1,0.4,0.6,0.6,0.6c0.2,0,0.4-0.1,0.5-0.1
					c0.2,0,0.4,0,0.6-0.1c0.2-0.1,0.1-0.3,0.3-0.5c0.1-0.1,0.3,0,0.4-0.1c0.2-0.1,0.3-0.3,0.4-0.5c0-0.1,0-0.1,0-0.2
					c0-0.1,0.1-0.2,0.1-0.3c0-0.1-0.1-0.1-0.1-0.2c0-0.1,0-0.2,0-0.3c0-0.2,0-0.4-0.1-0.5c-0.4-0.7-1.2-0.9-2-0.8
					c-0.2,0-0.3,0.1-0.4,0.2c-0.2,0.1-0.1,0.2-0.3,0.2c-0.1,0-0.2,0.1-0.2,0.2C69.4-25.8,69.4-25.8,69.4-25.7
					C69.4-25.7,69.4-25.7,69.4-25.7"/>
				<path fill="#FFFFFF" d="M61.8-25.7c0,0.1,0,0.1,0,0.2c-0.1,0.1-0.1,0.1-0.2,0.1c-0.1,0.1-0.1,0.3-0.1,0.4c-0.2,0.1,0,0.2,0,0.3
					c0,0,0,0.1,0,0.2c0,0.1,0,0.3,0.1,0.4c0.1,0.2,0.3,0.4,0.4,0.5c0.2,0.1,0.4,0.6,0.6,0.6c0.2,0,0.4-0.1,0.5-0.1
					c0.2,0,0.4,0,0.6-0.1c0.2-0.1,0.1-0.3,0.3-0.5c0.1-0.1,0.3,0,0.4-0.1c0.2-0.1,0.3-0.3,0.4-0.5c0-0.1,0-0.1,0-0.2
					c0-0.1,0.1-0.2,0.1-0.3c0-0.1-0.1-0.1-0.1-0.2c0-0.1,0-0.2,0-0.3c0-0.2,0-0.4-0.1-0.5c-0.4-0.7-1.2-0.9-2-0.8
					c-0.2,0-0.3,0.1-0.4,0.2c-0.2,0.1-0.1,0.2-0.3,0.2c-0.1,0-0.2,0.1-0.2,0.2C61.8-25.8,61.8-25.8,61.8-25.7
					C61.8-25.7,61.8-25.7,61.8-25.7"/>
				<path fill="#FFFFFF" d="M54.1-25.7c0,0.1,0,0.1,0,0.2c-0.1,0.1-0.1,0.1-0.2,0.1c-0.1,0.1-0.1,0.3-0.1,0.4c-0.2,0.1,0,0.2,0,0.3
					c0,0,0,0.1,0,0.2c0,0.1,0,0.3,0.1,0.4c0.1,0.2,0.3,0.4,0.4,0.5c0.2,0.1,0.4,0.6,0.6,0.6c0.2,0,0.4-0.1,0.5-0.1
					c0.2,0,0.4,0,0.6-0.1c0.2-0.1,0.1-0.3,0.3-0.5c0.1-0.1,0.3,0,0.4-0.1c0.2-0.1,0.3-0.3,0.4-0.5c0-0.1,0-0.1,0-0.2
					c0-0.1,0.1-0.2,0.1-0.3c0-0.1-0.1-0.1-0.1-0.2c0-0.1,0-0.2,0-0.3c0-0.2,0-0.4-0.1-0.5c-0.4-0.7-1.2-0.9-2-0.8
					c-0.2,0-0.3,0.1-0.4,0.2c-0.2,0.1-0.1,0.2-0.3,0.2c-0.1,0-0.2,0.1-0.2,0.2C54.1-25.8,54.1-25.8,54.1-25.7
					C54.1-25.7,54.1-25.7,54.1-25.7"/>
				<path fill="#FFFFFF" d="M46.5-25.7c0,0.1,0,0.1,0,0.2c-0.1,0.1-0.1,0.1-0.2,0.1c-0.1,0.1-0.1,0.3-0.1,0.4c-0.2,0.1,0,0.2,0,0.3
					c0,0,0,0.1,0,0.2c0,0.1,0,0.3,0.1,0.4c0.1,0.2,0.3,0.4,0.4,0.5c0.2,0.1,0.4,0.6,0.6,0.6c0.2,0,0.4-0.1,0.5-0.1
					c0.2,0,0.4,0,0.6-0.1c0.2-0.1,0.1-0.3,0.3-0.5c0.1-0.1,0.3,0,0.4-0.1c0.2-0.1,0.3-0.3,0.4-0.5c0-0.1,0-0.1,0-0.2
					c0-0.1,0.1-0.2,0.1-0.3c0-0.1-0.1-0.1-0.1-0.2c0-0.1,0-0.2,0-0.3c0-0.2,0-0.4-0.1-0.5c-0.4-0.7-1.2-0.9-2-0.8
					c-0.2,0-0.3,0.1-0.4,0.2c-0.2,0.1-0.1,0.2-0.3,0.2c-0.1,0-0.2,0.1-0.2,0.2C46.5-25.8,46.5-25.8,46.5-25.7
					C46.5-25.7,46.5-25.7,46.5-25.7"/>
				<path fill="#FFFFFF" d="M38.8-25.7c0,0.1,0,0.1,0,0.2c-0.1,0.1-0.1,0.1-0.2,0.1c-0.1,0.1-0.1,0.3-0.1,0.4c-0.2,0.1,0,0.2,0,0.3
					c0,0,0,0.1,0,0.2c0,0.1,0,0.3,0.1,0.4c0.1,0.2,0.3,0.4,0.4,0.5c0.2,0.1,0.4,0.6,0.6,0.6c0.2,0,0.4-0.1,0.5-0.1
					c0.2,0,0.4,0,0.6-0.1c0.2-0.1,0.1-0.3,0.3-0.5c0.1-0.1,0.3,0,0.4-0.1c0.2-0.1,0.3-0.3,0.4-0.5c0-0.1,0-0.1,0-0.2
					c0-0.1,0.1-0.2,0.1-0.3c0-0.1-0.1-0.1-0.1-0.2c0-0.1,0-0.2,0-0.3c0-0.2,0-0.4-0.1-0.5c-0.4-0.7-1.2-0.9-2-0.8
					c-0.2,0-0.3,0.1-0.4,0.2c-0.2,0.1-0.1,0.2-0.3,0.2c-0.1,0-0.2,0.1-0.2,0.2C38.8-25.8,38.8-25.8,38.8-25.7
					C38.8-25.7,38.8-25.7,38.8-25.7"/>
				<path fill="#FFFFFF" d="M31.1-25.7c0,0.1,0,0.1,0,0.2c-0.1,0.1-0.1,0.1-0.2,0.1c-0.1,0.1-0.1,0.3-0.1,0.4c-0.2,0.1,0,0.2,0,0.3
					c0,0,0,0.1,0,0.2c0,0.1,0,0.3,0.1,0.4c0.1,0.2,0.3,0.4,0.4,0.5c0.2,0.1,0.4,0.6,0.6,0.6c0.2,0,0.4-0.1,0.5-0.1
					c0.2,0,0.4,0,0.6-0.1c0.2-0.1,0.1-0.3,0.3-0.5c0.1-0.1,0.3,0,0.4-0.1c0.2-0.1,0.3-0.3,0.4-0.5c0-0.1,0-0.1,0-0.2
					c0-0.1,0.1-0.2,0.1-0.3c0-0.1-0.1-0.1-0.1-0.2c0-0.1,0-0.2,0-0.3c0-0.2,0-0.4-0.1-0.5c-0.4-0.7-1.2-0.9-2-0.8
					c-0.2,0-0.3,0.1-0.4,0.2c-0.2,0.1-0.1,0.2-0.3,0.2c-0.1,0-0.2,0.1-0.2,0.2C31.1-25.8,31.1-25.8,31.1-25.7
					C31.1-25.7,31.1-25.7,31.1-25.7"/>
				<path fill="#FFFFFF" d="M23.5-25.7c0,0.1,0,0.1,0,0.2c-0.1,0.1-0.1,0.1-0.2,0.1c-0.1,0.1-0.1,0.3-0.1,0.4c-0.2,0.1,0,0.2,0,0.3
					c0,0,0,0.1,0,0.2c0,0.1,0,0.3,0.1,0.4c0.1,0.2,0.3,0.4,0.4,0.5c0.2,0.1,0.4,0.6,0.6,0.6c0.2,0,0.4-0.1,0.5-0.1
					c0.2,0,0.4,0,0.6-0.1c0.2-0.1,0.1-0.3,0.3-0.5c0.1-0.1,0.3,0,0.4-0.1c0.2-0.1,0.3-0.3,0.4-0.5c0-0.1,0-0.1,0-0.2
					c0-0.1,0.1-0.2,0.1-0.3c0-0.1-0.1-0.1-0.1-0.2c0-0.1,0-0.2,0-0.3c0-0.2,0-0.4-0.1-0.5c-0.4-0.7-1.2-0.9-2-0.8
					c-0.2,0-0.3,0.1-0.4,0.2c-0.2,0.1-0.1,0.2-0.3,0.2c-0.1,0-0.2,0.1-0.2,0.2C23.5-25.8,23.5-25.8,23.5-25.7
					C23.5-25.7,23.5-25.7,23.5-25.7"/>
				<path fill="#FFFFFF" d="M15.8-25.7c0,0.1,0,0.1,0,0.2c-0.1,0.1-0.1,0.1-0.2,0.1c-0.1,0.1-0.1,0.3-0.1,0.4c-0.2,0.1,0,0.2,0,0.3
					c0,0,0,0.1,0,0.2c0,0.1,0,0.3,0.1,0.4c0.1,0.2,0.3,0.4,0.4,0.5c0.2,0.1,0.4,0.6,0.6,0.6c0.2,0,0.4-0.1,0.5-0.1
					c0.2,0,0.4,0,0.6-0.1c0.2-0.1,0.1-0.3,0.3-0.5c0.1-0.1,0.3,0,0.4-0.1c0.2-0.1,0.3-0.3,0.4-0.5c0-0.1,0-0.1,0-0.2
					c0-0.1,0.1-0.2,0.1-0.3c0-0.1-0.1-0.1-0.1-0.2c0-0.1,0-0.2,0-0.3c0-0.2,0-0.4-0.1-0.5c-0.4-0.7-1.2-0.9-2-0.8
					c-0.2,0-0.3,0.1-0.4,0.2c-0.2,0.1-0.1,0.2-0.3,0.2c-0.1,0-0.2,0.1-0.2,0.2C15.8-25.8,15.8-25.8,15.8-25.7
					C15.8-25.7,15.8-25.7,15.8-25.7"/>
				<path fill="#FFFFFF" d="M8.2-25.7c0,0.1,0,0.1,0,0.2C8.1-25.4,8-25.5,8-25.4c-0.1,0.1-0.1,0.3-0.1,0.4c-0.2,0.1,0,0.2,0,0.3
					c0,0,0,0.1,0,0.2c0,0.1,0,0.3,0.1,0.4C8-24,8.2-23.8,8.3-23.6c0.2,0.1,0.4,0.6,0.6,0.6c0.2,0,0.4-0.1,0.5-0.1
					c0.2,0,0.4,0,0.6-0.1c0.2-0.1,0.1-0.3,0.3-0.5c0.1-0.1,0.3,0,0.4-0.1c0.2-0.1,0.3-0.3,0.4-0.5c0-0.1,0-0.1,0-0.2
					c0-0.1,0.1-0.2,0.1-0.3c0-0.1-0.1-0.1-0.1-0.2c0-0.1,0-0.2,0-0.3c0-0.2,0-0.4-0.1-0.5c-0.4-0.7-1.2-0.9-2-0.8
					c-0.2,0-0.3,0.1-0.4,0.2c-0.2,0.1-0.1,0.2-0.3,0.2c-0.1,0-0.2,0.1-0.2,0.2C8.2-25.8,8.2-25.8,8.2-25.7
					C8.1-25.7,8.1-25.7,8.2-25.7"/>
				<path fill="#FFFFFF" d="M0.5-25.7c0,0.1,0,0.1,0,0.2c-0.1,0.1-0.1,0.1-0.2,0.1c-0.1,0.1-0.1,0.3-0.1,0.4c-0.2,0.1,0,0.2,0,0.3
					c0,0,0,0.1,0,0.2c0,0.1,0,0.3,0.1,0.4c0.1,0.2,0.3,0.4,0.4,0.5C0.9-23.5,1-23.1,1.3-23c0.2,0,0.4-0.1,0.5-0.1
					c0.2,0,0.4,0,0.6-0.1c0.2-0.1,0.1-0.3,0.3-0.5c0.1-0.1,0.3,0,0.4-0.1c0.2-0.1,0.3-0.3,0.4-0.5c0-0.1,0-0.1,0-0.2
					c0-0.1,0.1-0.2,0.1-0.3c0-0.1-0.1-0.1-0.1-0.2c0-0.1,0-0.2,0-0.3c0-0.2,0-0.4-0.1-0.5c-0.4-0.7-1.2-0.9-2-0.8
					c-0.2,0-0.3,0.1-0.4,0.2c-0.2,0.1-0.1,0.2-0.3,0.2c-0.1,0-0.2,0.1-0.2,0.2C0.5-25.8,0.5-25.8,0.5-25.7
					C0.5-25.7,0.5-25.7,0.5-25.7"/>
			</g>
			<g>
				<path fill="#FFFFFF" d="M69.4-18.1c0,0.1,0,0.1,0,0.2c-0.1,0.1-0.1,0.1-0.2,0.1c-0.1,0.1-0.1,0.3-0.1,0.4c-0.2,0.1,0,0.2,0,0.3
					c0,0,0,0.1,0,0.2c0,0.1,0,0.3,0.1,0.4c0.1,0.2,0.3,0.4,0.4,0.5c0.2,0.1,0.4,0.6,0.6,0.6c0.2,0,0.4-0.1,0.5-0.1
					c0.2,0,0.4,0,0.6-0.1c0.2-0.1,0.1-0.3,0.3-0.5c0.1-0.1,0.3,0,0.4-0.1c0.2-0.1,0.3-0.3,0.4-0.5c0-0.1,0-0.1,0-0.2
					c0-0.1,0.1-0.2,0.1-0.3c0-0.1-0.1-0.1-0.1-0.2c0-0.1,0-0.2,0-0.3c0-0.2,0-0.4-0.1-0.5c-0.4-0.7-1.2-0.9-2-0.8
					c-0.2,0-0.3,0.1-0.4,0.2c-0.2,0.1-0.1,0.2-0.3,0.2c-0.1,0-0.2,0.1-0.2,0.2C69.4-18.1,69.4-18.2,69.4-18.1
					C69.4-18,69.4-18.1,69.4-18.1"/>
				<path fill="#FFFFFF" d="M61.8-18.1c0,0.1,0,0.1,0,0.2c-0.1,0.1-0.1,0.1-0.2,0.1c-0.1,0.1-0.1,0.3-0.1,0.4c-0.2,0.1,0,0.2,0,0.3
					c0,0,0,0.1,0,0.2c0,0.1,0,0.3,0.1,0.4c0.1,0.2,0.3,0.4,0.4,0.5c0.2,0.1,0.4,0.6,0.6,0.6c0.2,0,0.4-0.1,0.5-0.1
					c0.2,0,0.4,0,0.6-0.1c0.2-0.1,0.1-0.3,0.3-0.5c0.1-0.1,0.3,0,0.4-0.1c0.2-0.1,0.3-0.3,0.4-0.5c0-0.1,0-0.1,0-0.2
					c0-0.1,0.1-0.2,0.1-0.3c0-0.1-0.1-0.1-0.1-0.2c0-0.1,0-0.2,0-0.3c0-0.2,0-0.4-0.1-0.5c-0.4-0.7-1.2-0.9-2-0.8
					c-0.2,0-0.3,0.1-0.4,0.2c-0.2,0.1-0.1,0.2-0.3,0.2c-0.1,0-0.2,0.1-0.2,0.2C61.8-18.1,61.8-18.2,61.8-18.1
					C61.8-18,61.8-18.1,61.8-18.1"/>
				<path fill="#FFFFFF" d="M54.1-18.1c0,0.1,0,0.1,0,0.2c-0.1,0.1-0.1,0.1-0.2,0.1c-0.1,0.1-0.1,0.3-0.1,0.4c-0.2,0.1,0,0.2,0,0.3
					c0,0,0,0.1,0,0.2c0,0.1,0,0.3,0.1,0.4c0.1,0.2,0.3,0.4,0.4,0.5c0.2,0.1,0.4,0.6,0.6,0.6c0.2,0,0.4-0.1,0.5-0.1
					c0.2,0,0.4,0,0.6-0.1c0.2-0.1,0.1-0.3,0.3-0.5c0.1-0.1,0.3,0,0.4-0.1c0.2-0.1,0.3-0.3,0.4-0.5c0-0.1,0-0.1,0-0.2
					c0-0.1,0.1-0.2,0.1-0.3c0-0.1-0.1-0.1-0.1-0.2c0-0.1,0-0.2,0-0.3c0-0.2,0-0.4-0.1-0.5c-0.4-0.7-1.2-0.9-2-0.8
					c-0.2,0-0.3,0.1-0.4,0.2c-0.2,0.1-0.1,0.2-0.3,0.2c-0.1,0-0.2,0.1-0.2,0.2C54.1-18.1,54.1-18.2,54.1-18.1
					C54.1-18,54.1-18.1,54.1-18.1"/>
				<path fill="#FFFFFF" d="M46.5-18.1c0,0.1,0,0.1,0,0.2c-0.1,0.1-0.1,0.1-0.2,0.1c-0.1,0.1-0.1,0.3-0.1,0.4c-0.2,0.1,0,0.2,0,0.3
					c0,0,0,0.1,0,0.2c0,0.1,0,0.3,0.1,0.4c0.1,0.2,0.3,0.4,0.4,0.5c0.2,0.1,0.4,0.6,0.6,0.6c0.2,0,0.4-0.1,0.5-0.1
					c0.2,0,0.4,0,0.6-0.1c0.2-0.1,0.1-0.3,0.3-0.5c0.1-0.1,0.3,0,0.4-0.1c0.2-0.1,0.3-0.3,0.4-0.5c0-0.1,0-0.1,0-0.2
					c0-0.1,0.1-0.2,0.1-0.3c0-0.1-0.1-0.1-0.1-0.2c0-0.1,0-0.2,0-0.3c0-0.2,0-0.4-0.1-0.5c-0.4-0.7-1.2-0.9-2-0.8
					c-0.2,0-0.3,0.1-0.4,0.2c-0.2,0.1-0.1,0.2-0.3,0.2c-0.1,0-0.2,0.1-0.2,0.2C46.5-18.1,46.5-18.2,46.5-18.1
					C46.5-18,46.5-18.1,46.5-18.1"/>
				<path fill="#FFFFFF" d="M38.8-18.1c0,0.1,0,0.1,0,0.2c-0.1,0.1-0.1,0.1-0.2,0.1c-0.1,0.1-0.1,0.3-0.1,0.4c-0.2,0.1,0,0.2,0,0.3
					c0,0,0,0.1,0,0.2c0,0.1,0,0.3,0.1,0.4c0.1,0.2,0.3,0.4,0.4,0.5c0.2,0.1,0.4,0.6,0.6,0.6c0.2,0,0.4-0.1,0.5-0.1
					c0.2,0,0.4,0,0.6-0.1c0.2-0.1,0.1-0.3,0.3-0.5c0.1-0.1,0.3,0,0.4-0.1c0.2-0.1,0.3-0.3,0.4-0.5c0-0.1,0-0.1,0-0.2
					c0-0.1,0.1-0.2,0.1-0.3c0-0.1-0.1-0.1-0.1-0.2c0-0.1,0-0.2,0-0.3c0-0.2,0-0.4-0.1-0.5c-0.4-0.7-1.2-0.9-2-0.8
					c-0.2,0-0.3,0.1-0.4,0.2c-0.2,0.1-0.1,0.2-0.3,0.2c-0.1,0-0.2,0.1-0.2,0.2C38.8-18.1,38.8-18.2,38.8-18.1
					C38.8-18,38.8-18.1,38.8-18.1"/>
				<path fill="#FFFFFF" d="M31.1-18.1c0,0.1,0,0.1,0,0.2c-0.1,0.1-0.1,0.1-0.2,0.1c-0.1,0.1-0.1,0.3-0.1,0.4c-0.2,0.1,0,0.2,0,0.3
					c0,0,0,0.1,0,0.2c0,0.1,0,0.3,0.1,0.4c0.1,0.2,0.3,0.4,0.4,0.5c0.2,0.1,0.4,0.6,0.6,0.6c0.2,0,0.4-0.1,0.5-0.1
					c0.2,0,0.4,0,0.6-0.1c0.2-0.1,0.1-0.3,0.3-0.5c0.1-0.1,0.3,0,0.4-0.1c0.2-0.1,0.3-0.3,0.4-0.5c0-0.1,0-0.1,0-0.2
					c0-0.1,0.1-0.2,0.1-0.3c0-0.1-0.1-0.1-0.1-0.2c0-0.1,0-0.2,0-0.3c0-0.2,0-0.4-0.1-0.5c-0.4-0.7-1.2-0.9-2-0.8
					c-0.2,0-0.3,0.1-0.4,0.2c-0.2,0.1-0.1,0.2-0.3,0.2c-0.1,0-0.2,0.1-0.2,0.2C31.1-18.1,31.1-18.2,31.1-18.1
					C31.1-18,31.1-18.1,31.1-18.1"/>
				<path fill="#FFFFFF" d="M23.5-18.1c0,0.1,0,0.1,0,0.2c-0.1,0.1-0.1,0.1-0.2,0.1c-0.1,0.1-0.1,0.3-0.1,0.4c-0.2,0.1,0,0.2,0,0.3
					c0,0,0,0.1,0,0.2c0,0.1,0,0.3,0.1,0.4c0.1,0.2,0.3,0.4,0.4,0.5c0.2,0.1,0.4,0.6,0.6,0.6c0.2,0,0.4-0.1,0.5-0.1
					c0.2,0,0.4,0,0.6-0.1c0.2-0.1,0.1-0.3,0.3-0.5c0.1-0.1,0.3,0,0.4-0.1c0.2-0.1,0.3-0.3,0.4-0.5c0-0.1,0-0.1,0-0.2
					c0-0.1,0.1-0.2,0.1-0.3c0-0.1-0.1-0.1-0.1-0.2c0-0.1,0-0.2,0-0.3c0-0.2,0-0.4-0.1-0.5c-0.4-0.7-1.2-0.9-2-0.8
					c-0.2,0-0.3,0.1-0.4,0.2c-0.2,0.1-0.1,0.2-0.3,0.2c-0.1,0-0.2,0.1-0.2,0.2C23.5-18.1,23.5-18.2,23.5-18.1
					C23.5-18,23.5-18.1,23.5-18.1"/>
				<path fill="#FFFFFF" d="M15.8-18.1c0,0.1,0,0.1,0,0.2c-0.1,0.1-0.1,0.1-0.2,0.1c-0.1,0.1-0.1,0.3-0.1,0.4c-0.2,0.1,0,0.2,0,0.3
					c0,0,0,0.1,0,0.2c0,0.1,0,0.3,0.1,0.4c0.1,0.2,0.3,0.4,0.4,0.5c0.2,0.1,0.4,0.6,0.6,0.6c0.2,0,0.4-0.1,0.5-0.1
					c0.2,0,0.4,0,0.6-0.1c0.2-0.1,0.1-0.3,0.3-0.5c0.1-0.1,0.3,0,0.4-0.1c0.2-0.1,0.3-0.3,0.4-0.5c0-0.1,0-0.1,0-0.2
					c0-0.1,0.1-0.2,0.1-0.3c0-0.1-0.1-0.1-0.1-0.2c0-0.1,0-0.2,0-0.3c0-0.2,0-0.4-0.1-0.5c-0.4-0.7-1.2-0.9-2-0.8
					c-0.2,0-0.3,0.1-0.4,0.2c-0.2,0.1-0.1,0.2-0.3,0.2c-0.1,0-0.2,0.1-0.2,0.2C15.8-18.1,15.8-18.2,15.8-18.1
					C15.8-18,15.8-18.1,15.8-18.1"/>
				<path fill="#FFFFFF" d="M8.2-18.1c0,0.1,0,0.1,0,0.2C8.1-17.8,8-17.8,8-17.8c-0.1,0.1-0.1,0.3-0.1,0.4c-0.2,0.1,0,0.2,0,0.3
					c0,0,0,0.1,0,0.2c0,0.1,0,0.3,0.1,0.4C8-16.3,8.2-16.1,8.3-16c0.2,0.1,0.4,0.6,0.6,0.6c0.2,0,0.4-0.1,0.5-0.1
					c0.2,0,0.4,0,0.6-0.1c0.2-0.1,0.1-0.3,0.3-0.5c0.1-0.1,0.3,0,0.4-0.1c0.2-0.1,0.3-0.3,0.4-0.5c0-0.1,0-0.1,0-0.2
					c0-0.1,0.1-0.2,0.1-0.3c0-0.1-0.1-0.1-0.1-0.2c0-0.1,0-0.2,0-0.3c0-0.2,0-0.4-0.1-0.5c-0.4-0.7-1.2-0.9-2-0.8
					c-0.2,0-0.3,0.1-0.4,0.2c-0.2,0.1-0.1,0.2-0.3,0.2c-0.1,0-0.2,0.1-0.2,0.2C8.2-18.1,8.2-18.2,8.2-18.1C8.1-18,8.1-18.1,8.2-18.1
					"/>
				<path fill="#FFFFFF" d="M0.5-18.1c0,0.1,0,0.1,0,0.2c-0.1,0.1-0.1,0.1-0.2,0.1c-0.1,0.1-0.1,0.3-0.1,0.4c-0.2,0.1,0,0.2,0,0.3
					c0,0,0,0.1,0,0.2c0,0.1,0,0.3,0.1,0.4c0.1,0.2,0.3,0.4,0.4,0.5c0.2,0.1,0.4,0.6,0.6,0.6c0.2,0,0.4-0.1,0.5-0.1
					c0.2,0,0.4,0,0.6-0.1c0.2-0.1,0.1-0.3,0.3-0.5C2.8-16.1,3-16,3.1-16c0.2-0.1,0.3-0.3,0.4-0.5c0-0.1,0-0.1,0-0.2
					c0-0.1,0.1-0.2,0.1-0.3c0-0.1-0.1-0.1-0.1-0.2c0-0.1,0-0.2,0-0.3c0-0.2,0-0.4-0.1-0.5c-0.4-0.7-1.2-0.9-2-0.8
					c-0.2,0-0.3,0.1-0.4,0.2c-0.2,0.1-0.1,0.2-0.3,0.2c-0.1,0-0.2,0.1-0.2,0.2C0.5-18.1,0.5-18.2,0.5-18.1C0.5-18,0.5-18.1,0.5-18.1
					"/>
			</g>
			<g>
				<path fill="#FFFFFF" d="M69.4-10.4c0,0.1,0,0.1,0,0.2c-0.1,0.1-0.1,0.1-0.2,0.1c-0.1,0.1-0.1,0.3-0.1,0.4c-0.2,0.1,0,0.2,0,0.3
					c0,0,0,0.1,0,0.2c0,0.1,0,0.3,0.1,0.4c0.1,0.2,0.3,0.4,0.4,0.5c0.2,0.1,0.4,0.6,0.6,0.6c0.2,0,0.4-0.1,0.5-0.1
					c0.2,0,0.4,0,0.6-0.1c0.2-0.1,0.1-0.3,0.3-0.5c0.1-0.1,0.3,0,0.4-0.1c0.2-0.1,0.3-0.3,0.4-0.5c0-0.1,0-0.1,0-0.2
					c0-0.1,0.1-0.2,0.1-0.3c0-0.1-0.1-0.1-0.1-0.2c0-0.1,0-0.2,0-0.3c0-0.2,0-0.4-0.1-0.5c-0.4-0.7-1.2-0.9-2-0.8
					c-0.2,0-0.3,0.1-0.4,0.2c-0.2,0.1-0.1,0.2-0.3,0.2c-0.1,0-0.2,0.1-0.2,0.2C69.4-10.5,69.4-10.5,69.4-10.4
					C69.4-10.4,69.4-10.4,69.4-10.4"/>
				<path fill="#FFFFFF" d="M61.8-10.4c0,0.1,0,0.1,0,0.2c-0.1,0.1-0.1,0.1-0.2,0.1c-0.1,0.1-0.1,0.3-0.1,0.4c-0.2,0.1,0,0.2,0,0.3
					c0,0,0,0.1,0,0.2c0,0.1,0,0.3,0.1,0.4c0.1,0.2,0.3,0.4,0.4,0.5c0.2,0.1,0.4,0.6,0.6,0.6c0.2,0,0.4-0.1,0.5-0.1
					c0.2,0,0.4,0,0.6-0.1C63.9-8,63.8-8.2,64-8.3c0.1-0.1,0.3,0,0.4-0.1c0.2-0.1,0.3-0.3,0.4-0.5c0-0.1,0-0.1,0-0.2
					c0-0.1,0.1-0.2,0.1-0.3c0-0.1-0.1-0.1-0.1-0.2c0-0.1,0-0.2,0-0.3c0-0.2,0-0.4-0.1-0.5c-0.4-0.7-1.2-0.9-2-0.8
					c-0.2,0-0.3,0.1-0.4,0.2c-0.2,0.1-0.1,0.2-0.3,0.2c-0.1,0-0.2,0.1-0.2,0.2C61.8-10.5,61.8-10.5,61.8-10.4
					C61.8-10.4,61.8-10.4,61.8-10.4"/>
				<path fill="#FFFFFF" d="M54.1-10.4c0,0.1,0,0.1,0,0.2c-0.1,0.1-0.1,0.1-0.2,0.1c-0.1,0.1-0.1,0.3-0.1,0.4c-0.2,0.1,0,0.2,0,0.3
					c0,0,0,0.1,0,0.2c0,0.1,0,0.3,0.1,0.4c0.1,0.2,0.3,0.4,0.4,0.5c0.2,0.1,0.4,0.6,0.6,0.6c0.2,0,0.4-0.1,0.5-0.1
					c0.2,0,0.4,0,0.6-0.1c0.2-0.1,0.1-0.3,0.3-0.5c0.1-0.1,0.3,0,0.4-0.1c0.2-0.1,0.3-0.3,0.4-0.5c0-0.1,0-0.1,0-0.2
					c0-0.1,0.1-0.2,0.1-0.3c0-0.1-0.1-0.1-0.1-0.2c0-0.1,0-0.2,0-0.3c0-0.2,0-0.4-0.1-0.5c-0.4-0.7-1.2-0.9-2-0.8
					c-0.2,0-0.3,0.1-0.4,0.2c-0.2,0.1-0.1,0.2-0.3,0.2c-0.1,0-0.2,0.1-0.2,0.2C54.1-10.5,54.1-10.5,54.1-10.4
					C54.1-10.4,54.1-10.4,54.1-10.4"/>
				<path fill="#FFFFFF" d="M46.5-10.4c0,0.1,0,0.1,0,0.2c-0.1,0.1-0.1,0.1-0.2,0.1c-0.1,0.1-0.1,0.3-0.1,0.4c-0.2,0.1,0,0.2,0,0.3
					c0,0,0,0.1,0,0.2c0,0.1,0,0.3,0.1,0.4c0.1,0.2,0.3,0.4,0.4,0.5c0.2,0.1,0.4,0.6,0.6,0.6c0.2,0,0.4-0.1,0.5-0.1
					c0.2,0,0.4,0,0.6-0.1c0.2-0.1,0.1-0.3,0.3-0.5c0.1-0.1,0.3,0,0.4-0.1c0.2-0.1,0.3-0.3,0.4-0.5c0-0.1,0-0.1,0-0.2
					c0-0.1,0.1-0.2,0.1-0.3c0-0.1-0.1-0.1-0.1-0.2c0-0.1,0-0.2,0-0.3c0-0.2,0-0.4-0.1-0.5c-0.4-0.7-1.2-0.9-2-0.8
					c-0.2,0-0.3,0.1-0.4,0.2c-0.2,0.1-0.1,0.2-0.3,0.2c-0.1,0-0.2,0.1-0.2,0.2C46.5-10.5,46.5-10.5,46.5-10.4
					C46.5-10.4,46.5-10.4,46.5-10.4"/>
				<path fill="#FFFFFF" d="M38.8-10.4c0,0.1,0,0.1,0,0.2c-0.1,0.1-0.1,0.1-0.2,0.1c-0.1,0.1-0.1,0.3-0.1,0.4c-0.2,0.1,0,0.2,0,0.3
					c0,0,0,0.1,0,0.2c0,0.1,0,0.3,0.1,0.4c0.1,0.2,0.3,0.4,0.4,0.5c0.2,0.1,0.4,0.6,0.6,0.6c0.2,0,0.4-0.1,0.5-0.1
					c0.2,0,0.4,0,0.6-0.1C40.9-8,40.8-8.2,41-8.3c0.1-0.1,0.3,0,0.4-0.1c0.2-0.1,0.3-0.3,0.4-0.5c0-0.1,0-0.1,0-0.2
					c0-0.1,0.1-0.2,0.1-0.3c0-0.1-0.1-0.1-0.1-0.2c0-0.1,0-0.2,0-0.3c0-0.2,0-0.4-0.1-0.5c-0.4-0.7-1.2-0.9-2-0.8
					c-0.2,0-0.3,0.1-0.4,0.2c-0.2,0.1-0.1,0.2-0.3,0.2c-0.1,0-0.2,0.1-0.2,0.2C38.8-10.5,38.8-10.5,38.8-10.4
					C38.8-10.4,38.8-10.4,38.8-10.4"/>
				<path fill="#FFFFFF" d="M31.1-10.4c0,0.1,0,0.1,0,0.2c-0.1,0.1-0.1,0.1-0.2,0.1c-0.1,0.1-0.1,0.3-0.1,0.4c-0.2,0.1,0,0.2,0,0.3
					c0,0,0,0.1,0,0.2c0,0.1,0,0.3,0.1,0.4c0.1,0.2,0.3,0.4,0.4,0.5c0.2,0.1,0.4,0.6,0.6,0.6c0.2,0,0.4-0.1,0.5-0.1
					c0.2,0,0.4,0,0.6-0.1c0.2-0.1,0.1-0.3,0.3-0.5c0.1-0.1,0.3,0,0.4-0.1c0.2-0.1,0.3-0.3,0.4-0.5c0-0.1,0-0.1,0-0.2
					c0-0.1,0.1-0.2,0.1-0.3c0-0.1-0.1-0.1-0.1-0.2c0-0.1,0-0.2,0-0.3c0-0.2,0-0.4-0.1-0.5c-0.4-0.7-1.2-0.9-2-0.8
					c-0.2,0-0.3,0.1-0.4,0.2c-0.2,0.1-0.1,0.2-0.3,0.2c-0.1,0-0.2,0.1-0.2,0.2C31.1-10.5,31.1-10.5,31.1-10.4
					C31.1-10.4,31.1-10.4,31.1-10.4"/>
				<path fill="#FFFFFF" d="M23.5-10.4c0,0.1,0,0.1,0,0.2c-0.1,0.1-0.1,0.1-0.2,0.1c-0.1,0.1-0.1,0.3-0.1,0.4c-0.2,0.1,0,0.2,0,0.3
					c0,0,0,0.1,0,0.2c0,0.1,0,0.3,0.1,0.4c0.1,0.2,0.3,0.4,0.4,0.5c0.2,0.1,0.4,0.6,0.6,0.6c0.2,0,0.4-0.1,0.5-0.1
					c0.2,0,0.4,0,0.6-0.1c0.2-0.1,0.1-0.3,0.3-0.5c0.1-0.1,0.3,0,0.4-0.1c0.2-0.1,0.3-0.3,0.4-0.5c0-0.1,0-0.1,0-0.2
					c0-0.1,0.1-0.2,0.1-0.3c0-0.1-0.1-0.1-0.1-0.2c0-0.1,0-0.2,0-0.3c0-0.2,0-0.4-0.1-0.5c-0.4-0.7-1.2-0.9-2-0.8
					c-0.2,0-0.3,0.1-0.4,0.2c-0.2,0.1-0.1,0.2-0.3,0.2c-0.1,0-0.2,0.1-0.2,0.2C23.5-10.5,23.5-10.5,23.5-10.4
					C23.5-10.4,23.5-10.4,23.5-10.4"/>
				<path fill="#FFFFFF" d="M15.8-10.4c0,0.1,0,0.1,0,0.2c-0.1,0.1-0.1,0.1-0.2,0.1c-0.1,0.1-0.1,0.3-0.1,0.4c-0.2,0.1,0,0.2,0,0.3
					c0,0,0,0.1,0,0.2c0,0.1,0,0.3,0.1,0.4c0.1,0.2,0.3,0.4,0.4,0.5c0.2,0.1,0.4,0.6,0.6,0.6c0.2,0,0.4-0.1,0.5-0.1
					c0.2,0,0.4,0,0.6-0.1C17.9-8,17.8-8.2,18-8.3c0.1-0.1,0.3,0,0.4-0.1c0.2-0.1,0.3-0.3,0.4-0.5c0-0.1,0-0.1,0-0.2
					c0-0.1,0.1-0.2,0.1-0.3c0-0.1-0.1-0.1-0.1-0.2c0-0.1,0-0.2,0-0.3c0-0.2,0-0.4-0.1-0.5c-0.4-0.7-1.2-0.9-2-0.8
					c-0.2,0-0.3,0.1-0.4,0.2c-0.2,0.1-0.1,0.2-0.3,0.2c-0.1,0-0.2,0.1-0.2,0.2C15.8-10.5,15.8-10.5,15.8-10.4
					C15.8-10.4,15.8-10.4,15.8-10.4"/>
				<path fill="#FFFFFF" d="M8.2-10.4c0,0.1,0,0.1,0,0.2C8.1-10.1,8-10.2,8-10.1C7.9-10,7.9-9.8,7.9-9.8c-0.2,0.1,0,0.2,0,0.3
					c0,0,0,0.1,0,0.2c0,0.1,0,0.3,0.1,0.4C8-8.7,8.2-8.5,8.3-8.3c0.2,0.1,0.4,0.6,0.6,0.6c0.2,0,0.4-0.1,0.5-0.1
					c0.2,0,0.4,0,0.6-0.1c0.2-0.1,0.1-0.3,0.3-0.5c0.1-0.1,0.3,0,0.4-0.1c0.2-0.1,0.3-0.3,0.4-0.5c0-0.1,0-0.1,0-0.2
					c0-0.1,0.1-0.2,0.1-0.3c0-0.1-0.1-0.1-0.1-0.2c0-0.1,0-0.2,0-0.3c0-0.2,0-0.4-0.1-0.5c-0.4-0.7-1.2-0.9-2-0.8
					c-0.2,0-0.3,0.1-0.4,0.2c-0.2,0.1-0.1,0.2-0.3,0.2c-0.1,0-0.2,0.1-0.2,0.2C8.2-10.5,8.2-10.5,8.2-10.4
					C8.1-10.4,8.1-10.4,8.2-10.4"/>
				<path fill="#FFFFFF" d="M0.5-10.4c0,0.1,0,0.1,0,0.2c-0.1,0.1-0.1,0.1-0.2,0.1C0.3-10,0.2-9.8,0.2-9.8c-0.2,0.1,0,0.2,0,0.3
					c0,0,0,0.1,0,0.2c0,0.1,0,0.3,0.1,0.4c0.1,0.2,0.3,0.4,0.4,0.5C0.9-8.2,1-7.8,1.3-7.7c0.2,0,0.4-0.1,0.5-0.1
					c0.2,0,0.4,0,0.6-0.1C2.6-8,2.5-8.2,2.7-8.3c0.1-0.1,0.3,0,0.4-0.1c0.2-0.1,0.3-0.3,0.4-0.5c0-0.1,0-0.1,0-0.2
					c0-0.1,0.1-0.2,0.1-0.3c0-0.1-0.1-0.1-0.1-0.2c0-0.1,0-0.2,0-0.3c0-0.2,0-0.4-0.1-0.5c-0.4-0.7-1.2-0.9-2-0.8
					c-0.2,0-0.3,0.1-0.4,0.2c-0.2,0.1-0.1,0.2-0.3,0.2c-0.1,0-0.2,0.1-0.2,0.2C0.5-10.5,0.5-10.5,0.5-10.4
					C0.5-10.4,0.5-10.4,0.5-10.4"/>
			</g>
		</g>
		<g>
			<path fill="#FFFFFF" d="M69.4-2.8c0,0.1,0,0.1,0,0.2c-0.1,0.1-0.1,0.1-0.2,0.1c-0.1,0.1-0.1,0.3-0.1,0.4c-0.2,0.1,0,0.2,0,0.3
				c0,0,0,0.1,0,0.2c0,0.1,0,0.3,0.1,0.4c0.1,0.2,0.3,0.4,0.4,0.5C69.8-0.5,70-0.1,70.2,0c0.2,0,0.4-0.1,0.5-0.1
				c0.2,0,0.4,0,0.6-0.1c0.2-0.1,0.1-0.3,0.3-0.5c0.1-0.1,0.3,0,0.4-0.1c0.2-0.1,0.3-0.3,0.4-0.5c0-0.1,0-0.1,0-0.2
				c0-0.1,0.1-0.2,0.1-0.3c0-0.1-0.1-0.1-0.1-0.2c0-0.1,0-0.2,0-0.3c0-0.2,0-0.4-0.1-0.5c-0.4-0.7-1.2-0.9-2-0.8
				c-0.2,0-0.3,0.1-0.4,0.2c-0.2,0.1-0.1,0.2-0.3,0.2c-0.1,0-0.2,0.1-0.2,0.2C69.4-2.8,69.4-2.9,69.4-2.8
				C69.4-2.7,69.4-2.8,69.4-2.8"/>
			<path fill="#FFFFFF" d="M61.8-2.8c0,0.1,0,0.1,0,0.2c-0.1,0.1-0.1,0.1-0.2,0.1c-0.1,0.1-0.1,0.3-0.1,0.4c-0.2,0.1,0,0.2,0,0.3
				c0,0,0,0.1,0,0.2c0,0.1,0,0.3,0.1,0.4C61.6-1,61.8-0.8,62-0.7c0.2,0.1,0.4,0.6,0.6,0.6c0.2,0,0.4-0.1,0.5-0.1
				c0.2,0,0.4,0,0.6-0.1c0.2-0.1,0.1-0.3,0.3-0.5c0.1-0.1,0.3,0,0.4-0.1c0.2-0.1,0.3-0.3,0.4-0.5c0-0.1,0-0.1,0-0.2
				c0-0.1,0.1-0.2,0.1-0.3c0-0.1-0.1-0.1-0.1-0.2c0-0.1,0-0.2,0-0.3c0-0.2,0-0.4-0.1-0.5c-0.4-0.7-1.2-0.9-2-0.8
				c-0.2,0-0.3,0.1-0.4,0.2c-0.2,0.1-0.1,0.2-0.3,0.2c-0.1,0-0.2,0.1-0.2,0.2C61.8-2.8,61.8-2.9,61.8-2.8
				C61.8-2.7,61.8-2.8,61.8-2.8"/>
			<path fill="#FFFFFF" d="M54.1-2.8c0,0.1,0,0.1,0,0.2C54-2.5,54-2.5,53.9-2.5c-0.1,0.1-0.1,0.3-0.1,0.4c-0.2,0.1,0,0.2,0,0.3
				c0,0,0,0.1,0,0.2c0,0.1,0,0.3,0.1,0.4C54-1,54.1-0.8,54.3-0.7c0.2,0.1,0.4,0.6,0.6,0.6c0.2,0,0.4-0.1,0.5-0.1
				c0.2,0,0.4,0,0.6-0.1c0.2-0.1,0.1-0.3,0.3-0.5c0.1-0.1,0.3,0,0.4-0.1C56.9-0.8,57-1,57.1-1.2c0-0.1,0-0.1,0-0.2
				c0-0.1,0.1-0.2,0.1-0.3c0-0.1-0.1-0.1-0.1-0.2c0-0.1,0-0.2,0-0.3c0-0.2,0-0.4-0.1-0.5c-0.4-0.7-1.2-0.9-2-0.8
				c-0.2,0-0.3,0.1-0.4,0.2c-0.2,0.1-0.1,0.2-0.3,0.2c-0.1,0-0.2,0.1-0.2,0.2C54.1-2.8,54.1-2.9,54.1-2.8
				C54.1-2.7,54.1-2.8,54.1-2.8"/>
			<path fill="#FFFFFF" d="M46.5-2.8c0,0.1,0,0.1,0,0.2c-0.1,0.1-0.1,0.1-0.2,0.1c-0.1,0.1-0.1,0.3-0.1,0.4c-0.2,0.1,0,0.2,0,0.3
				c0,0,0,0.1,0,0.2c0,0.1,0,0.3,0.1,0.4c0.1,0.2,0.3,0.4,0.4,0.5C46.8-0.5,47-0.1,47.2,0c0.2,0,0.4-0.1,0.5-0.1
				c0.2,0,0.4,0,0.6-0.1c0.2-0.1,0.1-0.3,0.3-0.5c0.1-0.1,0.3,0,0.4-0.1c0.2-0.1,0.3-0.3,0.4-0.5c0-0.1,0-0.1,0-0.2
				c0-0.1,0.1-0.2,0.1-0.3c0-0.1-0.1-0.1-0.1-0.2c0-0.1,0-0.2,0-0.3c0-0.2,0-0.4-0.1-0.5c-0.4-0.7-1.2-0.9-2-0.8
				c-0.2,0-0.3,0.1-0.4,0.2c-0.2,0.1-0.1,0.2-0.3,0.2c-0.1,0-0.2,0.1-0.2,0.2C46.5-2.8,46.5-2.9,46.5-2.8
				C46.5-2.7,46.5-2.8,46.5-2.8"/>
			<path fill="#FFFFFF" d="M38.8-2.8c0,0.1,0,0.1,0,0.2c-0.1,0.1-0.1,0.1-0.2,0.1c-0.1,0.1-0.1,0.3-0.1,0.4c-0.2,0.1,0,0.2,0,0.3
				c0,0,0,0.1,0,0.2c0,0.1,0,0.3,0.1,0.4C38.6-1,38.8-0.8,39-0.7c0.2,0.1,0.4,0.6,0.6,0.6c0.2,0,0.4-0.1,0.5-0.1
				c0.2,0,0.4,0,0.6-0.1c0.2-0.1,0.1-0.3,0.3-0.5c0.1-0.1,0.3,0,0.4-0.1c0.2-0.1,0.3-0.3,0.4-0.5c0-0.1,0-0.1,0-0.2
				c0-0.1,0.1-0.2,0.1-0.3c0-0.1-0.1-0.1-0.1-0.2c0-0.1,0-0.2,0-0.3c0-0.2,0-0.4-0.1-0.5c-0.4-0.7-1.2-0.9-2-0.8
				c-0.2,0-0.3,0.1-0.4,0.2c-0.2,0.1-0.1,0.2-0.3,0.2c-0.1,0-0.2,0.1-0.2,0.2C38.8-2.8,38.8-2.9,38.8-2.8
				C38.8-2.7,38.8-2.8,38.8-2.8"/>
			<path fill="#FFFFFF" d="M31.1-2.8c0,0.1,0,0.1,0,0.2c-0.1,0.1-0.1,0.1-0.2,0.1c-0.1,0.1-0.1,0.3-0.1,0.4c-0.2,0.1,0,0.2,0,0.3
				c0,0,0,0.1,0,0.2c0,0.1,0,0.3,0.1,0.4C31-1,31.1-0.8,31.3-0.7c0.2,0.1,0.4,0.6,0.6,0.6c0.2,0,0.4-0.1,0.5-0.1
				c0.2,0,0.4,0,0.6-0.1c0.2-0.1,0.1-0.3,0.3-0.5c0.1-0.1,0.3,0,0.4-0.1c0.2-0.1,0.3-0.3,0.4-0.5c0-0.1,0-0.1,0-0.2
				c0-0.1,0.1-0.2,0.1-0.3c0-0.1-0.1-0.1-0.1-0.2c0-0.1,0-0.2,0-0.3c0-0.2,0-0.4-0.1-0.5c-0.4-0.7-1.2-0.9-2-0.8
				c-0.2,0-0.3,0.1-0.4,0.2c-0.2,0.1-0.1,0.2-0.3,0.2c-0.1,0-0.2,0.1-0.2,0.2C31.1-2.8,31.1-2.9,31.1-2.8
				C31.1-2.7,31.1-2.8,31.1-2.8"/>
			<path fill="#FFFFFF" d="M23.5-2.8c0,0.1,0,0.1,0,0.2c-0.1,0.1-0.1,0.1-0.2,0.1c-0.1,0.1-0.1,0.3-0.1,0.4c-0.2,0.1,0,0.2,0,0.3
				c0,0,0,0.1,0,0.2c0,0.1,0,0.3,0.1,0.4c0.1,0.2,0.3,0.4,0.4,0.5C23.8-0.5,24-0.1,24.3,0c0.2,0,0.4-0.1,0.5-0.1
				c0.2,0,0.4,0,0.6-0.1c0.2-0.1,0.1-0.3,0.3-0.5c0.1-0.1,0.3,0,0.4-0.1c0.2-0.1,0.3-0.3,0.4-0.5c0-0.1,0-0.1,0-0.2
				c0-0.1,0.1-0.2,0.1-0.3c0-0.1-0.1-0.1-0.1-0.2c0-0.1,0-0.2,0-0.3c0-0.2,0-0.4-0.1-0.5c-0.4-0.7-1.2-0.9-2-0.8
				c-0.2,0-0.3,0.1-0.4,0.2c-0.2,0.1-0.1,0.2-0.3,0.2c-0.1,0-0.2,0.1-0.2,0.2C23.5-2.8,23.5-2.9,23.5-2.8
				C23.5-2.7,23.5-2.8,23.5-2.8"/>
			<path fill="#FFFFFF" d="M15.8-2.8c0,0.1,0,0.1,0,0.2c-0.1,0.1-0.1,0.1-0.2,0.1c-0.1,0.1-0.1,0.3-0.1,0.4c-0.2,0.1,0,0.2,0,0.3
				c0,0,0,0.1,0,0.2c0,0.1,0,0.3,0.1,0.4C15.7-1,15.8-0.8,16-0.7c0.2,0.1,0.4,0.6,0.6,0.6c0.2,0,0.4-0.1,0.5-0.1
				c0.2,0,0.4,0,0.6-0.1c0.2-0.1,0.1-0.3,0.3-0.5c0.1-0.1,0.3,0,0.4-0.1c0.2-0.1,0.3-0.3,0.4-0.5c0-0.1,0-0.1,0-0.2
				c0-0.1,0.1-0.2,0.1-0.3c0-0.1-0.1-0.1-0.1-0.2c0-0.1,0-0.2,0-0.3c0-0.2,0-0.4-0.1-0.5c-0.4-0.7-1.2-0.9-2-0.8
				c-0.2,0-0.3,0.1-0.4,0.2c-0.2,0.1-0.1,0.2-0.3,0.2c-0.1,0-0.2,0.1-0.2,0.2C15.8-2.8,15.8-2.9,15.8-2.8
				C15.8-2.7,15.8-2.8,15.8-2.8"/>
			<path fill="#FFFFFF" d="M8.2-2.8c0,0.1,0,0.1,0,0.2C8.1-2.5,8-2.5,8-2.5C7.9-2.4,7.9-2.2,7.9-2.1c-0.2,0.1,0,0.2,0,0.3
				c0,0,0,0.1,0,0.2c0,0.1,0,0.3,0.1,0.4C8-1,8.2-0.8,8.3-0.7C8.5-0.5,8.7-0.1,8.9,0c0.2,0,0.4-0.1,0.5-0.1c0.2,0,0.4,0,0.6-0.1
				c0.2-0.1,0.1-0.3,0.3-0.5c0.1-0.1,0.3,0,0.4-0.1c0.2-0.1,0.3-0.3,0.4-0.5c0-0.1,0-0.1,0-0.2c0-0.1,0.1-0.2,0.1-0.3
				c0-0.1-0.1-0.1-0.1-0.2c0-0.1,0-0.2,0-0.3c0-0.2,0-0.4-0.1-0.5c-0.4-0.7-1.2-0.9-2-0.8C9-3.5,8.8-3.4,8.7-3.4
				C8.5-3.3,8.6-3.2,8.4-3.1C8.3-3.1,8.2-3,8.2-2.9C8.2-2.8,8.2-2.9,8.2-2.8C8.1-2.7,8.1-2.8,8.2-2.8"/>
			<path fill="#FFFFFF" d="M0.5-2.8c0,0.1,0,0.1,0,0.2C0.4-2.5,0.4-2.5,0.3-2.5C0.3-2.4,0.2-2.2,0.2-2.1c-0.2,0.1,0,0.2,0,0.3
				c0,0,0,0.1,0,0.2c0,0.1,0,0.3,0.1,0.4C0.3-1,0.5-0.8,0.7-0.7C0.9-0.5,1-0.1,1.3,0c0.2,0,0.4-0.1,0.5-0.1c0.2,0,0.4,0,0.6-0.1
				c0.2-0.1,0.1-0.3,0.3-0.5c0.1-0.1,0.3,0,0.4-0.1C3.3-0.8,3.4-1,3.5-1.2c0-0.1,0-0.1,0-0.2c0-0.1,0.1-0.2,0.1-0.3
				c0-0.1-0.1-0.1-0.1-0.2c0-0.1,0-0.2,0-0.3c0-0.2,0-0.4-0.1-0.5c-0.4-0.7-1.2-0.9-2-0.8C1.3-3.5,1.2-3.4,1-3.4
				C0.9-3.3,0.9-3.2,0.7-3.1C0.6-3.1,0.5-3,0.5-2.9C0.5-2.8,0.5-2.9,0.5-2.8C0.5-2.7,0.5-2.8,0.5-2.8"/>
		</g>
	</g>
</pattern>
<g>
	<g>
		<path fill="#231F20" d="M1.8,42.7c-3-5,0.1-9.9,0.1-9.9s4.2-8.7,9.5-17.7S19.1,9,26.9,9.8c5.9,0.6,4.9,0.3,24.5,0.7
			c3.5-1,6.5-2.1,8.2-3c5.8-3.3,10.7-2.2,13-2c0.8,0.1,1.9,1.9,3.1,4.4c4.7-1.2,8.8-2.6,10.9-3.8c5.8-3.3,10.7-2.2,13-2
			c1.5,0.1,4.4,6.8,6.3,11.7c25.6,9.2,33.8,29.4,39.1,42.4c1.4,3.4,2.5,6.2,3.6,8.7c2.9-0.4,5.9-1,8.8-2c12-4,17.7-15.2,36.5-19.5
			c14.3-3.3,20.9,0.1,32.2,4.7c5.6-1.4,12.9-2.8,18.3-2.5c10.2,0.5,19,11.5,27.8,12.5s25.3,2.8,52.2,9.8s58,11.8,77-5.8
			c0,0-0.4,6.3-4.6,13.4c0,0.1-0.1,0.1-0.1,0.2c-0.1,0.2-0.3,0.5-0.5,0.7c-0.1,0.1-0.1,0.2-0.2,0.3c-0.2,0.2-0.3,0.5-0.5,0.7
			c-0.1,0.1-0.1,0.2-0.2,0.3c-0.3,0.5-0.7,1-1.1,1.5c0,0.1-0.1,0.1-0.1,0.2c-0.1,0.2-0.3,0.4-0.5,0.6c-0.1,0.2-0.3,0.3-0.4,0.5
			c-0.1,0.2-0.3,0.3-0.5,0.5c-0.2,0.2-0.3,0.3-0.5,0.5c-0.1,0.2-0.3,0.3-0.5,0.5c-0.2,0.2-0.4,0.4-0.6,0.6c-0.1,0.1-0.3,0.3-0.4,0.4
			c-0.3,0.2-0.5,0.5-0.8,0.7c-0.1,0.1-0.2,0.2-0.3,0.3c-0.4,0.3-0.7,0.6-1.1,0.9c-0.1,0.1-0.3,0.2-0.4,0.3c-0.3,0.2-0.5,0.4-0.8,0.6
			c-0.2,0.1-0.3,0.2-0.5,0.4c-0.3,0.2-0.5,0.4-0.8,0.6c-0.2,0.1-0.3,0.2-0.5,0.3c-0.3,0.2-0.6,0.4-0.9,0.6c-0.2,0.1-0.3,0.2-0.5,0.3
			c-0.5,0.3-1,0.6-1.5,0.9c-17.5,9.7-43,15-54.8,17c-0.3,0.1-0.7,0.1-1.1,0.2c-0.1,0-0.3,0-0.4,0c-0.3,0-0.5,0.1-0.8,0.1
			c-0.2,0-0.3,0-0.5,0.1c-0.3,0-0.6,0.1-0.9,0.1c-0.2,0-0.3,0-0.5,0c-0.3,0-0.6,0.1-1,0.1c-0.1,0-0.3,0-0.5,0
			c-0.4,0-0.8,0.1-1.2,0.1c-0.1,0-0.1,0-0.2,0c-2.4,0.2-5.1,0.4-7.9,0.6c-0.1,0-0.2,0-0.3,0c-0.5,0-0.9,0.1-1.4,0.1
			c-0.1,0-0.2,0-0.4,0c-0.5,0-0.9,0.1-1.4,0.1c-0.1,0-0.3,0-0.4,0c-0.5,0-1,0.1-1.4,0.2c-0.1,0-0.1,0-0.2,0c-1.7,0.2-3.3,0.4-5,0.7
			c0,0-0.1,0-0.1,0c-0.5,0.1-0.9,0.2-1.4,0.2c-0.2,0-0.3,0.1-0.5,0.1c-0.4,0.1-0.9,0.2-1.3,0.2c-0.2,0-0.4,0.1-0.6,0.1
			c-0.4,0.1-0.8,0.2-1.3,0.3c-0.2,0-0.4,0.1-0.6,0.1c-0.4,0.1-0.8,0.2-1.3,0.3c-0.2,0-0.3,0.1-0.5,0.1c-0.4,0.1-0.9,0.2-1.3,0.3
			c-0.1,0-0.2,0.1-0.3,0.1c-1.5,0.4-2.9,0.9-4.3,1.4c-0.1,0-0.3,0.1-0.4,0.1c-0.4,0.1-0.7,0.3-1.1,0.5c-0.2,0.1-0.4,0.2-0.5,0.2
			c-0.3,0.2-0.7,0.3-1,0.5c-0.2,0.1-0.4,0.2-0.6,0.3c-0.3,0.2-0.7,0.3-1,0.5c-0.2,0.1-0.4,0.2-0.6,0.3c-0.3,0.2-0.6,0.4-0.9,0.5
			c-0.2,0.1-0.3,0.2-0.5,0.3c-0.3,0.2-0.6,0.4-0.9,0.6c-0.1,0.1-0.3,0.2-0.4,0.3c-0.7,0.5-1.4,1-2,1.6c0,0-0.1,0.1-0.1,0.1
			c0.6,8.6,0,19.5-3.5,32.1c-9.3,33-10,21.3-6,34.3s-1.2,21.8-4.3,32.2c-0.4,1.5-0.9,2.8-1.2,4.1c0,0.1,0,0.1-0.1,0.2
			c-0.2,0.6-0.3,1.1-0.5,1.7c0,0.1,0,0.1-0.1,0.2c-0.2,0.6-0.3,1.1-0.5,1.6c0,0,0,0.1,0,0.1c-0.6,2.3-1,4.3-1.2,6.3
			c-0.3,3-0.1,6,0.7,9.7c2,8.8,1.2,13.7,2.2,25.7s-0.7,27.2,8.7,32.3c8.3,4.6,13.6,5.5,14.4,12.9c2.2,4.6,2.4,12.9,1.6,16.2
			c0,0-1.6,0.7-4.8-3.9c-1.2-1.7-2.4-2.8-3.5-3.7c-0.6,0.1-1.3,0.1-2,0.1c-9.8,0-5.5-8.3-21.2-9.5c0,0-3.2,2.5-3.2,6.7
			c0,3.3-2.3,5-6.7,5.6c-2.7,4.9-4.4,12.5-4.4,12.5c-0.7-0.3-4.8-9.2-4.8-14.7c-1.9-2.5-1.7-6.3-0.6-7.7c0,0-7.8,1.1-13.5,3.7
			c-0.2,0.1-0.5,0.3-0.7,0.4c-0.8,0.5-1.7,1-2.5,1.3c-1.8,1-3.6,1.3-5.3,1.3c-2.3,0.2-3.8-0.1-3.8-0.1s-1.7-0.7-2.5-1.2
			c-1.3,0.5-2.9,1.4-4.5,2.8c-4.4,3.8-5.8,2.6-5.8,2.6c0-3.6,2.4-11.8,5.8-15.7c0.4-2.2,2.1-4.4,6.1-6.1
			c12.8-5.3,29.3-15.2,26.5-30.3s-3.3-12.8-0.7-27.3c0.9-5.2,0.4-10-0.7-14.4l0,0c-1.3-5.2-3.4-9.7-5-13.6c-0.1-0.1-0.1-0.3-0.2-0.4
			c-0.1-0.2-0.1-0.3-0.2-0.5c-0.1-0.2-0.2-0.4-0.2-0.6c0-0.1-0.1-0.2-0.1-0.4c-0.1-0.3-0.2-0.6-0.3-0.9c0-0.1,0-0.2-0.1-0.2
			c-0.1-0.2-0.1-0.5-0.2-0.7c0-0.1-0.1-0.2-0.1-0.3c-0.1-0.2-0.1-0.4-0.2-0.6c0-0.1,0-0.2-0.1-0.3c-0.1-0.3-0.1-0.6-0.2-0.8
			c-1.2-7.5-2.5-13.7,0.3-21c0,0,0,0-0.1-0.1c0,0-0.1-0.1-0.1-0.1c0,0-0.1-0.1-0.1-0.1c-0.1-0.1-0.1-0.1-0.2-0.2
			c0,0-0.1-0.1-0.1-0.2c-0.1-0.1-0.2-0.2-0.3-0.4c0-0.1-0.1-0.1-0.1-0.2c-0.1-0.2-0.2-0.3-0.4-0.5c0,0-0.1-0.1-0.1-0.1
			c-0.8-1.1-1.8-2.8-2.8-5c0,0,0-0.1-0.1-0.1c-0.2-0.4-0.4-0.8-0.6-1.2c0-0.1-0.1-0.2-0.1-0.2c-0.2-0.4-0.4-0.9-0.6-1.3
			c0-0.1-0.1-0.2-0.1-0.2c-0.2-0.5-0.4-1-0.6-1.5c0,0,0-0.1,0-0.1c-0.6-1.7-1.2-3.5-1.7-5.5c0,0,0,0,0,0c0,0,0,0,0,0
			c-0.7,0.2-1.5,0.5-2.2,0.7c-0.3,0.1-0.5,0.2-0.8,0.2c-0.7,0.2-1.3,0.4-2,0.5c-0.4,0.1-0.7,0.2-1.1,0.3c-0.6,0.1-1.3,0.3-1.9,0.4
			c-0.5,0.1-0.9,0.2-1.4,0.3c-0.6,0.1-1.2,0.2-1.8,0.3c-0.5,0.1-1.1,0.2-1.7,0.2c-0.6,0.1-1.2,0.2-1.8,0.2c-0.6,0.1-1.3,0.1-2,0.2
			c-0.5,0-1.1,0.1-1.6,0.1c-0.8,0.1-1.6,0.1-2.4,0.1c-0.5,0-0.9,0.1-1.4,0.1c-1.3,0-2.6,0.1-4,0c-45.5-0.5-40.5,0.2-46.5,0.8
			c-0.3,0-0.7,0-1,0c-0.1,0-0.2,0-0.3,0c-0.3,0-0.5,0-0.8-0.1c-0.1,0-0.2,0-0.3,0c-0.3-0.1-0.6-0.1-1-0.2c0,0-0.1,0-0.1,0
			c-0.3-0.1-0.7-0.2-1-0.4c-0.1,0-0.2-0.1-0.4-0.1c-0.2-0.1-0.5-0.2-0.7-0.3c-0.1-0.1-0.3-0.1-0.4-0.2c-0.3-0.2-0.6-0.3-0.9-0.5
			c-0.1,0-0.1-0.1-0.2-0.1c0,0,0,0,0,0c-0.5,0.1-1,0.3-1.4,0.4c0,0-0.1,0-0.1,0c-0.9,0.3-1.7,0.6-2.5,1c0,0-0.1,0-0.1,0.1
			c-0.4,0.2-0.7,0.4-1.1,0.5c-0.1,0-0.1,0.1-0.2,0.1c-0.3,0.2-0.7,0.4-1,0.6c0,0,0,0,0,0c-0.3,0.2-0.6,0.5-0.8,0.7
			c0,0-0.1,0.1-0.1,0.1c-0.2,0.2-0.5,0.5-0.7,0.8c0,0.1-0.1,0.1-0.1,0.2c-0.2,0.3-0.4,0.6-0.6,0.9c-3.6,7-3.9,2.4-4.7,9.7
			c-0.5,5.3-1,9-2.9,10.4l-0.2,0.2c0,0-2.1,4.6,0.8,8.5c0,0-9.6-1.6-6.1-10c-0.4-1.4,0.4-3.9,1.8-8.3c2.3-7.6,2.4-12.5,2.4-12.5
			l-3.6,6c0,0-2,5-2.7,9.1c-0.4,2.7-2,3.9-3.7,4.2c-0.4,1.3-1.3,4.9,1,7.9c0,0-10-1.6-5.9-10.4c-0.8-1.5-0.8-3.6,0.7-6
			c2.6-4.3,2.6-7.9,2.6-7.9s8.1-9,8.6-10.9s8-1.9,10.5-5.4c0.1-0.1,0.2-0.3,0.3-0.4c-0.2-0.3-0.3-0.6-0.5-0.9
			c-4-7.7-7.2-31.3-35-47.8l-8.4,0.9c-4,0.6-9.2,1.7-10.8,3.8c-2.7,3.5-8,4.5-12.3,3.3c-0.2-0.1-0.4-0.1-0.6-0.2c0,0-0.1,0-0.1,0
			c-0.2-0.1-0.4-0.2-0.5-0.2c0,0-0.1,0-0.1,0c-0.2-0.1-0.3-0.2-0.5-0.3c0,0-0.1,0-0.1-0.1c-0.2-0.1-0.3-0.2-0.5-0.3
			c-0.1,0-0.1-0.1-0.2-0.1c-0.1-0.1-0.3-0.2-0.4-0.3c-0.7-0.5-1.4-1-2.1-1.5c0,0,0,0,0,0c-0.5-0.3-1-0.6-1.5-0.9c0,0,0,0,0,0
			c-0.3-0.1-0.5-0.3-0.8-0.4c0,0,0,0,0,0c-0.3-0.1-0.6-0.3-0.9-0.4c0,0,0,0,0,0c-0.3-0.1-0.6-0.2-0.9-0.3c0,0-0.1,0-0.1,0
			c-0.6-0.2-1.3-0.3-2-0.4c0,0-0.1,0-0.1,0c-0.4,0-0.7-0.1-1.1-0.1c0,0-0.1,0-0.1,0c-0.3,0.1-0.7,0.3-1,0.4
			c-0.1,0.1-0.3,0.1-0.4,0.2c-0.3,0.1-0.7,0.3-1,0.4c-0.1,0-0.2,0.1-0.2,0.1c-0.7,0.2-1.3,0.5-2,0.7c-0.1,0-0.2,0.1-0.4,0.1
			c-0.3,0.1-0.6,0.2-0.8,0.3c-0.2,0.1-0.3,0.1-0.5,0.2c-0.3,0.1-0.5,0.2-0.8,0.3c-0.2,0.1-0.4,0.1-0.6,0.2c-0.2,0.1-0.5,0.2-0.7,0.3
			c-0.3,0.1-0.7,0.2-1,0.3c-0.2,0.1-0.3,0.1-0.5,0.2c-0.2,0.1-0.4,0.1-0.7,0.2c-0.2,0.1-0.3,0.1-0.5,0.2c-0.2,0.1-0.4,0.1-0.7,0.2
			c-0.1,0-0.2,0.1-0.4,0.1c-0.3,0.1-0.6,0.2-0.9,0.3c-0.1,0-0.1,0-0.2,0.1c-0.2,0.1-0.4,0.1-0.6,0.2c-0.1,0-0.2,0-0.3,0.1
			c-0.2,0-0.3,0.1-0.5,0.1c-0.1,0-0.1,0-0.2,0c-0.2,0-0.4,0.1-0.6,0.1c-6.2,1-12.3,2.7-15.7-9.2c-1.9-6.9-2.7-9.3-2.1-10.5
			c-0.1-0.8,0.1-1,0.6-1.1c-1-1.8-2.4-5.1-1.1-8.4c0,0,0.8,0.3,1.9,1.2c0.1-0.2,0.1-0.3,0.2-0.5c0-0.9,0.1-1.9,0.5-2.8
			c0,0,1.6,0.6,3.2,2.5c-0.2-1.3-0.2-2.8,0.4-4.2c0,0,1.8,0.7,3.5,2.9c-0.4-1.5-0.4-3.3,0.2-5c0,0,1.9,0.7,3.7,3.1
			c-0.3-1.5-0.4-3.1,0.3-4.8c0,0,1.9,0.7,3.7,3.2c0,0,0.1,0,0.1-0.1c-0.3-1.5-0.3-3.1,0.3-4.7c0,0,1.6,0.6,3.2,2.5
			c-0.4-1.6-0.5-3.3,0.2-5.1c0,0,2,0.8,3.8,3.3c0.1-0.1,0.2-0.1,0.2-0.2c-0.4-1.6-0.5-3.4,0.2-5.2c0,0,1.6,0.6,3.2,2.5
			c0.9-0.7,1.9-1.4,2.8-2.1c0.2-4,0.3-14.3-3.6-21.8c-2.5-4.7-4.1-5.7-7.9-6.1c0.1,1.9-0.2,4.4-2,6.4c0,0-2.4-2.1-2.6-6.7
			c-0.2,0-0.4,0-0.7-0.1c0.1,2.1-0.2,4.8-2.1,6.9c0,0-2.6-2.3-2.8-7.4c-0.3,0-0.7-0.1-1-0.1c0.1,2.1-0.1,4.9-2,7
			c0,0-2.8-2.4-2.8-7.7c-0.3-0.1-0.6-0.1-1-0.2c0.2,2.2,0.1,5.4-2.1,7.8c0,0-3.2-2.8-2.9-8.9c-0.1,0-0.1,0-0.2,0
			c-0.2,0-0.3-0.1-0.5-0.1c0.2,2.2,0.2,5.5-2.1,7.9c0,0-2.1-1.9-2.7-5.9c-0.3,1.3-0.9,2.5-1.9,3.6c0,0-2.4-2.2-2.8-6.8
			c-0.3,0.8-0.8,1.6-1.4,2.2c0,0-2-1.8-2.7-5.5C2.7,45.7,2.1,44.4,1.8,42.7z"/>
		<g>
			<path fill="none" d="M1.8,42.7c-3-5,0.1-9.9,0.1-9.9s4.2-8.7,9.5-17.7S19.1,9,26.9,9.8c5.9,0.6,4.9,0.3,24.5,0.7
				c3.5-1,6.5-2.1,8.2-3c5.8-3.3,10.7-2.2,13-2c0.8,0.1,1.9,1.9,3.1,4.4c4.7-1.2,8.8-2.6,10.9-3.8c5.8-3.3,10.7-2.2,13-2
				c1.5,0.1,4.4,6.8,6.3,11.7c25.6,9.2,33.8,29.4,39.1,42.4c1.4,3.4,2.5,6.2,3.6,8.7c2.9-0.4,5.9-1,8.8-2c12-4,17.7-15.2,36.5-19.5
				c14.3-3.3,20.9,0.1,32.2,4.7c5.6-1.4,12.9-2.8,18.3-2.5c10.2,0.5,19,11.5,27.8,12.5s25.3,2.8,52.2,9.8s58,11.8,77-5.8
				c0,0-0.4,6.3-4.6,13.4c0,0.1-0.1,0.1-0.1,0.2c-0.1,0.2-0.3,0.5-0.5,0.7c-0.1,0.1-0.1,0.2-0.2,0.3c-0.2,0.2-0.3,0.5-0.5,0.7
				c-0.1,0.1-0.1,0.2-0.2,0.3c-0.3,0.5-0.7,1-1.1,1.5c0,0.1-0.1,0.1-0.1,0.2c-0.1,0.2-0.3,0.4-0.5,0.6c-0.1,0.2-0.3,0.3-0.4,0.5
				c-0.1,0.2-0.3,0.3-0.5,0.5c-0.2,0.2-0.3,0.3-0.5,0.5c-0.1,0.2-0.3,0.3-0.5,0.5c-0.2,0.2-0.4,0.4-0.6,0.6
				c-0.1,0.1-0.3,0.3-0.4,0.4c-0.3,0.2-0.5,0.5-0.8,0.7c-0.1,0.1-0.2,0.2-0.3,0.3c-0.4,0.3-0.7,0.6-1.1,0.9
				c-0.1,0.1-0.3,0.2-0.4,0.3c-0.3,0.2-0.5,0.4-0.8,0.6c-0.2,0.1-0.3,0.2-0.5,0.4c-0.3,0.2-0.5,0.4-0.8,0.6
				c-0.2,0.1-0.3,0.2-0.5,0.3c-0.3,0.2-0.6,0.4-0.9,0.6c-0.2,0.1-0.3,0.2-0.5,0.3c-0.5,0.3-1,0.6-1.5,0.9c-17.5,9.7-43,15-54.8,17
				c-0.3,0.1-0.7,0.1-1.1,0.2c-0.1,0-0.3,0-0.4,0c-0.3,0-0.5,0.1-0.8,0.1c-0.2,0-0.3,0-0.5,0.1c-0.3,0-0.6,0.1-0.9,0.1
				c-0.2,0-0.3,0-0.5,0c-0.3,0-0.6,0.1-1,0.1c-0.1,0-0.3,0-0.5,0c-0.4,0-0.8,0.1-1.2,0.1c-0.1,0-0.1,0-0.2,0
				c-2.4,0.2-5.1,0.4-7.9,0.6c-0.1,0-0.2,0-0.3,0c-0.5,0-0.9,0.1-1.4,0.1c-0.1,0-0.2,0-0.4,0c-0.5,0-0.9,0.1-1.4,0.1
				c-0.1,0-0.3,0-0.4,0c-0.5,0-1,0.1-1.4,0.2c-0.1,0-0.1,0-0.2,0c-1.7,0.2-3.3,0.4-5,0.7c0,0-0.1,0-0.1,0c-0.5,0.1-0.9,0.2-1.4,0.2
				c-0.2,0-0.3,0.1-0.5,0.1c-0.4,0.1-0.9,0.2-1.3,0.2c-0.2,0-0.4,0.1-0.6,0.1c-0.4,0.1-0.8,0.2-1.3,0.3c-0.2,0-0.4,0.1-0.6,0.1
				c-0.4,0.1-0.8,0.2-1.3,0.3c-0.2,0-0.3,0.1-0.5,0.1c-0.4,0.1-0.9,0.2-1.3,0.3c-0.1,0-0.2,0.1-0.3,0.1c-1.5,0.4-2.9,0.9-4.3,1.4
				c-0.1,0-0.3,0.1-0.4,0.1c-0.4,0.1-0.7,0.3-1.1,0.5c-0.2,0.1-0.4,0.2-0.5,0.2c-0.3,0.2-0.7,0.3-1,0.5c-0.2,0.1-0.4,0.2-0.6,0.3
				c-0.3,0.2-0.7,0.3-1,0.5c-0.2,0.1-0.4,0.2-0.6,0.3c-0.3,0.2-0.6,0.4-0.9,0.5c-0.2,0.1-0.3,0.2-0.5,0.3c-0.3,0.2-0.6,0.4-0.9,0.6
				c-0.1,0.1-0.3,0.2-0.4,0.3c-0.7,0.5-1.4,1-2,1.6c0,0-0.1,0.1-0.1,0.1c0.6,8.6,0,19.5-3.5,32.1c-9.3,33-10,21.3-6,34.3
				s-1.2,21.8-4.3,32.2c-0.4,1.5-0.9,2.8-1.2,4.1c0,0.1,0,0.1-0.1,0.2c-0.2,0.6-0.3,1.1-0.5,1.7c0,0.1,0,0.1-0.1,0.2
				c-0.2,0.6-0.3,1.1-0.5,1.6c0,0,0,0.1,0,0.1c-0.6,2.3-1,4.3-1.2,6.3c-0.3,3-0.1,6,0.7,9.7c2,8.8,1.2,13.7,2.2,25.7
				s-0.7,27.2,8.7,32.3c8.3,4.6,13.6,5.5,14.4,12.9c2.2,4.6,2.4,12.9,1.6,16.2c0,0-1.6,0.7-4.8-3.9c-1.2-1.7-2.4-2.8-3.5-3.7
				c-0.6,0.1-1.3,0.1-2,0.1c-9.8,0-5.5-8.3-21.2-9.5c0,0-3.2,2.5-3.2,6.7c0,3.3-2.3,5-6.7,5.6c-2.7,4.9-4.4,12.5-4.4,12.5
				c-0.7-0.3-4.8-9.2-4.8-14.7c-1.9-2.5-1.7-6.3-0.6-7.7c0,0-7.8,1.1-13.5,3.7c-0.2,0.1-0.5,0.3-0.7,0.4c-0.8,0.5-1.7,1-2.5,1.3
				c-1.8,1-3.6,1.3-5.3,1.3c-2.3,0.2-3.8-0.1-3.8-0.1s-1.7-0.7-2.5-1.2c-1.3,0.5-2.9,1.4-4.5,2.8c-4.4,3.8-5.8,2.6-5.8,2.6
				c0-3.6,2.4-11.8,5.8-15.7c0.4-2.2,2.1-4.4,6.1-6.1c12.8-5.3,29.3-15.2,26.5-30.3s-3.3-12.8-0.7-27.3c0.9-5.2,0.4-10-0.7-14.4l0,0
				c-1.3-5.2-3.4-9.7-5-13.6c-0.1-0.1-0.1-0.3-0.2-0.4c-0.1-0.2-0.1-0.3-0.2-0.5c-0.1-0.2-0.2-0.4-0.2-0.6c0-0.1-0.1-0.2-0.1-0.4
				c-0.1-0.3-0.2-0.6-0.3-0.9c0-0.1,0-0.2-0.1-0.2c-0.1-0.2-0.1-0.5-0.2-0.7c0-0.1-0.1-0.2-0.1-0.3c-0.1-0.2-0.1-0.4-0.2-0.6
				c0-0.1,0-0.2-0.1-0.3c-0.1-0.3-0.1-0.6-0.2-0.8c-1.2-7.5-2.5-13.7,0.3-21c0,0,0,0-0.1-0.1c0,0-0.1-0.1-0.1-0.1
				c0,0-0.1-0.1-0.1-0.1c-0.1-0.1-0.1-0.1-0.2-0.2c0,0-0.1-0.1-0.1-0.2c-0.1-0.1-0.2-0.2-0.3-0.4c0-0.1-0.1-0.1-0.1-0.2
				c-0.1-0.2-0.2-0.3-0.4-0.5c0,0-0.1-0.1-0.1-0.1c-0.8-1.1-1.8-2.8-2.8-5c0,0,0-0.1-0.1-0.1c-0.2-0.4-0.4-0.8-0.6-1.2
				c0-0.1-0.1-0.2-0.1-0.2c-0.2-0.4-0.4-0.9-0.6-1.3c0-0.1-0.1-0.2-0.1-0.2c-0.2-0.5-0.4-1-0.6-1.5c0,0,0-0.1,0-0.1
				c-0.6-1.7-1.2-3.5-1.7-5.5c0,0,0,0,0,0c0,0,0,0,0,0c-0.7,0.2-1.5,0.5-2.2,0.7c-0.3,0.1-0.5,0.2-0.8,0.2c-0.7,0.2-1.3,0.4-2,0.5
				c-0.4,0.1-0.7,0.2-1.1,0.3c-0.6,0.1-1.3,0.3-1.9,0.4c-0.5,0.1-0.9,0.2-1.4,0.3c-0.6,0.1-1.2,0.2-1.8,0.3
				c-0.5,0.1-1.1,0.2-1.7,0.2c-0.6,0.1-1.2,0.2-1.8,0.2c-0.6,0.1-1.3,0.1-2,0.2c-0.5,0-1.1,0.1-1.6,0.1c-0.8,0.1-1.6,0.1-2.4,0.1
				c-0.5,0-0.9,0.1-1.4,0.1c-1.3,0-2.6,0.1-4,0c-45.5-0.5-40.5,0.2-46.5,0.8c-0.3,0-0.7,0-1,0c-0.1,0-0.2,0-0.3,0
				c-0.3,0-0.5,0-0.8-0.1c-0.1,0-0.2,0-0.3,0c-0.3-0.1-0.6-0.1-1-0.2c0,0-0.1,0-0.1,0c-0.3-0.1-0.7-0.2-1-0.4
				c-0.1,0-0.2-0.1-0.4-0.1c-0.2-0.1-0.5-0.2-0.7-0.3c-0.1-0.1-0.3-0.1-0.4-0.2c-0.3-0.2-0.6-0.3-0.9-0.5c-0.1,0-0.1-0.1-0.2-0.1
				c0,0,0,0,0,0c-0.5,0.1-1,0.3-1.4,0.4c0,0-0.1,0-0.1,0c-0.9,0.3-1.7,0.6-2.5,1c0,0-0.1,0-0.1,0.1c-0.4,0.2-0.7,0.4-1.1,0.5
				c-0.1,0-0.1,0.1-0.2,0.1c-0.3,0.2-0.7,0.4-1,0.6c0,0,0,0,0,0c-0.3,0.2-0.6,0.5-0.8,0.7c0,0-0.1,0.1-0.1,0.1
				c-0.2,0.2-0.5,0.5-0.7,0.8c0,0.1-0.1,0.1-0.1,0.2c-0.2,0.3-0.4,0.6-0.6,0.9c-3.6,7-3.9,2.4-4.7,9.7c-0.5,5.3-1,9-2.9,10.4
				l-0.2,0.2c0,0-2.1,4.6,0.8,8.5c0,0-9.6-1.6-6.1-10c-0.4-1.4,0.4-3.9,1.8-8.3c2.3-7.6,2.4-12.5,2.4-12.5l-3.6,6c0,0-2,5-2.7,9.1
				c-0.4,2.7-2,3.9-3.7,4.2c-0.4,1.3-1.3,4.9,1,7.9c0,0-10-1.6-5.9-10.4c-0.8-1.5-0.8-3.6,0.7-6c2.6-4.3,2.6-7.9,2.6-7.9
				s8.1-9,8.6-10.9s8-1.9,10.5-5.4c0.1-0.1,0.2-0.3,0.3-0.4c-0.2-0.3-0.3-0.6-0.5-0.9c-4-7.7-7.2-31.3-35-47.8l-8.4,0.9
				c-4,0.6-9.2,1.7-10.8,3.8c-2.7,3.5-8,4.5-12.3,3.3c-0.2-0.1-0.4-0.1-0.6-0.2c0,0-0.1,0-0.1,0c-0.2-0.1-0.4-0.2-0.5-0.2
				c0,0-0.1,0-0.1,0c-0.2-0.1-0.3-0.2-0.5-0.3c0,0-0.1,0-0.1-0.1c-0.2-0.1-0.3-0.2-0.5-0.3c-0.1,0-0.1-0.1-0.2-0.1
				c-0.1-0.1-0.3-0.2-0.4-0.3c-0.7-0.5-1.4-1-2.1-1.5c0,0,0,0,0,0c-0.5-0.3-1-0.6-1.5-0.9c0,0,0,0,0,0c-0.3-0.1-0.5-0.3-0.8-0.4
				c0,0,0,0,0,0c-0.3-0.1-0.6-0.3-0.9-0.4c0,0,0,0,0,0c-0.3-0.1-0.6-0.2-0.9-0.3c0,0-0.1,0-0.1,0c-0.6-0.2-1.3-0.3-2-0.4
				c0,0-0.1,0-0.1,0c-0.4,0-0.7-0.1-1.1-0.1c0,0-0.1,0-0.1,0c-0.3,0.1-0.7,0.3-1,0.4c-0.1,0.1-0.3,0.1-0.4,0.2
				c-0.3,0.1-0.7,0.3-1,0.4c-0.1,0-0.2,0.1-0.2,0.1c-0.7,0.2-1.3,0.5-2,0.7c-0.1,0-0.2,0.1-0.4,0.1c-0.3,0.1-0.6,0.2-0.8,0.3
				c-0.2,0.1-0.3,0.1-0.5,0.2c-0.3,0.1-0.5,0.2-0.8,0.3c-0.2,0.1-0.4,0.1-0.6,0.2c-0.2,0.1-0.5,0.2-0.7,0.3c-0.3,0.1-0.7,0.2-1,0.3
				c-0.2,0.1-0.3,0.1-0.5,0.2c-0.2,0.1-0.4,0.1-0.7,0.2c-0.2,0.1-0.3,0.1-0.5,0.2c-0.2,0.1-0.4,0.1-0.7,0.2c-0.1,0-0.2,0.1-0.4,0.1
				c-0.3,0.1-0.6,0.2-0.9,0.3c-0.1,0-0.1,0-0.2,0.1c-0.2,0.1-0.4,0.1-0.6,0.2c-0.1,0-0.2,0-0.3,0.1c-0.2,0-0.3,0.1-0.5,0.1
				c-0.1,0-0.1,0-0.2,0c-0.2,0-0.4,0.1-0.6,0.1c-6.2,1-12.3,2.7-15.7-9.2c-1.9-6.9-2.7-9.3-2.1-10.5c-0.1-0.8,0.1-1,0.6-1.1
				c-1-1.8-2.4-5.1-1.1-8.4c0,0,0.8,0.3,1.9,1.2c0.1-0.2,0.1-0.3,0.2-0.5c0-0.9,0.1-1.9,0.5-2.8c0,0,1.6,0.6,3.2,2.5
				c-0.2-1.3-0.2-2.8,0.4-4.2c0,0,1.8,0.7,3.5,2.9c-0.4-1.5-0.4-3.3,0.2-5c0,0,1.9,0.7,3.7,3.1c-0.3-1.5-0.4-3.1,0.3-4.8
				c0,0,1.9,0.7,3.7,3.2c0,0,0.1,0,0.1-0.1c-0.3-1.5-0.3-3.1,0.3-4.7c0,0,1.6,0.6,3.2,2.5c-0.4-1.6-0.5-3.3,0.2-5.1
				c0,0,2,0.8,3.8,3.3c0.1-0.1,0.2-0.1,0.2-0.2c-0.4-1.6-0.5-3.4,0.2-5.2c0,0,1.6,0.6,3.2,2.5c0.9-0.7,1.9-1.4,2.8-2.1
				c0.2-4,0.3-14.3-3.6-21.8c-2.5-4.7-4.1-5.7-7.9-6.1c0.1,1.9-0.2,4.4-2,6.4c0,0-2.4-2.1-2.6-6.7c-0.2,0-0.4,0-0.7-0.1
				c0.1,2.1-0.2,4.8-2.1,6.9c0,0-2.6-2.3-2.8-7.4c-0.3,0-0.7-0.1-1-0.1c0.1,2.1-0.1,4.9-2,7c0,0-2.8-2.4-2.8-7.7
				c-0.3-0.1-0.6-0.1-1-0.2c0.2,2.2,0.1,5.4-2.1,7.8c0,0-3.2-2.8-2.9-8.9c-0.1,0-0.1,0-0.2,0c-0.2,0-0.3-0.1-0.5-0.1
				c0.2,2.2,0.2,5.5-2.1,7.9c0,0-2.1-1.9-2.7-5.9c-0.3,1.3-0.9,2.5-1.9,3.6c0,0-2.4-2.2-2.8-6.8c-0.3,0.8-0.8,1.6-1.4,2.2
				c0,0-2-1.8-2.7-5.5C2.7,45.7,2.1,44.4,1.8,42.7z"/>
			<path fill="#231F20" d="M1.8,38.9C1,37.3,0.7,36,0.5,34.1c0,2.5,0,5,0,7.5c0.2-3.1,1.6-5.6,3-8.3c3.1-6.1,6.1-12.6,10.4-18
				c4.1-5.2,12-1.6,17.7-1.4c9,0.4,18.8,1.4,27.1-2.2c5-2.2,8.5-3,13.9-2.5c3.1,0.3,1,5,4.9,4c3.1-0.8,6.3-1.8,9.1-3.3
				C90.2,8,95.9,6.3,100,8.1c1.7,0.7,2.8,4.4,3.5,5.9c0.7,1.4,1.2,2.9,1.8,4.3c0.9,2.1,3,2.3,5.1,3.2c10.3,4.4,18.8,12.1,25,21.4
				c5.2,7.8,8.5,16.7,12,25.3c0.8,2,0.4,2.7,2.8,2.3c1.8-0.3,3.5-0.7,5.3-1.2c2.4-0.6,4.7-1.6,6.8-2.8c4.3-2.3,8.1-5.6,12.1-8.4
				c8.6-6.1,18.6-9.8,29.2-10.1c4.5-0.2,8.8,0.9,13,2.3c2.2,0.7,4.4,1.6,6.5,2.5c3.3,1.4,5.4,0.5,8.9-0.2c4.9-1,10-1.7,14.9-0.8
				c5,0.9,9.4,4.2,13.6,6.9c3.6,2.3,7.3,4.6,11.6,5.3c2.8,0.5,5.7,0.7,8.6,1c20.5,2.7,40.2,8.7,60.4,12.6c20.2,3.9,43.9,5,60.2-9.7
				c0-2.5,0-5,0-7.5c-1.5,19.2-19.5,28.3-35.4,34.1c-11.1,4-22.6,6.7-34.1,8.9c-7.9,1.5-16,1.7-24,2.6c-8.1,0.9-16.6,2.4-23.8,6.4
				c-1.7,1-3.3,2.1-4.8,3.4c-0.4,0.4-0.1,2.3-0.1,2.8c0,5.2,0.1,9.9-0.5,15.1c-1.5,11.9-5.4,23.5-9.5,34.7
				c-1.6,4.5-1.9,7.7-1.8,12.5c0,4.8,2.8,9.5,3.5,14.2c0.8,4.9-3,11.9-4.6,16.4c-1.7,5-3.4,10.3-4.3,15.5
				c-1.6,8.9,0.9,17.5,1.7,26.2c1.2,11.6,0.8,23.3,1.9,34.9c0.5,4.9,1.7,9.8,5,13.5c3.6,4,9.8,5,13.9,8.4c3.4,2.8,4.3,9,4.9,13
				c1.2,8,0.5-2.3,0,1.4c-0.1,0.9,0.1,0.8-0.4,0.9c-1.9,0.2-3.7-2.8-4.6-4c-1.7-2.2-2.7-3.6-5.5-3.6c-1.7,0-3.3-0.3-4.8-1.1
				c-2.6-1.3-4.3-4.3-6.8-5.9c-1.9-1.2-4.2-1.7-6.4-2.2c-2.6-0.5-3.2-0.6-4.8,1.4c-1.6,2.1-1.3,4.5-1.9,6.9
				c-0.7,2.6-4.2,3.3-6.4,3.6c-1.3,0.2-3,7.4-3.4,8.7c-0.2,0.8-0.5,4.6-1.4,3.3c-1.6-2.3-2.4-5.3-3.3-8c-0.6-2-1-4-1.1-6.1
				c-0.1-1.5-1.3-3-1.4-4.9c0,2.5,0,4.9,0,7.4c0.1-1.1,0.3-1.9,0.8-2.9c0.4-0.7-0.4-7.4,0-7.5c-3.2,0.5-6.3,1.2-9.4,2.1
				c-4.4,1.3-8,4.5-12.7,4.6c-1.4,0-3,0.2-4.3-0.3c-2.5-1-3-0.8-5.4,0.8c-1.4,0.9-4.9,4.9-7,3.6c0,2.5,0,4.9,0,7.4
				c0.3-5.1,2.2-10.5,5.1-14.7c1.4-2,1.9-3.8,3.9-5.4c2.4-1.9,6-2.8,8.7-4.2c9.3-4.5,19.4-11.6,20.9-22.6c1.1-8.2-1.2-16.1-2.4-24.1
				c-0.3-2.3,0.4-5.4-0.1,1.8c0.1-1,0.2-2,0.4-3c0.4-3,1.1-6.1,1.5-9.1c0.5-3.6,0.3-7.5,0.2-11.1c-0.4-10-5.6-18-7.8-27.5
				c-0.7-2.9-1-6-1.3-9c-0.2-1.9,1.5-3.9,1.5-5.8c0-1.8,0.8-5.9-0.3-7.3c-1.9-2.4-3.3-5.1-4.6-7.9c-0.7-1.5-1.3-3.1-1.8-4.7
				c-1.2-3.3,0-4.6-3.5-3.6c-11.3,3.4-22.9,3.1-34.6,3c-9.7-0.1-19.4-0.3-29.1,0.2c-3,0.2-6.1,1.1-9.1,0.7c-1.7-0.2-3.2-1-4.6-1.8
				c-0.9-0.5-4.5,1.7-5.4,2.1c-2,1.2-3,2.7-4.1,4.8c-0.9,1.7-2.8,2.9-3.4,4.8c-1,3.4-0.8,7.2-1.6,10.6c-0.5,2.2-2.1,3.4-2.6,5.6
				c-0.8,4.1-0.7,10.2,1.4,13.7c0-2.5,0-5,0-7.5c-3.4-0.6-6.6-2.8-6.9-6.5c0,2.5,0,4.9,0,7.4c0.4-3.9,1.2-7.5,0.7-11.5
				c0,2.5,0,4.9,0,7.4c0.4-6.8,4-13.2,4.3-20.2c0.1-1.7-0.9-5.9,0-7.4c-1.2,2-2.4,4-3.6,6c-2.1,3.5-1.7,8.1-3.7,11.6
				c-1,1.9-2.6,1-3.1,3.3c-0.3,1.2-0.2,2.6-0.2,3.9c0,3.6-0.4,6.8,1.5,10c0-2.5,0-5,0-7.5c-3.3-0.6-6.8-2.7-6.8-6.4c0,2.3,0,4.7,0,7
				c0.3-2.3,1-3.9,1-6.2c0-2.4-0.2-4.4-0.6-6.8c0,2.5,0,5,0,7.5c0.3-4.2,3.6-7.5,3.8-11.9c0.1-1.4,4.2-4.9,5.1-6
				c1.5-1.8,2.9-5.1,4.9-6.1c3.4-1.7,6.9-1.6,9.5-4.7c0.5-0.7,0.4-6.7,0-7.5c-2.4-4.3-3.6-9.1-5.4-13.6c-3-7.5-7.1-14.4-12.3-20.5
				c-3.2-3.7-6.9-7-10.8-10c-2.2-1.7-4.6-3.2-7-4.7c-0.6-0.4-3.1,0.3-3.7,0.4c-3,0.3-5.9,0.6-8.9,1.3c-5,1.1-7.4,5-12.1,6.4
				c-6.5,2-9.1-2.2-14.3-4.5c-5-2.2-8.9,0.2-13.8,1.9c-4.4,1.5-9.1,3-13.8,2.7c-7.9-0.5-10.4-12.8-11.1-19c0,1.3,0,2.5,0,3.8
				c0-0.2,0-0.4,0-0.5c0,1.3,0,2.5,0,3.8c0.1-0.8,0.1-1.5,0.9-2c0.4-0.3,0.3-6.9,0-7.5c-0.9-1.7-1.4-3.3-1.6-5.2c0,2.5,0,4.9,0,7.4
				c-0.6-2.6-0.4-3.5,0.7-3c0.7,0.3,1.4,1.7,1.8,0.5c0.1-0.4-0.2-3.1,0.8-2.7c1.2,0.5,2,1.5,2.9,2.4c-0.8-0.9,0.1-6.1,0-7.5
				c0-0.5-0.1-0.9-0.1-1.4c0,2.5,0,5,0,7.5c0-0.3,0-3.1,0.7-2.7c1.4,0.6,2.4,1.7,3.3,2.8c-0.9-1.1,0.2-5.9,0-7.5
				c-0.1-0.5-0.2-1.1-0.2-1.6c0,2.5,0,4.9,0,7.4c0.1-5.3,2-2.7,4.2-0.1c-0.9-1.1,0.2-5.9,0-7.5c-0.1-0.5-0.1-1-0.2-1.5
				c0,2.5,0,4.9,0,7.4c0.1-3.5-0.3-3.5,1.3-2.7c0.5,0.3,3,2.7,3.1,2.7c0.6-0.3,0.1-6.6,0-7.5c-0.1-0.5-0.1-1-0.2-1.5
				c0,2.5,0,4.9,0,7.4c0.2-4.7,1.4-2.8,3.7-0.6c-0.9-0.9,0.2-6,0-7.5c-0.1-0.5-0.2-1.1-0.3-1.6c0,2.3,0,4.7,0,7
				c0.2-8.3,4.5,3.4,4.6-1c0-2.7,0.1-5.4-0.3-8c0,2.3,0,4.7,0,7c0.1-4.7,1.5-2.7,3.6-0.6c1.4,1.4,2.8-3.5,2.9-4.3
				c0.1-3.4,0.1-6.8,0-10.1c-0.3-8.1-1.7-21.8-11.6-23.2c0,0,0,3.6,0,3.8c0,0.4,0,0.8,0,1.2c0-1.3,0-2.5,0-3.8
				c-0.1,0.8-1.1,6.1-2.3,4.7c-1.2-1.3-2-6.3-2.9-6.4c0,0,0,4.5,0,4.7c0,0.4,0,0.9,0,1.3c0-1.6,0-3.2,0-4.7c-0.1,1.2-1,7-2.8,4.8
				c-1.4-1.7-1.5-6.5-3.2-6.7c0.1,0,0,6.7,0,7.4c-0.2-6.6-0.1-3.7-1.2-1.5c-0.7,1.4-0.6,1.3-1.2,0.7c-1.8-1.9-2.3-4.7-2.4-7.2
				c0,0,0-0.1,0-0.1c-0.3-0.1-0.6-0.1-1-0.2c0.2,0-0.1,6.6,0,7.4c-0.7-10.4,0.1,3-2.6-0.2c-1.6-1.9-2.1-4.3-2.3-6.7
				c0,0.9,0,1.8,0,2.8c0-0.5,0-1.1,0-1.6c0-0.1,0.1-2.7,0-2.8c-0.2,0-0.4-0.1-0.6-0.2c0.2,0.1-0.1,6.7,0,7.5c0,0.4,0.1,0.8,0.1,1.2
				c0-2.3,0-4.7,0-7c0,2.5-0.7,4.3-2.1,6.2c-0.1,0.1-1.4-1.9-1.4-1.9c-0.8-1.2-0.9-5.5-1.7-2.7c-0.5,1.6-1.1,3-2.3,1.4
				c-1-1.2-1.4-2.8-1.8-4.3c-1.4-5.1-0.2,2.1-1.8,0.5C3.5,46.1,2.5,41.9,1.8,38.9c0.5,2.4-0.6,5.1,0,7.5c0.6,2.6,1.5,5.3,2.7,7.7
				c1.2,2.4,1.7,1.6,2.7-0.5c-0.8,1.6,1.5,5.2,2.5,6.4c1.8,2.3,1.5-6.6,2.6-1.6c0.3,1.5,1.2,3.2,2.4,4.3c0.5,0.5,2.1-5.3,2.1-6
				c0-3.2,0.1-6.3-0.1-9.5c0,2.5,0,5,0,7.5c0.2,0.1,0.4,0.1,0.6,0.2c0-0.9,0-1.8,0-2.8c0,4-0.2,8.6,2.9,11.6
				c0.8,0.8,2.2-6.8,2.2-7.8c0-2.5,0.1-5-0.1-7.4c0,2.5,0,4.9,0,7.4c2.3,0.4,2.6,13.8,5.5,4.4c1-3.2,0.4-7.5,0.3-10.8
				c0,2.5,0,4.9,0,7.4c1.6,0.2,1.6,3.6,2.3,5.3c0.9,1.9,1.2,2.7,2.5,0.9c1.9-2.6,1.2-7.3,1.2-10.3c0,1.6,0,3.2,0,4.7
				c1.4,0.1,1.6,9.1,4.2,5.6c1.6-2.3,1.1-6.3,1.1-8.9c0,1.3,0,2.5,0,3.8c4.1,0.6,5.9,2.6,7.9,6.1c1.2,2.2,1.9,4.7,2.5,7.1
				c0.4,1.4,0.6,2.9,0.8,4.4c0.2,1.1,0.2,6.9,0.4,2.2c-0.7,1.1-1.7,2-2.8,2.7c0.3-0.2-2.6-2.2-2.9-2.3c-0.9-0.5-0.8,3.7-0.8,3.9
				c0,2.9-0.2,5.8,0.3,8.6c0-2.5,0-5,0-7.5c-0.1,0.1-3-2.5-3.8-3c-0.8-0.5-0.7,3.7-0.7,3.9c-0.1,2.9-0.2,5.8,0.3,8.6
				c0-2.5,0-5,0-7.5c-1-1-1.9-1.9-3.2-2.5c-0.3-0.1-0.5,4-0.5,4.3c0,2.6-0.1,5.3,0.2,7.9c0-2.5,0-5,0-7.5c0.1,0-3.1-2.7-3.6-3
				c-0.8-0.4-0.7,3.4-0.7,3.7c0,2.8-0.2,5.7,0.2,8.5c0-2.5,0-5,0-7.5c-1.1-1.3-2.2-2.4-3.7-3.1c-0.3-0.1-0.5,4.2-0.5,4.5
				c0,2.7-0.1,5.3,0.3,8c0-2.5,0-5,0-7.5c-1-1.2-2.1-2.3-3.5-2.9c-0.2-0.1-0.5,3.3-0.5,3.9c0,2.6-0.1,5.2,0.1,7.8c0-2.5,0-5,0-7.5
				c-0.9-1-1.8-1.7-2.9-2.4c-0.7-0.4-0.8,2.7-1,3.2c0.1-0.2-1.6-1.1-1.9-1.2c-0.4-0.2-0.5,3.8-0.5,3.7c-0.1,4.3-0.4,8.3,1.6,12.2
				c0-2.5,0-5,0-7.5c-1.5,0.9-0.9,4.8-0.9,6.2c0,3.5,0.5,6.3,1.4,9.6c1.3,4.5,2.3,9.6,6.6,12.2c2.9,1.8,6.9,0.8,10,0.3
				c4.8-0.8,9.5-2.9,14-4.6c5-1.8,8.9,2.4,13,4.6c3.2,1.8,7.5,1.1,10.6-0.3c2.2-1,3.4-3.2,5.6-4.2c2.5-1.2,5.5-1.6,8.2-2
				c2.6-0.4,5.3-0.6,7.9-0.8c1.8-0.2,4.7,2.6,6.2,3.6c2.5,1.8,4.9,3.8,7.2,5.9c7,6.3,12.2,14.3,16.1,22.9c2.4,5.3,3.7,11.2,6.5,16.3
				c0-2.5,0-5,0-7.5c-1.6,1.9-3.5,2.8-5.8,3.5c-1.6,0.5-4.1,0.7-5,2.3c-2.1,3.6-5,6.7-7.7,9.9c-0.9,1-0.9,1.1-1.1,2.4
				c-0.5,3.4-2.6,6.1-3.6,9.3c-0.8,2.9-0.6,8,0.4,10.8c0-2.5,0-5,0-7.5c-2.6,6.4-2.3,16.4,5.9,17.9c-0.4-0.1,0.4-6.7,0-7.5
				c-0.8-1.4-1.2-2.4-1.5-4c0,0.4,0,0.7,0,1.1c0-0.4,0-0.8,0-1.2c0,2.1,0,4.3,0,6.4c0.1-0.9,0.3-1.8,0.5-2.7
				c0.7-0.1,1.3-0.4,1.9-0.8c0.6-0.5,1.1-1.2,1.4-1.9c1.4-2.5,1.5-6.3,2.5-9.1c0.9-2.7,2.7-5,4.1-7.5c0-2.5,0-4.9,0-7.4
				c-0.4,9.8-5.4,18.3-4.2,28.2c0-2.5,0-5,0-7.5c-2.3,6.4-2,16.1,6.1,17.5c-0.4-0.1,0.5-6.7,0-7.5c-0.9-1.6-1.4-2.7-1.5-4.6
				c0,2.3,0,4.7,0,7c0.3-2.9,1.8-4.1,2.7-6.7c1.2-3.6,0-8.9,2.2-12c3.8-5.2,5.9-8.4,12.3-10.4c0.6-0.2,4,1.7,4.9,1.9
				c1.3,0.2,2.6,0,3.8-0.2c1.6-0.2,3.3-0.4,4.9-0.5c15-0.9,30.1,0.6,45.2-0.2c4.6-0.2,9.2-0.8,13.7-1.7c1.6-0.3,3.3-0.8,4.9-1.2
				c2.9-0.9,2.1-0.8,3,2.2c1.5,5,3.8,10.1,7.1,14.2c0-2.5,0-5,0-7.5c-2.5,7.3-2.1,15.9-1.1,23.5c1.1,8.2,4.7,14.9,7.1,22.8
				c1.8,5.9,0.9,9.7-0.1,15.8c-0.4,2.7-0.5,5.4-0.5,8.2c0,7.6,2.2,14.6,2.8,22.1c0-0.4,0-0.7,0-1.1c0-5.5-0.4-1.7-0.8-0.3
				c-0.3,1.2-0.9,2.3-1.4,3.3c-1.3,2.6-3.4,4.8-5.4,6.8c-4.1,4-9.3,6.9-14.5,9.4c-2.5,1.2-5.1,2.2-7.5,3.6c-2.4,1.5-3.1,4.3-4.6,6.5
				c-2.7,3.9-4.2,9.3-4.4,14c0,1-0.7,7,0,7.4c2,1.2,5.7-2.6,7-3.6c2.1-1.7,3.1-1.8,5.4-0.8c1.3,0.6,3,0.4,4.3,0.3
				c4.7-0.2,8.4-3.2,12.7-4.6c3-1,6.2-1.7,9.4-2.1c0-2.5,0-5,0-7.5c-1.4,2.7-0.8,6.4-0.8,9.3c0,4.4,1.6,9.3,3,13.4
				c0.7,2.1,1.5,4.2,2.5,6.1c0.6,1.2,0.7,1.3,1,0c0.5-2.2,1.2-4.3,1.9-6.4c0.5-1.3,1-2.6,1.6-3.8c0.8-1.8,2.6-1.5,4.3-2.2
				c2-0.8,2.8-2.6,3-4.6c0.2-2.5,1-4.4,2.7-6.2c2.2-2.4,10,1.8,12,3.5c2.1,1.8,3.4,4,6.1,5.1c1.7,0.7,3.8,0.5,5.6,0.4
				c1.7-0.1,5,5.7,6.2,6.7c3,2.8,2.6-2,2.6-3.9c0.1-3.7,0.2-7.4-0.2-11.1c-0.5-4.4-1.4-10.3-4.3-13.8c-3.4-4.1-9.7-5.2-13.8-8.4
				c-8.3-6.4-6.1-22-6.8-31c-0.4-5.7-0.4-11.3-0.9-17c-0.2-2.5-0.5-4.9-1-7.3c-0.7-3.9-0.8-6,0.2-9.9c1.5-6.1,3.8-11.9,5.7-17.9
				c1.9-5.7,2.4-11.2,2.4-17.2c0-5.2-0.7-10-2.3-15c-0.3-1-0.7-2-1-3c-1.4-4.3-0.1,2.9-0.3,4.3c0.4-2.5,1.7-4.9,2.5-7.3
				c2.4-6.6,4.4-13.4,6.2-20.2c3.3-12.2,3.8-25,3-37.6c0,2.5,0,4.9,0,7.4c8.2-7.1,19.6-8.9,30.1-10c11.4-1.2,22.2-2.1,33.4-4.7
				c21.5-4.9,56.6-13.2,58.6-40.7c0.1-1.3-0.8-6.8,0-7.5c-19.3,17.3-47.9,12.8-71,7.3c-12.9-3.1-25.7-6.4-38.9-8.7
				c-7.7-1.3-16.7-1.1-23.9-4c-5.1-2-9.5-5.8-14.3-8.4c-5.8-3.2-11.6-3.1-18.1-2.2c-3.1,0.4-6.2,1.1-9.2,1.9
				c-1.6,0.4-6.4-2.6-8.1-3.2c-5.6-2.1-11.3-3-17.3-2.6c-12.3,0.9-22.2,7-31.8,14.1c-3.6,2.7-7.3,5-11.5,6.5c-1.7,0.6-3.5,1-5.3,1.4
				c-1.9,0.4-3.2,1.3-4-0.7c-1.3-3-2.5-6-3.7-9c-7.4-18.1-18.2-32.8-36.9-40.2c-3.9-1.6-4.2-9-7.4-12.1c-0.8-0.8-4-0.5-5-0.5
				c-3,0-5.8,1-8.4,2.3c-1.9,1-3.9,1.7-5.9,2.3c-1.6,0.5-3.3,1-5,1.4c0.1,0-1.8-3.3-2.1-3.6c-2.1-3-10-0.7-12.5,0.3
				c-2.2,0.9-4.2,2-6.4,2.8c-3.4,1.2-6.6,1-10.1,0.9c-3.7-0.1-7.4-0.1-11.1-0.1C28.4,6.4,23.2,4.6,18.2,5c-4.4,0.4-6.9,6.5-8.8,9.7
				c-2.6,4.6-5.1,9.2-7.4,13.9c-2.4,4.9-2.6,12.9-0.3,17.8C0.9,44.4,2.8,41,1.8,38.9z"/>
		</g>
	</g>
	<path fill="#F3EBAE" stroke="#231F20" d="M27.7,51.7c0,0,1.9,5.9-1.5,9.7c0,0-3.5-3.1-2.6-9.9L27.7,51.7z"/>
	<path fill="#F3EBAE" stroke="#231F20" d="M22.1,50.5c0,0,1.9,5.9-1.5,9.7c0,0-3.5-3.1-2.6-9.9L22.1,50.5z"/>
	<path fill="#F3EBAE" stroke="#231F20" d="M16.6,49.7c0,0,1.9,5.9-1.5,9.7c0,0-3.5-3.1-2.6-9.9L16.6,49.7z"/>
	<path fill="#F3EBAE" stroke="#231F20" d="M12.1,47c0,0,1.9,5.9-1.5,9.7c0,0-3.5-3.1-2.6-9.9L12.1,47z"/>
	<path fill="#F3EBAE" stroke="#231F20" d="M38.7,52.5c0,0,1.9,5.9-1.5,9.7c0,0-3.5-3.1-2.6-9.9L38.7,52.5z"/>
	<path fill="#F3EBAE" stroke="#231F20" d="M34.1,51.5c0,0,1.9,5.9-1.5,9.7c0,0-3.5-3.1-2.6-9.9L34.1,51.5z"/>
	<path fill="#F3EBAE" stroke="#231F20" d="M33.2,51.7c0,0,1.9,5.9-1.5,9.7c0,0-3.5-3.1-2.6-9.9L33.2,51.7z"/>
	<path fill="#201E21" stroke="#231F20" d="M56.6,34.6c0,0-13,2-7.3,5.7C49.2,40.3,50.9,37,56.6,34.6z"/>
	<g>
		<path fill="#231F20" d="M122.8,289c0.8-1.1,2.2-2,4.5-2.4c9.8-2,13.7,1,24.8-2.2s23.7-13.3,25.2-25.5s5.5-19-5-23.2
			s-26.5-18.3-29.8-23s-7.3-14.2-11.8-19.5s-6.2-7.5-4.7-14.7s2-34.3,15.7-45.2l39,33.2c0,0-9.7,9.5-3.2,15.3s15.7,16.7,16.2,24
			s-0.5,14.2,10.2,17.5s4.3,13.3,2.5,19.3s-6.7,13.2-5,21s2.2,11.8,2.2,11.8s3.2,8.7,6.8,9.3c2.2,0.4,3.1,1.9,2.9,3.6
			c1.7,2,2.4,7,2.1,9c0,0-0.8,0.5-2.7-1.8c-1.2-1.4-2.3-2-3.1-2.2c-1.5,1.1-2.6,0.4-5.8-4.2c-4.2-6.2-8.2-9.8-8.2-9.8
			s-2.5,17-5,18.8s-6.3,4.8-8.2,8.3s-5,2.8-7.7,3.2c-0.5,0.1-1,0.1-1.7,0c-1.1,0.7-2.6,1.8-4,3.8c-2.8,4-4.1,3.4-4.1,3.4
			c-0.6-2.4-0.6-7.5,0.5-11.5c-0.2-0.5-0.2-1.2-0.2-1.8c0,0-10.5,2.2-15.3,3.5s-13.3,1.3-13.3,0.8c0-0.1-0.1-0.1-0.2-0.2
			c-0.8-0.1-3.6-0.2-7.1,2.1c-4,2.7-5.1,1.6-5.1,1.6c0.3-2,1.6-5.6,3.5-8.7c-1.2,0.1-2.5-0.2-3-1.4c-0.2-0.5-0.5-1.1-0.9-1.9
			c-1.1-0.2-3.7-0.5-7,1c-4.4,2-5.3,0.7-5.3,0.7C112.7,297.7,118.5,289.2,122.8,289z"/>
		<path fill="#201E21" d="M137.4,126.3l0.4,0C137.8,126.3,137.7,126.2,137.4,126.3z M66,183.8c-1.4-3.4,0.3-6.3,1-7.4
			c1.6,0.2,3.4-0.5,4.4-2.9c1.6-3.5,4.6-7.5,4.6-7.5l4.8-4.5c0,0-1.3,4.4-5.3,10.6c-2.3,3.6-3.6,5.6-3.6,7
			c-5.3,6.7,3.2,10.5,3.2,10.5c-1.7-4.2,1.3-7.8,1.3-7.8l0.2-0.2c2-0.8,3.4-4,5.1-8.6c2.4-6.3,1.6-2.1,6.6-7.5
			c5-5.4,17.3-0.2,27.8-4.9c10.5-4.7,15.3-26,17.9-30.7c1.7-3.1,2.8-3.8,3.3-3.9l-30.1-3c0,0-2.2,8.1-3.4,12.4
			c-1.3,4.3,5.3,6.7,1.9,9.7c-3.4,2.9-11.6,3.6-14.7,6c-3.1,2.5-10,0.6-10.9,2.2c-1,1.6-10.6,7.6-10.6,7.6s-0.9,3.3-4.3,6.5
			c-2,1.8-2.4,3.7-2.1,5.2C57.2,179.8,66,183.8,66,183.8z"/>
	</g>
	<path fill="#F3EBAE" stroke="#231F20" d="M39.3,96.3c0,0-3.9-5-2-9.8c0,0,4.5,1.7,6.1,8.5L39.3,96.3z"/>
	<path fill="#F3EBAE" stroke="#231F20" d="M35.2,98.1c0,0-3.9-5-2-9.8c0,0,4.5,1.7,6.1,8.5L35.2,98.1z"/>
	<path fill="#F3EBAE" stroke="#231F20" d="M31,100.1c0,0-3.9-5-2-9.8c0,0,4.5,1.7,6.1,8.5L31,100.1z"/>
	<path fill="#F3EBAE" stroke="#231F20" d="M26.7,102.4c0,0-3.9-5-2-9.8c0,0,4.5,1.7,6.1,8.5L26.7,102.4z"/>
	<path fill="#F3EBAE" stroke="#231F20" d="M23,104.3c0,0-3.9-5-2-9.8c0,0,4.5,1.7,6.1,8.5L23,104.3z"/>
	<path fill="#F3EBAE" stroke="#231F20" d="M42.7,93.7c0,0-3.9-5-2-9.8c0,0,4.5,1.7,6.1,8.5L42.7,93.7z"/>
	<path fill="#F3EBAE" stroke="#231F20" d="M47,91.6c0,0-3.9-5-2-9.8c0,0,4.5,1.7,6.1,8.5L47,91.6z"/>
	<path fill="#F3EBAE" stroke="#231F20" d="M56.6,34.6c0,0-13,2-7.3,5.7C49.2,40.3,50.9,37,56.6,34.6z"/>
	<path fill="#445138" stroke="#231F20" d="M80.7,22.3c0,0-5.8-16.7-8.2-16.8s-7.2-1.3-13,2s-28.7,8.2-33.2,7.7"/>
	<path fill="#778A59" stroke="#231F20" d="M217.4,52.5c0,0,16.7-5.3,26.8-4.8s19,11.5,27.8,12.5s25.3,2.8,52.2,9.8s58,11.8,77-5.8
		c0,0-1,17-18.5,26.7c-17.5,9.7-43,15-54.8,17s-44.7,0.2-53.2,17.5C266.2,142.6,217.4,52.5,217.4,52.5z"/>
	<path fill="#778A59" stroke="#231F20" d="M265.6,115c7.5,18.4,16.9,19.8-9.2,31.5c-0.6,0.3-15,31.7-60.5,31.2s-40.5,0.2-46.5,0.8
		s-13.2-5.7-17.2-13.3s-7.2-31.3-35-47.8l-8.4,0.9c-4,0.6-9.2,1.7-10.8,3.8c-2.7,3.5-8,4.5-12.3,3.3c-4.3-1.2-7.5-8.2-19.2-4.8
		s25-16,25-16l29-4.3l31-33.1c0,0,13.7,1.8,25.7-2.2s17.7-15.2,36.5-19.5s24.3,3,44.8,9.2c5.9,1.8,14.4,8.1,22.2,16.8"/>
	<path fill="#964F4F" stroke="#231F20" d="M118.4,47.7c-4.8-0.6-10.9,0.7-13,9.9c-3.7,16-14.7,14.2-19.2,14.5s-11.5-1.7-13.3,4.3
		s-15.7,16-21.5,18.7c-5.8,2.7-23.3,6-28.3,8c-3.6,1.5-3.9-0.1-2.9,4.2l0.4,0.8c-0.6-10.1,4-10.8,9-13.1c5-2.3,21.2-11.2,21.2-11.2
		s1.5-14-3.5-23.5s-6.3-3.8-30-9.2c-8.8-2-13.1-5-15.2-8c0.5-2.3,1.7-4.8,3.7-7.3c7.5-9.2,39,8.2,51.3,6.5
		c12.3-1.7,14.3-2.7,21.5,2.8s22.8,4.3,28,0.8s12.3-2,12.3-2"/>
	<path fill="#EAB932" stroke="#231F20" d="M93.4,25c0,0,0-6.8-7-7.2c-7-0.4-6.1,6.2-8.4,7.3c0,0,4,3.1,7.6,2.6S93.4,25,93.4,25z"/>
	<circle fill="#231F20" stroke="#231F20" cx="85.4" cy="22.5" r="2.4"/>
	<circle fill="#FFFFFF" stroke="#231F20" cx="87.5" cy="21.1" r="1.3"/>
	<path fill="#CD6767" stroke="#231F20" d="M86.2,72.1c-0.4,0-0.8,0-1.3,0c0.6,0,1.1,0,1.6,0c0.2,0,0.5,0,0.8,0l0,0
		C87,72.1,86.6,72.1,86.2,72.1z M31.4,100.8c7.1-1.8,16.5-3.9,20.4-5.7c5.8-2.7,19.7-12.7,21.5-18.7c1.1-3.6,4-4.3,7.1-4.4
		c-0.1,0-0.2,0-0.4,0c0-1,0-1.9,0-2.8c-4.1,0.4-8.8,1.1-11.7,2.3c-5.9,2.5-17.1,9.3-27,18.3C36.6,94.3,33.3,98.1,31.4,100.8z"/>
	<path fill="#F3EBAE" stroke="#231F20" d="M49.3,39c0,0,2.1,6.7-1.7,10.9c0,0-3.9-3.4-2.9-11.1L49.3,39z"/>
	<path fill="#F3EBAE" stroke="#231F20" d="M54.3,38.8c0,0,2.1,6.7-1.7,10.9c0,0-3.9-3.4-2.9-11.1L54.3,38.8z"/>
	<path fill="#F3EBAE" stroke="#231F20" d="M19.9,107.4c0,0-3.1-6.3,0.1-11c0,0,4.4,2.8,4.6,10.5L19.9,107.4z"/>
	<path fill="#F3EBAE" stroke="#231F20" d="M60.3,38.1c0,0,2.1,6.7-1.7,10.9c0,0-3.9-3.4-2.9-11.1L60.3,38.1z"/>
	<path fill="#F3EBAE" stroke="#231F20" d="M65.1,36.6c0,0,2.1,6.7-1.7,10.9c0,0-3.9-3.4-2.9-11.1L65.1,36.6z"/>
	<path fill="#F3EBAE" stroke="#231F20" d="M7.4,43.7c0,0,1.9,5.9-1.5,9.7c0,0-3.5-3.1-2.6-9.9L7.4,43.7z"/>
	<path fill="#F3EBAE" stroke="#231F20" d="M6.2,40.5c0,0,1.9,5.9-1.5,9.7c0,0-3.5-3.1-2.6-9.9L6.2,40.5z"/>
	<path fill="#F3EBAE" stroke="#231F20" d="M7.4,35.3c0,0,1.9,5.9-1.5,9.7c0,0-3.5-3.1-2.6-9.9L7.4,35.3z"/>
	<path fill="#F3EBAE" stroke="#231F20" d="M10.6,32.7c0,0,1.9,5.9-1.5,9.7c0,0-3.5-3.1-2.6-9.9L10.6,32.7z"/>
	<path fill="#F3EBAE" stroke="#231F20" d="M14.4,31.8c0,0,1.9,5.9-1.5,9.7c0,0-3.5-3.1-2.6-9.9L14.4,31.8z"/>
	<path fill="#F3EBAE" stroke="#231F20" d="M18.6,31.3c0,0,1.9,5.9-1.5,9.7c0,0-3.5-3.1-2.6-9.9L18.6,31.3z"/>
	<path fill="#F3EBAE" stroke="#231F20" d="M23.7,32.7c0,0,1.9,5.9-1.5,9.7c0,0-3.5-3.1-2.6-9.9L23.7,32.7z"/>
	<path fill="#F3EBAE" stroke="#231F20" d="M28.6,33.7c0,0,1.9,5.9-1.5,9.7c0,0-3.5-3.1-2.6-9.9L28.6,33.7z"/>
	<path fill="#F3EBAE" stroke="#231F20" d="M33.4,35c0,0,1.9,5.9-1.5,9.7c0,0-3.5-3.1-2.6-9.9L33.4,35z"/>
	<path fill="#F3EBAE" stroke="#231F20" d="M38.2,36.7c0,0,1.9,5.9-1.5,9.7c0,0-3.5-3.1-2.6-9.9L38.2,36.7z"/>
	<path fill="#F3EBAE" stroke="#231F20" d="M43.4,38.7c0,0,1.9,5.9-1.5,9.7c0,0-3.5-3.1-2.6-9.9L43.4,38.7z"/>
	<path fill="#778A59" stroke="#231F20" d="M2.1,43.1C2.1,43.1,2.1,43.1,2.1,43.1 M154.1,79.6c0,0-2.3-4.5-9.2-21.3
		c-6.8-16.8-18.5-45.8-66.5-47.2s-43.7-0.5-51.5-1.3C19.1,9,16.7,6.1,11.4,15.1S1.9,32.8,1.9,32.8s-3.3,5.1,0.2,10.3
		c0.6-2.3,1.7-4.8,3.7-7.3c7.5-9.2,39,8.2,51.3,6.5c12.3-1.7,14.3-2.7,21.5,2.8s22.8,4.3,28,0.8s12.3-2,12.3-2l-0.5,3.8
		c-4.8-0.6-10.9,0.7-13,9.9c-3.7,16-14.7,14.2-19.2,14.5s-11.5-1.7-13.3,4.3s-15.7,16-21.5,18.7c-5.8,2.7-23.3,6-28.3,8
		c-1.1,0.4-1.9,0.6-2.4,0.7c-0.1,0.8-0.2,1.7-0.2,2.7"/>
	<path fill="#D1CA8B" stroke="#231F20" d="M119.1,47.7c-4.8-0.6-11.6,0.7-13.7,9.9c-3.7,16-14.7,14.2-19.2,14.5
		c-1.8,0.1-4-0.1-6.2-0.1c0.4-21-7.2-28.5-12.6-31.1c4.2-0.2,6.7,0.7,11.1,4.1c7.2,5.5,22.8,4.3,28,0.8s13-2,13-2"/>
	<path fill="#778A59" stroke="#231F20" d="M107.7,21c0,0-5.8-16.7-8.2-16.8c-2.3-0.2-7.2-1.3-13,2c-5.8,3.3-28.7,8.2-33.2,7.7"/>
	<path fill="#EAB932" stroke="#231F20" d="M93.4,25c0,0,0-6.8-7-7.2c-7-0.4-6.1,6.2-8.4,7.3c0,0,4,3.1,7.6,2.6S93.4,25,93.4,25z"/>
	<circle fill="#231F20" stroke="#231F20" cx="85.4" cy="22.5" r="2.4"/>
	<circle fill="#FFFFFF" cx="87.5" cy="21.1" r="1.3"/>
	<g>
		<path fill="#445138" d="M128.9,66.5c12.8,44-13,45-2.5,52s6.3,10.8,19.8,24.8c13.5,14,20.3,11.2,20.3,11.2
			c55.5,5.5,64.5-7,79.3-32.5c14.8-25.5,44.3-23.8,100.8-29.5c29.6-3,43.9-9.9,50.7-15.7c-2.7,4.8-7.1,10.1-14.4,14.1
			c-17.5,9.7-43,15-54.8,17c-10.3,1.7-36.6,0.6-48.8,11.7c0.6,8.6,0,19.5-3.5,32.1c-9.3,33-10,21.3-6,34.3s-1.2,21.8-4.3,32.2
			c-1.8,6-3.2,10.1-3.6,14.2l-25.3-0.9c-2-8-6-14.6-6.8-19.4c-1.2-7.5-2.5-13.7,0.3-21c0,0-5.2-6.2-7.9-17.1
			c-7.3,2.4-15.9,3.9-26.1,3.8c-45.5-0.5-40.5,0.2-46.5,0.8c-2.3,0.3-4.7-0.5-7-1.9c-4,1.2-7.2,2.6-8.7,5.5c-3.6,7-3.9,2.4-4.7,9.7
			c-0.5,5.3-1,9-2.9,10.4l-0.2,0.2c0,0-2.1,4.6,0.8,8.5c0,0-9.6-1.6-6.1-10c-0.4-1.4,0.4-3.9,1.8-8.3c2.3-7.6,2.4-12.5,2.4-12.5
			l-3.6,6c0,0-2,5-2.7,9.1c-0.4,2.7-2,3.9-3.7,4.2c-0.4,1.3-1.3,4.9,1,7.9c0,0-10-1.6-5.9-10.4c-0.8-1.5-0.8-3.6,0.7-6
			c2.6-4.3,2.6-7.9,2.6-7.9s8.1-9,8.6-10.9s8-1.9,10.5-5.4c0.1-0.1,0.2-0.3,0.3-0.4c-0.2-0.3-0.3-0.6-0.5-0.9
			c-4-7.7-7.2-31.3-35-47.8l-8.4,0.9c-4,0.6-9.2,1.7-10.8,3.8c-2.7,3.5-8,4.5-12.3,3.3c-3.4-0.9-6.1-5.4-12.7-5.7
			c-7.1,2.7-13.2,4.8-15.6,5.2c-6.2,1-12.3,2.7-15.7-9.2L128.9,66.5z"/>
	</g>
	<path fill="#778A59" stroke="#231F20" d="M272,90.6c0,0,12.9,28,3.5,61s-10,21.3-6,34.3s-1.2,21.8-4.3,32.2s-4.8,15-2.8,23.8
		s1.2,13.7,2.2,25.7s-0.7,27.2,8.7,32.3s14.8,5.7,14.5,16c0,0,1,5.7-8.8,5.7s-5.5-8.3-21.2-9.5c0,0-3.2,2.5-3.2,6.7
		s-3.7,5.8-10.7,5.8s-7.5-7.8-5.8-10.2c0,0-10.7,1.5-16.2,5.2s-12.3,0-12.3,0s-11.2-10.8,1.7-16.2s29.3-15.2,26.5-30.3
		s-3.3-12.8-0.7-27.3s-6.3-26.3-7.5-33.8s-2.5-13.7,0.3-21c0,0-7-8.3-9-22.5c0,0,17.6-25.2,17.8-41.9"/>
	<path fill="#231F20" stroke="#231F20" d="M277.4,319.8c0,0,0.1-10.1,6.1-10.2c6-0.1,6.9,14.7,5.7,19.5c0,0-1.6,0.7-4.8-3.9
		C281.2,320.5,277.4,319.8,277.4,319.8z"/>
	<path fill="#231F20" stroke="#231F20" d="M243.5,336.9c0,0,2.4-11.4,6.4-15.4c0,0-0.2-9-4.8-9s-6.4,4-6.4,9.5
		S242.8,336.6,243.5,336.9z"/>
	<g>
		<path fill="#778A59" stroke="#231F20" d="M172.9,127c0,0-1.3-0.6-2.7,5c-1.4,5.6-0.5,29.1-9.8,37c-9.3,7.9-23.2,6-26.8,13.1
			s-3.9,2.4-4.7,9.7c-0.7,7.2-1.4,11.5-5.5,10.9s-3.4-2.5-1.1-10.2c2.3-7.6,2.4-12.5,2.4-12.5l-3.6,6c0,0-2,5-2.7,9.1
			c-0.6,4.1-3.9,4.8-6.2,4s-4.3-4-1.8-8.2c2.6-4.3,2.6-7.9,2.6-7.9s8.1-9,8.6-10.9s8-1.9,10.5-5.4c2.5-3.5,10.6-6.5,13.3-10.5
			c2.6-4-4.6-4.7-4.5-9.5c0.1-4.8,0.1-13.9,0.1-13.9"/>
		<path fill="#201E21" stroke="#231F20" d="M115.1,198.7c0,0-2.1,4.6,0.8,8.5c0,0-10.5-1.7-5.6-11.1c0,0,3.9-0.1,4.9,2.4"/>
		<path fill="#201E21" stroke="#231F20" d="M126,202.3c0,0-2.1,4.6,0.8,8.5c0,0-10.5-1.7-5.6-11.1c0,0,3.9-0.1,4.9,2.4"/>
	</g>
	<path fill="#445138" stroke="#231F20" d="M212.2,321.1c0,0-2.3-0.9-2.8-1.5c1-1,3.3-3.5,4.3-3.2c3.7,1.5,10.4-1.3,14.9-4.8
		s14.8-7.9,14.8-7.9l-0.2,5.5c-1.8,1.3-2.8,2.9-3.6,4.4c-2.4,0.4-11,1.9-15.6,5C218.3,322.3,212.2,321.1,212.2,321.1z"/>
	<path fill="#231F20" stroke="#231F20" d="M213.4,319.1c0,0,2.4-9.9-3.5-11.5c-5.9-1.7-10.5,12.7-10.5,17.7c0,0,1.4,1.1,5.8-2.6
		C209.5,318.9,213.4,319.1,213.4,319.1z"/>
	<path fill="#F3EBAE" stroke="#231F20" d="M70.5,84.6c0,0-4.7-5.2-2.9-10.6c0,0,5,1.5,7.3,8.8L70.5,84.6z"/>
	<path fill="#F3EBAE" stroke="#231F20" d="M66.2,87c0,0-4.7-5.2-2.9-10.6c0,0,5,1.5,7.3,8.8L66.2,87z"/>
	<path fill="#F3EBAE" stroke="#231F20" d="M61.5,90.4c0,0-4.7-5.2-2.9-10.6c0,0,5,1.5,7.3,8.8L61.5,90.4z"/>
	<path fill="#F3EBAE" stroke="#231F20" d="M56.5,94.1c0,0-4.7-5.2-2.9-10.6c0,0,5,1.5,7.3,8.8L56.5,94.1z"/>
	<path fill="#F3EBAE" stroke="#231F20" d="M52.1,97.3c0,0-4.7-5.2-2.9-10.6c0,0,5,1.5,7.3,8.8L52.1,97.3z"/>
	<path fill="#F3EBAE" stroke="#231F20" d="M46.4,100c0,0-4.3-5.5-2.2-10.8c0,0,4.9,1.8,6.7,9.3L46.4,100z"/>
	<path fill="#F3EBAE" stroke="#231F20" d="M40.8,102.5c0,0-4.3-5.5-2.2-10.8c0,0,4.9,1.8,6.7,9.3L40.8,102.5z"/>
	<path fill="#F3EBAE" stroke="#231F20" d="M35.6,104.5c0,0-4.3-5.5-2.2-10.8c0,0,4.9,1.8,6.7,9.3L35.6,104.5z"/>
	<path fill="#F3EBAE" stroke="#231F20" d="M30.3,105.8c0,0-4.3-5.5-2.2-10.8c0,0,4.9,1.8,6.7,9.3L30.3,105.8z"/>
	<path fill="#F3EBAE" stroke="#231F20" d="M23.7,106.9c0,0-3.1-6.3,0.1-11c0,0,4.4,2.8,4.6,10.5L23.7,106.9z"/>
	<path fill="#778A59" stroke="#231F20" d="M129.8,61.5c0,0,3,46-15.5,45.5s-24.5-2.7-31.8,0.7s-38.8,16.2-45,17.2
		s-12.3,2.7-15.7-9.2c-3.3-11.8-3.3-10.5,1.7-12.5s22.5-5.3,28.3-8c5.8-2.7,19.7-12.7,21.5-18.7s8.8-4,13.3-4.3s15.5,1.5,19.2-14.5
		s19.5-8,19.5-8"/>
</g>
</svg>
