<?xml version="1.0" encoding="utf-8"?>
<!-- Generator: Adobe Illustrator 13.0.0, SVG Export Plug-In . SVG Version: 6.00 Build 14948)  -->
<!DOCTYPE svg PUBLIC "-//W3C//DTD SVG 1.1//EN" "http://www.w3.org/Graphics/SVG/1.1/DTD/svg11.dtd">
<svg version="1.1" id="Layer_1" xmlns="http://www.w3.org/2000/svg" xmlns:xlink="http://www.w3.org/1999/xlink" x="0px" y="0px"
	 width="401.8px" height="340.2px" viewBox="0 0 401.8 340.2" enable-background="new 0 0 401.8 340.2" xml:space="preserve">
<pattern  x="-249.1" y="519.1" width="69" height="69" patternUnits="userSpaceOnUse" id="Polka_Dot_Pattern" viewBox="2.1 -70.9 69 69" overflow="visible">
	<g>
		<polygon fill="none" points="71.1,-1.9 2.1,-1.9 2.1,-70.9 71.1,-70.9 		"/>
		<polygon fill="#F7BC60" points="71.1,-1.9 2.1,-1.9 2.1,-70.9 71.1,-70.9 		"/>
		<g>
			<path fill="#FFFFFF" d="M61.8-71.7c0,0.1,0,0.1,0,0.2c-0.1,0.1-0.1,0.1-0.2,0.1c-0.1,0.1-0.1,0.3-0.1,0.4c-0.2,0.1,0,0.2,0,0.3
				c0,0,0,0.1,0,0.2c0,0.1,0,0.3,0.1,0.4c0.1,0.2,0.3,0.4,0.4,0.5c0.2,0.1,0.4,0.6,0.6,0.6c0.2,0,0.4-0.1,0.5-0.1
				c0.2,0,0.4,0,0.6-0.1c0.2-0.1,0.1-0.3,0.3-0.5c0.1-0.1,0.3,0,0.4-0.1c0.2-0.1,0.3-0.3,0.4-0.5c0-0.1,0-0.1,0-0.2
				c0-0.1,0.1-0.2,0.1-0.3c0-0.1-0.1-0.1-0.1-0.2c0-0.1,0-0.2,0-0.3c0-0.2,0-0.4-0.1-0.5c-0.4-0.7-1.2-0.9-2-0.8
				c-0.2,0-0.3,0.1-0.4,0.2c-0.2,0.1-0.1,0.2-0.3,0.2c-0.1,0-0.2,0.1-0.2,0.2C61.8-71.7,61.8-71.7,61.8-71.7
				C61.8-71.6,61.8-71.6,61.8-71.7"/>
			<path fill="#FFFFFF" d="M54.1-71.7c0,0.1,0,0.1,0,0.2c-0.1,0.1-0.1,0.1-0.2,0.1c-0.1,0.1-0.1,0.3-0.1,0.4c-0.2,0.1,0,0.2,0,0.3
				c0,0,0,0.1,0,0.2c0,0.1,0,0.3,0.1,0.4c0.1,0.2,0.3,0.4,0.4,0.5c0.2,0.1,0.4,0.6,0.6,0.6c0.2,0,0.4-0.1,0.5-0.1
				c0.2,0,0.4,0,0.6-0.1c0.2-0.1,0.1-0.3,0.3-0.5c0.1-0.1,0.3,0,0.4-0.1c0.2-0.1,0.3-0.3,0.4-0.5c0-0.1,0-0.1,0-0.2
				c0-0.1,0.1-0.2,0.1-0.3c0-0.1-0.1-0.1-0.1-0.2c0-0.1,0-0.2,0-0.3c0-0.2,0-0.4-0.1-0.5c-0.4-0.7-1.2-0.9-2-0.8
				c-0.2,0-0.3,0.1-0.4,0.2c-0.2,0.1-0.1,0.2-0.3,0.2c-0.1,0-0.2,0.1-0.2,0.2C54.1-71.7,54.1-71.7,54.1-71.7
				C54.1-71.6,54.1-71.6,54.1-71.7"/>
			<path fill="#FFFFFF" d="M46.4-71.7c0,0.1,0,0.1,0,0.2c-0.1,0.1-0.1,0.1-0.2,0.1c-0.1,0.1-0.1,0.3-0.1,0.4c-0.2,0.1,0,0.2,0,0.3
				c0,0,0,0.1,0,0.2c0,0.1,0,0.3,0.1,0.4c0.1,0.2,0.3,0.4,0.4,0.5c0.2,0.1,0.4,0.6,0.6,0.6c0.2,0,0.4-0.1,0.5-0.1
				c0.2,0,0.4,0,0.6-0.1c0.2-0.1,0.1-0.3,0.3-0.5c0.1-0.1,0.3,0,0.4-0.1c0.2-0.1,0.3-0.3,0.4-0.5c0-0.1,0-0.1,0-0.2
				c0-0.1,0.1-0.2,0.1-0.3c0-0.1-0.1-0.1-0.1-0.2c0-0.1,0-0.2,0-0.3c0-0.2,0-0.4-0.1-0.5c-0.4-0.7-1.2-0.9-2-0.8
				c-0.2,0-0.3,0.1-0.4,0.2c-0.2,0.1-0.1,0.2-0.3,0.2c-0.1,0-0.2,0.1-0.2,0.2C46.4-71.7,46.4-71.7,46.4-71.7
				C46.4-71.6,46.4-71.6,46.4-71.7"/>
			<path fill="#FFFFFF" d="M38.8-71.7c0,0.1,0,0.1,0,0.2c-0.1,0.1-0.1,0.1-0.2,0.1c-0.1,0.1-0.1,0.3-0.1,0.4c-0.2,0.1,0,0.2,0,0.3
				c0,0,0,0.1,0,0.2c0,0.1,0,0.3,0.1,0.4c0.1,0.2,0.3,0.4,0.4,0.5c0.2,0.1,0.4,0.6,0.6,0.6c0.2,0,0.4-0.1,0.5-0.1
				c0.2,0,0.4,0,0.6-0.1c0.2-0.1,0.1-0.3,0.3-0.5c0.1-0.1,0.3,0,0.4-0.1c0.2-0.1,0.3-0.3,0.4-0.5c0-0.1,0-0.1,0-0.2
				c0-0.1,0.1-0.2,0.1-0.3c0-0.1-0.1-0.1-0.1-0.2c0-0.1,0-0.2,0-0.3c0-0.2,0-0.4-0.1-0.5c-0.4-0.7-1.2-0.9-2-0.8
				c-0.2,0-0.3,0.1-0.4,0.2c-0.2,0.1-0.1,0.2-0.3,0.2c-0.1,0-0.2,0.1-0.2,0.2C38.8-71.7,38.8-71.7,38.8-71.7
				C38.8-71.6,38.8-71.6,38.8-71.7"/>
			<path fill="#FFFFFF" d="M31.1-71.7c0,0.1,0,0.1,0,0.2c-0.1,0.1-0.1,0.1-0.2,0.1c-0.1,0.1-0.1,0.3-0.1,0.4c-0.2,0.1,0,0.2,0,0.3
				c0,0,0,0.1,0,0.2c0,0.1,0,0.3,0.1,0.4c0.1,0.2,0.3,0.4,0.4,0.5c0.2,0.1,0.4,0.6,0.6,0.6c0.2,0,0.4-0.1,0.5-0.1
				c0.2,0,0.4,0,0.6-0.1c0.2-0.1,0.1-0.3,0.3-0.5c0.1-0.1,0.3,0,0.4-0.1c0.2-0.1,0.3-0.3,0.4-0.5c0-0.1,0-0.1,0-0.2
				c0-0.1,0.1-0.2,0.1-0.3c0-0.1-0.1-0.1-0.1-0.2c0-0.1,0-0.2,0-0.3c0-0.2,0-0.4-0.1-0.5c-0.4-0.7-1.2-0.9-2-0.8
				c-0.2,0-0.3,0.1-0.4,0.2c-0.2,0.1-0.1,0.2-0.3,0.2c-0.1,0-0.2,0.1-0.2,0.2C31.1-71.7,31.1-71.7,31.1-71.7
				C31.1-71.6,31.1-71.6,31.1-71.7"/>
			<path fill="#FFFFFF" d="M23.4-71.7c0,0.1,0,0.1,0,0.2c-0.1,0.1-0.1,0.1-0.2,0.1c-0.1,0.1-0.1,0.3-0.1,0.4c-0.2,0.1,0,0.2,0,0.3
				c0,0,0,0.1,0,0.2c0,0.1,0,0.3,0.1,0.4c0.1,0.2,0.3,0.4,0.4,0.5c0.2,0.1,0.4,0.6,0.6,0.6c0.2,0,0.4-0.1,0.5-0.1
				c0.2,0,0.4,0,0.6-0.1c0.2-0.1,0.1-0.3,0.3-0.5c0.1-0.1,0.3,0,0.4-0.1c0.2-0.1,0.3-0.3,0.4-0.5c0-0.1,0-0.1,0-0.2
				c0-0.1,0.1-0.2,0.1-0.3c0-0.1-0.1-0.1-0.1-0.2c0-0.1,0-0.2,0-0.3c0-0.2,0-0.4-0.1-0.5c-0.4-0.7-1.2-0.9-2-0.8
				c-0.2,0-0.3,0.1-0.4,0.2c-0.2,0.1-0.1,0.2-0.3,0.2c-0.1,0-0.2,0.1-0.2,0.2C23.4-71.7,23.4-71.7,23.4-71.7
				C23.4-71.6,23.4-71.6,23.4-71.7"/>
			<path fill="#FFFFFF" d="M15.8-71.7c0,0.1,0,0.1,0,0.2c-0.1,0.1-0.1,0.1-0.2,0.1c-0.1,0.1-0.1,0.3-0.1,0.4c-0.2,0.1,0,0.2,0,0.3
				c0,0,0,0.1,0,0.2c0,0.1,0,0.3,0.1,0.4c0.1,0.2,0.3,0.4,0.4,0.5c0.2,0.1,0.4,0.6,0.6,0.6c0.2,0,0.4-0.1,0.5-0.1
				c0.2,0,0.4,0,0.6-0.1c0.2-0.1,0.1-0.3,0.3-0.5c0.1-0.1,0.3,0,0.4-0.1c0.2-0.1,0.3-0.3,0.4-0.5c0-0.1,0-0.1,0-0.2
				c0-0.1,0.1-0.2,0.1-0.3c0-0.1-0.1-0.1-0.1-0.2c0-0.1,0-0.2,0-0.3c0-0.2,0-0.4-0.1-0.5c-0.4-0.7-1.2-0.9-2-0.8
				c-0.2,0-0.3,0.1-0.4,0.2c-0.2,0.1-0.1,0.2-0.3,0.2c-0.1,0-0.2,0.1-0.2,0.2C15.8-71.7,15.8-71.7,15.8-71.7
				C15.8-71.6,15.8-71.6,15.8-71.7"/>
			<path fill="#FFFFFF" d="M8.1-71.7c0,0.1,0,0.1,0,0.2C8-71.4,8-71.4,7.9-71.3c-0.1,0.1-0.1,0.3-0.1,0.4c-0.2,0.1,0,0.2,0,0.3
				c0,0,0,0.1,0,0.2c0,0.1,0,0.3,0.1,0.4c0.1,0.2,0.3,0.4,0.4,0.5c0.2,0.1,0.4,0.6,0.6,0.6c0.2,0,0.4-0.1,0.5-0.1
				c0.2,0,0.4,0,0.6-0.1c0.2-0.1,0.1-0.3,0.3-0.5c0.1-0.1,0.3,0,0.4-0.1c0.2-0.1,0.3-0.3,0.4-0.5c0-0.1,0-0.1,0-0.2
				c0-0.1,0.1-0.2,0.1-0.3c0-0.1-0.1-0.1-0.1-0.2c0-0.1,0-0.2,0-0.3c0-0.2,0-0.4-0.1-0.5c-0.4-0.7-1.2-0.9-2-0.8
				c-0.2,0-0.3,0.1-0.4,0.2c-0.2,0.1-0.1,0.2-0.3,0.2c-0.1,0-0.2,0.1-0.2,0.2C8.1-71.7,8.1-71.7,8.1-71.7
				C8.1-71.6,8.1-71.6,8.1-71.7"/>
			<path fill="#FFFFFF" d="M0.4-71.7c0,0.1,0,0.1,0,0.2c-0.1,0.1-0.1,0.1-0.2,0.1c-0.1,0.1-0.1,0.3-0.1,0.4c-0.2,0.1,0,0.2,0,0.3
				c0,0,0,0.1,0,0.2c0,0.1,0,0.3,0.1,0.4c0.1,0.2,0.3,0.4,0.4,0.5C0.8-69.4,1-69,1.2-68.9c0.2,0,0.4-0.1,0.5-0.1
				c0.2,0,0.4,0,0.6-0.1c0.2-0.1,0.1-0.3,0.3-0.5c0.1-0.1,0.3,0,0.4-0.1c0.2-0.1,0.3-0.3,0.4-0.5c0-0.1,0-0.1,0-0.2
				c0-0.1,0.1-0.2,0.1-0.3c0-0.1-0.1-0.1-0.1-0.2c0-0.1,0-0.2,0-0.3c0-0.2,0-0.4-0.1-0.5c-0.4-0.7-1.2-0.9-2-0.8
				c-0.2,0-0.3,0.1-0.4,0.2c-0.2,0.1-0.1,0.2-0.3,0.2c-0.1,0-0.2,0.1-0.2,0.2C0.4-71.7,0.4-71.7,0.4-71.7
				C0.4-71.6,0.4-71.6,0.4-71.7"/>
		</g>
		<g>
			<path fill="#FFFFFF" d="M69.4-71.7c0,0.1,0,0.1,0,0.2c-0.1,0.1-0.1,0.1-0.2,0.1c-0.1,0.1-0.1,0.3-0.1,0.4c-0.2,0.1,0,0.2,0,0.3
				c0,0,0,0.1,0,0.2c0,0.1,0,0.3,0.1,0.4c0.1,0.2,0.3,0.4,0.4,0.5c0.2,0.1,0.4,0.6,0.6,0.6c0.2,0,0.4-0.1,0.5-0.1
				c0.2,0,0.4,0,0.6-0.1c0.2-0.1,0.1-0.3,0.3-0.5c0.1-0.1,0.3,0,0.4-0.1c0.2-0.1,0.3-0.3,0.4-0.5c0-0.1,0-0.1,0-0.2
				c0-0.1,0.1-0.2,0.1-0.3c0-0.1-0.1-0.1-0.1-0.2c0-0.1,0-0.2,0-0.3c0-0.2,0-0.4-0.1-0.5c-0.4-0.7-1.2-0.9-2-0.8
				c-0.2,0-0.3,0.1-0.4,0.2c-0.2,0.1-0.1,0.2-0.3,0.2c-0.1,0-0.2,0.1-0.2,0.2C69.4-71.7,69.4-71.7,69.4-71.7
				C69.4-71.6,69.4-71.6,69.4-71.7"/>
		</g>
		<path fill="#FFFFFF" d="M0.5-71.7c0,0.1,0,0.1,0,0.2c-0.1,0.1-0.1,0.1-0.2,0.1c-0.1,0.1-0.1,0.3-0.1,0.4c-0.2,0.1,0,0.2,0,0.3
			c0,0,0,0.1,0,0.2c0,0.1,0,0.3,0.1,0.4c0.1,0.2,0.3,0.4,0.4,0.5C0.9-69.4,1-69,1.3-68.9c0.2,0,0.4-0.1,0.5-0.1c0.2,0,0.4,0,0.6-0.1
			c0.2-0.1,0.1-0.3,0.3-0.5c0.1-0.1,0.3,0,0.4-0.1c0.2-0.1,0.3-0.3,0.4-0.5c0-0.1,0-0.1,0-0.2c0-0.1,0.1-0.2,0.1-0.3
			c0-0.1-0.1-0.1-0.1-0.2c0-0.1,0-0.2,0-0.3c0-0.2,0-0.4-0.1-0.5c-0.4-0.7-1.2-0.9-2-0.8c-0.2,0-0.3,0.1-0.4,0.2
			c-0.2,0.1-0.1,0.2-0.3,0.2c-0.1,0-0.2,0.1-0.2,0.2C0.5-71.7,0.5-71.7,0.5-71.7C0.5-71.6,0.5-71.6,0.5-71.7"/>
		<g>
			<g>
				<path fill="#FFFFFF" d="M69.4-64c0,0.1,0,0.1,0,0.2c-0.1,0.1-0.1,0.1-0.2,0.1c-0.1,0.1-0.1,0.3-0.1,0.4c-0.2,0.1,0,0.2,0,0.3
					c0,0,0,0.1,0,0.2c0,0.1,0,0.3,0.1,0.4c0.1,0.2,0.3,0.4,0.4,0.5c0.2,0.1,0.4,0.6,0.6,0.6c0.2,0,0.4-0.1,0.5-0.1
					c0.2,0,0.4,0,0.6-0.1c0.2-0.1,0.1-0.3,0.3-0.5c0.1-0.1,0.3,0,0.4-0.1c0.2-0.1,0.3-0.3,0.4-0.5c0-0.1,0-0.1,0-0.2
					c0-0.1,0.1-0.2,0.1-0.3c0-0.1-0.1-0.1-0.1-0.2c0-0.1,0-0.2,0-0.3c0-0.2,0-0.4-0.1-0.5c-0.4-0.7-1.2-0.9-2-0.8
					c-0.2,0-0.3,0.1-0.4,0.2c-0.2,0.1-0.1,0.2-0.3,0.2c-0.1,0-0.2,0.1-0.2,0.2C69.4-64,69.4-64.1,69.4-64C69.4-64,69.4-64,69.4-64"
					/>
				<path fill="#FFFFFF" d="M61.8-64c0,0.1,0,0.1,0,0.2c-0.1,0.1-0.1,0.1-0.2,0.1c-0.1,0.1-0.1,0.3-0.1,0.4c-0.2,0.1,0,0.2,0,0.3
					c0,0,0,0.1,0,0.2c0,0.1,0,0.3,0.1,0.4c0.1,0.2,0.3,0.4,0.4,0.5c0.2,0.1,0.4,0.6,0.6,0.6c0.2,0,0.4-0.1,0.5-0.1
					c0.2,0,0.4,0,0.6-0.1c0.2-0.1,0.1-0.3,0.3-0.5c0.1-0.1,0.3,0,0.4-0.1c0.2-0.1,0.3-0.3,0.4-0.5c0-0.1,0-0.1,0-0.2
					c0-0.1,0.1-0.2,0.1-0.3c0-0.1-0.1-0.1-0.1-0.2c0-0.1,0-0.2,0-0.3c0-0.2,0-0.4-0.1-0.5c-0.4-0.7-1.2-0.9-2-0.8
					c-0.2,0-0.3,0.1-0.4,0.2c-0.2,0.1-0.1,0.2-0.3,0.2c-0.1,0-0.2,0.1-0.2,0.2C61.8-64,61.8-64.1,61.8-64C61.8-64,61.8-64,61.8-64"
					/>
				<path fill="#FFFFFF" d="M54.1-64c0,0.1,0,0.1,0,0.2c-0.1,0.1-0.1,0.1-0.2,0.1c-0.1,0.1-0.1,0.3-0.1,0.4c-0.2,0.1,0,0.2,0,0.3
					c0,0,0,0.1,0,0.2c0,0.1,0,0.3,0.1,0.4c0.1,0.2,0.3,0.4,0.4,0.5c0.2,0.1,0.4,0.6,0.6,0.6c0.2,0,0.4-0.1,0.5-0.1
					c0.2,0,0.4,0,0.6-0.1c0.2-0.1,0.1-0.3,0.3-0.5c0.1-0.1,0.3,0,0.4-0.1c0.2-0.1,0.3-0.3,0.4-0.5c0-0.1,0-0.1,0-0.2
					c0-0.1,0.1-0.2,0.1-0.3c0-0.1-0.1-0.1-0.1-0.2c0-0.1,0-0.2,0-0.3c0-0.2,0-0.4-0.1-0.5c-0.4-0.7-1.2-0.9-2-0.8
					c-0.2,0-0.3,0.1-0.4,0.2c-0.2,0.1-0.1,0.2-0.3,0.2c-0.1,0-0.2,0.1-0.2,0.2C54.1-64,54.1-64.1,54.1-64C54.1-64,54.1-64,54.1-64"
					/>
				<path fill="#FFFFFF" d="M46.5-64c0,0.1,0,0.1,0,0.2c-0.1,0.1-0.1,0.1-0.2,0.1c-0.1,0.1-0.1,0.3-0.1,0.4c-0.2,0.1,0,0.2,0,0.3
					c0,0,0,0.1,0,0.2c0,0.1,0,0.3,0.1,0.4c0.1,0.2,0.3,0.4,0.4,0.5c0.2,0.1,0.4,0.6,0.6,0.6c0.2,0,0.4-0.1,0.5-0.1
					c0.2,0,0.4,0,0.6-0.1c0.2-0.1,0.1-0.3,0.3-0.5c0.1-0.1,0.3,0,0.4-0.1c0.2-0.1,0.3-0.3,0.4-0.5c0-0.1,0-0.1,0-0.2
					c0-0.1,0.1-0.2,0.1-0.3c0-0.1-0.1-0.1-0.1-0.2c0-0.1,0-0.2,0-0.3c0-0.2,0-0.4-0.1-0.5c-0.4-0.7-1.2-0.9-2-0.8
					c-0.2,0-0.3,0.1-0.4,0.2c-0.2,0.1-0.1,0.2-0.3,0.2c-0.1,0-0.2,0.1-0.2,0.2C46.5-64,46.5-64.1,46.5-64C46.5-64,46.5-64,46.5-64"
					/>
				<path fill="#FFFFFF" d="M38.8-64c0,0.1,0,0.1,0,0.2c-0.1,0.1-0.1,0.1-0.2,0.1c-0.1,0.1-0.1,0.3-0.1,0.4c-0.2,0.1,0,0.2,0,0.3
					c0,0,0,0.1,0,0.2c0,0.1,0,0.3,0.1,0.4c0.1,0.2,0.3,0.4,0.4,0.5c0.2,0.1,0.4,0.6,0.6,0.6c0.2,0,0.4-0.1,0.5-0.1
					c0.2,0,0.4,0,0.6-0.1c0.2-0.1,0.1-0.3,0.3-0.5c0.1-0.1,0.3,0,0.4-0.1c0.2-0.1,0.3-0.3,0.4-0.5c0-0.1,0-0.1,0-0.2
					c0-0.1,0.1-0.2,0.1-0.3c0-0.1-0.1-0.1-0.1-0.2c0-0.1,0-0.2,0-0.3c0-0.2,0-0.4-0.1-0.5c-0.4-0.7-1.2-0.9-2-0.8
					c-0.2,0-0.3,0.1-0.4,0.2c-0.2,0.1-0.1,0.2-0.3,0.2c-0.1,0-0.2,0.1-0.2,0.2C38.8-64,38.8-64.1,38.8-64C38.8-64,38.8-64,38.8-64"
					/>
				<path fill="#FFFFFF" d="M31.1-64c0,0.1,0,0.1,0,0.2c-0.1,0.1-0.1,0.1-0.2,0.1c-0.1,0.1-0.1,0.3-0.1,0.4c-0.2,0.1,0,0.2,0,0.3
					c0,0,0,0.1,0,0.2c0,0.1,0,0.3,0.1,0.4c0.1,0.2,0.3,0.4,0.4,0.5c0.2,0.1,0.4,0.6,0.6,0.6c0.2,0,0.4-0.1,0.5-0.1
					c0.2,0,0.4,0,0.6-0.1c0.2-0.1,0.1-0.3,0.3-0.5c0.1-0.1,0.3,0,0.4-0.1c0.2-0.1,0.3-0.3,0.4-0.5c0-0.1,0-0.1,0-0.2
					c0-0.1,0.1-0.2,0.1-0.3c0-0.1-0.1-0.1-0.1-0.2c0-0.1,0-0.2,0-0.3c0-0.2,0-0.4-0.1-0.5c-0.4-0.7-1.2-0.9-2-0.8
					c-0.2,0-0.3,0.1-0.4,0.2c-0.2,0.1-0.1,0.2-0.3,0.2c-0.1,0-0.2,0.1-0.2,0.2C31.1-64,31.1-64.1,31.1-64C31.1-64,31.1-64,31.1-64"
					/>
				<path fill="#FFFFFF" d="M23.5-64c0,0.1,0,0.1,0,0.2c-0.1,0.1-0.1,0.1-0.2,0.1c-0.1,0.1-0.1,0.3-0.1,0.4c-0.2,0.1,0,0.2,0,0.3
					c0,0,0,0.1,0,0.2c0,0.1,0,0.3,0.1,0.4c0.1,0.2,0.3,0.4,0.4,0.5c0.2,0.1,0.4,0.6,0.6,0.6c0.2,0,0.4-0.1,0.5-0.1
					c0.2,0,0.4,0,0.6-0.1c0.2-0.1,0.1-0.3,0.3-0.5c0.1-0.1,0.3,0,0.4-0.1c0.2-0.1,0.3-0.3,0.4-0.5c0-0.1,0-0.1,0-0.2
					c0-0.1,0.1-0.2,0.1-0.3c0-0.1-0.1-0.1-0.1-0.2c0-0.1,0-0.2,0-0.3c0-0.2,0-0.4-0.1-0.5c-0.4-0.7-1.2-0.9-2-0.8
					c-0.2,0-0.3,0.1-0.4,0.2c-0.2,0.1-0.1,0.2-0.3,0.2c-0.1,0-0.2,0.1-0.2,0.2C23.5-64,23.5-64.1,23.5-64C23.5-64,23.5-64,23.5-64"
					/>
				<path fill="#FFFFFF" d="M15.8-64c0,0.1,0,0.1,0,0.2c-0.1,0.1-0.1,0.1-0.2,0.1c-0.1,0.1-0.1,0.3-0.1,0.4c-0.2,0.1,0,0.2,0,0.3
					c0,0,0,0.1,0,0.2c0,0.1,0,0.3,0.1,0.4c0.1,0.2,0.3,0.4,0.4,0.5c0.2,0.1,0.4,0.6,0.6,0.6c0.2,0,0.4-0.1,0.5-0.1
					c0.2,0,0.4,0,0.6-0.1c0.2-0.1,0.1-0.3,0.3-0.5c0.1-0.1,0.3,0,0.4-0.1c0.2-0.1,0.3-0.3,0.4-0.5c0-0.1,0-0.1,0-0.2
					c0-0.1,0.1-0.2,0.1-0.3c0-0.1-0.1-0.1-0.1-0.2c0-0.1,0-0.2,0-0.3c0-0.2,0-0.4-0.1-0.5c-0.4-0.7-1.2-0.9-2-0.8
					c-0.2,0-0.3,0.1-0.4,0.2c-0.2,0.1-0.1,0.2-0.3,0.2c-0.1,0-0.2,0.1-0.2,0.2C15.8-64,15.8-64.1,15.8-64C15.8-64,15.8-64,15.8-64"
					/>
				<path fill="#FFFFFF" d="M8.2-64c0,0.1,0,0.1,0,0.2C8.1-63.7,8-63.7,8-63.7c-0.1,0.1-0.1,0.3-0.1,0.4c-0.2,0.1,0,0.2,0,0.3
					c0,0,0,0.1,0,0.2c0,0.1,0,0.3,0.1,0.4C8-62.2,8.2-62,8.3-61.9c0.2,0.1,0.4,0.6,0.6,0.6c0.2,0,0.4-0.1,0.5-0.1
					c0.2,0,0.4,0,0.6-0.1c0.2-0.1,0.1-0.3,0.3-0.5c0.1-0.1,0.3,0,0.4-0.1c0.2-0.1,0.3-0.3,0.4-0.5c0-0.1,0-0.1,0-0.2
					c0-0.1,0.1-0.2,0.1-0.3c0-0.1-0.1-0.1-0.1-0.2c0-0.1,0-0.2,0-0.3c0-0.2,0-0.4-0.1-0.5c-0.4-0.7-1.2-0.9-2-0.8
					c-0.2,0-0.3,0.1-0.4,0.2c-0.2,0.1-0.1,0.2-0.3,0.2c-0.1,0-0.2,0.1-0.2,0.2C8.2-64,8.2-64.1,8.2-64C8.1-64,8.1-64,8.2-64"/>
				<path fill="#FFFFFF" d="M0.5-64c0,0.1,0,0.1,0,0.2c-0.1,0.1-0.1,0.1-0.2,0.1c-0.1,0.1-0.1,0.3-0.1,0.4c-0.2,0.1,0,0.2,0,0.3
					c0,0,0,0.1,0,0.2c0,0.1,0,0.3,0.1,0.4c0.1,0.2,0.3,0.4,0.4,0.5c0.2,0.1,0.4,0.6,0.6,0.6c0.2,0,0.4-0.1,0.5-0.1
					c0.2,0,0.4,0,0.6-0.1c0.2-0.1,0.1-0.3,0.3-0.5C2.8-62,3-61.9,3.1-62c0.2-0.1,0.3-0.3,0.4-0.5c0-0.1,0-0.1,0-0.2
					c0-0.1,0.1-0.2,0.1-0.3c0-0.1-0.1-0.1-0.1-0.2c0-0.1,0-0.2,0-0.3c0-0.2,0-0.4-0.1-0.5c-0.4-0.7-1.2-0.9-2-0.8
					c-0.2,0-0.3,0.1-0.4,0.2c-0.2,0.1-0.1,0.2-0.3,0.2c-0.1,0-0.2,0.1-0.2,0.2C0.5-64,0.5-64.1,0.5-64C0.5-64,0.5-64,0.5-64"/>
			</g>
			<g>
				<path fill="#FFFFFF" d="M69.4-56.3c0,0.1,0,0.1,0,0.2c-0.1,0.1-0.1,0.1-0.2,0.1c-0.1,0.1-0.1,0.3-0.1,0.4c-0.2,0.1,0,0.2,0,0.3
					c0,0,0,0.1,0,0.2c0,0.1,0,0.3,0.1,0.4c0.1,0.2,0.3,0.4,0.4,0.5c0.2,0.1,0.4,0.6,0.6,0.6c0.2,0,0.4-0.1,0.5-0.1
					c0.2,0,0.4,0,0.6-0.1c0.2-0.1,0.1-0.3,0.3-0.5c0.1-0.1,0.3,0,0.4-0.1c0.2-0.1,0.3-0.3,0.4-0.5c0-0.1,0-0.1,0-0.2
					c0-0.1,0.1-0.2,0.1-0.3c0-0.1-0.1-0.1-0.1-0.2c0-0.1,0-0.2,0-0.3c0-0.2,0-0.4-0.1-0.5c-0.4-0.7-1.2-0.9-2-0.8
					c-0.2,0-0.3,0.1-0.4,0.2c-0.2,0.1-0.1,0.2-0.3,0.2c-0.1,0-0.2,0.1-0.2,0.2C69.4-56.4,69.4-56.4,69.4-56.3
					C69.4-56.3,69.4-56.3,69.4-56.3"/>
				<path fill="#FFFFFF" d="M61.8-56.3c0,0.1,0,0.1,0,0.2c-0.1,0.1-0.1,0.1-0.2,0.1c-0.1,0.1-0.1,0.3-0.1,0.4c-0.2,0.1,0,0.2,0,0.3
					c0,0,0,0.1,0,0.2c0,0.1,0,0.3,0.1,0.4c0.1,0.2,0.3,0.4,0.4,0.5c0.2,0.1,0.4,0.6,0.6,0.6c0.2,0,0.4-0.1,0.5-0.1
					c0.2,0,0.4,0,0.6-0.1c0.2-0.1,0.1-0.3,0.3-0.5c0.1-0.1,0.3,0,0.4-0.1c0.2-0.1,0.3-0.3,0.4-0.5c0-0.1,0-0.1,0-0.2
					c0-0.1,0.1-0.2,0.1-0.3c0-0.1-0.1-0.1-0.1-0.2c0-0.1,0-0.2,0-0.3c0-0.2,0-0.4-0.1-0.5c-0.4-0.7-1.2-0.9-2-0.8
					c-0.2,0-0.3,0.1-0.4,0.2c-0.2,0.1-0.1,0.2-0.3,0.2c-0.1,0-0.2,0.1-0.2,0.2C61.8-56.4,61.8-56.4,61.8-56.3
					C61.8-56.3,61.8-56.3,61.8-56.3"/>
				<path fill="#FFFFFF" d="M54.1-56.3c0,0.1,0,0.1,0,0.2C54-56.1,54-56.1,53.9-56c-0.1,0.1-0.1,0.3-0.1,0.4c-0.2,0.1,0,0.2,0,0.3
					c0,0,0,0.1,0,0.2c0,0.1,0,0.3,0.1,0.4c0.1,0.2,0.3,0.4,0.4,0.5c0.2,0.1,0.4,0.6,0.6,0.6c0.2,0,0.4-0.1,0.5-0.1
					c0.2,0,0.4,0,0.6-0.1c0.2-0.1,0.1-0.3,0.3-0.5c0.1-0.1,0.3,0,0.4-0.1c0.2-0.1,0.3-0.3,0.4-0.5c0-0.1,0-0.1,0-0.2
					c0-0.1,0.1-0.2,0.1-0.3c0-0.1-0.1-0.1-0.1-0.2c0-0.1,0-0.2,0-0.3c0-0.2,0-0.4-0.1-0.5c-0.4-0.7-1.2-0.9-2-0.8
					c-0.2,0-0.3,0.1-0.4,0.2c-0.2,0.1-0.1,0.2-0.3,0.2c-0.1,0-0.2,0.1-0.2,0.2C54.1-56.4,54.1-56.4,54.1-56.3
					C54.1-56.3,54.1-56.3,54.1-56.3"/>
				<path fill="#FFFFFF" d="M46.5-56.3c0,0.1,0,0.1,0,0.2c-0.1,0.1-0.1,0.1-0.2,0.1c-0.1,0.1-0.1,0.3-0.1,0.4c-0.2,0.1,0,0.2,0,0.3
					c0,0,0,0.1,0,0.2c0,0.1,0,0.3,0.1,0.4c0.1,0.2,0.3,0.4,0.4,0.5c0.2,0.1,0.4,0.6,0.6,0.6c0.2,0,0.4-0.1,0.5-0.1
					c0.2,0,0.4,0,0.6-0.1c0.2-0.1,0.1-0.3,0.3-0.5c0.1-0.1,0.3,0,0.4-0.1c0.2-0.1,0.3-0.3,0.4-0.5c0-0.1,0-0.1,0-0.2
					c0-0.1,0.1-0.2,0.1-0.3c0-0.1-0.1-0.1-0.1-0.2c0-0.1,0-0.2,0-0.3c0-0.2,0-0.4-0.1-0.5c-0.4-0.7-1.2-0.9-2-0.8
					c-0.2,0-0.3,0.1-0.4,0.2c-0.2,0.1-0.1,0.2-0.3,0.2c-0.1,0-0.2,0.1-0.2,0.2C46.5-56.4,46.5-56.4,46.5-56.3
					C46.5-56.3,46.5-56.3,46.5-56.3"/>
				<path fill="#FFFFFF" d="M38.8-56.3c0,0.1,0,0.1,0,0.2c-0.1,0.1-0.1,0.1-0.2,0.1c-0.1,0.1-0.1,0.3-0.1,0.4c-0.2,0.1,0,0.2,0,0.3
					c0,0,0,0.1,0,0.2c0,0.1,0,0.3,0.1,0.4c0.1,0.2,0.3,0.4,0.4,0.5c0.2,0.1,0.4,0.6,0.6,0.6c0.2,0,0.4-0.1,0.5-0.1
					c0.2,0,0.4,0,0.6-0.1c0.2-0.1,0.1-0.3,0.3-0.5c0.1-0.1,0.3,0,0.4-0.1c0.2-0.1,0.3-0.3,0.4-0.5c0-0.1,0-0.1,0-0.2
					c0-0.1,0.1-0.2,0.1-0.3c0-0.1-0.1-0.1-0.1-0.2c0-0.1,0-0.2,0-0.3c0-0.2,0-0.4-0.1-0.5c-0.4-0.7-1.2-0.9-2-0.8
					c-0.2,0-0.3,0.1-0.4,0.2c-0.2,0.1-0.1,0.2-0.3,0.2c-0.1,0-0.2,0.1-0.2,0.2C38.8-56.4,38.8-56.4,38.8-56.3
					C38.8-56.3,38.8-56.3,38.8-56.3"/>
				<path fill="#FFFFFF" d="M31.1-56.3c0,0.1,0,0.1,0,0.2c-0.1,0.1-0.1,0.1-0.2,0.1c-0.1,0.1-0.1,0.3-0.1,0.4c-0.2,0.1,0,0.2,0,0.3
					c0,0,0,0.1,0,0.2c0,0.1,0,0.3,0.1,0.4c0.1,0.2,0.3,0.4,0.4,0.5c0.2,0.1,0.4,0.6,0.6,0.6c0.2,0,0.4-0.1,0.5-0.1
					c0.2,0,0.4,0,0.6-0.1c0.2-0.1,0.1-0.3,0.3-0.5c0.1-0.1,0.3,0,0.4-0.1c0.2-0.1,0.3-0.3,0.4-0.5c0-0.1,0-0.1,0-0.2
					c0-0.1,0.1-0.2,0.1-0.3c0-0.1-0.1-0.1-0.1-0.2c0-0.1,0-0.2,0-0.3c0-0.2,0-0.4-0.1-0.5c-0.4-0.7-1.2-0.9-2-0.8
					c-0.2,0-0.3,0.1-0.4,0.2c-0.2,0.1-0.1,0.2-0.3,0.2c-0.1,0-0.2,0.1-0.2,0.2C31.1-56.4,31.1-56.4,31.1-56.3
					C31.1-56.3,31.1-56.3,31.1-56.3"/>
				<path fill="#FFFFFF" d="M23.5-56.3c0,0.1,0,0.1,0,0.2c-0.1,0.1-0.1,0.1-0.2,0.1c-0.1,0.1-0.1,0.3-0.1,0.4c-0.2,0.1,0,0.2,0,0.3
					c0,0,0,0.1,0,0.2c0,0.1,0,0.3,0.1,0.4c0.1,0.2,0.3,0.4,0.4,0.5c0.2,0.1,0.4,0.6,0.6,0.6c0.2,0,0.4-0.1,0.5-0.1
					c0.2,0,0.4,0,0.6-0.1c0.2-0.1,0.1-0.3,0.3-0.5c0.1-0.1,0.3,0,0.4-0.1c0.2-0.1,0.3-0.3,0.4-0.5c0-0.1,0-0.1,0-0.2
					c0-0.1,0.1-0.2,0.1-0.3c0-0.1-0.1-0.1-0.1-0.2c0-0.1,0-0.2,0-0.3c0-0.2,0-0.4-0.1-0.5c-0.4-0.7-1.2-0.9-2-0.8
					c-0.2,0-0.3,0.1-0.4,0.2c-0.2,0.1-0.1,0.2-0.3,0.2c-0.1,0-0.2,0.1-0.2,0.2C23.5-56.4,23.5-56.4,23.5-56.3
					C23.5-56.3,23.5-56.3,23.5-56.3"/>
				<path fill="#FFFFFF" d="M15.8-56.3c0,0.1,0,0.1,0,0.2c-0.1,0.1-0.1,0.1-0.2,0.1c-0.1,0.1-0.1,0.3-0.1,0.4c-0.2,0.1,0,0.2,0,0.3
					c0,0,0,0.1,0,0.2c0,0.1,0,0.3,0.1,0.4c0.1,0.2,0.3,0.4,0.4,0.5c0.2,0.1,0.4,0.6,0.6,0.6c0.2,0,0.4-0.1,0.5-0.1
					c0.2,0,0.4,0,0.6-0.1c0.2-0.1,0.1-0.3,0.3-0.5c0.1-0.1,0.3,0,0.4-0.1c0.2-0.1,0.3-0.3,0.4-0.5c0-0.1,0-0.1,0-0.2
					c0-0.1,0.1-0.2,0.1-0.3c0-0.1-0.1-0.1-0.1-0.2c0-0.1,0-0.2,0-0.3c0-0.2,0-0.4-0.1-0.5c-0.4-0.7-1.2-0.9-2-0.8
					c-0.2,0-0.3,0.1-0.4,0.2c-0.2,0.1-0.1,0.2-0.3,0.2c-0.1,0-0.2,0.1-0.2,0.2C15.8-56.4,15.8-56.4,15.8-56.3
					C15.8-56.3,15.8-56.3,15.8-56.3"/>
				<path fill="#FFFFFF" d="M8.2-56.3c0,0.1,0,0.1,0,0.2C8.1-56.1,8-56.1,8-56c-0.1,0.1-0.1,0.3-0.1,0.4c-0.2,0.1,0,0.2,0,0.3
					c0,0,0,0.1,0,0.2c0,0.1,0,0.3,0.1,0.4c0.1,0.2,0.3,0.4,0.4,0.5c0.2,0.1,0.4,0.6,0.6,0.6c0.2,0,0.4-0.1,0.5-0.1
					c0.2,0,0.4,0,0.6-0.1c0.2-0.1,0.1-0.3,0.3-0.5c0.1-0.1,0.3,0,0.4-0.1c0.2-0.1,0.3-0.3,0.4-0.5c0-0.1,0-0.1,0-0.2
					c0-0.1,0.1-0.2,0.1-0.3c0-0.1-0.1-0.1-0.1-0.2c0-0.1,0-0.2,0-0.3c0-0.2,0-0.4-0.1-0.5c-0.4-0.7-1.2-0.9-2-0.8
					c-0.2,0-0.3,0.1-0.4,0.2c-0.2,0.1-0.1,0.2-0.3,0.2c-0.1,0-0.2,0.1-0.2,0.2C8.2-56.4,8.2-56.4,8.2-56.3
					C8.1-56.3,8.1-56.3,8.2-56.3"/>
				<path fill="#FFFFFF" d="M0.5-56.3c0,0.1,0,0.1,0,0.2c-0.1,0.1-0.1,0.1-0.2,0.1c-0.1,0.1-0.1,0.3-0.1,0.4c-0.2,0.1,0,0.2,0,0.3
					c0,0,0,0.1,0,0.2c0,0.1,0,0.3,0.1,0.4c0.1,0.2,0.3,0.4,0.4,0.5c0.2,0.1,0.4,0.6,0.6,0.6c0.2,0,0.4-0.1,0.5-0.1
					c0.2,0,0.4,0,0.6-0.1c0.2-0.1,0.1-0.3,0.3-0.5c0.1-0.1,0.3,0,0.4-0.1c0.2-0.1,0.3-0.3,0.4-0.5c0-0.1,0-0.1,0-0.2
					c0-0.1,0.1-0.2,0.1-0.3c0-0.1-0.1-0.1-0.1-0.2c0-0.1,0-0.2,0-0.3c0-0.2,0-0.4-0.1-0.5c-0.4-0.7-1.2-0.9-2-0.8
					c-0.2,0-0.3,0.1-0.4,0.2c-0.2,0.1-0.1,0.2-0.3,0.2c-0.1,0-0.2,0.1-0.2,0.2C0.5-56.4,0.5-56.4,0.5-56.3
					C0.5-56.3,0.5-56.3,0.5-56.3"/>
			</g>
			<g>
				<path fill="#FFFFFF" d="M69.4-48.7c0,0.1,0,0.1,0,0.2c-0.1,0.1-0.1,0.1-0.2,0.1c-0.1,0.1-0.1,0.3-0.1,0.4c-0.2,0.1,0,0.2,0,0.3
					c0,0,0,0.1,0,0.2c0,0.1,0,0.3,0.1,0.4c0.1,0.2,0.3,0.4,0.4,0.5c0.2,0.1,0.4,0.6,0.6,0.6c0.2,0,0.4-0.1,0.5-0.1
					c0.2,0,0.4,0,0.6-0.1c0.2-0.1,0.1-0.3,0.3-0.5c0.1-0.1,0.3,0,0.4-0.1c0.2-0.1,0.3-0.3,0.4-0.5c0-0.1,0-0.1,0-0.2
					c0-0.1,0.1-0.2,0.1-0.3c0-0.1-0.1-0.1-0.1-0.2c0-0.1,0-0.2,0-0.3c0-0.2,0-0.4-0.1-0.5c-0.4-0.7-1.2-0.9-2-0.8
					c-0.2,0-0.3,0.1-0.4,0.2c-0.2,0.1-0.1,0.2-0.3,0.2c-0.1,0-0.2,0.1-0.2,0.2C69.4-48.7,69.4-48.8,69.4-48.7
					C69.4-48.7,69.4-48.7,69.4-48.7"/>
				<path fill="#FFFFFF" d="M61.8-48.7c0,0.1,0,0.1,0,0.2c-0.1,0.1-0.1,0.1-0.2,0.1c-0.1,0.1-0.1,0.3-0.1,0.4c-0.2,0.1,0,0.2,0,0.3
					c0,0,0,0.1,0,0.2c0,0.1,0,0.3,0.1,0.4c0.1,0.2,0.3,0.4,0.4,0.5c0.2,0.1,0.4,0.6,0.6,0.6c0.2,0,0.4-0.1,0.5-0.1
					c0.2,0,0.4,0,0.6-0.1c0.2-0.1,0.1-0.3,0.3-0.5c0.1-0.1,0.3,0,0.4-0.1c0.2-0.1,0.3-0.3,0.4-0.5c0-0.1,0-0.1,0-0.2
					c0-0.1,0.1-0.2,0.1-0.3c0-0.1-0.1-0.1-0.1-0.2c0-0.1,0-0.2,0-0.3c0-0.2,0-0.4-0.1-0.5c-0.4-0.7-1.2-0.9-2-0.8
					c-0.2,0-0.3,0.1-0.4,0.2c-0.2,0.1-0.1,0.2-0.3,0.2c-0.1,0-0.2,0.1-0.2,0.2C61.8-48.7,61.8-48.8,61.8-48.7
					C61.8-48.7,61.8-48.7,61.8-48.7"/>
				<path fill="#FFFFFF" d="M54.1-48.7c0,0.1,0,0.1,0,0.2c-0.1,0.1-0.1,0.1-0.2,0.1c-0.1,0.1-0.1,0.3-0.1,0.4c-0.2,0.1,0,0.2,0,0.3
					c0,0,0,0.1,0,0.2c0,0.1,0,0.3,0.1,0.4c0.1,0.2,0.3,0.4,0.4,0.5c0.2,0.1,0.4,0.6,0.6,0.6c0.2,0,0.4-0.1,0.5-0.1
					c0.2,0,0.4,0,0.6-0.1c0.2-0.1,0.1-0.3,0.3-0.5c0.1-0.1,0.3,0,0.4-0.1c0.2-0.1,0.3-0.3,0.4-0.5c0-0.1,0-0.1,0-0.2
					c0-0.1,0.1-0.2,0.1-0.3c0-0.1-0.1-0.1-0.1-0.2c0-0.1,0-0.2,0-0.3c0-0.2,0-0.4-0.1-0.5c-0.4-0.7-1.2-0.9-2-0.8
					c-0.2,0-0.3,0.1-0.4,0.2c-0.2,0.1-0.1,0.2-0.3,0.2c-0.1,0-0.2,0.1-0.2,0.2C54.1-48.7,54.1-48.8,54.1-48.7
					C54.1-48.7,54.1-48.7,54.1-48.7"/>
				<path fill="#FFFFFF" d="M46.5-48.7c0,0.1,0,0.1,0,0.2c-0.1,0.1-0.1,0.1-0.2,0.1c-0.1,0.1-0.1,0.3-0.1,0.4c-0.2,0.1,0,0.2,0,0.3
					c0,0,0,0.1,0,0.2c0,0.1,0,0.3,0.1,0.4c0.1,0.2,0.3,0.4,0.4,0.5c0.2,0.1,0.4,0.6,0.6,0.6c0.2,0,0.4-0.1,0.5-0.1
					c0.2,0,0.4,0,0.6-0.1c0.2-0.1,0.1-0.3,0.3-0.5c0.1-0.1,0.3,0,0.4-0.1c0.2-0.1,0.3-0.3,0.4-0.5c0-0.1,0-0.1,0-0.2
					c0-0.1,0.1-0.2,0.1-0.3c0-0.1-0.1-0.1-0.1-0.2c0-0.1,0-0.2,0-0.3c0-0.2,0-0.4-0.1-0.5c-0.4-0.7-1.2-0.9-2-0.8
					c-0.2,0-0.3,0.1-0.4,0.2c-0.2,0.1-0.1,0.2-0.3,0.2c-0.1,0-0.2,0.1-0.2,0.2C46.5-48.7,46.5-48.8,46.5-48.7
					C46.5-48.7,46.5-48.7,46.5-48.7"/>
				<path fill="#FFFFFF" d="M38.8-48.7c0,0.1,0,0.1,0,0.2c-0.1,0.1-0.1,0.1-0.2,0.1c-0.1,0.1-0.1,0.3-0.1,0.4c-0.2,0.1,0,0.2,0,0.3
					c0,0,0,0.1,0,0.2c0,0.1,0,0.3,0.1,0.4c0.1,0.2,0.3,0.4,0.4,0.5c0.2,0.1,0.4,0.6,0.6,0.6c0.2,0,0.4-0.1,0.5-0.1
					c0.2,0,0.4,0,0.6-0.1c0.2-0.1,0.1-0.3,0.3-0.5c0.1-0.1,0.3,0,0.4-0.1c0.2-0.1,0.3-0.3,0.4-0.5c0-0.1,0-0.1,0-0.2
					c0-0.1,0.1-0.2,0.1-0.3c0-0.1-0.1-0.1-0.1-0.2c0-0.1,0-0.2,0-0.3c0-0.2,0-0.4-0.1-0.5c-0.4-0.7-1.2-0.9-2-0.8
					c-0.2,0-0.3,0.1-0.4,0.2c-0.2,0.1-0.1,0.2-0.3,0.2c-0.1,0-0.2,0.1-0.2,0.2C38.8-48.7,38.8-48.8,38.8-48.7
					C38.8-48.7,38.8-48.7,38.8-48.7"/>
				<path fill="#FFFFFF" d="M31.1-48.7c0,0.1,0,0.1,0,0.2c-0.1,0.1-0.1,0.1-0.2,0.1c-0.1,0.1-0.1,0.3-0.1,0.4c-0.2,0.1,0,0.2,0,0.3
					c0,0,0,0.1,0,0.2c0,0.1,0,0.3,0.1,0.4c0.1,0.2,0.3,0.4,0.4,0.5c0.2,0.1,0.4,0.6,0.6,0.6c0.2,0,0.4-0.1,0.5-0.1
					c0.2,0,0.4,0,0.6-0.1c0.2-0.1,0.1-0.3,0.3-0.5c0.1-0.1,0.3,0,0.4-0.1c0.2-0.1,0.3-0.3,0.4-0.5c0-0.1,0-0.1,0-0.2
					c0-0.1,0.1-0.2,0.1-0.3c0-0.1-0.1-0.1-0.1-0.2c0-0.1,0-0.2,0-0.3c0-0.2,0-0.4-0.1-0.5c-0.4-0.7-1.2-0.9-2-0.8
					c-0.2,0-0.3,0.1-0.4,0.2c-0.2,0.1-0.1,0.2-0.3,0.2c-0.1,0-0.2,0.1-0.2,0.2C31.1-48.7,31.1-48.8,31.1-48.7
					C31.1-48.7,31.1-48.7,31.1-48.7"/>
				<path fill="#FFFFFF" d="M23.5-48.7c0,0.1,0,0.1,0,0.2c-0.1,0.1-0.1,0.1-0.2,0.1c-0.1,0.1-0.1,0.3-0.1,0.4c-0.2,0.1,0,0.2,0,0.3
					c0,0,0,0.1,0,0.2c0,0.1,0,0.3,0.1,0.4c0.1,0.2,0.3,0.4,0.4,0.5c0.2,0.1,0.4,0.6,0.6,0.6c0.2,0,0.4-0.1,0.5-0.1
					c0.2,0,0.4,0,0.6-0.1c0.2-0.1,0.1-0.3,0.3-0.5c0.1-0.1,0.3,0,0.4-0.1c0.2-0.1,0.3-0.3,0.4-0.5c0-0.1,0-0.1,0-0.2
					c0-0.1,0.1-0.2,0.1-0.3c0-0.1-0.1-0.1-0.1-0.2c0-0.1,0-0.2,0-0.3c0-0.2,0-0.4-0.1-0.5c-0.4-0.7-1.2-0.9-2-0.8
					c-0.2,0-0.3,0.1-0.4,0.2c-0.2,0.1-0.1,0.2-0.3,0.2c-0.1,0-0.2,0.1-0.2,0.2C23.5-48.7,23.5-48.8,23.5-48.7
					C23.5-48.7,23.5-48.7,23.5-48.7"/>
				<path fill="#FFFFFF" d="M15.8-48.7c0,0.1,0,0.1,0,0.2c-0.1,0.1-0.1,0.1-0.2,0.1c-0.1,0.1-0.1,0.3-0.1,0.4c-0.2,0.1,0,0.2,0,0.3
					c0,0,0,0.1,0,0.2c0,0.1,0,0.3,0.1,0.4c0.1,0.2,0.3,0.4,0.4,0.5c0.2,0.1,0.4,0.6,0.6,0.6c0.2,0,0.4-0.1,0.5-0.1
					c0.2,0,0.4,0,0.6-0.1c0.2-0.1,0.1-0.3,0.3-0.5c0.1-0.1,0.3,0,0.4-0.1c0.2-0.1,0.3-0.3,0.4-0.5c0-0.1,0-0.1,0-0.2
					c0-0.1,0.1-0.2,0.1-0.3c0-0.1-0.1-0.1-0.1-0.2c0-0.1,0-0.2,0-0.3c0-0.2,0-0.4-0.1-0.5c-0.4-0.7-1.2-0.9-2-0.8
					c-0.2,0-0.3,0.1-0.4,0.2c-0.2,0.1-0.1,0.2-0.3,0.2c-0.1,0-0.2,0.1-0.2,0.2C15.8-48.7,15.8-48.8,15.8-48.7
					C15.8-48.7,15.8-48.7,15.8-48.7"/>
				<path fill="#FFFFFF" d="M8.2-48.7c0,0.1,0,0.1,0,0.2C8.1-48.4,8-48.4,8-48.4c-0.1,0.1-0.1,0.3-0.1,0.4c-0.2,0.1,0,0.2,0,0.3
					c0,0,0,0.1,0,0.2c0,0.1,0,0.3,0.1,0.4c0.1,0.2,0.3,0.4,0.4,0.5C8.5-46.4,8.7-46,8.9-46c0.2,0,0.4-0.1,0.5-0.1
					c0.2,0,0.4,0,0.6-0.1c0.2-0.1,0.1-0.3,0.3-0.5c0.1-0.1,0.3,0,0.4-0.1c0.2-0.1,0.3-0.3,0.4-0.5c0-0.1,0-0.1,0-0.2
					c0-0.1,0.1-0.2,0.1-0.3c0-0.1-0.1-0.1-0.1-0.2c0-0.1,0-0.2,0-0.3c0-0.2,0-0.4-0.1-0.5c-0.4-0.7-1.2-0.9-2-0.8
					c-0.2,0-0.3,0.1-0.4,0.2c-0.2,0.1-0.1,0.2-0.3,0.2c-0.1,0-0.2,0.1-0.2,0.2C8.2-48.7,8.2-48.8,8.2-48.7
					C8.1-48.7,8.1-48.7,8.2-48.7"/>
				<path fill="#FFFFFF" d="M0.5-48.7c0,0.1,0,0.1,0,0.2c-0.1,0.1-0.1,0.1-0.2,0.1c-0.1,0.1-0.1,0.3-0.1,0.4c-0.2,0.1,0,0.2,0,0.3
					c0,0,0,0.1,0,0.2c0,0.1,0,0.3,0.1,0.4c0.1,0.2,0.3,0.4,0.4,0.5C0.9-46.4,1-46,1.3-46c0.2,0,0.4-0.1,0.5-0.1c0.2,0,0.4,0,0.6-0.1
					c0.2-0.1,0.1-0.3,0.3-0.5c0.1-0.1,0.3,0,0.4-0.1c0.2-0.1,0.3-0.3,0.4-0.5c0-0.1,0-0.1,0-0.2c0-0.1,0.1-0.2,0.1-0.3
					c0-0.1-0.1-0.1-0.1-0.2c0-0.1,0-0.2,0-0.3c0-0.2,0-0.4-0.1-0.5c-0.4-0.7-1.2-0.9-2-0.8c-0.2,0-0.3,0.1-0.4,0.2
					c-0.2,0.1-0.1,0.2-0.3,0.2c-0.1,0-0.2,0.1-0.2,0.2C0.5-48.7,0.5-48.8,0.5-48.7C0.5-48.7,0.5-48.7,0.5-48.7"/>
			</g>
			<g>
				<path fill="#FFFFFF" d="M69.4-41c0,0.1,0,0.1,0,0.2c-0.1,0.1-0.1,0.1-0.2,0.1c-0.1,0.1-0.1,0.3-0.1,0.4c-0.2,0.1,0,0.2,0,0.3
					c0,0,0,0.1,0,0.2c0,0.1,0,0.3,0.1,0.4c0.1,0.2,0.3,0.4,0.4,0.5c0.2,0.1,0.4,0.6,0.6,0.6c0.2,0,0.4-0.1,0.5-0.1
					c0.2,0,0.4,0,0.6-0.1c0.2-0.1,0.1-0.3,0.3-0.5c0.1-0.1,0.3,0,0.4-0.1c0.2-0.1,0.3-0.3,0.4-0.5c0-0.1,0-0.1,0-0.2
					c0-0.1,0.1-0.2,0.1-0.3c0-0.1-0.1-0.1-0.1-0.2c0-0.1,0-0.2,0-0.3c0-0.2,0-0.4-0.1-0.5c-0.4-0.7-1.2-0.9-2-0.8
					c-0.2,0-0.3,0.1-0.4,0.2c-0.2,0.1-0.1,0.2-0.3,0.2c-0.1,0-0.2,0.1-0.2,0.2C69.4-41.1,69.4-41.1,69.4-41C69.4-41,69.4-41,69.4-41
					"/>
				<path fill="#FFFFFF" d="M61.8-41c0,0.1,0,0.1,0,0.2c-0.1,0.1-0.1,0.1-0.2,0.1c-0.1,0.1-0.1,0.3-0.1,0.4c-0.2,0.1,0,0.2,0,0.3
					c0,0,0,0.1,0,0.2c0,0.1,0,0.3,0.1,0.4c0.1,0.2,0.3,0.4,0.4,0.5c0.2,0.1,0.4,0.6,0.6,0.6c0.2,0,0.4-0.1,0.5-0.1
					c0.2,0,0.4,0,0.6-0.1c0.2-0.1,0.1-0.3,0.3-0.5c0.1-0.1,0.3,0,0.4-0.1c0.2-0.1,0.3-0.3,0.4-0.5c0-0.1,0-0.1,0-0.2
					c0-0.1,0.1-0.2,0.1-0.3c0-0.1-0.1-0.1-0.1-0.2c0-0.1,0-0.2,0-0.3c0-0.2,0-0.4-0.1-0.5c-0.4-0.7-1.2-0.9-2-0.8
					c-0.2,0-0.3,0.1-0.4,0.2c-0.2,0.1-0.1,0.2-0.3,0.2c-0.1,0-0.2,0.1-0.2,0.2C61.8-41.1,61.8-41.1,61.8-41C61.8-41,61.8-41,61.8-41
					"/>
				<path fill="#FFFFFF" d="M54.1-41c0,0.1,0,0.1,0,0.2c-0.1,0.1-0.1,0.1-0.2,0.1c-0.1,0.1-0.1,0.3-0.1,0.4c-0.2,0.1,0,0.2,0,0.3
					c0,0,0,0.1,0,0.2c0,0.1,0,0.3,0.1,0.4c0.1,0.2,0.3,0.4,0.4,0.5c0.2,0.1,0.4,0.6,0.6,0.6c0.2,0,0.4-0.1,0.5-0.1
					c0.2,0,0.4,0,0.6-0.1c0.2-0.1,0.1-0.3,0.3-0.5c0.1-0.1,0.3,0,0.4-0.1c0.2-0.1,0.3-0.3,0.4-0.5c0-0.1,0-0.1,0-0.2
					c0-0.1,0.1-0.2,0.1-0.3c0-0.1-0.1-0.1-0.1-0.2c0-0.1,0-0.2,0-0.3c0-0.2,0-0.4-0.1-0.5c-0.4-0.7-1.2-0.9-2-0.8
					c-0.2,0-0.3,0.1-0.4,0.2c-0.2,0.1-0.1,0.2-0.3,0.2c-0.1,0-0.2,0.1-0.2,0.2C54.1-41.1,54.1-41.1,54.1-41C54.1-41,54.1-41,54.1-41
					"/>
				<path fill="#FFFFFF" d="M46.5-41c0,0.1,0,0.1,0,0.2c-0.1,0.1-0.1,0.1-0.2,0.1c-0.1,0.1-0.1,0.3-0.1,0.4c-0.2,0.1,0,0.2,0,0.3
					c0,0,0,0.1,0,0.2c0,0.1,0,0.3,0.1,0.4c0.1,0.2,0.3,0.4,0.4,0.5c0.2,0.1,0.4,0.6,0.6,0.6c0.2,0,0.4-0.1,0.5-0.1
					c0.2,0,0.4,0,0.6-0.1c0.2-0.1,0.1-0.3,0.3-0.5c0.1-0.1,0.3,0,0.4-0.1c0.2-0.1,0.3-0.3,0.4-0.5c0-0.1,0-0.1,0-0.2
					c0-0.1,0.1-0.2,0.1-0.3c0-0.1-0.1-0.1-0.1-0.2c0-0.1,0-0.2,0-0.3c0-0.2,0-0.4-0.1-0.5c-0.4-0.7-1.2-0.9-2-0.8
					c-0.2,0-0.3,0.1-0.4,0.2c-0.2,0.1-0.1,0.2-0.3,0.2c-0.1,0-0.2,0.1-0.2,0.2C46.5-41.1,46.5-41.1,46.5-41C46.5-41,46.5-41,46.5-41
					"/>
				<path fill="#FFFFFF" d="M38.8-41c0,0.1,0,0.1,0,0.2c-0.1,0.1-0.1,0.1-0.2,0.1c-0.1,0.1-0.1,0.3-0.1,0.4c-0.2,0.1,0,0.2,0,0.3
					c0,0,0,0.1,0,0.2c0,0.1,0,0.3,0.1,0.4c0.1,0.2,0.3,0.4,0.4,0.5c0.2,0.1,0.4,0.6,0.6,0.6c0.2,0,0.4-0.1,0.5-0.1
					c0.2,0,0.4,0,0.6-0.1c0.2-0.1,0.1-0.3,0.3-0.5c0.1-0.1,0.3,0,0.4-0.1c0.2-0.1,0.3-0.3,0.4-0.5c0-0.1,0-0.1,0-0.2
					c0-0.1,0.1-0.2,0.1-0.3c0-0.1-0.1-0.1-0.1-0.2c0-0.1,0-0.2,0-0.3c0-0.2,0-0.4-0.1-0.5c-0.4-0.7-1.2-0.9-2-0.8
					c-0.2,0-0.3,0.1-0.4,0.2c-0.2,0.1-0.1,0.2-0.3,0.2c-0.1,0-0.2,0.1-0.2,0.2C38.8-41.1,38.8-41.1,38.8-41C38.8-41,38.8-41,38.8-41
					"/>
				<path fill="#FFFFFF" d="M31.1-41c0,0.1,0,0.1,0,0.2c-0.1,0.1-0.1,0.1-0.2,0.1c-0.1,0.1-0.1,0.3-0.1,0.4c-0.2,0.1,0,0.2,0,0.3
					c0,0,0,0.1,0,0.2c0,0.1,0,0.3,0.1,0.4c0.1,0.2,0.3,0.4,0.4,0.5c0.2,0.1,0.4,0.6,0.6,0.6c0.2,0,0.4-0.1,0.5-0.1
					c0.2,0,0.4,0,0.6-0.1c0.2-0.1,0.1-0.3,0.3-0.5c0.1-0.1,0.3,0,0.4-0.1c0.2-0.1,0.3-0.3,0.4-0.5c0-0.1,0-0.1,0-0.2
					c0-0.1,0.1-0.2,0.1-0.3c0-0.1-0.1-0.1-0.1-0.2c0-0.1,0-0.2,0-0.3c0-0.2,0-0.4-0.1-0.5c-0.4-0.7-1.2-0.9-2-0.8
					c-0.2,0-0.3,0.1-0.4,0.2c-0.2,0.1-0.1,0.2-0.3,0.2c-0.1,0-0.2,0.1-0.2,0.2C31.1-41.1,31.1-41.1,31.1-41C31.1-41,31.1-41,31.1-41
					"/>
				<path fill="#FFFFFF" d="M23.5-41c0,0.1,0,0.1,0,0.2c-0.1,0.1-0.1,0.1-0.2,0.1c-0.1,0.1-0.1,0.3-0.1,0.4c-0.2,0.1,0,0.2,0,0.3
					c0,0,0,0.1,0,0.2c0,0.1,0,0.3,0.1,0.4c0.1,0.2,0.3,0.4,0.4,0.5c0.2,0.1,0.4,0.6,0.6,0.6c0.2,0,0.4-0.1,0.5-0.1
					c0.2,0,0.4,0,0.6-0.1c0.2-0.1,0.1-0.3,0.3-0.5c0.1-0.1,0.3,0,0.4-0.1c0.2-0.1,0.3-0.3,0.4-0.5c0-0.1,0-0.1,0-0.2
					c0-0.1,0.1-0.2,0.1-0.3c0-0.1-0.1-0.1-0.1-0.2c0-0.1,0-0.2,0-0.3c0-0.2,0-0.4-0.1-0.5c-0.4-0.7-1.2-0.9-2-0.8
					c-0.2,0-0.3,0.1-0.4,0.2c-0.2,0.1-0.1,0.2-0.3,0.2c-0.1,0-0.2,0.1-0.2,0.2C23.5-41.1,23.5-41.1,23.5-41C23.5-41,23.5-41,23.5-41
					"/>
				<path fill="#FFFFFF" d="M15.8-41c0,0.1,0,0.1,0,0.2c-0.1,0.1-0.1,0.1-0.2,0.1c-0.1,0.1-0.1,0.3-0.1,0.4c-0.2,0.1,0,0.2,0,0.3
					c0,0,0,0.1,0,0.2c0,0.1,0,0.3,0.1,0.4c0.1,0.2,0.3,0.4,0.4,0.5c0.2,0.1,0.4,0.6,0.6,0.6c0.2,0,0.4-0.1,0.5-0.1
					c0.2,0,0.4,0,0.6-0.1c0.2-0.1,0.1-0.3,0.3-0.5c0.1-0.1,0.3,0,0.4-0.1c0.2-0.1,0.3-0.3,0.4-0.5c0-0.1,0-0.1,0-0.2
					c0-0.1,0.1-0.2,0.1-0.3c0-0.1-0.1-0.1-0.1-0.2c0-0.1,0-0.2,0-0.3c0-0.2,0-0.4-0.1-0.5c-0.4-0.7-1.2-0.9-2-0.8
					c-0.2,0-0.3,0.1-0.4,0.2c-0.2,0.1-0.1,0.2-0.3,0.2c-0.1,0-0.2,0.1-0.2,0.2C15.8-41.1,15.8-41.1,15.8-41C15.8-41,15.8-41,15.8-41
					"/>
				<path fill="#FFFFFF" d="M8.2-41c0,0.1,0,0.1,0,0.2C8.1-40.8,8-40.8,8-40.7c-0.1,0.1-0.1,0.3-0.1,0.4c-0.2,0.1,0,0.2,0,0.3
					c0,0,0,0.1,0,0.2c0,0.1,0,0.3,0.1,0.4c0.1,0.2,0.3,0.4,0.4,0.5c0.2,0.1,0.4,0.6,0.6,0.6c0.2,0,0.4-0.1,0.5-0.1
					c0.2,0,0.4,0,0.6-0.1c0.2-0.1,0.1-0.3,0.3-0.5c0.1-0.1,0.3,0,0.4-0.1c0.2-0.1,0.3-0.3,0.4-0.5c0-0.1,0-0.1,0-0.2
					c0-0.1,0.1-0.2,0.1-0.3c0-0.1-0.1-0.1-0.1-0.2c0-0.1,0-0.2,0-0.3c0-0.2,0-0.4-0.1-0.5c-0.4-0.7-1.2-0.9-2-0.8
					c-0.2,0-0.3,0.1-0.4,0.2c-0.2,0.1-0.1,0.2-0.3,0.2c-0.1,0-0.2,0.1-0.2,0.2C8.2-41.1,8.2-41.1,8.2-41C8.1-41,8.1-41,8.2-41"/>
				<path fill="#FFFFFF" d="M0.5-41c0,0.1,0,0.1,0,0.2c-0.1,0.1-0.1,0.1-0.2,0.1c-0.1,0.1-0.1,0.3-0.1,0.4c-0.2,0.1,0,0.2,0,0.3
					c0,0,0,0.1,0,0.2c0,0.1,0,0.3,0.1,0.4c0.1,0.2,0.3,0.4,0.4,0.5c0.2,0.1,0.4,0.6,0.6,0.6c0.2,0,0.4-0.1,0.5-0.1
					c0.2,0,0.4,0,0.6-0.1c0.2-0.1,0.1-0.3,0.3-0.5C2.8-39,3-39,3.1-39c0.2-0.1,0.3-0.3,0.4-0.5c0-0.1,0-0.1,0-0.2
					c0-0.1,0.1-0.2,0.1-0.3c0-0.1-0.1-0.1-0.1-0.2c0-0.1,0-0.2,0-0.3c0-0.2,0-0.4-0.1-0.5c-0.4-0.7-1.2-0.9-2-0.8
					c-0.2,0-0.3,0.1-0.4,0.2c-0.2,0.1-0.1,0.2-0.3,0.2c-0.1,0-0.2,0.1-0.2,0.2C0.5-41.1,0.5-41.1,0.5-41C0.5-41,0.5-41,0.5-41"/>
			</g>
			<g>
				<path fill="#FFFFFF" d="M69.4-33.4c0,0.1,0,0.1,0,0.2c-0.1,0.1-0.1,0.1-0.2,0.1c-0.1,0.1-0.1,0.3-0.1,0.4c-0.2,0.1,0,0.2,0,0.3
					c0,0,0,0.1,0,0.2c0,0.1,0,0.3,0.1,0.4c0.1,0.2,0.3,0.4,0.4,0.5c0.2,0.1,0.4,0.6,0.6,0.6c0.2,0,0.4-0.1,0.5-0.1
					c0.2,0,0.4,0,0.6-0.1c0.2-0.1,0.1-0.3,0.3-0.5c0.1-0.1,0.3,0,0.4-0.1c0.2-0.1,0.3-0.3,0.4-0.5c0-0.1,0-0.1,0-0.2
					c0-0.1,0.1-0.2,0.1-0.3c0-0.1-0.1-0.1-0.1-0.2c0-0.1,0-0.2,0-0.3c0-0.2,0-0.4-0.1-0.5c-0.4-0.7-1.2-0.9-2-0.8
					c-0.2,0-0.3,0.1-0.4,0.2c-0.2,0.1-0.1,0.2-0.3,0.2c-0.1,0-0.2,0.1-0.2,0.2C69.4-33.4,69.4-33.5,69.4-33.4
					C69.4-33.4,69.4-33.4,69.4-33.4"/>
				<path fill="#FFFFFF" d="M61.8-33.4c0,0.1,0,0.1,0,0.2c-0.1,0.1-0.1,0.1-0.2,0.1c-0.1,0.1-0.1,0.3-0.1,0.4c-0.2,0.1,0,0.2,0,0.3
					c0,0,0,0.1,0,0.2c0,0.1,0,0.3,0.1,0.4c0.1,0.2,0.3,0.4,0.4,0.5c0.2,0.1,0.4,0.6,0.6,0.6c0.2,0,0.4-0.1,0.5-0.1
					c0.2,0,0.4,0,0.6-0.1c0.2-0.1,0.1-0.3,0.3-0.5c0.1-0.1,0.3,0,0.4-0.1c0.2-0.1,0.3-0.3,0.4-0.5c0-0.1,0-0.1,0-0.2
					c0-0.1,0.1-0.2,0.1-0.3c0-0.1-0.1-0.1-0.1-0.2c0-0.1,0-0.2,0-0.3c0-0.2,0-0.4-0.1-0.5c-0.4-0.7-1.2-0.9-2-0.8
					c-0.2,0-0.3,0.1-0.4,0.2c-0.2,0.1-0.1,0.2-0.3,0.2c-0.1,0-0.2,0.1-0.2,0.2C61.8-33.4,61.8-33.5,61.8-33.4
					C61.8-33.4,61.8-33.4,61.8-33.4"/>
				<path fill="#FFFFFF" d="M54.1-33.4c0,0.1,0,0.1,0,0.2c-0.1,0.1-0.1,0.1-0.2,0.1c-0.1,0.1-0.1,0.3-0.1,0.4c-0.2,0.1,0,0.2,0,0.3
					c0,0,0,0.1,0,0.2c0,0.1,0,0.3,0.1,0.4c0.1,0.2,0.3,0.4,0.4,0.5c0.2,0.1,0.4,0.6,0.6,0.6c0.2,0,0.4-0.1,0.5-0.1
					c0.2,0,0.4,0,0.6-0.1c0.2-0.1,0.1-0.3,0.3-0.5c0.1-0.1,0.3,0,0.4-0.1c0.2-0.1,0.3-0.3,0.4-0.5c0-0.1,0-0.1,0-0.2
					c0-0.1,0.1-0.2,0.1-0.3c0-0.1-0.1-0.1-0.1-0.2c0-0.1,0-0.2,0-0.3c0-0.2,0-0.4-0.1-0.5c-0.4-0.7-1.2-0.9-2-0.8
					c-0.2,0-0.3,0.1-0.4,0.2c-0.2,0.1-0.1,0.2-0.3,0.2c-0.1,0-0.2,0.1-0.2,0.2C54.1-33.4,54.1-33.5,54.1-33.4
					C54.1-33.4,54.1-33.4,54.1-33.4"/>
				<path fill="#FFFFFF" d="M46.5-33.4c0,0.1,0,0.1,0,0.2c-0.1,0.1-0.1,0.1-0.2,0.1c-0.1,0.1-0.1,0.3-0.1,0.4c-0.2,0.1,0,0.2,0,0.3
					c0,0,0,0.1,0,0.2c0,0.1,0,0.3,0.1,0.4c0.1,0.2,0.3,0.4,0.4,0.5c0.2,0.1,0.4,0.6,0.6,0.6c0.2,0,0.4-0.1,0.5-0.1
					c0.2,0,0.4,0,0.6-0.1c0.2-0.1,0.1-0.3,0.3-0.5c0.1-0.1,0.3,0,0.4-0.1c0.2-0.1,0.3-0.3,0.4-0.5c0-0.1,0-0.1,0-0.2
					c0-0.1,0.1-0.2,0.1-0.3c0-0.1-0.1-0.1-0.1-0.2c0-0.1,0-0.2,0-0.3c0-0.2,0-0.4-0.1-0.5c-0.4-0.7-1.2-0.9-2-0.8
					c-0.2,0-0.3,0.1-0.4,0.2c-0.2,0.1-0.1,0.2-0.3,0.2c-0.1,0-0.2,0.1-0.2,0.2C46.5-33.4,46.5-33.5,46.5-33.4
					C46.5-33.4,46.5-33.4,46.5-33.4"/>
				<path fill="#FFFFFF" d="M38.8-33.4c0,0.1,0,0.1,0,0.2c-0.1,0.1-0.1,0.1-0.2,0.1c-0.1,0.1-0.1,0.3-0.1,0.4c-0.2,0.1,0,0.2,0,0.3
					c0,0,0,0.1,0,0.2c0,0.1,0,0.3,0.1,0.4c0.1,0.2,0.3,0.4,0.4,0.5c0.2,0.1,0.4,0.6,0.6,0.6c0.2,0,0.4-0.1,0.5-0.1
					c0.2,0,0.4,0,0.6-0.1c0.2-0.1,0.1-0.3,0.3-0.5c0.1-0.1,0.3,0,0.4-0.1c0.2-0.1,0.3-0.3,0.4-0.5c0-0.1,0-0.1,0-0.2
					c0-0.1,0.1-0.2,0.1-0.3c0-0.1-0.1-0.1-0.1-0.2c0-0.1,0-0.2,0-0.3c0-0.2,0-0.4-0.1-0.5c-0.4-0.7-1.2-0.9-2-0.8
					c-0.2,0-0.3,0.1-0.4,0.2c-0.2,0.1-0.1,0.2-0.3,0.2c-0.1,0-0.2,0.1-0.2,0.2C38.8-33.4,38.8-33.5,38.8-33.4
					C38.8-33.4,38.8-33.4,38.8-33.4"/>
				<path fill="#FFFFFF" d="M31.1-33.4c0,0.1,0,0.1,0,0.2c-0.1,0.1-0.1,0.1-0.2,0.1c-0.1,0.1-0.1,0.3-0.1,0.4c-0.2,0.1,0,0.2,0,0.3
					c0,0,0,0.1,0,0.2c0,0.1,0,0.3,0.1,0.4c0.1,0.2,0.3,0.4,0.4,0.5c0.2,0.1,0.4,0.6,0.6,0.6c0.2,0,0.4-0.1,0.5-0.1
					c0.2,0,0.4,0,0.6-0.1c0.2-0.1,0.1-0.3,0.3-0.5c0.1-0.1,0.3,0,0.4-0.1c0.2-0.1,0.3-0.3,0.4-0.5c0-0.1,0-0.1,0-0.2
					c0-0.1,0.1-0.2,0.1-0.3c0-0.1-0.1-0.1-0.1-0.2c0-0.1,0-0.2,0-0.3c0-0.2,0-0.4-0.1-0.5c-0.4-0.7-1.2-0.9-2-0.8
					c-0.2,0-0.3,0.1-0.4,0.2c-0.2,0.1-0.1,0.2-0.3,0.2c-0.1,0-0.2,0.1-0.2,0.2C31.1-33.4,31.1-33.5,31.1-33.4
					C31.1-33.4,31.1-33.4,31.1-33.4"/>
				<path fill="#FFFFFF" d="M23.5-33.4c0,0.1,0,0.1,0,0.2c-0.1,0.1-0.1,0.1-0.2,0.1c-0.1,0.1-0.1,0.3-0.1,0.4c-0.2,0.1,0,0.2,0,0.3
					c0,0,0,0.1,0,0.2c0,0.1,0,0.3,0.1,0.4c0.1,0.2,0.3,0.4,0.4,0.5c0.2,0.1,0.4,0.6,0.6,0.6c0.2,0,0.4-0.1,0.5-0.1
					c0.2,0,0.4,0,0.6-0.1c0.2-0.1,0.1-0.3,0.3-0.5c0.1-0.1,0.3,0,0.4-0.1c0.2-0.1,0.3-0.3,0.4-0.5c0-0.1,0-0.1,0-0.2
					c0-0.1,0.1-0.2,0.1-0.3c0-0.1-0.1-0.1-0.1-0.2c0-0.1,0-0.2,0-0.3c0-0.2,0-0.4-0.1-0.5c-0.4-0.7-1.2-0.9-2-0.8
					c-0.2,0-0.3,0.1-0.4,0.2c-0.2,0.1-0.1,0.2-0.3,0.2c-0.1,0-0.2,0.1-0.2,0.2C23.5-33.4,23.5-33.5,23.5-33.4
					C23.5-33.4,23.5-33.4,23.5-33.4"/>
				<path fill="#FFFFFF" d="M15.8-33.4c0,0.1,0,0.1,0,0.2c-0.1,0.1-0.1,0.1-0.2,0.1c-0.1,0.1-0.1,0.3-0.1,0.4c-0.2,0.1,0,0.2,0,0.3
					c0,0,0,0.1,0,0.2c0,0.1,0,0.3,0.1,0.4c0.1,0.2,0.3,0.4,0.4,0.5c0.2,0.1,0.4,0.6,0.6,0.6c0.2,0,0.4-0.1,0.5-0.1
					c0.2,0,0.4,0,0.6-0.1c0.2-0.1,0.1-0.3,0.3-0.5c0.1-0.1,0.3,0,0.4-0.1c0.2-0.1,0.3-0.3,0.4-0.5c0-0.1,0-0.1,0-0.2
					c0-0.1,0.1-0.2,0.1-0.3c0-0.1-0.1-0.1-0.1-0.2c0-0.1,0-0.2,0-0.3c0-0.2,0-0.4-0.1-0.5c-0.4-0.7-1.2-0.9-2-0.8
					c-0.2,0-0.3,0.1-0.4,0.2c-0.2,0.1-0.1,0.2-0.3,0.2c-0.1,0-0.2,0.1-0.2,0.2C15.8-33.4,15.8-33.5,15.8-33.4
					C15.8-33.4,15.8-33.4,15.8-33.4"/>
				<path fill="#FFFFFF" d="M8.2-33.4c0,0.1,0,0.1,0,0.2C8.1-33.1,8-33.1,8-33.1c-0.1,0.1-0.1,0.3-0.1,0.4c-0.2,0.1,0,0.2,0,0.3
					c0,0,0,0.1,0,0.2c0,0.1,0,0.3,0.1,0.4c0.1,0.2,0.3,0.4,0.4,0.5c0.2,0.1,0.4,0.6,0.6,0.6c0.2,0,0.4-0.1,0.5-0.1
					c0.2,0,0.4,0,0.6-0.1c0.2-0.1,0.1-0.3,0.3-0.5c0.1-0.1,0.3,0,0.4-0.1c0.2-0.1,0.3-0.3,0.4-0.5c0-0.1,0-0.1,0-0.2
					c0-0.1,0.1-0.2,0.1-0.3c0-0.1-0.1-0.1-0.1-0.2c0-0.1,0-0.2,0-0.3c0-0.2,0-0.4-0.1-0.5c-0.4-0.7-1.2-0.9-2-0.8
					c-0.2,0-0.3,0.1-0.4,0.2c-0.2,0.1-0.1,0.2-0.3,0.2c-0.1,0-0.2,0.1-0.2,0.2C8.2-33.4,8.2-33.5,8.2-33.4
					C8.1-33.4,8.1-33.4,8.2-33.4"/>
				<path fill="#FFFFFF" d="M0.5-33.4c0,0.1,0,0.1,0,0.2c-0.1,0.1-0.1,0.1-0.2,0.1c-0.1,0.1-0.1,0.3-0.1,0.4c-0.2,0.1,0,0.2,0,0.3
					c0,0,0,0.1,0,0.2c0,0.1,0,0.3,0.1,0.4c0.1,0.2,0.3,0.4,0.4,0.5c0.2,0.1,0.4,0.6,0.6,0.6c0.2,0,0.4-0.1,0.5-0.1
					c0.2,0,0.4,0,0.6-0.1c0.2-0.1,0.1-0.3,0.3-0.5c0.1-0.1,0.3,0,0.4-0.1c0.2-0.1,0.3-0.3,0.4-0.5c0-0.1,0-0.1,0-0.2
					c0-0.1,0.1-0.2,0.1-0.3c0-0.1-0.1-0.1-0.1-0.2c0-0.1,0-0.2,0-0.3c0-0.2,0-0.4-0.1-0.5c-0.4-0.7-1.2-0.9-2-0.8
					c-0.2,0-0.3,0.1-0.4,0.2c-0.2,0.1-0.1,0.2-0.3,0.2c-0.1,0-0.2,0.1-0.2,0.2C0.5-33.4,0.5-33.5,0.5-33.4
					C0.5-33.4,0.5-33.4,0.5-33.4"/>
			</g>
			<g>
				<path fill="#FFFFFF" d="M69.4-25.7c0,0.1,0,0.1,0,0.2c-0.1,0.1-0.1,0.1-0.2,0.1c-0.1,0.1-0.1,0.3-0.1,0.4c-0.2,0.1,0,0.2,0,0.3
					c0,0,0,0.1,0,0.2c0,0.1,0,0.3,0.1,0.4c0.1,0.2,0.3,0.4,0.4,0.5c0.2,0.1,0.4,0.6,0.6,0.6c0.2,0,0.4-0.1,0.5-0.1
					c0.2,0,0.4,0,0.6-0.1c0.2-0.1,0.1-0.3,0.3-0.5c0.1-0.1,0.3,0,0.4-0.1c0.2-0.1,0.3-0.3,0.4-0.5c0-0.1,0-0.1,0-0.2
					c0-0.1,0.1-0.2,0.1-0.3c0-0.1-0.1-0.1-0.1-0.2c0-0.1,0-0.2,0-0.3c0-0.2,0-0.4-0.1-0.5c-0.4-0.7-1.2-0.9-2-0.8
					c-0.2,0-0.3,0.1-0.4,0.2c-0.2,0.1-0.1,0.2-0.3,0.2c-0.1,0-0.2,0.1-0.2,0.2C69.4-25.8,69.4-25.8,69.4-25.7
					C69.4-25.7,69.4-25.7,69.4-25.7"/>
				<path fill="#FFFFFF" d="M61.8-25.7c0,0.1,0,0.1,0,0.2c-0.1,0.1-0.1,0.1-0.2,0.1c-0.1,0.1-0.1,0.3-0.1,0.4c-0.2,0.1,0,0.2,0,0.3
					c0,0,0,0.1,0,0.2c0,0.1,0,0.3,0.1,0.4c0.1,0.2,0.3,0.4,0.4,0.5c0.2,0.1,0.4,0.6,0.6,0.6c0.2,0,0.4-0.1,0.5-0.1
					c0.2,0,0.4,0,0.6-0.1c0.2-0.1,0.1-0.3,0.3-0.5c0.1-0.1,0.3,0,0.4-0.1c0.2-0.1,0.3-0.3,0.4-0.5c0-0.1,0-0.1,0-0.2
					c0-0.1,0.1-0.2,0.1-0.3c0-0.1-0.1-0.1-0.1-0.2c0-0.1,0-0.2,0-0.3c0-0.2,0-0.4-0.1-0.5c-0.4-0.7-1.2-0.9-2-0.8
					c-0.2,0-0.3,0.1-0.4,0.2c-0.2,0.1-0.1,0.2-0.3,0.2c-0.1,0-0.2,0.1-0.2,0.2C61.8-25.8,61.8-25.8,61.8-25.7
					C61.8-25.7,61.8-25.7,61.8-25.7"/>
				<path fill="#FFFFFF" d="M54.1-25.7c0,0.1,0,0.1,0,0.2c-0.1,0.1-0.1,0.1-0.2,0.1c-0.1,0.1-0.1,0.3-0.1,0.4c-0.2,0.1,0,0.2,0,0.3
					c0,0,0,0.1,0,0.2c0,0.1,0,0.3,0.1,0.4c0.1,0.2,0.3,0.4,0.4,0.5c0.2,0.1,0.4,0.6,0.6,0.6c0.2,0,0.4-0.1,0.5-0.1
					c0.2,0,0.4,0,0.6-0.1c0.2-0.1,0.1-0.3,0.3-0.5c0.1-0.1,0.3,0,0.4-0.1c0.2-0.1,0.3-0.3,0.4-0.5c0-0.1,0-0.1,0-0.2
					c0-0.1,0.1-0.2,0.1-0.3c0-0.1-0.1-0.1-0.1-0.2c0-0.1,0-0.2,0-0.3c0-0.2,0-0.4-0.1-0.5c-0.4-0.7-1.2-0.9-2-0.8
					c-0.2,0-0.3,0.1-0.4,0.2c-0.2,0.1-0.1,0.2-0.3,0.2c-0.1,0-0.2,0.1-0.2,0.2C54.1-25.8,54.1-25.8,54.1-25.7
					C54.1-25.7,54.1-25.7,54.1-25.7"/>
				<path fill="#FFFFFF" d="M46.5-25.7c0,0.1,0,0.1,0,0.2c-0.1,0.1-0.1,0.1-0.2,0.1c-0.1,0.1-0.1,0.3-0.1,0.4c-0.2,0.1,0,0.2,0,0.3
					c0,0,0,0.1,0,0.2c0,0.1,0,0.3,0.1,0.4c0.1,0.2,0.3,0.4,0.4,0.5c0.2,0.1,0.4,0.6,0.6,0.6c0.2,0,0.4-0.1,0.5-0.1
					c0.2,0,0.4,0,0.6-0.1c0.2-0.1,0.1-0.3,0.3-0.5c0.1-0.1,0.3,0,0.4-0.1c0.2-0.1,0.3-0.3,0.4-0.5c0-0.1,0-0.1,0-0.2
					c0-0.1,0.1-0.2,0.1-0.3c0-0.1-0.1-0.1-0.1-0.2c0-0.1,0-0.2,0-0.3c0-0.2,0-0.4-0.1-0.5c-0.4-0.7-1.2-0.9-2-0.8
					c-0.2,0-0.3,0.1-0.4,0.2c-0.2,0.1-0.1,0.2-0.3,0.2c-0.1,0-0.2,0.1-0.2,0.2C46.5-25.8,46.5-25.8,46.5-25.7
					C46.5-25.7,46.5-25.7,46.5-25.7"/>
				<path fill="#FFFFFF" d="M38.8-25.7c0,0.1,0,0.1,0,0.2c-0.1,0.1-0.1,0.1-0.2,0.1c-0.1,0.1-0.1,0.3-0.1,0.4c-0.2,0.1,0,0.2,0,0.3
					c0,0,0,0.1,0,0.2c0,0.1,0,0.3,0.1,0.4c0.1,0.2,0.3,0.4,0.4,0.5c0.2,0.1,0.4,0.6,0.6,0.6c0.2,0,0.4-0.1,0.5-0.1
					c0.2,0,0.4,0,0.6-0.1c0.2-0.1,0.1-0.3,0.3-0.5c0.1-0.1,0.3,0,0.4-0.1c0.2-0.1,0.3-0.3,0.4-0.5c0-0.1,0-0.1,0-0.2
					c0-0.1,0.1-0.2,0.1-0.3c0-0.1-0.1-0.1-0.1-0.2c0-0.1,0-0.2,0-0.3c0-0.2,0-0.4-0.1-0.5c-0.4-0.7-1.2-0.9-2-0.8
					c-0.2,0-0.3,0.1-0.4,0.2c-0.2,0.1-0.1,0.2-0.3,0.2c-0.1,0-0.2,0.1-0.2,0.2C38.8-25.8,38.8-25.8,38.8-25.7
					C38.8-25.7,38.8-25.7,38.8-25.7"/>
				<path fill="#FFFFFF" d="M31.1-25.7c0,0.1,0,0.1,0,0.2c-0.1,0.1-0.1,0.1-0.2,0.1c-0.1,0.1-0.1,0.3-0.1,0.4c-0.2,0.1,0,0.2,0,0.3
					c0,0,0,0.1,0,0.2c0,0.1,0,0.3,0.1,0.4c0.1,0.2,0.3,0.4,0.4,0.5c0.2,0.1,0.4,0.6,0.6,0.6c0.2,0,0.4-0.1,0.5-0.1
					c0.2,0,0.4,0,0.6-0.1c0.2-0.1,0.1-0.3,0.3-0.5c0.1-0.1,0.3,0,0.4-0.1c0.2-0.1,0.3-0.3,0.4-0.5c0-0.1,0-0.1,0-0.2
					c0-0.1,0.1-0.2,0.1-0.3c0-0.1-0.1-0.1-0.1-0.2c0-0.1,0-0.2,0-0.3c0-0.2,0-0.4-0.1-0.5c-0.4-0.7-1.2-0.9-2-0.8
					c-0.2,0-0.3,0.1-0.4,0.2c-0.2,0.1-0.1,0.2-0.3,0.2c-0.1,0-0.2,0.1-0.2,0.2C31.1-25.8,31.1-25.8,31.1-25.7
					C31.1-25.7,31.1-25.7,31.1-25.7"/>
				<path fill="#FFFFFF" d="M23.5-25.7c0,0.1,0,0.1,0,0.2c-0.1,0.1-0.1,0.1-0.2,0.1c-0.1,0.1-0.1,0.3-0.1,0.4c-0.2,0.1,0,0.2,0,0.3
					c0,0,0,0.1,0,0.2c0,0.1,0,0.3,0.1,0.4c0.1,0.2,0.3,0.4,0.4,0.5c0.2,0.1,0.4,0.6,0.6,0.6c0.2,0,0.4-0.1,0.5-0.1
					c0.2,0,0.4,0,0.6-0.1c0.2-0.1,0.1-0.3,0.3-0.5c0.1-0.1,0.3,0,0.4-0.1c0.2-0.1,0.3-0.3,0.4-0.5c0-0.1,0-0.1,0-0.2
					c0-0.1,0.1-0.2,0.1-0.3c0-0.1-0.1-0.1-0.1-0.2c0-0.1,0-0.2,0-0.3c0-0.2,0-0.4-0.1-0.5c-0.4-0.7-1.2-0.9-2-0.8
					c-0.2,0-0.3,0.1-0.4,0.2c-0.2,0.1-0.1,0.2-0.3,0.2c-0.1,0-0.2,0.1-0.2,0.2C23.5-25.8,23.5-25.8,23.5-25.7
					C23.5-25.7,23.5-25.7,23.5-25.7"/>
				<path fill="#FFFFFF" d="M15.8-25.7c0,0.1,0,0.1,0,0.2c-0.1,0.1-0.1,0.1-0.2,0.1c-0.1,0.1-0.1,0.3-0.1,0.4c-0.2,0.1,0,0.2,0,0.3
					c0,0,0,0.1,0,0.2c0,0.1,0,0.3,0.1,0.4c0.1,0.2,0.3,0.4,0.4,0.5c0.2,0.1,0.4,0.6,0.6,0.6c0.2,0,0.4-0.1,0.5-0.1
					c0.2,0,0.4,0,0.6-0.1c0.2-0.1,0.1-0.3,0.3-0.5c0.1-0.1,0.3,0,0.4-0.1c0.2-0.1,0.3-0.3,0.4-0.5c0-0.1,0-0.1,0-0.2
					c0-0.1,0.1-0.2,0.1-0.3c0-0.1-0.1-0.1-0.1-0.2c0-0.1,0-0.2,0-0.3c0-0.2,0-0.4-0.1-0.5c-0.4-0.7-1.2-0.9-2-0.8
					c-0.2,0-0.3,0.1-0.4,0.2c-0.2,0.1-0.1,0.2-0.3,0.2c-0.1,0-0.2,0.1-0.2,0.2C15.8-25.8,15.8-25.8,15.8-25.7
					C15.8-25.7,15.8-25.7,15.8-25.7"/>
				<path fill="#FFFFFF" d="M8.2-25.7c0,0.1,0,0.1,0,0.2C8.1-25.4,8-25.5,8-25.4c-0.1,0.1-0.1,0.3-0.1,0.4c-0.2,0.1,0,0.2,0,0.3
					c0,0,0,0.1,0,0.2c0,0.1,0,0.3,0.1,0.4C8-24,8.2-23.8,8.3-23.6c0.2,0.1,0.4,0.6,0.6,0.6c0.2,0,0.4-0.1,0.5-0.1
					c0.2,0,0.4,0,0.6-0.1c0.2-0.1,0.1-0.3,0.3-0.5c0.1-0.1,0.3,0,0.4-0.1c0.2-0.1,0.3-0.3,0.4-0.5c0-0.1,0-0.1,0-0.2
					c0-0.1,0.1-0.2,0.1-0.3c0-0.1-0.1-0.1-0.1-0.2c0-0.1,0-0.2,0-0.3c0-0.2,0-0.4-0.1-0.5c-0.4-0.7-1.2-0.9-2-0.8
					c-0.2,0-0.3,0.1-0.4,0.2c-0.2,0.1-0.1,0.2-0.3,0.2c-0.1,0-0.2,0.1-0.2,0.2C8.2-25.8,8.2-25.8,8.2-25.7
					C8.1-25.7,8.1-25.7,8.2-25.7"/>
				<path fill="#FFFFFF" d="M0.5-25.7c0,0.1,0,0.1,0,0.2c-0.1,0.1-0.1,0.1-0.2,0.1c-0.1,0.1-0.1,0.3-0.1,0.4c-0.2,0.1,0,0.2,0,0.3
					c0,0,0,0.1,0,0.2c0,0.1,0,0.3,0.1,0.4c0.1,0.2,0.3,0.4,0.4,0.5C0.9-23.5,1-23.1,1.3-23c0.2,0,0.4-0.1,0.5-0.1
					c0.2,0,0.4,0,0.6-0.1c0.2-0.1,0.1-0.3,0.3-0.5c0.1-0.1,0.3,0,0.4-0.1c0.2-0.1,0.3-0.3,0.4-0.5c0-0.1,0-0.1,0-0.2
					c0-0.1,0.1-0.2,0.1-0.3c0-0.1-0.1-0.1-0.1-0.2c0-0.1,0-0.2,0-0.3c0-0.2,0-0.4-0.1-0.5c-0.4-0.7-1.2-0.9-2-0.8
					c-0.2,0-0.3,0.1-0.4,0.2c-0.2,0.1-0.1,0.2-0.3,0.2c-0.1,0-0.2,0.1-0.2,0.2C0.5-25.8,0.5-25.8,0.5-25.7
					C0.5-25.7,0.5-25.7,0.5-25.7"/>
			</g>
			<g>
				<path fill="#FFFFFF" d="M69.4-18.1c0,0.1,0,0.1,0,0.2c-0.1,0.1-0.1,0.1-0.2,0.1c-0.1,0.1-0.1,0.3-0.1,0.4c-0.2,0.1,0,0.2,0,0.3
					c0,0,0,0.1,0,0.2c0,0.1,0,0.3,0.1,0.4c0.1,0.2,0.3,0.4,0.4,0.5c0.2,0.1,0.4,0.6,0.6,0.6c0.2,0,0.4-0.1,0.5-0.1
					c0.2,0,0.4,0,0.6-0.1c0.2-0.1,0.1-0.3,0.3-0.5c0.1-0.1,0.3,0,0.4-0.1c0.2-0.1,0.3-0.3,0.4-0.5c0-0.1,0-0.1,0-0.2
					c0-0.1,0.1-0.2,0.1-0.3c0-0.1-0.1-0.1-0.1-0.2c0-0.1,0-0.2,0-0.3c0-0.2,0-0.4-0.1-0.5c-0.4-0.7-1.2-0.9-2-0.8
					c-0.2,0-0.3,0.1-0.4,0.2c-0.2,0.1-0.1,0.2-0.3,0.2c-0.1,0-0.2,0.1-0.2,0.2C69.4-18.1,69.4-18.2,69.4-18.1
					C69.4-18,69.4-18.1,69.4-18.1"/>
				<path fill="#FFFFFF" d="M61.8-18.1c0,0.1,0,0.1,0,0.2c-0.1,0.1-0.1,0.1-0.2,0.1c-0.1,0.1-0.1,0.3-0.1,0.4c-0.2,0.1,0,0.2,0,0.3
					c0,0,0,0.1,0,0.2c0,0.1,0,0.3,0.1,0.4c0.1,0.2,0.3,0.4,0.4,0.5c0.2,0.1,0.4,0.6,0.6,0.6c0.2,0,0.4-0.1,0.5-0.1
					c0.2,0,0.4,0,0.6-0.1c0.2-0.1,0.1-0.3,0.3-0.5c0.1-0.1,0.3,0,0.4-0.1c0.2-0.1,0.3-0.3,0.4-0.5c0-0.1,0-0.1,0-0.2
					c0-0.1,0.1-0.2,0.1-0.3c0-0.1-0.1-0.1-0.1-0.2c0-0.1,0-0.2,0-0.3c0-0.2,0-0.4-0.1-0.5c-0.4-0.7-1.2-0.9-2-0.8
					c-0.2,0-0.3,0.1-0.4,0.2c-0.2,0.1-0.1,0.2-0.3,0.2c-0.1,0-0.2,0.1-0.2,0.2C61.8-18.1,61.8-18.2,61.8-18.1
					C61.8-18,61.8-18.1,61.8-18.1"/>
				<path fill="#FFFFFF" d="M54.1-18.1c0,0.1,0,0.1,0,0.2c-0.1,0.1-0.1,0.1-0.2,0.1c-0.1,0.1-0.1,0.3-0.1,0.4c-0.2,0.1,0,0.2,0,0.3
					c0,0,0,0.1,0,0.2c0,0.1,0,0.3,0.1,0.4c0.1,0.2,0.3,0.4,0.4,0.5c0.2,0.1,0.4,0.6,0.6,0.6c0.2,0,0.4-0.1,0.5-0.1
					c0.2,0,0.4,0,0.6-0.1c0.2-0.1,0.1-0.3,0.3-0.5c0.1-0.1,0.3,0,0.4-0.1c0.2-0.1,0.3-0.3,0.4-0.5c0-0.1,0-0.1,0-0.2
					c0-0.1,0.1-0.2,0.1-0.3c0-0.1-0.1-0.1-0.1-0.2c0-0.1,0-0.2,0-0.3c0-0.2,0-0.4-0.1-0.5c-0.4-0.7-1.2-0.9-2-0.8
					c-0.2,0-0.3,0.1-0.4,0.2c-0.2,0.1-0.1,0.2-0.3,0.2c-0.1,0-0.2,0.1-0.2,0.2C54.1-18.1,54.1-18.2,54.1-18.1
					C54.1-18,54.1-18.1,54.1-18.1"/>
				<path fill="#FFFFFF" d="M46.5-18.1c0,0.1,0,0.1,0,0.2c-0.1,0.1-0.1,0.1-0.2,0.1c-0.1,0.1-0.1,0.3-0.1,0.4c-0.2,0.1,0,0.2,0,0.3
					c0,0,0,0.1,0,0.2c0,0.1,0,0.3,0.1,0.4c0.1,0.2,0.3,0.4,0.4,0.5c0.2,0.1,0.4,0.6,0.6,0.6c0.2,0,0.4-0.1,0.5-0.1
					c0.2,0,0.4,0,0.6-0.1c0.2-0.1,0.1-0.3,0.3-0.5c0.1-0.1,0.3,0,0.4-0.1c0.2-0.1,0.3-0.3,0.4-0.5c0-0.1,0-0.1,0-0.2
					c0-0.1,0.1-0.2,0.1-0.3c0-0.1-0.1-0.1-0.1-0.2c0-0.1,0-0.2,0-0.3c0-0.2,0-0.4-0.1-0.5c-0.4-0.7-1.2-0.9-2-0.8
					c-0.2,0-0.3,0.1-0.4,0.2c-0.2,0.1-0.1,0.2-0.3,0.2c-0.1,0-0.2,0.1-0.2,0.2C46.5-18.1,46.5-18.2,46.5-18.1
					C46.5-18,46.5-18.1,46.5-18.1"/>
				<path fill="#FFFFFF" d="M38.8-18.1c0,0.1,0,0.1,0,0.2c-0.1,0.1-0.1,0.1-0.2,0.1c-0.1,0.1-0.1,0.3-0.1,0.4c-0.2,0.1,0,0.2,0,0.3
					c0,0,0,0.1,0,0.2c0,0.1,0,0.3,0.1,0.4c0.1,0.2,0.3,0.4,0.4,0.5c0.2,0.1,0.4,0.6,0.6,0.6c0.2,0,0.4-0.1,0.5-0.1
					c0.2,0,0.4,0,0.6-0.1c0.2-0.1,0.1-0.3,0.3-0.5c0.1-0.1,0.3,0,0.4-0.1c0.2-0.1,0.3-0.3,0.4-0.5c0-0.1,0-0.1,0-0.2
					c0-0.1,0.1-0.2,0.1-0.3c0-0.1-0.1-0.1-0.1-0.2c0-0.1,0-0.2,0-0.3c0-0.2,0-0.4-0.1-0.5c-0.4-0.7-1.2-0.9-2-0.8
					c-0.2,0-0.3,0.1-0.4,0.2c-0.2,0.1-0.1,0.2-0.3,0.2c-0.1,0-0.2,0.1-0.2,0.2C38.8-18.1,38.8-18.2,38.8-18.1
					C38.8-18,38.8-18.1,38.8-18.1"/>
				<path fill="#FFFFFF" d="M31.1-18.1c0,0.1,0,0.1,0,0.2c-0.1,0.1-0.1,0.1-0.2,0.1c-0.1,0.1-0.1,0.3-0.1,0.4c-0.2,0.1,0,0.2,0,0.3
					c0,0,0,0.1,0,0.2c0,0.1,0,0.3,0.1,0.4c0.1,0.2,0.3,0.4,0.4,0.5c0.2,0.1,0.4,0.6,0.6,0.6c0.2,0,0.4-0.1,0.5-0.1
					c0.2,0,0.4,0,0.6-0.1c0.2-0.1,0.1-0.3,0.3-0.5c0.1-0.1,0.3,0,0.4-0.1c0.2-0.1,0.3-0.3,0.4-0.5c0-0.1,0-0.1,0-0.2
					c0-0.1,0.1-0.2,0.1-0.3c0-0.1-0.1-0.1-0.1-0.2c0-0.1,0-0.2,0-0.3c0-0.2,0-0.4-0.1-0.5c-0.4-0.7-1.2-0.9-2-0.8
					c-0.2,0-0.3,0.1-0.4,0.2c-0.2,0.1-0.1,0.2-0.3,0.2c-0.1,0-0.2,0.1-0.2,0.2C31.1-18.1,31.1-18.2,31.1-18.1
					C31.1-18,31.1-18.1,31.1-18.1"/>
				<path fill="#FFFFFF" d="M23.5-18.1c0,0.1,0,0.1,0,0.2c-0.1,0.1-0.1,0.1-0.2,0.1c-0.1,0.1-0.1,0.3-0.1,0.4c-0.2,0.1,0,0.2,0,0.3
					c0,0,0,0.1,0,0.2c0,0.1,0,0.3,0.1,0.4c0.1,0.2,0.3,0.4,0.4,0.5c0.2,0.1,0.4,0.6,0.6,0.6c0.2,0,0.4-0.1,0.5-0.1
					c0.2,0,0.4,0,0.6-0.1c0.2-0.1,0.1-0.3,0.3-0.5c0.1-0.1,0.3,0,0.4-0.1c0.2-0.1,0.3-0.3,0.4-0.5c0-0.1,0-0.1,0-0.2
					c0-0.1,0.1-0.2,0.1-0.3c0-0.1-0.1-0.1-0.1-0.2c0-0.1,0-0.2,0-0.3c0-0.2,0-0.4-0.1-0.5c-0.4-0.7-1.2-0.9-2-0.8
					c-0.2,0-0.3,0.1-0.4,0.2c-0.2,0.1-0.1,0.2-0.3,0.2c-0.1,0-0.2,0.1-0.2,0.2C23.5-18.1,23.5-18.2,23.5-18.1
					C23.5-18,23.5-18.1,23.5-18.1"/>
				<path fill="#FFFFFF" d="M15.8-18.1c0,0.1,0,0.1,0,0.2c-0.1,0.1-0.1,0.1-0.2,0.1c-0.1,0.1-0.1,0.3-0.1,0.4c-0.2,0.1,0,0.2,0,0.3
					c0,0,0,0.1,0,0.2c0,0.1,0,0.3,0.1,0.4c0.1,0.2,0.3,0.4,0.4,0.5c0.2,0.1,0.4,0.6,0.6,0.6c0.2,0,0.4-0.1,0.5-0.1
					c0.2,0,0.4,0,0.6-0.1c0.2-0.1,0.1-0.3,0.3-0.5c0.1-0.1,0.3,0,0.4-0.1c0.2-0.1,0.3-0.3,0.4-0.5c0-0.1,0-0.1,0-0.2
					c0-0.1,0.1-0.2,0.1-0.3c0-0.1-0.1-0.1-0.1-0.2c0-0.1,0-0.2,0-0.3c0-0.2,0-0.4-0.1-0.5c-0.4-0.7-1.2-0.9-2-0.8
					c-0.2,0-0.3,0.1-0.4,0.2c-0.2,0.1-0.1,0.2-0.3,0.2c-0.1,0-0.2,0.1-0.2,0.2C15.8-18.1,15.8-18.2,15.8-18.1
					C15.8-18,15.8-18.1,15.8-18.1"/>
				<path fill="#FFFFFF" d="M8.2-18.1c0,0.1,0,0.1,0,0.2C8.1-17.8,8-17.8,8-17.8c-0.1,0.1-0.1,0.3-0.1,0.4c-0.2,0.1,0,0.2,0,0.3
					c0,0,0,0.1,0,0.2c0,0.1,0,0.3,0.1,0.4C8-16.3,8.2-16.1,8.3-16c0.2,0.1,0.4,0.6,0.6,0.6c0.2,0,0.4-0.1,0.5-0.1
					c0.2,0,0.4,0,0.6-0.1c0.2-0.1,0.1-0.3,0.3-0.5c0.1-0.1,0.3,0,0.4-0.1c0.2-0.1,0.3-0.3,0.4-0.5c0-0.1,0-0.1,0-0.2
					c0-0.1,0.1-0.2,0.1-0.3c0-0.1-0.1-0.1-0.1-0.2c0-0.1,0-0.2,0-0.3c0-0.2,0-0.4-0.1-0.5c-0.4-0.7-1.2-0.9-2-0.8
					c-0.2,0-0.3,0.1-0.4,0.2c-0.2,0.1-0.1,0.2-0.3,0.2c-0.1,0-0.2,0.1-0.2,0.2C8.2-18.1,8.2-18.2,8.2-18.1C8.1-18,8.1-18.1,8.2-18.1
					"/>
				<path fill="#FFFFFF" d="M0.5-18.1c0,0.1,0,0.1,0,0.2c-0.1,0.1-0.1,0.1-0.2,0.1c-0.1,0.1-0.1,0.3-0.1,0.4c-0.2,0.1,0,0.2,0,0.3
					c0,0,0,0.1,0,0.2c0,0.1,0,0.3,0.1,0.4c0.1,0.2,0.3,0.4,0.4,0.5c0.2,0.1,0.4,0.6,0.6,0.6c0.2,0,0.4-0.1,0.5-0.1
					c0.2,0,0.4,0,0.6-0.1c0.2-0.1,0.1-0.3,0.3-0.5C2.8-16.1,3-16,3.1-16c0.2-0.1,0.3-0.3,0.4-0.5c0-0.1,0-0.1,0-0.2
					c0-0.1,0.1-0.2,0.1-0.3c0-0.1-0.1-0.1-0.1-0.2c0-0.1,0-0.2,0-0.3c0-0.2,0-0.4-0.1-0.5c-0.4-0.7-1.2-0.9-2-0.8
					c-0.2,0-0.3,0.1-0.4,0.2c-0.2,0.1-0.1,0.2-0.3,0.2c-0.1,0-0.2,0.1-0.2,0.2C0.5-18.1,0.5-18.2,0.5-18.1C0.5-18,0.5-18.1,0.5-18.1
					"/>
			</g>
			<g>
				<path fill="#FFFFFF" d="M69.4-10.4c0,0.1,0,0.1,0,0.2c-0.1,0.1-0.1,0.1-0.2,0.1c-0.1,0.1-0.1,0.3-0.1,0.4c-0.2,0.1,0,0.2,0,0.3
					c0,0,0,0.1,0,0.2c0,0.1,0,0.3,0.1,0.4c0.1,0.2,0.3,0.4,0.4,0.5c0.2,0.1,0.4,0.6,0.6,0.6c0.2,0,0.4-0.1,0.5-0.1
					c0.2,0,0.4,0,0.6-0.1c0.2-0.1,0.1-0.3,0.3-0.5c0.1-0.1,0.3,0,0.4-0.1c0.2-0.1,0.3-0.3,0.4-0.5c0-0.1,0-0.1,0-0.2
					c0-0.1,0.1-0.2,0.1-0.3c0-0.1-0.1-0.1-0.1-0.2c0-0.1,0-0.2,0-0.3c0-0.2,0-0.4-0.1-0.5c-0.4-0.7-1.2-0.9-2-0.8
					c-0.2,0-0.3,0.1-0.4,0.2c-0.2,0.1-0.1,0.2-0.3,0.2c-0.1,0-0.2,0.1-0.2,0.2C69.4-10.5,69.4-10.5,69.4-10.4
					C69.4-10.4,69.4-10.4,69.4-10.4"/>
				<path fill="#FFFFFF" d="M61.8-10.4c0,0.1,0,0.1,0,0.2c-0.1,0.1-0.1,0.1-0.2,0.1c-0.1,0.1-0.1,0.3-0.1,0.4c-0.2,0.1,0,0.2,0,0.3
					c0,0,0,0.1,0,0.2c0,0.1,0,0.3,0.1,0.4c0.1,0.2,0.3,0.4,0.4,0.5c0.2,0.1,0.4,0.6,0.6,0.6c0.2,0,0.4-0.1,0.5-0.1
					c0.2,0,0.4,0,0.6-0.1C63.9-8,63.8-8.2,64-8.3c0.1-0.1,0.3,0,0.4-0.1c0.2-0.1,0.3-0.3,0.4-0.5c0-0.1,0-0.1,0-0.2
					c0-0.1,0.1-0.2,0.1-0.3c0-0.1-0.1-0.1-0.1-0.2c0-0.1,0-0.2,0-0.3c0-0.2,0-0.4-0.1-0.5c-0.4-0.7-1.2-0.9-2-0.8
					c-0.2,0-0.3,0.1-0.4,0.2c-0.2,0.1-0.1,0.2-0.3,0.2c-0.1,0-0.2,0.1-0.2,0.2C61.8-10.5,61.8-10.5,61.8-10.4
					C61.8-10.4,61.8-10.4,61.8-10.4"/>
				<path fill="#FFFFFF" d="M54.1-10.4c0,0.1,0,0.1,0,0.2c-0.1,0.1-0.1,0.1-0.2,0.1c-0.1,0.1-0.1,0.3-0.1,0.4c-0.2,0.1,0,0.2,0,0.3
					c0,0,0,0.1,0,0.2c0,0.1,0,0.3,0.1,0.4c0.1,0.2,0.3,0.4,0.4,0.5c0.2,0.1,0.4,0.6,0.6,0.6c0.2,0,0.4-0.1,0.5-0.1
					c0.2,0,0.4,0,0.6-0.1c0.2-0.1,0.1-0.3,0.3-0.5c0.1-0.1,0.3,0,0.4-0.1c0.2-0.1,0.3-0.3,0.4-0.5c0-0.1,0-0.1,0-0.2
					c0-0.1,0.1-0.2,0.1-0.3c0-0.1-0.1-0.1-0.1-0.2c0-0.1,0-0.2,0-0.3c0-0.2,0-0.4-0.1-0.5c-0.4-0.7-1.2-0.9-2-0.8
					c-0.2,0-0.3,0.1-0.4,0.2c-0.2,0.1-0.1,0.2-0.3,0.2c-0.1,0-0.2,0.1-0.2,0.2C54.1-10.5,54.1-10.5,54.1-10.4
					C54.1-10.4,54.1-10.4,54.1-10.4"/>
				<path fill="#FFFFFF" d="M46.5-10.4c0,0.1,0,0.1,0,0.2c-0.1,0.1-0.1,0.1-0.2,0.1c-0.1,0.1-0.1,0.3-0.1,0.4c-0.2,0.1,0,0.2,0,0.3
					c0,0,0,0.1,0,0.2c0,0.1,0,0.3,0.1,0.4c0.1,0.2,0.3,0.4,0.4,0.5c0.2,0.1,0.4,0.6,0.6,0.6c0.2,0,0.4-0.1,0.5-0.1
					c0.2,0,0.4,0,0.6-0.1c0.2-0.1,0.1-0.3,0.3-0.5c0.1-0.1,0.3,0,0.4-0.1c0.2-0.1,0.3-0.3,0.4-0.5c0-0.1,0-0.1,0-0.2
					c0-0.1,0.1-0.2,0.1-0.3c0-0.1-0.1-0.1-0.1-0.2c0-0.1,0-0.2,0-0.3c0-0.2,0-0.4-0.1-0.5c-0.4-0.7-1.2-0.9-2-0.8
					c-0.2,0-0.3,0.1-0.4,0.2c-0.2,0.1-0.1,0.2-0.3,0.2c-0.1,0-0.2,0.1-0.2,0.2C46.5-10.5,46.5-10.5,46.5-10.4
					C46.5-10.4,46.5-10.4,46.5-10.4"/>
				<path fill="#FFFFFF" d="M38.8-10.4c0,0.1,0,0.1,0,0.2c-0.1,0.1-0.1,0.1-0.2,0.1c-0.1,0.1-0.1,0.3-0.1,0.4c-0.2,0.1,0,0.2,0,0.3
					c0,0,0,0.1,0,0.2c0,0.1,0,0.3,0.1,0.4c0.1,0.2,0.3,0.4,0.4,0.5c0.2,0.1,0.4,0.6,0.6,0.6c0.2,0,0.4-0.1,0.5-0.1
					c0.2,0,0.4,0,0.6-0.1C40.9-8,40.8-8.2,41-8.3c0.1-0.1,0.3,0,0.4-0.1c0.2-0.1,0.3-0.3,0.4-0.5c0-0.1,0-0.1,0-0.2
					c0-0.1,0.1-0.2,0.1-0.3c0-0.1-0.1-0.1-0.1-0.2c0-0.1,0-0.2,0-0.3c0-0.2,0-0.4-0.1-0.5c-0.4-0.7-1.2-0.9-2-0.8
					c-0.2,0-0.3,0.1-0.4,0.2c-0.2,0.1-0.1,0.2-0.3,0.2c-0.1,0-0.2,0.1-0.2,0.2C38.8-10.5,38.8-10.5,38.8-10.4
					C38.8-10.4,38.8-10.4,38.8-10.4"/>
				<path fill="#FFFFFF" d="M31.1-10.4c0,0.1,0,0.1,0,0.2c-0.1,0.1-0.1,0.1-0.2,0.1c-0.1,0.1-0.1,0.3-0.1,0.4c-0.2,0.1,0,0.2,0,0.3
					c0,0,0,0.1,0,0.2c0,0.1,0,0.3,0.1,0.4c0.1,0.2,0.3,0.4,0.4,0.5c0.2,0.1,0.4,0.6,0.6,0.6c0.2,0,0.4-0.1,0.5-0.1
					c0.2,0,0.4,0,0.6-0.1c0.2-0.1,0.1-0.3,0.3-0.5c0.1-0.1,0.3,0,0.4-0.1c0.2-0.1,0.3-0.3,0.4-0.5c0-0.1,0-0.1,0-0.2
					c0-0.1,0.1-0.2,0.1-0.3c0-0.1-0.1-0.1-0.1-0.2c0-0.1,0-0.2,0-0.3c0-0.2,0-0.4-0.1-0.5c-0.4-0.7-1.2-0.9-2-0.8
					c-0.2,0-0.3,0.1-0.4,0.2c-0.2,0.1-0.1,0.2-0.3,0.2c-0.1,0-0.2,0.1-0.2,0.2C31.1-10.5,31.1-10.5,31.1-10.4
					C31.1-10.4,31.1-10.4,31.1-10.4"/>
				<path fill="#FFFFFF" d="M23.5-10.4c0,0.1,0,0.1,0,0.2c-0.1,0.1-0.1,0.1-0.2,0.1c-0.1,0.1-0.1,0.3-0.1,0.4c-0.2,0.1,0,0.2,0,0.3
					c0,0,0,0.1,0,0.2c0,0.1,0,0.3,0.1,0.4c0.1,0.2,0.3,0.4,0.4,0.5c0.2,0.1,0.4,0.6,0.6,0.6c0.2,0,0.4-0.1,0.5-0.1
					c0.2,0,0.4,0,0.6-0.1c0.2-0.1,0.1-0.3,0.3-0.5c0.1-0.1,0.3,0,0.4-0.1c0.2-0.1,0.3-0.3,0.4-0.5c0-0.1,0-0.1,0-0.2
					c0-0.1,0.1-0.2,0.1-0.3c0-0.1-0.1-0.1-0.1-0.2c0-0.1,0-0.2,0-0.3c0-0.2,0-0.4-0.1-0.5c-0.4-0.7-1.2-0.9-2-0.8
					c-0.2,0-0.3,0.1-0.4,0.2c-0.2,0.1-0.1,0.2-0.3,0.2c-0.1,0-0.2,0.1-0.2,0.2C23.5-10.5,23.5-10.5,23.5-10.4
					C23.5-10.4,23.5-10.4,23.5-10.4"/>
				<path fill="#FFFFFF" d="M15.8-10.4c0,0.1,0,0.1,0,0.2c-0.1,0.1-0.1,0.1-0.2,0.1c-0.1,0.1-0.1,0.3-0.1,0.4c-0.2,0.1,0,0.2,0,0.3
					c0,0,0,0.1,0,0.2c0,0.1,0,0.3,0.1,0.4c0.1,0.2,0.3,0.4,0.4,0.5c0.2,0.1,0.4,0.6,0.6,0.6c0.2,0,0.4-0.1,0.5-0.1
					c0.2,0,0.4,0,0.6-0.1C17.9-8,17.8-8.2,18-8.3c0.1-0.1,0.3,0,0.4-0.1c0.2-0.1,0.3-0.3,0.4-0.5c0-0.1,0-0.1,0-0.2
					c0-0.1,0.1-0.2,0.1-0.3c0-0.1-0.1-0.1-0.1-0.2c0-0.1,0-0.2,0-0.3c0-0.2,0-0.4-0.1-0.5c-0.4-0.7-1.2-0.9-2-0.8
					c-0.2,0-0.3,0.1-0.4,0.2c-0.2,0.1-0.1,0.2-0.3,0.2c-0.1,0-0.2,0.1-0.2,0.2C15.8-10.5,15.8-10.5,15.8-10.4
					C15.8-10.4,15.8-10.4,15.8-10.4"/>
				<path fill="#FFFFFF" d="M8.2-10.4c0,0.1,0,0.1,0,0.2C8.1-10.1,8-10.2,8-10.1C7.9-10,7.9-9.8,7.9-9.8c-0.2,0.1,0,0.2,0,0.3
					c0,0,0,0.1,0,0.2c0,0.1,0,0.3,0.1,0.4C8-8.7,8.2-8.5,8.3-8.3c0.2,0.1,0.4,0.6,0.6,0.6c0.2,0,0.4-0.1,0.5-0.1
					c0.2,0,0.4,0,0.6-0.1c0.2-0.1,0.1-0.3,0.3-0.5c0.1-0.1,0.3,0,0.4-0.1c0.2-0.1,0.3-0.3,0.4-0.5c0-0.1,0-0.1,0-0.2
					c0-0.1,0.1-0.2,0.1-0.3c0-0.1-0.1-0.1-0.1-0.2c0-0.1,0-0.2,0-0.3c0-0.2,0-0.4-0.1-0.5c-0.4-0.7-1.2-0.9-2-0.8
					c-0.2,0-0.3,0.1-0.4,0.2c-0.2,0.1-0.1,0.2-0.3,0.2c-0.1,0-0.2,0.1-0.2,0.2C8.2-10.5,8.2-10.5,8.2-10.4
					C8.1-10.4,8.1-10.4,8.2-10.4"/>
				<path fill="#FFFFFF" d="M0.5-10.4c0,0.1,0,0.1,0,0.2c-0.1,0.1-0.1,0.1-0.2,0.1C0.3-10,0.2-9.8,0.2-9.8c-0.2,0.1,0,0.2,0,0.3
					c0,0,0,0.1,0,0.2c0,0.1,0,0.3,0.1,0.4c0.1,0.2,0.3,0.4,0.4,0.5C0.9-8.2,1-7.8,1.3-7.7c0.2,0,0.4-0.1,0.5-0.1
					c0.2,0,0.4,0,0.6-0.1C2.6-8,2.5-8.2,2.7-8.3c0.1-0.1,0.3,0,0.4-0.1c0.2-0.1,0.3-0.3,0.4-0.5c0-0.1,0-0.1,0-0.2
					c0-0.1,0.1-0.2,0.1-0.3c0-0.1-0.1-0.1-0.1-0.2c0-0.1,0-0.2,0-0.3c0-0.2,0-0.4-0.1-0.5c-0.4-0.7-1.2-0.9-2-0.8
					c-0.2,0-0.3,0.1-0.4,0.2c-0.2,0.1-0.1,0.2-0.3,0.2c-0.1,0-0.2,0.1-0.2,0.2C0.5-10.5,0.5-10.5,0.5-10.4
					C0.5-10.4,0.5-10.4,0.5-10.4"/>
			</g>
		</g>
		<g>
			<path fill="#FFFFFF" d="M69.4-2.8c0,0.1,0,0.1,0,0.2c-0.1,0.1-0.1,0.1-0.2,0.1c-0.1,0.1-0.1,0.3-0.1,0.4c-0.2,0.1,0,0.2,0,0.3
				c0,0,0,0.1,0,0.2c0,0.1,0,0.3,0.1,0.4c0.1,0.2,0.3,0.4,0.4,0.5C69.8-0.5,70-0.1,70.2,0c0.2,0,0.4-0.1,0.5-0.1
				c0.2,0,0.4,0,0.6-0.1c0.2-0.1,0.1-0.3,0.3-0.5c0.1-0.1,0.3,0,0.4-0.1c0.2-0.1,0.3-0.3,0.4-0.5c0-0.1,0-0.1,0-0.2
				c0-0.1,0.1-0.2,0.1-0.3c0-0.1-0.1-0.1-0.1-0.2c0-0.1,0-0.2,0-0.3c0-0.2,0-0.4-0.1-0.5c-0.4-0.7-1.2-0.9-2-0.8
				c-0.2,0-0.3,0.1-0.4,0.2c-0.2,0.1-0.1,0.2-0.3,0.2c-0.1,0-0.2,0.1-0.2,0.2C69.4-2.8,69.4-2.9,69.4-2.8
				C69.4-2.7,69.4-2.8,69.4-2.8"/>
			<path fill="#FFFFFF" d="M61.8-2.8c0,0.1,0,0.1,0,0.2c-0.1,0.1-0.1,0.1-0.2,0.1c-0.1,0.1-0.1,0.3-0.1,0.4c-0.2,0.1,0,0.2,0,0.3
				c0,0,0,0.1,0,0.2c0,0.1,0,0.3,0.1,0.4C61.6-1,61.8-0.8,62-0.7c0.2,0.1,0.4,0.6,0.6,0.6c0.2,0,0.4-0.1,0.5-0.1
				c0.2,0,0.4,0,0.6-0.1c0.2-0.1,0.1-0.3,0.3-0.5c0.1-0.1,0.3,0,0.4-0.1c0.2-0.1,0.3-0.3,0.4-0.5c0-0.1,0-0.1,0-0.2
				c0-0.1,0.1-0.2,0.1-0.3c0-0.1-0.1-0.1-0.1-0.2c0-0.1,0-0.2,0-0.3c0-0.2,0-0.4-0.1-0.5c-0.4-0.7-1.2-0.9-2-0.8
				c-0.2,0-0.3,0.1-0.4,0.2c-0.2,0.1-0.1,0.2-0.3,0.2c-0.1,0-0.2,0.1-0.2,0.2C61.8-2.8,61.8-2.9,61.8-2.8
				C61.8-2.7,61.8-2.8,61.8-2.8"/>
			<path fill="#FFFFFF" d="M54.1-2.8c0,0.1,0,0.1,0,0.2C54-2.5,54-2.5,53.9-2.5c-0.1,0.1-0.1,0.3-0.1,0.4c-0.2,0.1,0,0.2,0,0.3
				c0,0,0,0.1,0,0.2c0,0.1,0,0.3,0.1,0.4C54-1,54.1-0.8,54.3-0.7c0.2,0.1,0.4,0.6,0.6,0.6c0.2,0,0.4-0.1,0.5-0.1
				c0.2,0,0.4,0,0.6-0.1c0.2-0.1,0.1-0.3,0.3-0.5c0.1-0.1,0.3,0,0.4-0.1C56.9-0.8,57-1,57.1-1.2c0-0.1,0-0.1,0-0.2
				c0-0.1,0.1-0.2,0.1-0.3c0-0.1-0.1-0.1-0.1-0.2c0-0.1,0-0.2,0-0.3c0-0.2,0-0.4-0.1-0.5c-0.4-0.7-1.2-0.9-2-0.8
				c-0.2,0-0.3,0.1-0.4,0.2c-0.2,0.1-0.1,0.2-0.3,0.2c-0.1,0-0.2,0.1-0.2,0.2C54.1-2.8,54.1-2.9,54.1-2.8
				C54.1-2.7,54.1-2.8,54.1-2.8"/>
			<path fill="#FFFFFF" d="M46.5-2.8c0,0.1,0,0.1,0,0.2c-0.1,0.1-0.1,0.1-0.2,0.1c-0.1,0.1-0.1,0.3-0.1,0.4c-0.2,0.1,0,0.2,0,0.3
				c0,0,0,0.1,0,0.2c0,0.1,0,0.3,0.1,0.4c0.1,0.2,0.3,0.4,0.4,0.5C46.8-0.5,47-0.1,47.2,0c0.2,0,0.4-0.1,0.5-0.1
				c0.2,0,0.4,0,0.6-0.1c0.2-0.1,0.1-0.3,0.3-0.5c0.1-0.1,0.3,0,0.4-0.1c0.2-0.1,0.3-0.3,0.4-0.5c0-0.1,0-0.1,0-0.2
				c0-0.1,0.1-0.2,0.1-0.3c0-0.1-0.1-0.1-0.1-0.2c0-0.1,0-0.2,0-0.3c0-0.2,0-0.4-0.1-0.5c-0.4-0.7-1.2-0.9-2-0.8
				c-0.2,0-0.3,0.1-0.4,0.2c-0.2,0.1-0.1,0.2-0.3,0.2c-0.1,0-0.2,0.1-0.2,0.2C46.5-2.8,46.5-2.9,46.5-2.8
				C46.5-2.7,46.5-2.8,46.5-2.8"/>
			<path fill="#FFFFFF" d="M38.8-2.8c0,0.1,0,0.1,0,0.2c-0.1,0.1-0.1,0.1-0.2,0.1c-0.1,0.1-0.1,0.3-0.1,0.4c-0.2,0.1,0,0.2,0,0.3
				c0,0,0,0.1,0,0.2c0,0.1,0,0.3,0.1,0.4C38.6-1,38.8-0.8,39-0.7c0.2,0.1,0.4,0.6,0.6,0.6c0.2,0,0.4-0.1,0.5-0.1
				c0.2,0,0.4,0,0.6-0.1c0.2-0.1,0.1-0.3,0.3-0.5c0.1-0.1,0.3,0,0.4-0.1c0.2-0.1,0.3-0.3,0.4-0.5c0-0.1,0-0.1,0-0.2
				c0-0.1,0.1-0.2,0.1-0.3c0-0.1-0.1-0.1-0.1-0.2c0-0.1,0-0.2,0-0.3c0-0.2,0-0.4-0.1-0.5c-0.4-0.7-1.2-0.9-2-0.8
				c-0.2,0-0.3,0.1-0.4,0.2c-0.2,0.1-0.1,0.2-0.3,0.2c-0.1,0-0.2,0.1-0.2,0.2C38.8-2.8,38.8-2.9,38.8-2.8
				C38.8-2.7,38.8-2.8,38.8-2.8"/>
			<path fill="#FFFFFF" d="M31.1-2.8c0,0.1,0,0.1,0,0.2c-0.1,0.1-0.1,0.1-0.2,0.1c-0.1,0.1-0.1,0.3-0.1,0.4c-0.2,0.1,0,0.2,0,0.3
				c0,0,0,0.1,0,0.2c0,0.1,0,0.3,0.1,0.4C31-1,31.1-0.8,31.3-0.7c0.2,0.1,0.4,0.6,0.6,0.6c0.2,0,0.4-0.1,0.5-0.1
				c0.2,0,0.4,0,0.6-0.1c0.2-0.1,0.1-0.3,0.3-0.5c0.1-0.1,0.3,0,0.4-0.1c0.2-0.1,0.3-0.3,0.4-0.5c0-0.1,0-0.1,0-0.2
				c0-0.1,0.1-0.2,0.1-0.3c0-0.1-0.1-0.1-0.1-0.2c0-0.1,0-0.2,0-0.3c0-0.2,0-0.4-0.1-0.5c-0.4-0.7-1.2-0.9-2-0.8
				c-0.2,0-0.3,0.1-0.4,0.2c-0.2,0.1-0.1,0.2-0.3,0.2c-0.1,0-0.2,0.1-0.2,0.2C31.1-2.8,31.1-2.9,31.1-2.8
				C31.1-2.7,31.1-2.8,31.1-2.8"/>
			<path fill="#FFFFFF" d="M23.5-2.8c0,0.1,0,0.1,0,0.2c-0.1,0.1-0.1,0.1-0.2,0.1c-0.1,0.1-0.1,0.3-0.1,0.4c-0.2,0.1,0,0.2,0,0.3
				c0,0,0,0.1,0,0.2c0,0.1,0,0.3,0.1,0.4c0.1,0.2,0.3,0.4,0.4,0.5C23.8-0.5,24-0.1,24.3,0c0.2,0,0.4-0.1,0.5-0.1
				c0.2,0,0.4,0,0.6-0.1c0.2-0.1,0.1-0.3,0.3-0.5c0.1-0.1,0.3,0,0.4-0.1c0.2-0.1,0.3-0.3,0.4-0.5c0-0.1,0-0.1,0-0.2
				c0-0.1,0.1-0.2,0.1-0.3c0-0.1-0.1-0.1-0.1-0.2c0-0.1,0-0.2,0-0.3c0-0.2,0-0.4-0.1-0.5c-0.4-0.7-1.2-0.9-2-0.8
				c-0.2,0-0.3,0.1-0.4,0.2c-0.2,0.1-0.1,0.2-0.3,0.2c-0.1,0-0.2,0.1-0.2,0.2C23.5-2.8,23.5-2.9,23.5-2.8
				C23.5-2.7,23.5-2.8,23.5-2.8"/>
			<path fill="#FFFFFF" d="M15.8-2.8c0,0.1,0,0.1,0,0.2c-0.1,0.1-0.1,0.1-0.2,0.1c-0.1,0.1-0.1,0.3-0.1,0.4c-0.2,0.1,0,0.2,0,0.3
				c0,0,0,0.1,0,0.2c0,0.1,0,0.3,0.1,0.4C15.7-1,15.8-0.8,16-0.7c0.2,0.1,0.4,0.6,0.6,0.6c0.2,0,0.4-0.1,0.5-0.1
				c0.2,0,0.4,0,0.6-0.1c0.2-0.1,0.1-0.3,0.3-0.5c0.1-0.1,0.3,0,0.4-0.1c0.2-0.1,0.3-0.3,0.4-0.5c0-0.1,0-0.1,0-0.2
				c0-0.1,0.1-0.2,0.1-0.3c0-0.1-0.1-0.1-0.1-0.2c0-0.1,0-0.2,0-0.3c0-0.2,0-0.4-0.1-0.5c-0.4-0.7-1.2-0.9-2-0.8
				c-0.2,0-0.3,0.1-0.4,0.2c-0.2,0.1-0.1,0.2-0.3,0.2c-0.1,0-0.2,0.1-0.2,0.2C15.8-2.8,15.8-2.9,15.8-2.8
				C15.8-2.7,15.8-2.8,15.8-2.8"/>
			<path fill="#FFFFFF" d="M8.2-2.8c0,0.1,0,0.1,0,0.2C8.1-2.5,8-2.5,8-2.5C7.9-2.4,7.9-2.2,7.9-2.1c-0.2,0.1,0,0.2,0,0.3
				c0,0,0,0.1,0,0.2c0,0.1,0,0.3,0.1,0.4C8-1,8.2-0.8,8.3-0.7C8.5-0.5,8.7-0.1,8.9,0c0.2,0,0.4-0.1,0.5-0.1c0.2,0,0.4,0,0.6-0.1
				c0.2-0.1,0.1-0.3,0.3-0.5c0.1-0.1,0.3,0,0.4-0.1c0.2-0.1,0.3-0.3,0.4-0.5c0-0.1,0-0.1,0-0.2c0-0.1,0.1-0.2,0.1-0.3
				c0-0.1-0.1-0.1-0.1-0.2c0-0.1,0-0.2,0-0.3c0-0.2,0-0.4-0.1-0.5c-0.4-0.7-1.2-0.9-2-0.8C9-3.5,8.8-3.4,8.7-3.4
				C8.5-3.3,8.6-3.2,8.4-3.1C8.3-3.1,8.2-3,8.2-2.9C8.2-2.8,8.2-2.9,8.2-2.8C8.1-2.7,8.1-2.8,8.2-2.8"/>
			<path fill="#FFFFFF" d="M0.5-2.8c0,0.1,0,0.1,0,0.2C0.4-2.5,0.4-2.5,0.3-2.5C0.3-2.4,0.2-2.2,0.2-2.1c-0.2,0.1,0,0.2,0,0.3
				c0,0,0,0.1,0,0.2c0,0.1,0,0.3,0.1,0.4C0.3-1,0.5-0.8,0.7-0.7C0.9-0.5,1-0.1,1.3,0c0.2,0,0.4-0.1,0.5-0.1c0.2,0,0.4,0,0.6-0.1
				c0.2-0.1,0.1-0.3,0.3-0.5c0.1-0.1,0.3,0,0.4-0.1C3.3-0.8,3.4-1,3.5-1.2c0-0.1,0-0.1,0-0.2c0-0.1,0.1-0.2,0.1-0.3
				c0-0.1-0.1-0.1-0.1-0.2c0-0.1,0-0.2,0-0.3c0-0.2,0-0.4-0.1-0.5c-0.4-0.7-1.2-0.9-2-0.8C1.3-3.5,1.2-3.4,1-3.4
				C0.9-3.3,0.9-3.2,0.7-3.1C0.6-3.1,0.5-3,0.5-2.9C0.5-2.8,0.5-2.9,0.5-2.8C0.5-2.7,0.5-2.8,0.5-2.8"/>
		</g>
	</g>
</pattern>
<g>
	<g>
		<path fill="#231F20" d="M400,42.5c3-5-0.1-9.9-0.1-9.9s-4.2-8.7-9.5-17.7s-7.7-6.2-15.5-5.3c-5.9,0.6-4.9,0.3-24.5,0.7
			c-3.5-1-6.5-2.1-8.2-3c-5.8-3.3-10.7-2.2-13-2c-0.8,0.1-1.9,1.9-3.1,4.4c-4.7-1.2-8.8-2.6-10.9-3.8c-5.8-3.3-10.7-2.2-13-2
			c-1.5,0.1-4.4,6.8-6.3,11.7c-25.6,9.2-33.8,29.4-39.1,42.4c-1.4,3.4-2.5,6.2-3.6,8.7c-2.9-0.4-5.9-1-8.8-2
			c-12-4-17.7-15.2-36.5-19.5c-14.3-3.3-20.9,0.1-32.2,4.7c-5.6-1.4-12.9-2.8-18.3-2.5c-10.2,0.5-19,11.5-27.8,12.5
			s-25.3,2.8-52.2,9.8s-58,11.8-77-5.8c0,0,0.4,6.3,4.6,13.4c0,0.1,0.1,0.1,0.1,0.2c0.1,0.2,0.3,0.5,0.5,0.7
			c0.1,0.1,0.1,0.2,0.2,0.3c0.2,0.2,0.3,0.5,0.5,0.7c0.1,0.1,0.1,0.2,0.2,0.3c0.3,0.5,0.7,1,1.1,1.5c0,0.1,0.1,0.1,0.1,0.2
			c0.1,0.2,0.3,0.4,0.5,0.6c0.1,0.2,0.3,0.3,0.4,0.5c0.1,0.2,0.3,0.3,0.5,0.5c0.2,0.2,0.3,0.3,0.5,0.5c0.1,0.2,0.3,0.3,0.5,0.5
			c0.2,0.2,0.4,0.4,0.6,0.6c0.1,0.1,0.3,0.3,0.4,0.4c0.3,0.2,0.5,0.5,0.8,0.7c0.1,0.1,0.2,0.2,0.3,0.3c0.4,0.3,0.7,0.6,1.1,0.9
			c0.1,0.1,0.3,0.2,0.4,0.3c0.3,0.2,0.5,0.4,0.8,0.6c0.2,0.1,0.3,0.2,0.5,0.4c0.3,0.2,0.5,0.4,0.8,0.6c0.2,0.1,0.3,0.2,0.5,0.3
			c0.3,0.2,0.6,0.4,0.9,0.6c0.2,0.1,0.3,0.2,0.5,0.3c0.5,0.3,1,0.6,1.5,0.9c17.5,9.7,43,15,54.8,17c0.3,0.1,0.7,0.1,1.1,0.2
			c0.1,0,0.3,0,0.4,0c0.3,0,0.5,0.1,0.8,0.1c0.2,0,0.3,0,0.5,0.1c0.3,0,0.6,0.1,0.9,0.1c0.2,0,0.3,0,0.5,0c0.3,0,0.6,0.1,1,0.1
			c0.1,0,0.3,0,0.5,0c0.4,0,0.8,0.1,1.2,0.1c0.1,0,0.1,0,0.2,0c2.4,0.2,5.1,0.4,7.9,0.6c0.1,0,0.2,0,0.3,0c0.5,0,0.9,0.1,1.4,0.1
			c0.1,0,0.2,0,0.4,0c0.5,0,0.9,0.1,1.4,0.1c0.1,0,0.3,0,0.4,0c0.5,0,1,0.1,1.4,0.2c0.1,0,0.1,0,0.2,0c1.7,0.2,3.3,0.4,5,0.7
			c0,0,0.1,0,0.1,0c0.5,0.1,0.9,0.2,1.4,0.2c0.2,0,0.3,0.1,0.5,0.1c0.4,0.1,0.9,0.2,1.3,0.2c0.2,0,0.4,0.1,0.6,0.1
			c0.4,0.1,0.8,0.2,1.3,0.3c0.2,0,0.4,0.1,0.6,0.1c0.4,0.1,0.8,0.2,1.3,0.3c0.2,0,0.3,0.1,0.5,0.1c0.4,0.1,0.9,0.2,1.3,0.3
			c0.1,0,0.2,0.1,0.3,0.1c1.5,0.4,2.9,0.9,4.3,1.4c0.1,0,0.3,0.1,0.4,0.1c0.4,0.1,0.7,0.3,1.1,0.5c0.2,0.1,0.4,0.2,0.5,0.2
			c0.3,0.2,0.7,0.3,1,0.5c0.2,0.1,0.4,0.2,0.6,0.3c0.3,0.2,0.7,0.3,1,0.5c0.2,0.1,0.4,0.2,0.6,0.3c0.3,0.2,0.6,0.4,0.9,0.5
			c0.2,0.1,0.3,0.2,0.5,0.3c0.3,0.2,0.6,0.4,0.9,0.6c0.1,0.1,0.3,0.2,0.4,0.3c0.7,0.5,1.4,1,2,1.6c0,0,0.1,0.1,0.1,0.1
			c-0.6,8.6,0,19.5,3.5,32.1c9.3,33,10,21.3,6,34.3s1.2,21.8,4.3,32.2c0.4,1.5,0.9,2.8,1.2,4.1c0,0.1,0,0.1,0.1,0.2
			c0.2,0.6,0.3,1.1,0.5,1.7c0,0.1,0,0.1,0.1,0.2c0.2,0.6,0.3,1.1,0.5,1.6c0,0,0,0.1,0,0.1c0.6,2.3,1,4.3,1.2,6.3
			c0.3,3,0.1,6-0.7,9.7c-2,8.8-1.2,13.7-2.2,25.7s0.7,27.2-8.7,32.3c-8.3,4.6-13.6,5.5-14.4,12.9c-2.2,4.6-2.4,12.9-1.6,16.2
			c0,0,1.6,0.7,4.8-3.9c1.2-1.7,2.4-2.8,3.5-3.7c0.6,0.1,1.3,0.1,2,0.1c9.8,0,5.5-8.3,21.2-9.5c0,0,3.2,2.5,3.2,6.7
			c0,3.3,2.3,5,6.7,5.6c2.7,4.9,4.4,12.5,4.4,12.5c0.7-0.3,4.8-9.2,4.8-14.7c1.9-2.5,1.7-6.3,0.6-7.7c0,0,7.8,1.1,13.5,3.7
			c0.2,0.1,0.5,0.3,0.7,0.4c0.8,0.5,1.7,1,2.5,1.3c1.8,1,3.6,1.3,5.3,1.3c2.3,0.2,3.8-0.1,3.8-0.1s1.7-0.7,2.5-1.2
			c1.3,0.5,2.9,1.4,4.5,2.8c4.4,3.8,5.8,2.6,5.8,2.6c0-3.6-2.4-11.8-5.8-15.7c-0.4-2.2-2.1-4.4-6.1-6.1
			c-12.8-5.3-29.3-15.2-26.5-30.3s3.3-12.8,0.7-27.3c-0.9-5.2-0.4-10,0.7-14.4l0,0c1.3-5.2,3.4-9.7,5-13.6c0.1-0.1,0.1-0.3,0.2-0.4
			c0.1-0.2,0.1-0.3,0.2-0.5c0.1-0.2,0.2-0.4,0.2-0.6c0-0.1,0.1-0.2,0.1-0.4c0.1-0.3,0.2-0.6,0.3-0.9c0-0.1,0-0.2,0.1-0.2
			c0.1-0.2,0.1-0.5,0.2-0.7c0-0.1,0.1-0.2,0.1-0.3c0.1-0.2,0.1-0.4,0.2-0.6c0-0.1,0-0.2,0.1-0.3c0.1-0.3,0.1-0.6,0.2-0.8
			c1.2-7.5,2.5-13.7-0.3-21c0,0,0,0,0.1-0.1c0,0,0.1-0.1,0.1-0.1c0,0,0.1-0.1,0.1-0.1c0.1-0.1,0.1-0.1,0.2-0.2c0,0,0.1-0.1,0.1-0.2
			c0.1-0.1,0.2-0.2,0.3-0.4c0-0.1,0.1-0.1,0.1-0.2c0.1-0.2,0.2-0.3,0.4-0.5c0,0,0.1-0.1,0.1-0.1c0.8-1.1,1.8-2.8,2.8-5
			c0,0,0-0.1,0.1-0.1c0.2-0.4,0.4-0.8,0.6-1.2c0-0.1,0.1-0.2,0.1-0.2c0.2-0.4,0.4-0.9,0.6-1.3c0-0.1,0.1-0.2,0.1-0.2
			c0.2-0.5,0.4-1,0.6-1.5c0,0,0-0.1,0-0.1c0.6-1.7,1.2-3.5,1.7-5.5c0,0,0,0,0,0c0,0,0,0,0,0c0.7,0.2,1.5,0.5,2.2,0.7
			c0.3,0.1,0.5,0.2,0.8,0.2c0.7,0.2,1.3,0.4,2,0.5c0.4,0.1,0.7,0.2,1.1,0.3c0.6,0.1,1.3,0.3,1.9,0.4c0.5,0.1,0.9,0.2,1.4,0.3
			c0.6,0.1,1.2,0.2,1.8,0.3c0.5,0.1,1.1,0.2,1.7,0.2c0.6,0.1,1.2,0.2,1.8,0.2c0.6,0.1,1.3,0.1,2,0.2c0.5,0,1.1,0.1,1.6,0.1
			c0.8,0.1,1.6,0.1,2.4,0.1c0.5,0,0.9,0.1,1.4,0.1c1.3,0,2.6,0.1,4,0c45.5-0.5,40.5,0.2,46.5,0.8c0.3,0,0.7,0,1,0c0.1,0,0.2,0,0.3,0
			c0.3,0,0.5,0,0.8-0.1c0.1,0,0.2,0,0.3,0c0.3-0.1,0.6-0.1,1-0.2c0,0,0.1,0,0.1,0c0.3-0.1,0.7-0.2,1-0.4c0.1,0,0.2-0.1,0.4-0.1
			c0.2-0.1,0.5-0.2,0.7-0.3c0.1-0.1,0.3-0.1,0.4-0.2c0.3-0.2,0.6-0.3,0.9-0.5c0.1,0,0.1-0.1,0.2-0.1c0,0,0,0,0,0
			c0.5,0.1,1,0.3,1.4,0.4c0,0,0.1,0,0.1,0c0.9,0.3,1.7,0.6,2.5,1c0,0,0.1,0,0.1,0.1c0.4,0.2,0.7,0.4,1.1,0.5c0.1,0,0.1,0.1,0.2,0.1
			c0.3,0.2,0.7,0.4,1,0.6c0,0,0,0,0,0c0.3,0.2,0.6,0.5,0.8,0.7c0,0,0.1,0.1,0.1,0.1c0.2,0.2,0.5,0.5,0.7,0.8c0,0.1,0.1,0.1,0.1,0.2
			c0.2,0.3,0.4,0.6,0.6,0.9c3.6,7,3.9,2.4,4.7,9.7c0.5,5.3,1,9,2.9,10.4l0.2,0.2c0,0,2.1,4.6-0.8,8.5c0,0,9.6-1.6,6.1-10
			c0.4-1.4-0.4-3.9-1.8-8.3c-2.3-7.6-2.4-12.5-2.4-12.5l3.6,6c0,0,2,5,2.7,9.1c0.4,2.7,2,3.9,3.7,4.2c0.4,1.3,1.3,4.9-1,7.9
			c0,0,10-1.6,5.9-10.4c0.8-1.5,0.8-3.6-0.7-6c-2.6-4.3-2.6-7.9-2.6-7.9s-8.1-9-8.6-10.9s-8-1.9-10.5-5.4c-0.1-0.1-0.2-0.3-0.3-0.4
			c0.2-0.3,0.3-0.6,0.5-0.9c4-7.7,7.2-31.3,35-47.8l8.4,0.9c4,0.6,9.2,1.7,10.8,3.8c2.7,3.5,8,4.5,12.3,3.3c0.2-0.1,0.4-0.1,0.6-0.2
			c0,0,0.1,0,0.1,0c0.2-0.1,0.4-0.2,0.5-0.2c0,0,0.1,0,0.1,0c0.2-0.1,0.3-0.2,0.5-0.3c0,0,0.1,0,0.1-0.1c0.2-0.1,0.3-0.2,0.5-0.3
			c0.1,0,0.1-0.1,0.2-0.1c0.1-0.1,0.3-0.2,0.4-0.3c0.7-0.5,1.4-1,2.1-1.5c0,0,0,0,0,0c0.5-0.3,1-0.6,1.5-0.9c0,0,0,0,0,0
			c0.3-0.1,0.5-0.3,0.8-0.4c0,0,0,0,0,0c0.3-0.1,0.6-0.3,0.9-0.4c0,0,0,0,0,0c0.3-0.1,0.6-0.2,0.9-0.3c0,0,0.1,0,0.1,0
			c0.6-0.2,1.3-0.3,2-0.4c0,0,0.1,0,0.1,0c0.4,0,0.7-0.1,1.1-0.1c0,0,0.1,0,0.1,0c0.3,0.1,0.7,0.3,1,0.4c0.1,0.1,0.3,0.1,0.4,0.2
			c0.3,0.1,0.7,0.3,1,0.4c0.1,0,0.2,0.1,0.2,0.1c0.7,0.2,1.3,0.5,2,0.7c0.1,0,0.2,0.1,0.4,0.1c0.3,0.1,0.6,0.2,0.8,0.3
			c0.2,0.1,0.3,0.1,0.5,0.2c0.3,0.1,0.5,0.2,0.8,0.3c0.2,0.1,0.4,0.1,0.6,0.2c0.2,0.1,0.5,0.2,0.7,0.3c0.3,0.1,0.7,0.2,1,0.3
			c0.2,0.1,0.3,0.1,0.5,0.2c0.2,0.1,0.4,0.1,0.7,0.2c0.2,0.1,0.3,0.1,0.5,0.2c0.2,0.1,0.4,0.1,0.7,0.2c0.1,0,0.2,0.1,0.4,0.1
			c0.3,0.1,0.6,0.2,0.9,0.3c0.1,0,0.1,0,0.2,0.1c0.2,0.1,0.4,0.1,0.6,0.2c0.1,0,0.2,0,0.3,0.1c0.2,0,0.3,0.1,0.5,0.1
			c0.1,0,0.1,0,0.2,0c0.2,0,0.4,0.1,0.6,0.1c6.2,1,12.3,2.7,15.7-9.2c1.9-6.9,2.7-9.3,2.1-10.5c0.1-0.8-0.1-1-0.6-1.1
			c1-1.8,2.4-5.1,1.1-8.4c0,0-0.8,0.3-1.9,1.2c-0.1-0.2-0.1-0.3-0.2-0.5c0-0.9-0.1-1.9-0.5-2.8c0,0-1.6,0.6-3.2,2.5
			c0.2-1.3,0.2-2.8-0.4-4.2c0,0-1.8,0.7-3.5,2.9c0.4-1.5,0.4-3.3-0.2-5c0,0-1.9,0.7-3.7,3.1c0.3-1.5,0.4-3.1-0.3-4.8
			c0,0-1.9,0.7-3.7,3.2c0,0-0.1,0-0.1-0.1c0.3-1.5,0.3-3.1-0.3-4.7c0,0-1.6,0.6-3.2,2.5c0.4-1.6,0.5-3.3-0.2-5.1c0,0-2,0.8-3.8,3.3
			c-0.1-0.1-0.2-0.1-0.2-0.2c0.4-1.6,0.5-3.4-0.2-5.2c0,0-1.6,0.6-3.2,2.5c-0.9-0.7-1.9-1.4-2.8-2.1c-0.2-4-0.3-14.3,3.6-21.8
			c2.5-4.7,4.1-5.7,7.9-6.1c-0.1,1.9,0.2,4.4,2,6.4c0,0,2.4-2.1,2.6-6.7c0.2,0,0.4,0,0.7-0.1c-0.1,2.1,0.2,4.8,2.1,6.9
			c0,0,2.6-2.3,2.8-7.4c0.3,0,0.7-0.1,1-0.1c-0.1,2.1,0.1,4.9,2,7c0,0,2.8-2.4,2.8-7.7c0.3-0.1,0.6-0.1,1-0.2
			c-0.2,2.2-0.1,5.4,2.1,7.8c0,0,3.2-2.8,2.9-8.9c0.1,0,0.1,0,0.2,0c0.2,0,0.3-0.1,0.5-0.1c-0.2,2.2-0.2,5.5,2.1,7.9
			c0,0,2.1-1.9,2.7-5.9c0.3,1.3,0.9,2.5,1.9,3.6c0,0,2.4-2.2,2.8-6.8c0.3,0.8,0.8,1.6,1.4,2.2c0,0,2-1.8,2.7-5.5
			C399.1,45.5,399.7,44.2,400,42.5z"/>
		<g>
			<path fill="none" d="M400,42.5c3-5-0.1-9.9-0.1-9.9s-4.2-8.7-9.5-17.7s-7.7-6.2-15.5-5.3c-5.9,0.6-4.9,0.3-24.5,0.7
				c-3.5-1-6.5-2.1-8.2-3c-5.8-3.3-10.7-2.2-13-2c-0.8,0.1-1.9,1.9-3.1,4.4c-4.7-1.2-8.8-2.6-10.9-3.8c-5.8-3.3-10.7-2.2-13-2
				c-1.5,0.1-4.4,6.8-6.3,11.7c-25.6,9.2-33.8,29.4-39.1,42.4c-1.4,3.4-2.5,6.2-3.6,8.7c-2.9-0.4-5.9-1-8.8-2
				c-12-4-17.7-15.2-36.5-19.5c-14.3-3.3-20.9,0.1-32.2,4.7c-5.6-1.4-12.9-2.8-18.3-2.5c-10.2,0.5-19,11.5-27.8,12.5
				s-25.3,2.8-52.2,9.8s-58,11.8-77-5.8c0,0,0.4,6.3,4.6,13.4c0,0.1,0.1,0.1,0.1,0.2c0.1,0.2,0.3,0.5,0.5,0.7
				c0.1,0.1,0.1,0.2,0.2,0.3c0.2,0.2,0.3,0.5,0.5,0.7c0.1,0.1,0.1,0.2,0.2,0.3c0.3,0.5,0.7,1,1.1,1.5c0,0.1,0.1,0.1,0.1,0.2
				c0.1,0.2,0.3,0.4,0.5,0.6c0.1,0.2,0.3,0.3,0.4,0.5c0.1,0.2,0.3,0.3,0.5,0.5c0.2,0.2,0.3,0.3,0.5,0.5c0.1,0.2,0.3,0.3,0.5,0.5
				c0.2,0.2,0.4,0.4,0.6,0.6c0.1,0.1,0.3,0.3,0.4,0.4c0.3,0.2,0.5,0.5,0.8,0.7c0.1,0.1,0.2,0.2,0.3,0.3c0.4,0.3,0.7,0.6,1.1,0.9
				c0.1,0.1,0.3,0.2,0.4,0.3c0.3,0.2,0.5,0.4,0.8,0.6c0.2,0.1,0.3,0.2,0.5,0.4c0.3,0.2,0.5,0.4,0.8,0.6c0.2,0.1,0.3,0.2,0.5,0.3
				c0.3,0.2,0.6,0.4,0.9,0.6c0.2,0.1,0.3,0.2,0.5,0.3c0.5,0.3,1,0.6,1.5,0.9c17.5,9.7,43,15,54.8,17c0.3,0.1,0.7,0.1,1.1,0.2
				c0.1,0,0.3,0,0.4,0c0.3,0,0.5,0.1,0.8,0.1c0.2,0,0.3,0,0.5,0.1c0.3,0,0.6,0.1,0.9,0.1c0.2,0,0.3,0,0.5,0c0.3,0,0.6,0.1,1,0.1
				c0.1,0,0.3,0,0.5,0c0.4,0,0.8,0.1,1.2,0.1c0.1,0,0.1,0,0.2,0c2.4,0.2,5.1,0.4,7.9,0.6c0.1,0,0.2,0,0.3,0c0.5,0,0.9,0.1,1.4,0.1
				c0.1,0,0.2,0,0.4,0c0.5,0,0.9,0.1,1.4,0.1c0.1,0,0.3,0,0.4,0c0.5,0,1,0.1,1.4,0.2c0.1,0,0.1,0,0.2,0c1.7,0.2,3.3,0.4,5,0.7
				c0,0,0.1,0,0.1,0c0.5,0.1,0.9,0.2,1.4,0.2c0.2,0,0.3,0.1,0.5,0.1c0.4,0.1,0.9,0.2,1.3,0.2c0.2,0,0.4,0.1,0.6,0.1
				c0.4,0.1,0.8,0.2,1.3,0.3c0.2,0,0.4,0.1,0.6,0.1c0.4,0.1,0.8,0.2,1.3,0.3c0.2,0,0.3,0.1,0.5,0.1c0.4,0.1,0.9,0.2,1.3,0.3
				c0.1,0,0.2,0.1,0.3,0.1c1.5,0.4,2.9,0.9,4.3,1.4c0.1,0,0.3,0.1,0.4,0.1c0.4,0.1,0.7,0.3,1.1,0.5c0.2,0.1,0.4,0.2,0.5,0.2
				c0.3,0.2,0.7,0.3,1,0.5c0.2,0.1,0.4,0.2,0.6,0.3c0.3,0.2,0.7,0.3,1,0.5c0.2,0.1,0.4,0.2,0.6,0.3c0.3,0.2,0.6,0.4,0.9,0.5
				c0.2,0.1,0.3,0.2,0.5,0.3c0.3,0.2,0.6,0.4,0.9,0.6c0.1,0.1,0.3,0.2,0.4,0.3c0.7,0.5,1.4,1,2,1.6c0,0,0.1,0.1,0.1,0.1
				c-0.6,8.6,0,19.5,3.5,32.1c9.3,33,10,21.3,6,34.3s1.2,21.8,4.3,32.2c0.4,1.5,0.9,2.8,1.2,4.1c0,0.1,0,0.1,0.1,0.2
				c0.2,0.6,0.3,1.1,0.5,1.7c0,0.1,0,0.1,0.1,0.2c0.2,0.6,0.3,1.1,0.5,1.6c0,0,0,0.1,0,0.1c0.6,2.3,1,4.3,1.2,6.3
				c0.3,3,0.1,6-0.7,9.7c-2,8.8-1.2,13.7-2.2,25.7s0.7,27.2-8.7,32.3c-8.3,4.6-13.6,5.5-14.4,12.9c-2.2,4.6-2.4,12.9-1.6,16.2
				c0,0,1.6,0.7,4.8-3.9c1.2-1.7,2.4-2.8,3.5-3.7c0.6,0.1,1.3,0.1,2,0.1c9.8,0,5.5-8.3,21.2-9.5c0,0,3.2,2.5,3.2,6.7
				c0,3.3,2.3,5,6.7,5.6c2.7,4.9,4.4,12.5,4.4,12.5c0.7-0.3,4.8-9.2,4.8-14.7c1.9-2.5,1.7-6.3,0.6-7.7c0,0,7.8,1.1,13.5,3.7
				c0.2,0.1,0.5,0.3,0.7,0.4c0.8,0.5,1.7,1,2.5,1.3c1.8,1,3.6,1.3,5.3,1.3c2.3,0.2,3.8-0.1,3.8-0.1s1.7-0.7,2.5-1.2
				c1.3,0.5,2.9,1.4,4.5,2.8c4.4,3.8,5.8,2.6,5.8,2.6c0-3.6-2.4-11.8-5.8-15.7c-0.4-2.2-2.1-4.4-6.1-6.1
				c-12.8-5.3-29.3-15.2-26.5-30.3s3.3-12.8,0.7-27.3c-0.9-5.2-0.4-10,0.7-14.4l0,0c1.3-5.2,3.4-9.7,5-13.6c0.1-0.1,0.1-0.3,0.2-0.4
				c0.1-0.2,0.1-0.3,0.2-0.5c0.1-0.2,0.2-0.4,0.2-0.6c0-0.1,0.1-0.2,0.1-0.4c0.1-0.3,0.2-0.6,0.3-0.9c0-0.1,0-0.2,0.1-0.2
				c0.1-0.2,0.1-0.5,0.2-0.7c0-0.1,0.1-0.2,0.1-0.3c0.1-0.2,0.1-0.4,0.2-0.6c0-0.1,0-0.2,0.1-0.3c0.1-0.3,0.1-0.6,0.2-0.8
				c1.2-7.5,2.5-13.7-0.3-21c0,0,0,0,0.1-0.1c0,0,0.1-0.1,0.1-0.1c0,0,0.1-0.1,0.1-0.1c0.1-0.1,0.1-0.1,0.2-0.2c0,0,0.1-0.1,0.1-0.2
				c0.1-0.1,0.2-0.2,0.3-0.4c0-0.1,0.1-0.1,0.1-0.2c0.1-0.2,0.2-0.3,0.4-0.5c0,0,0.1-0.1,0.1-0.1c0.8-1.1,1.8-2.8,2.8-5
				c0,0,0-0.1,0.1-0.1c0.2-0.4,0.4-0.8,0.6-1.2c0-0.1,0.1-0.2,0.1-0.2c0.2-0.4,0.4-0.9,0.6-1.3c0-0.1,0.1-0.2,0.1-0.2
				c0.2-0.5,0.4-1,0.6-1.5c0,0,0-0.1,0-0.1c0.6-1.7,1.2-3.5,1.7-5.5c0,0,0,0,0,0c0,0,0,0,0,0c0.7,0.2,1.5,0.5,2.2,0.7
				c0.3,0.1,0.5,0.2,0.8,0.2c0.7,0.2,1.3,0.4,2,0.5c0.4,0.1,0.7,0.2,1.1,0.3c0.6,0.1,1.3,0.3,1.9,0.4c0.5,0.1,0.9,0.2,1.4,0.3
				c0.6,0.1,1.2,0.2,1.8,0.3c0.5,0.1,1.1,0.2,1.7,0.2c0.6,0.1,1.2,0.2,1.8,0.2c0.6,0.1,1.3,0.1,2,0.2c0.5,0,1.1,0.1,1.6,0.1
				c0.8,0.1,1.6,0.1,2.4,0.1c0.5,0,0.9,0.1,1.4,0.1c1.3,0,2.6,0.1,4,0c45.5-0.5,40.5,0.2,46.5,0.8c0.3,0,0.7,0,1,0
				c0.1,0,0.2,0,0.3,0c0.3,0,0.5,0,0.8-0.1c0.1,0,0.2,0,0.3,0c0.3-0.1,0.6-0.1,1-0.2c0,0,0.1,0,0.1,0c0.3-0.1,0.7-0.2,1-0.4
				c0.1,0,0.2-0.1,0.4-0.1c0.2-0.1,0.5-0.2,0.7-0.3c0.1-0.1,0.3-0.1,0.4-0.2c0.3-0.2,0.6-0.3,0.9-0.5c0.1,0,0.1-0.1,0.2-0.1
				c0,0,0,0,0,0c0.5,0.1,1,0.3,1.4,0.4c0,0,0.1,0,0.1,0c0.9,0.3,1.7,0.6,2.5,1c0,0,0.1,0,0.1,0.1c0.4,0.2,0.7,0.4,1.1,0.5
				c0.1,0,0.1,0.1,0.2,0.1c0.3,0.2,0.7,0.4,1,0.6c0,0,0,0,0,0c0.3,0.2,0.6,0.5,0.8,0.7c0,0,0.1,0.1,0.1,0.1c0.2,0.2,0.5,0.5,0.7,0.8
				c0,0.1,0.1,0.1,0.1,0.2c0.2,0.3,0.4,0.6,0.6,0.9c3.6,7,3.9,2.4,4.7,9.7c0.5,5.3,1,9,2.9,10.4l0.2,0.2c0,0,2.1,4.6-0.8,8.5
				c0,0,9.6-1.6,6.1-10c0.4-1.4-0.4-3.9-1.8-8.3c-2.3-7.6-2.4-12.5-2.4-12.5l3.6,6c0,0,2,5,2.7,9.1c0.4,2.7,2,3.9,3.7,4.2
				c0.4,1.3,1.3,4.9-1,7.9c0,0,10-1.6,5.9-10.4c0.8-1.5,0.8-3.6-0.7-6c-2.6-4.3-2.6-7.9-2.6-7.9s-8.1-9-8.6-10.9s-8-1.9-10.5-5.4
				c-0.1-0.1-0.2-0.3-0.3-0.4c0.2-0.3,0.3-0.6,0.5-0.9c4-7.7,7.2-31.3,35-47.8l8.4,0.9c4,0.6,9.2,1.7,10.8,3.8
				c2.7,3.5,8,4.5,12.3,3.3c0.2-0.1,0.4-0.1,0.6-0.2c0,0,0.1,0,0.1,0c0.2-0.1,0.4-0.2,0.5-0.2c0,0,0.1,0,0.1,0
				c0.2-0.1,0.3-0.2,0.5-0.3c0,0,0.1,0,0.1-0.1c0.2-0.1,0.3-0.2,0.5-0.3c0.1,0,0.1-0.1,0.2-0.1c0.1-0.1,0.3-0.2,0.4-0.3
				c0.7-0.5,1.4-1,2.1-1.5c0,0,0,0,0,0c0.5-0.3,1-0.6,1.5-0.9c0,0,0,0,0,0c0.3-0.1,0.5-0.3,0.8-0.4c0,0,0,0,0,0
				c0.3-0.1,0.6-0.3,0.9-0.4c0,0,0,0,0,0c0.3-0.1,0.6-0.2,0.9-0.3c0,0,0.1,0,0.1,0c0.6-0.2,1.3-0.3,2-0.4c0,0,0.1,0,0.1,0
				c0.4,0,0.7-0.1,1.1-0.1c0,0,0.1,0,0.1,0c0.3,0.1,0.7,0.3,1,0.4c0.1,0.1,0.3,0.1,0.4,0.2c0.3,0.1,0.7,0.3,1,0.4
				c0.1,0,0.2,0.1,0.2,0.1c0.7,0.2,1.3,0.5,2,0.7c0.1,0,0.2,0.1,0.4,0.1c0.3,0.1,0.6,0.2,0.8,0.3c0.2,0.1,0.3,0.1,0.5,0.2
				c0.3,0.1,0.5,0.2,0.8,0.3c0.2,0.1,0.4,0.1,0.6,0.2c0.2,0.1,0.5,0.2,0.7,0.3c0.3,0.1,0.7,0.2,1,0.3c0.2,0.1,0.3,0.1,0.5,0.2
				c0.2,0.1,0.4,0.1,0.7,0.2c0.2,0.1,0.3,0.1,0.5,0.2c0.2,0.1,0.4,0.1,0.7,0.2c0.1,0,0.2,0.1,0.4,0.1c0.3,0.1,0.6,0.2,0.9,0.3
				c0.1,0,0.1,0,0.2,0.1c0.2,0.1,0.4,0.1,0.6,0.2c0.1,0,0.2,0,0.3,0.1c0.2,0,0.3,0.1,0.5,0.1c0.1,0,0.1,0,0.2,0
				c0.2,0,0.4,0.1,0.6,0.1c6.2,1,12.3,2.7,15.7-9.2c1.9-6.9,2.7-9.3,2.1-10.5c0.1-0.8-0.1-1-0.6-1.1c1-1.8,2.4-5.1,1.1-8.4
				c0,0-0.8,0.3-1.9,1.2c-0.1-0.2-0.1-0.3-0.2-0.5c0-0.9-0.1-1.9-0.5-2.8c0,0-1.6,0.6-3.2,2.5c0.2-1.3,0.2-2.8-0.4-4.2
				c0,0-1.8,0.7-3.5,2.9c0.4-1.5,0.4-3.3-0.2-5c0,0-1.9,0.7-3.7,3.1c0.3-1.5,0.4-3.1-0.3-4.8c0,0-1.9,0.7-3.7,3.2c0,0-0.1,0-0.1-0.1
				c0.3-1.5,0.3-3.1-0.3-4.7c0,0-1.6,0.6-3.2,2.5c0.4-1.6,0.5-3.3-0.2-5.1c0,0-2,0.8-3.8,3.3c-0.1-0.1-0.2-0.1-0.2-0.2
				c0.4-1.6,0.5-3.4-0.2-5.2c0,0-1.6,0.6-3.2,2.5c-0.9-0.7-1.9-1.4-2.8-2.1c-0.2-4-0.3-14.3,3.6-21.8c2.5-4.7,4.1-5.7,7.9-6.1
				c-0.1,1.9,0.2,4.4,2,6.4c0,0,2.4-2.1,2.6-6.7c0.2,0,0.4,0,0.7-0.1c-0.1,2.1,0.2,4.8,2.1,6.9c0,0,2.6-2.3,2.8-7.4
				c0.3,0,0.7-0.1,1-0.1c-0.1,2.1,0.1,4.9,2,7c0,0,2.8-2.4,2.8-7.7c0.3-0.1,0.6-0.1,1-0.2c-0.2,2.2-0.1,5.4,2.1,7.8
				c0,0,3.2-2.8,2.9-8.9c0.1,0,0.1,0,0.2,0c0.2,0,0.3-0.1,0.5-0.1c-0.2,2.2-0.2,5.5,2.1,7.9c0,0,2.1-1.9,2.7-5.9
				c0.3,1.3,0.9,2.5,1.9,3.6c0,0,2.4-2.2,2.8-6.8c0.3,0.8,0.8,1.6,1.4,2.2c0,0,2-1.8,2.7-5.5C399.1,45.5,399.7,44.2,400,42.5z"/>
			<path fill="#231F20" d="M400,46.3c2.7-5.6,1.9-13.5-0.8-18.9c-2.7-5.5-5.7-10.9-8.8-16.2c-2.5-4.2-5-6.9-10.1-6.2
				c-5.5,0.8-10.6,1.3-16.2,1.3c-5.7,0.1-11.7,0.9-17.1-0.8c-5.8-1.8-10-4.8-16.3-4.1c-2.3,0.2-2.8,1.2-3.9,3.2
				c-1.2,2.1-1.9,1.1-4.1,0.5c-1.5-0.4-2.9-0.9-4.4-1.4c-5.5-2-9.3-4.1-15.4-3.4c-3.7,0.4-5.8,8.9-7,11.8c-0.4,1-7.4,3.2-8.6,3.8
				c-2.9,1.5-5.7,3.4-8.3,5.5c-7.9,6.1-13.6,14.6-17.9,23.5c-1.8,3.7-3.3,7.5-4.8,11.3c-0.6,1.5-1.2,3-1.8,4.4
				c-0.8,2-0.4,2.7-2.8,2.3c-3.5-0.5-6.9-1.5-10.2-3c-8.3-3.7-14.7-10.7-23-14.7c-10.4-5-22.2-6.2-33.2-2.6
				c-2.2,0.7-4.4,1.6-6.5,2.5c-3.3,1.4-5.4,0.5-8.9-0.2c-5.8-1.1-11.8-1.9-17.5-0.1c-9.2,3-15.4,10.6-25.4,11.7
				c-21,2.4-41,8-61.6,12.4C44,73.6,18.1,76,0.6,60.2c0.8,0.7-0.1,6.2,0,7.5c2.1,27.6,37.2,35.7,58.6,40.7c11.2,2.6,22,3.5,33.4,4.7
				c10.4,1.1,21.9,2.9,30.1,10c0-2.5,0-4.9,0-7.4c-0.6,9.5-0.4,19.2,1.1,28.6c1.8,11.1,5.5,22,9.4,32.5c1.6,4.3,0.5,6.9,1.3-2.1
				c-0.2,1.6-0.9,3.2-1.4,4.7c-2.7,7.9-3,16.7-1.8,25c0.9,6,3.5,11.6,5.3,17.3c1.4,4.4,3.9,10,3.2,14.5c-1.7,11-2.4,21.9-2.9,33.1
				c-0.3,5.9-0.3,11.8-1.8,17.5c-1.6,6-5.4,8.7-10.6,11.3c-4.1,2.1-8.2,3.9-9.8,8.4c-1.6,4.5-2.5,9.4-2.5,14.1c0,1-0.7,11.6,0.5,12
				c1.4,0.4,3.1-1.8,3.7-2.6c1.3-1.4,2.2-3,3.6-4.3c1.1-1,2.5-0.6,3.9-0.6c4-0.1,5.9-3,8.6-5.5c1.6-1.5,3.7-2.4,5.7-3
				c3-0.9,5.4-1.7,7.3,0.8c1.8,2.3,1.1,5.2,2.3,7.7c0.6,1.2,2.1,1.8,3.3,2.3c2.4,0.9,2.7,0.5,3.8,3c1.2,2.6,2,5.5,2.7,8.2
				c0.6,2.1,0.5,2.1,1.6,0c1.3-2.5,2.2-5.2,2.9-8c0.7-2.5,2-6.1,2.1-8.7c0.1-3.5,0.9-8.3-0.7-11.5c0,2.5,0,5,0,7.5
				c3.2,0.5,6.3,1.2,9.4,2.1c4.4,1.3,8,4.5,12.7,4.6c1.4,0,3,0.2,4.3-0.3c2.5-1,3-0.8,5.4,0.8c1.4,0.9,4.9,4.9,7,3.6
				c0.7-0.4,0.1-6.4,0-7.4c-0.2-4.9-2-9.8-4.4-14c-1.1-1.9-2-4-3.5-5.6c-2.1-2.2-5.9-3.2-8.6-4.5c-5.2-2.5-10.2-5.5-14.5-9.4
				c-1.9-1.7-3.5-3.7-4.8-5.8c-0.7-1-1.2-2.1-1.6-3.2c-0.6-1.4-1.1-6.6-1.2-0.8c0,0.4,0,0.7,0,1.1c0.6-7.5,2.8-14.5,2.8-22.1
				c0-2.8-0.1-5.5-0.5-8.2c-0.4-2.4-0.8-4.8-1.3-7.2c-0.5-2.7,0.3-5.6,1.2-8.6c2.2-7.9,5.9-14.6,7.1-22.8c1.1-7.5,1.4-16.3-1.1-23.5
				c0,2.5,0,5,0,7.5c3-3.8,5.1-8.3,6.7-12.9c0.1-0.3,1.3-4.2,1.3-4.2c1.7,0.5,3.3,1,5,1.4c4.7,1.2,9.6,1.9,14.5,2.2
				c15.3,0.9,30.7-0.5,46,0.2c5.1,0.2,9.2,1.6,14-1.1c0.9-0.5,5.5,2,6.4,2.8c2.2,2.2,3.3,5.2,5.6,7.3c2.4,2.2,1.7,8.1,2.2,11.1
				c0.6,3.1,2.6,4.7,2.9,7.9c0-2.3,0-4.7,0-7c0,1.9-0.6,3.1-1.5,4.6c-0.5,0.8,0.4,7.4,0,7.5c8-1.4,8.4-11.1,6.1-17.5
				c0,2.5,0,5,0,7.5c1.2-9.9-3.8-18.5-4.2-28.2c0,2.5,0,4.9,0,7.4c1.5,2.4,3.1,4.8,4.1,7.5c1.1,3,1.7,6,2.5,9.1
				c0.3,1.2,1.3,1.9,2.3,2.5c1.4,0.8,1.3,1.2,1.5,3c0-2.1,0-4.3,0-6.4c0,0.4,0,0.8,0,1.2c0-0.4,0-0.7,0-1.1c-0.3,1.6-0.7,2.6-1.5,4
				c-0.5,0.8,0.4,7.4,0,7.5c8.2-1.4,8.5-11.5,5.9-17.9c0,2.5,0,5,0,7.5c1.1-2.8,0.7-6.6,0.5-9.5c-0.3-3.4-2.6-6.3-3.4-9.6
				c-0.4-1.7-0.2-2.2-1.3-3.4c-2.6-3-5.6-6-7.6-9.5c-1.9-3.4-8.2-2.8-11-6.2c0,2.5,0,5,0,7.5c2.8-5.1,4.2-11,6.5-16.3
				c3.8-8.7,9.2-16.4,16.1-22.9c1.9-1.8,3.9-3.4,5.9-4.9c1.3-1,5.5-4.8,7.1-4.6c2.8,0.3,5.5,0.6,8.3,0.9c2.4,0.2,4.7,0.9,6.9,1.5
				c2.5,0.8,3.7,2.4,5.7,4c2.9,2.4,8.5,2.8,11.8,1c4-2.2,8-6.5,13-4.6c4.6,1.7,9.2,3.7,14,4.6c3.1,0.6,6.3,1.1,9.3,0.1
				c4.9-1.7,6.1-8.4,7.3-12.6c0.8-3,1.4-5.6,1.4-8.6c0-1.6,0.7-6.2-0.9-7.2c0,2.5,0,5,0,7.5c2-3.9,1.7-7.9,1.6-12.2
				c0-2.5,0.2-4.4-2.4-2.5c0.2-0.1-0.6-3.1-0.7-3.3c-0.1-0.3-3.2,2.5-3.2,2.5c0,2.5,0,5,0,7.5c0.2-2.6,0.2-5.2,0.1-7.8
				c0-1.4-0.2-2.6-0.5-3.9c-0.1-0.3-3.4,2.8-3.5,2.9c0,2.5,0,5,0,7.5c0.4-2.6,0.3-5.3,0.3-8c0-1.6-0.1-2.9-0.5-4.5
				c-0.1-0.3-3.6,3-3.7,3.1c0,2.5,0,5,0,7.5c0.4-2.6,0.3-5.3,0.2-7.9c0-1.6-0.1-2.8-0.5-4.3c0,0-4.3,2.9-3.9,3.1c0,2.5,0,5,0,7.5
				c0.3-2.4,0.2-4.8,0.2-7.2c0-1,0.1-2.5-0.1-3.4c-0.7-2.8-2-0.8-3.6,0.8c0,2.5,0,5,0,7.5c0.4-2.7,0.3-5.3,0.3-8
				c0-1.8-0.1-2.9-0.5-4.6c0,0.1-4.3,2.9-4.1,3.1c0,2.5,0,5,0,7.5c0.5-2.7,0.3-5.3,0.3-8c0-1.8-0.1-2.9-0.5-4.6c0-0.1-2.2,1.4-2,1.3
				c-0.4,0.4-0.8,0.8-1.2,1.2c-1.1-0.7-2.1-1.6-2.8-2.7c0,2.7,0,2.4,0.2-0.8c0.1-1.5,0.4-2.9,0.6-4.3c0.4-2.5,1.2-4.9,2.2-7.2
				c1.7-4.2,4.1-6.9,8.6-7.5c0-1.3,0-2.5,0-3.8c0,3.1-0.2,6,1.1,8.9c0.9,2.1,1.4,0.8,2.1-0.4c0.8-1.2,1-5.1,2.1-5.1
				c0-1.6,0-3.2,0-4.7c0,3.6-0.3,7,1.2,10.3c1,2.1,1.3,1.1,2.1-0.1c1.2-1.7,1-5.9,2.8-6.1c0-2.5,0-4.9,0-7.4c-0.1,3.1-0.5,6.5,0,9.6
				c0.2,1.3,1,6,2.7,3.9c0.9-1.2,1.7-6.8,3-7.1c0-2.5,0-4.9,0-7.4c-0.3,4.5-0.8,9.8,1.1,13.9c1.3,2.8,2.5-0.8,3.1-2.2
				c1-2.5,0.8-5.5,0.8-8.1c0,0.9,0,1.8,0,2.8c0.2,0,0.4-0.1,0.6-0.2c0-2.5,0-5,0-7.5c-0.2,3.1-0.1,6.3-0.1,9.5c0,2.3,0.8,4.1,2.1,6
				c0.2,0.3,2.3-4.1,2.4-4.3c1.7-4.8,0.5,3.9,2.6,1.6c1.6-1.7,2.1-4.2,2.5-6.4c0,0.2,1.2,2.5,1.5,2.1c0.5-0.5,0.9-1.1,1.2-1.7
				C398.6,51.8,399.4,48.6,400,46.3c0.6-2.4-0.5-5.1,0-7.5c-0.7,3-1.7,6.5-3.6,9c-0.9,1.1-1.5-1.2-1.8-1.8c0.7,1.4-1.3,4.8-2,5.9
				c-0.8,1.2-0.7,1-1.7-0.2c-0.5-0.8-0.8-1.6-1-2.5c-0.2,1-0.4,2-0.8,2.9c-0.4,1.1-1.1,2-1.8,2.8c-0.9,1-2.2-5.8-2.2-6.1
				c0,2.3,0,4.7,0,7c0-0.4,0.1-0.8,0.1-1.2c0.1-0.8-0.2-7.4,0-7.5c-0.2,0.1-0.4,0.1-0.6,0.2c-0.1,0,0,2.6,0,2.8c0,0.5,0,1.1,0,1.6
				c0-0.9,0-1.8,0-2.8c-0.3,2.5-0.8,4.6-2.3,6.7c-2.5,3.5-1.9-10.5-2.6,0.2c0.1-0.7-0.2-7.3,0-7.4c-0.3,0.1-0.6,0.1-1,0.2
				c0,0,0,0.1,0,0.1c-0.2,2.7-0.7,5.1-2.4,7.2c-0.6,0.7-0.4,0.3-1.2-0.7c-1.3-1.7-1-6-1.2,1.5c0-0.7-0.1-7.4,0-7.4
				c-1.5,0.2-2,5-3.2,6.7c-1.7,2.4-2.7-3.7-2.8-4.8c0,1.6,0,3.2,0,4.7c0-0.4,0-0.9,0-1.3c0-0.3,0-4.7,0-4.7
				c-0.8,0.1-1.7,4.6-2.5,5.9c-1.7,2.6-2.6-3.1-2.7-4.2c0,1.3,0,2.5,0,3.8c0-0.4,0-0.8,0-1.2c0-0.2-0.1-3.7,0-3.8
				c-9.9,1.4-11.3,15.1-11.6,23.2c-0.1,3-0.1,6.1,0,9.1c0,2.1-0.3,2.9,1.5,4.2c2.1,1.6,1.8,0.5,3.6-0.9c1.6-1.2,1.4-0.2,1.4,2.5
				c0-2.3,0-4.7,0-7c-0.5,2.7-0.3,5.3-0.3,8c0,4.3,4.4-7.3,4.6,1c0-2.3,0-4.7,0-7c-0.1,0.5-0.2,1.1-0.3,1.6c-0.2,1.5,0.9,6.6,0,7.5
				c2.2-2.2,3.4-4.1,3.7,0.6c0-2.5,0-4.9,0-7.4c-0.1,0.5-0.1,1-0.2,1.5c-0.1,0.9-0.6,7.2,0,7.5c0,0,1.9-1.9,2.2-2.1
				c1.9-1.7,2-1,2.1,2.1c0-2.5,0-4.9,0-7.4c-0.1,0.5-0.1,1-0.2,1.5c-0.2,1.6,0.9,6.4,0,7.5c2.1-2.5,4-5.1,4.2,0.1c0-2.5,0-4.9,0-7.4
				c-0.1,0.5-0.2,1.1-0.2,1.6c-0.2,1.6,0.9,6.4,0,7.5c0.9-1,1.7-1.8,2.8-2.5c1.5-1,1.2,1.5,1.3,2.4c0-2.5,0-5,0-7.5
				c0,0.5-0.1,0.9-0.1,1.4c-0.1,1.4,0.8,6.6,0,7.5c1.4-1.4,2.9-3.7,3.6-1.1c0.4,1.4-0.4,2.4,1.3,1.2c1.6-1.2,1.3-0.1,1.4,2.6
				c0-2.5,0-4.9,0-7.4c-0.2,1.9-0.7,3.5-1.6,5.2c-0.3,0.6-0.4,7.2,0,7.5c0.7,0.5,0.7,1.1,0.9,2c0-1.3,0-2.5,0-3.8c0,0.2,0,0.4,0,0.5
				c0-1.3,0-2.5,0-3.8c-0.7,6.4-3,17.2-10.3,18.9c-4.3,1-9.6-0.9-13.7-2.3c-4.6-1.5-9.1-4.5-13.9-2.6c-5.5,2.2-7.4,5.7-13.8,5.2
				c-4.6-0.4-6.7-4.4-10.7-5.9c-3.4-1.3-7.1-1.6-10.7-1.9c-1.4-0.1-2.8-0.3-4.2-0.4c-1.5-0.2-3.6,1.9-4.9,2.7
				c-4.6,3.1-8.8,6.8-12.5,10.9c-5.6,6-9.7,13.1-12.9,20.6c-2,4.8-3.3,10-5.8,14.5c-0.4,0.8-0.5,6.8,0,7.5c2.5,3,6,3.4,9.5,4.7
				c1.9,0.7,3.6,4.5,4.9,6.1c0.9,1.1,5,4.5,5.1,6c0.2,4.4,3.5,7.7,3.8,11.9c0-2.5,0-5,0-7.5c-0.3,2-0.6,3.7-0.6,5.8
				c0,2.7,0.6,4.6,1,7.2c0-2.3,0-4.7,0-7c-0.1,3.7-3.6,5.8-6.8,6.4c0,2.5,0,5,0,7.5c1.9-3.2,1.6-6.4,1.5-10c0-0.9,0.1-1.9,0-2.8
				c-0.3-3-1.3-2.4-3.2-4.4c-1.4-1.5-1.4-4.9-2-6.7c-0.5-1.7-1.1-3.3-1.7-4.9c-0.8-2.1-2.4-4.1-3.6-6c0.8,1.4-0.1,5.6,0,7.4
				c0.3,7,3.9,13.3,4.3,20.2c0-2.5,0-4.9,0-7.4c-0.5,4,0.3,7.6,0.7,11.5c0-2.5,0-4.9,0-7.4c-0.2,3.7-3.4,5.9-6.9,6.5
				c0,2.5,0,5,0,7.5c2-3.3,1.6-7,1.5-10.8c0-3.3-1.1-4.8-2.4-7.6c-1.8-3.9,0-9.6-2.5-13c-1.9-2.6-3.7-5.4-5.9-7.6
				c-1.9-1.9-5.5-3.1-7.8-2c-2.1,1-4.2,1.3-6.6,1c-1.8-0.2-3.6-0.5-5.4-0.6c-17.7-1.1-35.7,1.4-53.3-0.9c-4.4-0.6-8.7-1.7-12.9-2.9
				c0.7,0.2-3.9,10.6-4.5,11.8c-1,1.9-2.1,3.7-3.4,5.3c-1.2,1.4,0,7.4,0.6,9.2c1.7,5,0.4,11.2-1.4,16.1c-2.7,7.3-6.4,14.3-6.7,22.3
				c-0.2,6.2-0.1,12.1,1,18.1c0.3,1.7,0.6,3.3,0.8,5c0.8,5.6,0.7-5.8,0.2-0.7c-0.3,3.5-1.3,7-1.9,10.5c-0.9,4.7-0.9,9.6-0.6,14.3
				c0.4,6.9,5.5,12.4,10.6,16.4c2.8,2.2,5.9,4,9.1,5.7c3.6,1.9,7.7,3.1,10.9,5.6c1.2,0.9,1.8,2.3,2.1,3.7c0.3,1.2,2,3,2.7,4.2
				c1.8,3.4,3,7.6,3.2,11.4c0-2.5,0-4.9,0-7.4c-2,1.2-5.7-2.6-7-3.6c-2.1-1.7-3.1-1.8-5.4-0.8c-1.3,0.6-3,0.4-4.3,0.3
				c-4.7-0.2-8.4-3.2-12.7-4.6c-3-1-6.2-1.7-9.4-2.1c0.4,0.1-0.4,6.8,0,7.5c0.5,1,0.7,1.8,0.8,2.9c0-2.5,0-4.9,0-7.4
				c-0.1,2.7-1.3,5.6-1.9,8.4c-0.5,2.5-1.4,5-2.4,7.4c-0.5,1.2-1,2.8-2,3.7c0.4-0.4-1.2-4.5-1.3-5c-0.8-2.6-1.8-5.1-3-7.5
				c-0.1-0.1-3.3-0.8-3.7-1c-1-0.4-1.6-1.1-2.2-1.8c-1.4-1.7-0.9-4.7-1.8-6.7c-1.3-2.9-2.5-2.8-5.3-2.4c-3.9,0.5-7.2,2.2-9.8,5.1
				c-2.5,2.6-4.5,3.9-8.2,4.1c-2.8,0.1-3.7,1.2-5.5,3.6c-1.1,1.5-2.3,3.4-4.3,4c-1.4,0.4-0.7-5.5-0.9,0.4c0.1-3.7,1.6-6.9,2.1-10.4
				c0.7-4.7,5-7,8.9-8.9c5.4-2.7,9.3-4.9,11.5-10.8c1.7-4.6,1.8-9.9,2-14.7c0.3-6.4,0.8-12.9,1-19.3c0.4-9.8,2.6-19.2,2.5-29
				c-0.1-10.4-4.5-20-7.6-29.7c-1.8-5.6-1.7-9.6,0.2-15.2c0.5-1.7,1.3-3.3,1.6-5c0.7-3.4,0.5-7.9-0.6-11.2c-3.1-9.1-6.3-18-8.6-27.3
				c-1.6-6.2-2.9-13.3-2.6-19.7c0.1-1.6,1.1-7.8,0-8.8c-12.7-10.9-31.7-9.5-47.2-11.4c-10.3-1.3-20.6-4-30.5-6.9
				c-10.8-3.2-22.4-7-31.3-14c-6.9-5.4-12.3-14.2-13-23c0,2.5,0,5,0,7.5C19.8,85,48.5,80.5,71.5,75c12.9-3.1,25.7-6.4,38.9-8.7
				c7.7-1.3,16.7-1.1,23.9-4c5.1-2,9.5-5.8,14.3-8.4c5.8-3.2,11.6-3.1,18.1-2.2c3.1,0.4,6.2,1.1,9.2,1.9c1.6,0.4,6.4-2.6,8.1-3.2
				c5.6-2.1,11.3-3,17.3-2.6c12.3,0.9,22.2,7,31.8,14.1c3.6,2.7,7.3,5,11.5,6.5c1.7,0.6,3.5,1,5.3,1.4c1.9,0.4,3.2,1.3,4-0.7
				c1.3-3,2.5-6,3.7-9c6.5-15.9,15.5-29.5,31.1-37.7c2.4-1.2,4.8-2.2,7.3-3.1c0.9-0.3,2.5-6,3-7c2-4.3,3.3-5,7.9-5
				c4.7-0.1,8.6,2.7,12.8,4.2c1,0.3,2,0.7,3,1c2.1,0.6,3,1.7,4.1-0.5c1-2.1,1.7-2.9,3.9-3.2c4.6-0.5,8.3,0.5,12.4,2.6
				c5.4,2.8,10.8,2.5,16.7,2.4c4.5-0.1,9,0,13.4-0.4c2.9-0.3,5.8-1,8.7-1.2c4.1-0.4,6.5,3.3,8.4,6.4c3.1,5,5.7,10.2,8.4,15.4
				c1.2,2.4,2.3,4.6,2.5,7.4c0-2.5,0-5,0-7.5c-0.1,1.8-0.5,3.1-1.3,4.8C399,40.8,400.9,44.2,400,46.3z"/>
		</g>
	</g>
	<path fill="#F3EBAE" stroke="#231F20" d="M374.1,51.5c0,0-1.9,5.9,1.5,9.7c0,0,3.5-3.1,2.6-9.9L374.1,51.5z"/>
	<path fill="#F3EBAE" stroke="#231F20" d="M379.7,50.3c0,0-1.9,5.9,1.5,9.7c0,0,3.5-3.1,2.6-9.9L379.7,50.3z"/>
	<path fill="#F3EBAE" stroke="#231F20" d="M385.2,49.5c0,0-1.9,5.9,1.5,9.7c0,0,3.5-3.1,2.6-9.9L385.2,49.5z"/>
	<path fill="#F3EBAE" stroke="#231F20" d="M389.7,46.8c0,0-1.9,5.9,1.5,9.7c0,0,3.5-3.1,2.6-9.9L389.7,46.8z"/>
	<path fill="#F3EBAE" stroke="#231F20" d="M363.1,52.3c0,0-1.9,5.9,1.5,9.7c0,0,3.5-3.1,2.6-9.9L363.1,52.3z"/>
	<path fill="#F3EBAE" stroke="#231F20" d="M367.7,51.3c0,0-1.9,5.9,1.5,9.7c0,0,3.5-3.1,2.6-9.9L367.7,51.3z"/>
	<path fill="#F3EBAE" stroke="#231F20" d="M368.6,51.5c0,0-1.9,5.9,1.5,9.7c0,0,3.5-3.1,2.6-9.9L368.6,51.5z"/>
	<path fill="#201E21" stroke="#231F20" d="M345.2,34.4c0,0,13,2,7.3,5.7C352.6,40.1,350.9,36.8,345.2,34.4z"/>
	<g>
		<path fill="#231F20" d="M279,288.9c-0.8-1.1-2.2-2-4.5-2.4c-9.8-2-13.7,1-24.8-2.2s-23.7-13.3-25.2-25.5s-5.5-19,5-23.2
			s26.5-18.3,29.8-23s7.3-14.2,11.8-19.5s6.2-7.5,4.7-14.7s-2-34.3-15.7-45.2l-39,33.2c0,0,9.7,9.5,3.2,15.3s-15.7,16.7-16.2,24
			s0.5,14.2-10.2,17.5s-4.3,13.3-2.5,19.3s6.7,13.2,5,21s-2.2,11.8-2.2,11.8s-3.2,8.7-6.8,9.3c-2.2,0.4-3.1,1.9-2.9,3.6
			c-1.7,2-2.4,7-2.1,9c0,0,0.8,0.5,2.7-1.8c1.2-1.4,2.3-2,3.1-2.2c1.5,1.1,2.6,0.4,5.8-4.2c4.2-6.2,8.2-9.8,8.2-9.8s2.5,17,5,18.8
			s6.3,4.8,8.2,8.3s5,2.8,7.7,3.2c0.5,0.1,1,0.1,1.7,0c1.1,0.7,2.6,1.8,4,3.8c2.8,4,4.1,3.4,4.1,3.4c0.6-2.4,0.6-7.5-0.5-11.5
			c0.2-0.5,0.2-1.2,0.2-1.8c0,0,10.5,2.2,15.3,3.5s13.3,1.3,13.3,0.8c0-0.1,0.1-0.1,0.2-0.2c0.8-0.1,3.6-0.2,7.1,2.1
			c4,2.7,5.1,1.6,5.1,1.6c-0.3-2-1.6-5.6-3.5-8.7c1.2,0.1,2.5-0.2,3-1.4c0.2-0.5,0.5-1.1,0.9-1.9c1.1-0.2,3.7-0.5,7,1
			c4.4,2,5.3,0.7,5.3,0.7C289.1,297.5,283.3,289,279,288.9z"/>
		<path fill="#201E21" d="M264,126.1l0.4,0C264.2,126,264,126.1,264,126.1z M338.8,172.8c0.3-1.5-0.1-3.4-2.1-5.2
			c-3.4-3.2-4.3-6.5-4.3-6.5s-9.6-6-10.6-7.6c-1-1.6-7.8,0.3-10.9-2.2c-3.1-2.5-11.3-3.1-14.7-6c-3.4-2.9,3.1-5.4,1.9-9.7
			c-1.3-4.3-3.4-12.4-3.4-12.4l-30.1,3c0.5,0.1,1.6,0.8,3.3,3.9c2.6,4.7,7.5,26,17.9,30.7c10.5,4.7,22.8-0.5,27.8,4.9
			c5,5.4,4.2,1.2,6.6,7.5c1.8,4.6,3.1,7.8,5.1,8.6l0.2,0.2c0,0,3,3.6,1.3,7.8c0,0,8.5-3.9,3.2-10.5c0-1.4-1.3-3.4-3.6-7
			c-4-6.2-5.3-10.6-5.3-10.6l4.8,4.5c0,0,3.1,4,4.6,7.5c1,2.3,2.8,3,4.4,2.9c0.7,1.1,2.4,4,1,7.4
			C335.8,183.6,344.6,179.6,338.8,172.8z"/>
	</g>
	<path fill="#F3EBAE" stroke="#231F20" d="M362.5,96.1c0,0,3.9-5,2-9.8c0,0-4.5,1.7-6.1,8.5L362.5,96.1z"/>
	<path fill="#F3EBAE" stroke="#231F20" d="M366.7,97.9c0,0,3.9-5,2-9.8c0,0-4.5,1.7-6.1,8.5L366.7,97.9z"/>
	<path fill="#F3EBAE" stroke="#231F20" d="M370.8,99.9c0,0,3.9-5,2-9.8c0,0-4.5,1.7-6.1,8.5L370.8,99.9z"/>
	<path fill="#F3EBAE" stroke="#231F20" d="M375.2,102.3c0,0,3.9-5,2-9.8c0,0-4.5,1.7-6.1,8.5L375.2,102.3z"/>
	<path fill="#F3EBAE" stroke="#231F20" d="M378.8,104.1c0,0,3.9-5,2-9.8c0,0-4.5,1.7-6.1,8.5L378.8,104.1z"/>
	<path fill="#F3EBAE" stroke="#231F20" d="M359.1,93.5c0,0,3.9-5,2-9.8c0,0-4.5,1.7-6.1,8.5L359.1,93.5z"/>
	<path fill="#F3EBAE" stroke="#231F20" d="M354.8,91.4c0,0,3.9-5,2-9.8c0,0-4.5,1.7-6.1,8.5L354.8,91.4z"/>
	<path fill="#F3EBAE" stroke="#231F20" d="M345.2,34.4c0,0,13,2,7.3,5.7C352.6,40.1,350.9,36.8,345.2,34.4z"/>
	<path fill="#445138" stroke="#231F20" d="M321.1,22.1c0,0,5.8-16.7,8.2-16.8s7.2-1.3,13,2s28.7,8.2,33.2,7.7"/>
	<path fill="#778A59" stroke="#231F20" d="M184.4,52.3c0,0-16.7-5.3-26.8-4.8s-19,11.5-27.8,12.5s-25.3,2.8-52.2,9.8
		s-58,11.8-77-5.8c0,0,1,17,18.5,26.7c17.5,9.7,43,15,54.8,17s44.7,0.2,53.2,17.5C135.6,142.4,184.4,52.3,184.4,52.3z"/>
	<path fill="#778A59" stroke="#231F20" d="M136.2,114.8c-7.5,18.4-16.9,19.8,9.2,31.5c0.6,0.3,15,31.7,60.5,31.2s40.5,0.2,46.5,0.8
		s13.2-5.7,17.2-13.3s7.2-31.3,35-47.8l8.4,0.9c4,0.6,9.2,1.7,10.8,3.8c2.7,3.5,8,4.5,12.3,3.3c4.3-1.2,7.5-8.2,19.2-4.8
		s-25-16-25-16l-29-4.3l-31-33.1c0,0-13.7,1.8-25.7-2.2s-17.7-15.2-36.5-19.5s-24.3,3-44.8,9.2c-5.9,1.8-14.4,8.1-22.2,16.8"/>
	<path fill="#964F4F" stroke="#231F20" d="M283.4,47.6c4.8-0.6,10.9,0.7,13,9.9c3.7,16,14.7,14.2,19.2,14.5s11.5-1.7,13.3,4.3
		s15.7,16,21.5,18.7c5.8,2.7,23.3,6,28.3,8c3.6,1.5,3.9-0.1,2.9,4.2l-0.4,0.8c0.6-10.1-4-10.8-9-13.1c-5-2.3-21.2-11.2-21.2-11.2
		s-1.5-14,3.5-23.5s6.3-3.8,30-9.2c8.8-2,13.1-5,15.2-8c-0.5-2.3-1.7-4.8-3.7-7.3c-7.5-9.2-39,8.2-51.3,6.5
		c-12.3-1.7-14.3-2.7-21.5,2.8s-22.8,4.3-28,0.8s-12.3-2-12.3-2"/>
	<path fill="#EAB932" stroke="#231F20" d="M308.4,24.9c0,0,0-6.8,7-7.2c7-0.4,6.1,6.2,8.4,7.3c0,0-4,3.1-7.6,2.6
		S308.4,24.9,308.4,24.9z"/>
	<circle fill="#231F20" stroke="#231F20" cx="316.4" cy="22.3" r="2.4"/>
	<circle fill="#FFFFFF" stroke="#231F20" cx="314.4" cy="20.9" r="1.3"/>
	<path fill="#CD6767" stroke="#231F20" d="M314.4,71.9L314.4,71.9c0.3,0,0.5,0,0.8,0c0.5,0,1.1,0,1.6,0c-0.4,0-0.9,0-1.3,0
		C315.2,71.9,314.8,71.9,314.4,71.9z M360.4,89.7c-9.9-9-21.1-15.8-27-18.3c-2.9-1.2-7.6-1.9-11.7-2.3c0,0.9,0,1.8,0,2.8
		c-0.1,0-0.2,0-0.4,0c3.1,0.1,6,0.8,7.1,4.4c1.8,6,15.7,16,21.5,18.7c4,1.8,13.3,3.9,20.4,5.7C368.5,97.9,365.3,94.1,360.4,89.7z"/>
	<path fill="#F3EBAE" stroke="#231F20" d="M352.5,38.8c0,0-2.1,6.7,1.7,10.9c0,0,3.9-3.4,2.9-11.1L352.5,38.8z"/>
	<path fill="#F3EBAE" stroke="#231F20" d="M347.5,38.6c0,0-2.1,6.7,1.7,10.9c0,0,3.9-3.4,2.9-11.1L347.5,38.6z"/>
	<path fill="#F3EBAE" stroke="#231F20" d="M381.9,107.2c0,0,3.1-6.3-0.1-11c0,0-4.4,2.8-4.6,10.5L381.9,107.2z"/>
	<path fill="#F3EBAE" stroke="#231F20" d="M341.5,38c0,0-2.1,6.7,1.7,10.9c0,0,3.9-3.4,2.9-11.1L341.5,38z"/>
	<path fill="#F3EBAE" stroke="#231F20" d="M336.7,36.5c0,0-2.1,6.7,1.7,10.9c0,0,3.9-3.4,2.9-11.1L336.7,36.5z"/>
	<path fill="#F3EBAE" stroke="#231F20" d="M394.4,43.5c0,0-1.9,5.9,1.5,9.7c0,0,3.5-3.1,2.6-9.9L394.4,43.5z"/>
	<path fill="#F3EBAE" stroke="#231F20" d="M395.6,40.3c0,0-1.9,5.9,1.5,9.7c0,0,3.5-3.1,2.6-9.9L395.6,40.3z"/>
	<path fill="#F3EBAE" stroke="#231F20" d="M394.4,35.2c0,0-1.9,5.9,1.5,9.7c0,0,3.5-3.1,2.6-9.9L394.4,35.2z"/>
	<path fill="#F3EBAE" stroke="#231F20" d="M391.2,32.5c0,0-1.9,5.9,1.5,9.7c0,0,3.5-3.1,2.6-9.9L391.2,32.5z"/>
	<path fill="#F3EBAE" stroke="#231F20" d="M387.4,31.7c0,0-1.9,5.9,1.5,9.7c0,0,3.5-3.1,2.6-9.9L387.4,31.7z"/>
	<path fill="#F3EBAE" stroke="#231F20" d="M383.2,31.2c0,0-1.9,5.9,1.5,9.7c0,0,3.5-3.1,2.6-9.9L383.2,31.2z"/>
	<path fill="#F3EBAE" stroke="#231F20" d="M378.1,32.5c0,0-1.9,5.9,1.5,9.7c0,0,3.5-3.1,2.6-9.9L378.1,32.5z"/>
	<path fill="#F3EBAE" stroke="#231F20" d="M373.2,33.5c0,0-1.9,5.9,1.5,9.7c0,0,3.5-3.1,2.6-9.9L373.2,33.5z"/>
	<path fill="#F3EBAE" stroke="#231F20" d="M368.4,34.8c0,0-1.9,5.9,1.5,9.7c0,0,3.5-3.1,2.6-9.9L368.4,34.8z"/>
	<path fill="#F3EBAE" stroke="#231F20" d="M363.6,36.5c0,0-1.9,5.9,1.5,9.7c0,0,3.5-3.1,2.6-9.9L363.6,36.5z"/>
	<path fill="#F3EBAE" stroke="#231F20" d="M358.4,38.5c0,0-1.9,5.9,1.5,9.7c0,0,3.5-3.1,2.6-9.9L358.4,38.5z"/>
	<path fill="#778A59" stroke="#231F20" d="M399.7,42.9C399.7,42.9,399.7,42.9,399.7,42.9 M381.3,106.4c0-1,0-1.9-0.2-2.7
		c-0.5-0.1-1.3-0.3-2.4-0.7c-5-2-22.5-5.3-28.3-8c-5.8-2.7-19.7-12.7-21.5-18.7s-8.8-4-13.3-4.3s-15.5,1.5-19.2-14.5
		c-2.1-9.1-8.2-10.4-13-9.9l-0.5-3.8c0,0,7.2-1.5,12.3,2s20.8,4.7,28-0.8s9.2-4.5,21.5-2.8c12.3,1.7,43.8-15.7,51.3-6.5
		c2,2.5,3.1,5,3.7,7.3c3.4-5.1,0.2-10.3,0.2-10.3s-4.2-8.7-9.5-17.7s-7.7-6.2-15.5-5.3c-7.8,0.8-3.5,0-51.5,1.3
		s-59.7,30.3-66.5,47.2c-6.8,16.8-9.2,21.3-9.2,21.3"/>
	<path fill="#D1CA8B" stroke="#231F20" d="M282.7,47.6c4.8-0.6,11.6,0.7,13.7,9.9c3.7,16,14.7,14.2,19.2,14.5c1.8,0.1,4-0.1,6.2-0.1
		c-0.4-21,7.2-28.5,12.6-31.1c-4.2-0.2-6.7,0.7-11.1,4.1c-7.2,5.5-22.8,4.3-28,0.8s-13-2-13-2"/>
	<path fill="#778A59" stroke="#231F20" d="M294.1,20.8c0,0,5.8-16.7,8.2-16.8c2.3-0.2,7.2-1.3,13,2c5.8,3.3,28.7,8.2,33.2,7.7"/>
	<path fill="#EAB932" stroke="#231F20" d="M308.4,24.9c0,0,0-6.8,7-7.2c7-0.4,6.1,6.2,8.4,7.3c0,0-4,3.1-7.6,2.6
		S308.4,24.9,308.4,24.9z"/>
	<circle fill="#231F20" stroke="#231F20" cx="316.4" cy="22.3" r="2.4"/>
	<circle fill="#FFFFFF" cx="314.4" cy="20.9" r="1.3"/>
	<g>
		<path fill="#445138" d="M272.9,66.3c-12.8,44,13,45,2.5,52s-6.3,10.8-19.8,24.8c-13.5,14-20.3,11.2-20.3,11.2
			c-55.5,5.5-64.5-7-79.3-32.5C141.4,96.3,111.9,98,55.4,92.3c-29.6-3-43.9-9.9-50.7-15.7c2.7,4.8,7.1,10.1,14.4,14.1
			c17.5,9.7,43,15,54.8,17c10.3,1.7,36.6,0.6,48.8,11.7c-0.6,8.6,0,19.5,3.5,32.1c9.3,33,10,21.3,6,34.3s1.2,21.8,4.3,32.2
			c1.8,6,3.2,10.1,3.6,14.2l25.3-0.9c2-8,6-14.6,6.8-19.4c1.2-7.5,2.5-13.7-0.3-21c0,0,5.2-6.2,7.9-17.1c7.3,2.4,15.9,3.9,26.1,3.8
			c45.5-0.5,40.5,0.2,46.5,0.8c2.3,0.3,4.7-0.5,7-1.9c4,1.2,7.2,2.6,8.7,5.5c3.6,7,3.9,2.4,4.7,9.7c0.5,5.3,1,9,2.9,10.4l0.2,0.2
			c0,0,2.1,4.6-0.8,8.5c0,0,9.6-1.6,6.1-10c0.4-1.4-0.4-3.9-1.8-8.3c-2.3-7.6-2.4-12.5-2.4-12.5l3.6,6c0,0,2,5,2.7,9.1
			c0.4,2.7,2,3.9,3.7,4.2c0.4,1.3,1.3,4.9-1,7.9c0,0,10-1.6,5.9-10.4c0.8-1.5,0.8-3.6-0.7-6c-2.6-4.3-2.6-7.9-2.6-7.9
			s-8.1-9-8.6-10.9s-8-1.9-10.5-5.4c-0.1-0.1-0.2-0.3-0.3-0.4c0.2-0.3,0.3-0.6,0.5-0.9c4-7.7,7.2-31.3,35-47.8l8.4,0.9
			c4,0.6,9.2,1.7,10.8,3.8c2.7,3.5,8,4.5,12.3,3.3c3.4-0.9,6.1-5.4,12.7-5.7c7.1,2.7,13.2,4.8,15.6,5.2c6.2,1,12.3,2.7,15.7-9.2
			L272.9,66.3z"/>
	</g>
	<path fill="#778A59" stroke="#231F20" d="M129.8,90.4c0,0-12.9,28-3.5,61s10,21.3,6,34.3s1.2,21.8,4.3,32.2s4.8,15,2.8,23.8
		s-1.2,13.7-2.2,25.7s0.7,27.2-8.7,32.3s-14.8,5.7-14.5,16c0,0-1,5.7,8.8,5.7s5.5-8.3,21.2-9.5c0,0,3.2,2.5,3.2,6.7
		s3.7,5.8,10.7,5.8s7.5-7.8,5.8-10.2c0,0,10.7,1.5,16.2,5.2s12.3,0,12.3,0s11.2-10.8-1.7-16.2s-29.3-15.2-26.5-30.3
		s3.3-12.8,0.7-27.3s6.3-26.3,7.5-33.8s2.5-13.7-0.3-21c0,0,7-8.3,9-22.5c0,0-17.6-25.2-17.8-41.9"/>
	<path fill="#231F20" stroke="#231F20" d="M124.4,319.6c0,0-0.1-10.1-6.1-10.2c-6-0.1-6.9,14.7-5.7,19.5c0,0,1.6,0.7,4.8-3.9
		C120.6,320.3,124.4,319.6,124.4,319.6z"/>
	<path fill="#231F20" stroke="#231F20" d="M158.3,336.7c0,0-2.4-11.4-6.4-15.4c0,0,0.2-9,4.8-9s6.4,4,6.4,9.5S159,336.4,158.3,336.7
		z"/>
	<g>
		<path fill="#778A59" stroke="#231F20" d="M228.9,126.8c0,0,1.3-0.6,2.7,5c1.4,5.6,0.5,29.1,9.8,37c9.3,7.9,23.2,6,26.8,13.1
			s3.9,2.4,4.7,9.7c0.7,7.2,1.4,11.5,5.5,10.9s3.4-2.5,1.1-10.2c-2.3-7.6-2.4-12.5-2.4-12.5l3.6,6c0,0,2,5,2.7,9.1
			c0.6,4.1,3.9,4.8,6.2,4s4.3-4,1.8-8.2c-2.6-4.3-2.6-7.9-2.6-7.9s-8.1-9-8.6-10.9s-8-1.9-10.5-5.4c-2.5-3.5-10.6-6.5-13.3-10.5
			c-2.6-4,4.6-4.7,4.5-9.5c-0.1-4.8-0.1-13.9-0.1-13.9"/>
		<path fill="#201E21" stroke="#231F20" d="M286.7,198.5c0,0,2.1,4.6-0.8,8.5c0,0,10.5-1.7,5.6-11.1c0,0-3.9-0.1-4.9,2.4"/>
		<path fill="#201E21" stroke="#231F20" d="M275.9,202.1c0,0,2.1,4.6-0.8,8.5c0,0,10.5-1.7,5.6-11.1c0,0-3.9-0.1-4.9,2.4"/>
	</g>
	<path fill="#445138" stroke="#231F20" d="M189.7,320.9c0,0,2.3-0.9,2.8-1.5c-1-1-3.3-3.5-4.3-3.2c-3.7,1.5-10.4-1.3-14.9-4.8
		s-14.8-7.9-14.8-7.9l0.2,5.5c1.8,1.3,2.8,2.9,3.6,4.4c2.4,0.4,11,1.9,15.6,5C183.5,322.1,189.7,320.9,189.7,320.9z"/>
	<path fill="#231F20" stroke="#231F20" d="M188.4,319c0,0-2.4-9.9,3.5-11.5c5.9-1.7,10.5,12.7,10.5,17.7c0,0-1.4,1.1-5.8-2.6
		C192.4,318.7,188.4,319,188.4,319z"/>
	<path fill="#F3EBAE" stroke="#231F20" d="M331.3,84.4c0,0,4.7-5.2,2.9-10.6c0,0-5,1.5-7.3,8.8L331.3,84.4z"/>
	<path fill="#F3EBAE" stroke="#231F20" d="M335.7,86.8c0,0,4.7-5.2,2.9-10.6c0,0-5,1.5-7.3,8.8L335.7,86.8z"/>
	<path fill="#F3EBAE" stroke="#231F20" d="M340.3,90.2c0,0,4.7-5.2,2.9-10.6c0,0-5,1.5-7.3,8.8L340.3,90.2z"/>
	<path fill="#F3EBAE" stroke="#231F20" d="M345.3,93.9c0,0,4.7-5.2,2.9-10.6c0,0-5,1.5-7.3,8.8L345.3,93.9z"/>
	<path fill="#F3EBAE" stroke="#231F20" d="M349.7,97.1c0,0,4.7-5.2,2.9-10.6c0,0-5,1.5-7.3,8.8L349.7,97.1z"/>
	<path fill="#F3EBAE" stroke="#231F20" d="M355.5,99.8c0,0,4.3-5.5,2.2-10.8c0,0-4.9,1.8-6.7,9.3L355.5,99.8z"/>
	<path fill="#F3EBAE" stroke="#231F20" d="M361,102.3c0,0,4.3-5.5,2.2-10.8c0,0-4.9,1.8-6.7,9.3L361,102.3z"/>
	<path fill="#F3EBAE" stroke="#231F20" d="M366.2,104.3c0,0,4.3-5.5,2.2-10.8c0,0-4.9,1.8-6.7,9.3L366.2,104.3z"/>
	<path fill="#F3EBAE" stroke="#231F20" d="M371.5,105.6c0,0,4.3-5.5,2.2-10.8c0,0-4.9,1.8-6.7,9.3L371.5,105.6z"/>
	<path fill="#F3EBAE" stroke="#231F20" d="M378.1,106.7c0,0,3.1-6.3-0.1-11c0,0-4.4,2.8-4.6,10.5L378.1,106.7z"/>
	<path fill="#778A59" stroke="#231F20" d="M272,61.3c0,0-3,46,15.5,45.5s24.5-2.7,31.8,0.7s38.8,16.2,45,17.2s12.3,2.7,15.7-9.2
		c3.3-11.8,3.3-10.5-1.7-12.5s-22.5-5.3-28.3-8c-5.8-2.7-19.7-12.7-21.5-18.7s-8.8-4-13.3-4.3s-15.5,1.5-19.2-14.5s-19.5-8-19.5-8"
		/>
</g>
</svg>
